<svg width="22" height="20" viewBox="0 0 22 20" fill="none" xmlns="http://www.w3.org/2000/svg">
<path d="M9.85264 0.340579C9.23863 -0.123904 8.72715 -0.503363 8.71174 -0.504976C8.6969 -0.500538 8.76171 0.357003 8.85397 1.41033C8.94896 2.46036 9.08763 4.04338 9.16681 4.92399L9.31047 6.52791L7.60666 6.09195L5.90011 5.6593L5.04475 4.14625C4.57012 3.31172 4.17286 2.61949 4.15302 2.60303C4.06702 2.53172 1.8089 1.97664 1.80737 2.0256C1.80689 2.05311 1.79434 2.76835 1.78155 3.61178C1.76168 4.93496 1.74515 5.15011 1.67368 5.16899C1.25031 5.27566 0.95289 5.58723 0.939433 5.93331C0.926859 6.19082 1.06749 6.55303 1.29709 6.85506C1.95388 7.71225 3.73815 8.87917 5.19407 9.40541C5.58888 9.54859 19.1365 13.0959 19.6302 13.1871C19.8443 13.2251 20.181 13.2364 20.4505 13.2142C20.8504 13.183 20.9395 13.1564 21.129 13.0288C21.6628 12.6677 21.7445 12.0711 21.3695 11.2578C21.141 10.7726 20.9241 10.4755 20.4907 10.0826C20.0639 9.69526 19.7454 9.48698 19.1583 9.21224C18.667 8.98348 18.2618 8.85958 16.1071 8.30094L14.2678 7.81965L12.9118 4.73602L11.5592 1.65514L11.2653 1.41709C11.1038 1.28874 10.4694 0.801754 9.85264 0.340579ZM12.2109 5.39958L13.6001 8.57776L15.7554 9.14245C16.9412 9.45589 18.0968 9.77215 18.3236 9.84862C19.377 10.2141 20.1773 10.8443 20.528 11.5927C20.6618 11.8823 20.7336 12.193 20.6787 12.2592C20.6184 12.3319 20.175 12.355 19.831 12.2986C19.4408 12.2374 5.98736 8.71797 5.51769 8.55737C4.46433 8.1919 2.88522 7.22858 2.26248 6.57266C2.10968 6.40689 1.95519 6.22296 1.91872 6.15923L1.85628 6.04605L2.25399 6.02417L2.64839 5.99955L2.6714 4.61199C2.68218 3.84504 2.69546 3.20297 2.70587 3.18369C2.71732 3.14295 3.4792 3.32814 3.55527 3.39122C3.57843 3.41042 3.97899 4.10539 4.45032 4.93718L5.3051 6.44418L7.06176 6.89046C8.03064 7.13566 9.14981 7.42176 9.55003 7.52476C9.94694 7.62502 10.2805 7.70067 10.2915 7.68744C10.3025 7.67421 10.189 6.26278 10.0412 4.54939L9.77113 1.42844L10.115 1.68013C10.8988 2.26303 10.6501 1.82241 12.2109 5.39958Z" fill="#CA0F2E"/>
<path d="M0.730469 18.7559V19.207H11.1289H21.5273V18.7559V18.3047H11.1289H0.730469V18.7559Z" fill="#CA0F2E"/>
</svg>
