<svg width="20" height="20" viewBox="0 0 20 20" fill="none" xmlns="http://www.w3.org/2000/svg">
<path d="M14.7539 0.878883C14.8203 0.906227 14.9063 0.988258 14.9414 1.05857C15.0039 1.17576 15 1.26951 14.8594 2.83201L14.7109 4.48435L14.9961 4.78513C15.6484 5.47263 16.0742 6.36326 16.2109 7.32419C16.2305 7.48044 16.25 8.6406 16.25 10.0664V12.5312L16.5039 12.6172C16.9727 12.7734 17.4023 13.1289 17.6406 13.5508C17.8438 13.914 17.8984 14.1601 17.9219 14.7656C17.9453 15.5508 17.8945 15.9101 17.6914 16.3203C17.4297 16.8554 17.0313 17.2031 16.4727 17.3867L16.2188 17.4687L16.1367 17.7226C15.9609 18.2539 15.6211 18.6601 15.1211 18.9219C14.625 19.1836 14.7305 19.1758 10 19.1758C5.26954 19.1758 5.375 19.1836 4.875 18.9179C4.38282 18.6601 4.03907 18.25 3.86328 17.7226L3.78125 17.4687L3.52735 17.3867C3.17969 17.2734 2.95313 17.1328 2.69532 16.875C2.41407 16.5937 2.19532 16.1758 2.125 15.789C2.0586 15.4023 2.0586 14.5976 2.125 14.2109C2.25782 13.4765 2.79688 12.8515 3.49219 12.6172L3.7461 12.5351L3.75782 9.8906L3.77344 7.24607L3.87891 6.85154C4.08594 6.04685 4.47657 5.33591 5.01172 4.78123L5.29688 4.48435L5.14453 2.83591C5.00782 1.30857 5 1.18357 5.0586 1.06248C5.16407 0.835915 5.25782 0.82029 6.46875 0.82029C7.60157 0.82029 7.73047 0.835915 7.83594 1.00388C7.85938 1.04295 8.06641 1.5781 8.30078 2.19529L8.72266 3.32029H10H11.2773L11.6992 2.19529C11.9336 1.5781 12.1406 1.04295 12.1641 1.00388C12.2695 0.835915 12.3945 0.82029 13.543 0.82029C14.3789 0.824196 14.6563 0.835915 14.7539 0.878883ZM12.5391 2.33201C12.4023 2.69529 12.2617 3.07029 12.2227 3.17185L12.1523 3.35154L12.4336 3.39841C12.8125 3.46091 13.2852 3.61326 13.6094 3.77732C13.7539 3.85154 13.8867 3.89841 13.9023 3.8867C13.9141 3.87107 13.9688 3.37107 14.0234 2.76951L14.125 1.67966H13.4531H12.7852L12.5391 2.33201ZM5.97657 2.77341C6.03125 3.37107 6.08985 3.87498 6.10157 3.8867C6.11328 3.90232 6.23438 3.85545 6.36328 3.78904C6.67969 3.62888 7.21875 3.45701 7.56641 3.39841L7.84766 3.35154L7.77735 3.17185C7.73828 3.07029 7.59766 2.69529 7.46094 2.33201L7.21485 1.67966H6.54688H5.875L5.97657 2.77341ZM7.64844 4.23435C6.13672 4.52341 4.98828 5.65232 4.66407 7.16795C4.59766 7.47263 4.54297 8.39841 4.58985 8.39841C4.60547 8.39841 4.72266 8.33591 4.84766 8.26169C5.19532 8.04685 6.0625 7.64451 6.54297 7.46873C7.05469 7.28123 7.9336 7.06248 8.55469 6.96482C9.11328 6.87888 10.8164 6.86716 11.3086 6.94529C12.8281 7.18748 14.0898 7.62107 15.1602 8.2656C15.2813 8.33982 15.3945 8.39841 15.4102 8.39841C15.457 8.39841 15.4023 7.47263 15.3359 7.16795C15.0156 5.67576 13.8984 4.56638 12.3945 4.24216C12.0117 4.16013 8.07032 4.15232 7.64844 4.23435ZM8.98438 7.77732C8.13282 7.86716 6.70703 8.24216 6.66407 8.3906C6.62891 8.51169 6.44922 10.0429 6.39063 10.7422C6.25 12.3398 6.22657 14.207 6.31641 15.8086L6.33985 16.25H10H13.6602L13.6836 15.8281C13.7773 14.2695 13.75 12.3633 13.6133 10.7422C13.5547 10.0625 13.375 8.5156 13.3359 8.39451C13.3203 8.33201 12.7109 8.10544 12.2461 7.99216C11.2227 7.73826 10.0781 7.66013 8.98438 7.77732ZM14.2773 9.15232C14.6406 11.7539 14.6641 14.9765 14.3359 17.5898C14.2344 18.3945 14.2266 18.3359 14.4023 18.3008C14.7773 18.2304 15.1367 17.9453 15.3086 17.582L15.4102 17.3633L15.4219 13.3906L15.4336 9.41794L15.2266 9.28123C15.0039 9.13669 14.2461 8.71482 14.2305 8.73044C14.2227 8.73435 14.2461 8.92576 14.2773 9.15232ZM5.25391 8.99607C5.0586 9.10544 4.82813 9.24216 4.73438 9.30466L4.56641 9.41794L4.57813 13.3906L4.58985 17.3633L4.69141 17.5781C4.86719 17.9492 5.21875 18.2304 5.59766 18.3008C5.76953 18.3359 5.76563 18.3633 5.6836 17.7539C5.35547 15.2656 5.34766 12.2109 5.66407 9.60935C5.70703 9.25388 5.75391 8.90623 5.76563 8.83201C5.79688 8.68357 5.84766 8.66404 5.25391 8.99607ZM16.25 15V16.6015L16.4102 16.5195C16.6484 16.3984 16.8984 16.125 16.9883 15.875C17.0586 15.6914 17.0703 15.5703 17.0703 15C17.0703 14.2187 17.0195 14.0195 16.7422 13.7344C16.6094 13.6015 16.3438 13.414 16.2578 13.3984C16.2539 13.3984 16.25 14.1211 16.25 15ZM3.25782 13.7344C2.98047 14.0195 2.92969 14.2187 2.92969 15C2.92969 15.5703 2.94141 15.6914 3.01172 15.875C3.10157 16.125 3.35157 16.3984 3.58985 16.5195L3.75 16.6015V15V13.3984L3.58985 13.4804C3.5 13.5234 3.35157 13.6406 3.25782 13.7344ZM12.5 17.6953V18.3203H12.9492H13.3945L13.418 18.1914C13.4727 17.875 13.5547 17.2734 13.5547 17.1758V17.0703H13.0273H12.5V17.6953ZM8.32813 17.7031L8.31641 18.3203H10H11.6797V17.7226C11.6797 17.3906 11.668 17.1094 11.6523 17.0976C11.6406 17.082 10.8867 17.0742 9.98438 17.0781L8.33985 17.0898L8.32813 17.7031ZM6.44532 17.1758C6.44532 17.2734 6.52735 17.875 6.58203 18.1914L6.60547 18.3203H7.05078H7.5V17.6953V17.0703H6.97266H6.44532V17.1758Z" fill="#CA0F2E"/>
</svg>
