<svg width="24" height="24" viewBox="0 0 24 24" fill="none" xmlns="http://www.w3.org/2000/svg">
<path d="M11.5315 0.09375C11.0909 0.328125 10.969 0.61875 10.969 1.45781V2.05781L10.7956 2.08594C8.16123 2.53125 5.96279 4.52812 5.22685 7.14375C5.02529 7.84687 5.00654 8.07656 4.96904 10.4297C4.93623 12.6656 4.93154 12.7406 4.81435 13.2187C4.46279 14.6672 3.76904 15.8438 2.70029 16.8C2.11904 17.325 1.88466 17.9203 2.01591 18.5766C2.12841 19.1578 2.46591 19.5891 3.00029 19.8469L3.30498 19.9922H12.0003H20.6956L21.0003 19.8469C21.9003 19.4156 22.2659 18.3891 21.844 17.4937C21.7409 17.2687 21.5769 17.0719 21.1081 16.6078C20.0675 15.5766 19.5237 14.6109 19.1862 13.2187C19.069 12.7406 19.0644 12.6656 19.0315 10.4297C18.994 8.07656 18.9753 7.84687 18.7737 7.14375C18.2628 5.32969 17.0253 3.76406 15.4034 2.86406C14.7472 2.50312 13.9269 2.2125 13.2097 2.09062L13.0315 2.05781V1.46719C13.0315 1.14375 13.0081 0.796875 12.98 0.698437C12.9097 0.464062 12.6894 0.206249 12.4644 0.09375C12.2253 -0.0281258 11.7612 -0.0281258 11.5315 0.09375Z" fill="#CA0F2E"/>
<path d="M8.29688 21.0187C8.29688 21.0984 8.51719 21.7266 8.61563 21.9141C8.97656 22.6312 9.59063 23.2547 10.275 23.5969C10.875 23.8969 11.3156 24 12 24C12.6844 24 13.125 23.8969 13.725 23.5969C14.4094 23.2547 15.0234 22.6312 15.3844 21.9141C15.4828 21.7266 15.7031 21.0984 15.7031 21.0187C15.7031 21.0094 14.0391 21 12 21C9.96563 21 8.29688 21.0094 8.29688 21.0187Z" fill="#CA0F2E"/>
</svg>
