<svg width="22" height="22" viewBox="0 0 22 22" fill="none" xmlns="http://www.w3.org/2000/svg">
<path d="M7.48509 0.047266C6.89642 0.146093 6.22181 0.451172 5.68041 0.855078C4.90267 1.44375 4.40423 2.1957 4.12923 3.17969L4.01752 3.58789L4.00463 8.29297C3.99173 13.4664 3.98744 13.3547 4.24955 13.8145C4.48158 14.2184 4.93705 14.5793 5.36244 14.6953C5.50853 14.734 5.54291 14.7598 5.52142 14.8113C5.50853 14.85 4.83822 16.1004 4.03041 17.5914C2.15267 21.059 2.32025 20.7152 2.32025 21.0676C2.32025 21.652 2.6597 22 3.22689 22C3.68666 22 3.92298 21.8324 4.26244 21.2523L4.38275 21.0547H10.9999H17.6171L17.7374 21.2523C18.0812 21.8367 18.3003 22 18.7343 22C19.3359 22 19.6796 21.6605 19.6796 21.0762C19.6796 20.857 19.6538 20.741 19.5679 20.5691C19.5077 20.4445 18.7687 19.0867 17.9222 17.5527L16.3882 14.7598L16.5859 14.691C17.3163 14.4418 17.8062 13.8746 17.9222 13.1398C17.948 12.9723 17.9609 11.1418 17.948 8.22852C17.9351 4.07344 17.9265 3.55781 17.862 3.29141C17.4839 1.73164 16.4054 0.592968 14.8628 0.120312L14.5449 0.0257816L11.1288 0.0171871C9.23822 0.0128899 7.6097 0.0257816 7.48509 0.047266ZM14.2011 2.16992C14.6308 2.27734 15.0605 2.51797 15.3827 2.82305C15.7609 3.17539 15.9671 3.48906 16.1304 3.95312L16.2636 4.31836L16.2765 5.67188C16.2894 6.57422 16.2765 7.09844 16.2464 7.24453C16.1863 7.51094 15.9886 7.76016 15.7523 7.86758C15.5847 7.94492 15.357 7.94922 11.0085 7.94922C6.88783 7.94922 6.42806 7.94062 6.30345 7.88047C6.1058 7.78164 5.97689 7.65273 5.87377 7.45508C5.79212 7.29609 5.78353 7.18437 5.74916 5.97266C5.71908 4.64062 5.73627 4.32266 5.86947 3.91875C6.14447 3.09805 6.89642 2.39336 7.73431 2.17422C8.09525 2.07969 13.8316 2.07539 14.2011 2.16992ZM7.66127 10.3684C7.94056 10.4973 8.18978 10.7379 8.33588 11.0258C8.42611 11.202 8.4433 11.2965 8.4433 11.6016C8.4433 12.0227 8.34877 12.2633 8.06517 12.5555C7.69134 12.9379 7.02962 13.0754 6.56556 12.8605C5.99408 12.5984 5.65033 11.9625 5.75775 11.3781C5.92962 10.4758 6.84486 9.99453 7.66127 10.3684ZM15.4988 10.4414C16.341 10.8539 16.5171 11.9324 15.8468 12.5984C15.5546 12.8906 15.3011 12.998 14.8886 12.998C14.4847 12.998 14.2269 12.8906 13.9433 12.6113C13.6554 12.3277 13.5566 12.0742 13.5566 11.6445C13.5566 11.3352 13.5738 11.2449 13.6726 11.0645C14.0464 10.3512 14.7898 10.0977 15.4988 10.4414ZM14.5921 15.5031L14.9874 16.2207L12.9937 16.2336C11.898 16.2379 10.1019 16.2379 9.00619 16.2336L7.01244 16.2207L7.40775 15.5031L7.79877 14.7812H10.9999H14.2011L14.5921 15.5031ZM16.2937 18.6141C16.5601 19.091 16.7878 19.4992 16.7921 19.5164C16.8007 19.5336 14.1925 19.5508 10.9999 19.5508C7.80736 19.5508 5.19916 19.5336 5.20775 19.5164C5.21634 19.4992 5.43978 19.091 5.70619 18.6141L6.19603 17.7461H10.9999H15.8038L16.2937 18.6141Z" fill="#CA0F2E"/>
</svg>
