<svg width="20" height="20" viewBox="0 0 20 20" fill="none" xmlns="http://www.w3.org/2000/svg">
<g clip-path="url(#clip0_319_579)">
<path d="M7.79297 0.0582523C5.06641 0.23794 3.29688 0.687159 2.62109 1.37075C2.26563 1.73403 1.99219 2.71059 1.8125 4.28872C1.74609 4.87075 1.74219 4.88638 1.64453 4.90981C1.37891 4.97231 1.07813 5.20278 0.945313 5.44497C0.886719 5.55044 0.878906 5.73403 0.867188 6.80435C0.855469 8.00356 0.859375 8.05044 0.941406 8.23794C1.02344 8.43325 1.25 8.67544 1.41797 8.75356L1.50391 8.79263L1.50781 11.8278C1.50781 14.2575 1.52344 15.0778 1.57813 15.9372C1.64844 17.0895 1.67188 17.2223 1.80469 17.4215C1.98828 17.6911 2.05078 17.7106 2.66797 17.7145H3.22266L3.24219 18.4958C3.26172 19.2575 3.26563 19.2809 3.36719 19.4567C3.63281 19.9059 4.28125 20.109 4.88281 19.9254C5.10938 19.8551 5.19922 19.8043 5.37109 19.6364C5.50781 19.4997 5.59375 19.3825 5.62109 19.277C5.64453 19.1911 5.66406 18.8004 5.66406 18.4059V17.695H10.1719H14.6797L14.6914 18.4684L14.707 19.2458L14.8242 19.4372C15.1406 19.9489 15.9023 20.1442 16.5078 19.8668C16.7773 19.7418 16.9297 19.609 17.043 19.3942C17.1211 19.2536 17.1289 19.1637 17.1406 18.4645L17.1563 17.6872L17.4219 17.7145C17.7969 17.7536 18.0977 17.6833 18.2773 17.5192L18.418 17.3903L18.4492 15.4215C18.4648 14.3395 18.4727 12.4059 18.4648 11.1247L18.4492 8.79263L18.5547 8.75356C18.7305 8.69497 18.9688 8.44888 19.0586 8.23794C19.1406 8.05044 19.1445 8.00356 19.1328 6.80435C19.1211 5.42935 19.125 5.45669 18.8438 5.18716C18.7031 5.05044 18.5156 4.94888 18.3203 4.90591C18.2227 4.88638 18.2188 4.87075 18.1484 4.30825C17.9844 2.91372 17.7266 1.99966 17.3789 1.55825C17.1563 1.277 16.5273 0.941065 15.8086 0.726221C13.918 0.155909 10.5664 -0.125341 7.79297 0.0582523ZM14.4922 2.53872V3.24185H9.92188H5.35156V2.53872V1.8356H9.92188H14.4922V2.53872ZM16.0938 7.22622V10.4684H9.92188H3.75V7.22622V3.98403H9.92188H16.0938V7.22622ZM6.01953 13.6637C6.30469 13.8004 6.50781 14.0036 6.64453 14.2809C6.75391 14.5036 6.77344 14.5778 6.77344 14.8356C6.76953 16.0075 5.37109 16.5661 4.55469 15.7223C4.14453 15.3004 4.08984 14.609 4.42578 14.1129C4.56641 13.9098 4.89844 13.6598 5.11719 13.5973C5.34375 13.5309 5.82031 13.5661 6.01953 13.6637ZM14.9648 13.6637C15.25 13.8004 15.4531 14.0036 15.5898 14.2809C15.6992 14.5036 15.7188 14.5778 15.7188 14.8434C15.7188 15.109 15.6992 15.1833 15.5898 15.4059C15.0859 16.4293 13.6055 16.3434 13.2188 15.2653C13.0859 14.8942 13.1719 14.3708 13.4141 14.0504C13.5391 13.8864 13.8711 13.6559 14.0625 13.5973C14.2852 13.5309 14.7656 13.5661 14.9648 13.6637Z" fill="#CA0F2E"/>
</g>
<defs>
<clipPath id="clip0_319_579">
<rect width="20" height="20" fill="white"/>
</clipPath>
</defs>
</svg>
