<svg width="20" height="20" viewBox="0 0 20 20" fill="none" xmlns="http://www.w3.org/2000/svg">
<path d="M7.32812 1.42602C6.91016 1.54321 6.53906 1.91821 6.42578 2.3479C6.34766 2.63305 6.34766 3.25024 6.42578 3.39868C6.53516 3.60961 6.80859 3.69165 7.02734 3.57836C7.21484 3.48071 7.24219 3.4143 7.26562 2.9768C7.29297 2.5354 7.33203 2.42211 7.49609 2.33618C7.63281 2.26196 12.3672 2.26196 12.5039 2.33618C12.668 2.42211 12.707 2.5354 12.7344 2.9768C12.7578 3.4143 12.7852 3.48071 12.9727 3.57836C13.1914 3.69165 13.4648 3.60961 13.5742 3.39868C13.6523 3.25024 13.6523 2.63305 13.5742 2.3479C13.4609 1.9104 13.0898 1.5393 12.6523 1.42602C12.3516 1.34399 7.62109 1.3479 7.32812 1.42602Z" fill="#CA0F2E"/>
<path d="M1.14801 4.57031C0.702699 4.63672 0.319887 4.92578 0.124574 5.34375L0.0191055 5.56641L0.00738673 7.26172C-0.00433202 8.88281 -0.000425771 8.96875 0.0776992 9.22266C0.179262 9.55859 0.480043 9.90625 0.780824 10.0352C0.921449 10.0938 8.02692 11.7188 8.14801 11.7188C8.15192 11.7188 8.16364 12.082 8.17145 12.5273C8.18317 13.418 8.19489 13.4648 8.42145 13.5742C8.60504 13.6602 11.3941 13.6602 11.5777 13.5742C11.8043 13.4648 11.816 13.418 11.8277 12.5273C11.8355 12.082 11.8472 11.7188 11.8511 11.7188C11.9722 11.7188 19.0777 10.0938 19.2183 10.0352C19.5191 9.90625 19.8199 9.55859 19.9214 9.22266C19.9996 8.96875 20.0035 8.88281 19.9918 7.26172L19.98 5.56641L19.8746 5.33984C19.7339 5.04688 19.4371 4.75781 19.1519 4.64062L18.9254 4.55078L10.1363 4.54688C5.30426 4.54297 1.25739 4.55469 1.14801 4.57031ZM18.9097 5.54688C18.9722 5.59375 19.0386 5.6875 19.0621 5.77344C19.1207 5.98438 19.1089 8.80859 19.0504 8.98047C19.023 9.05469 18.9605 9.14453 18.9058 9.18359C18.8433 9.23047 17.6246 9.51953 15.3316 10.0312L11.855 10.8086L11.8277 10.5742C11.7886 10.25 11.7339 10.1328 11.5816 10.0625C11.3902 9.96875 8.60895 9.96875 8.41754 10.0625C8.2652 10.1328 8.21051 10.25 8.17145 10.5742L8.14411 10.8086L4.66754 10.0312C2.37457 9.51953 1.15582 9.23047 1.09332 9.18359C1.03864 9.14453 0.976137 9.05469 0.948793 8.98047C0.890199 8.8125 0.87848 5.98438 0.937074 5.78125C0.956605 5.70703 1.02301 5.60547 1.08161 5.55859L1.19098 5.46875H9.99176C18.7964 5.46875 18.7964 5.46875 18.9097 5.54688ZM10.898 11.8164V12.7344H9.99957H9.10114V11.8164V10.8984H9.99957H10.898V11.8164Z" fill="#CA0F2E"/>
<path d="M0.753913 10.9414C0.687507 10.9609 0.593757 11.0273 0.546882 11.0898C0.468757 11.2031 0.468757 11.2187 0.47657 14.4219L0.488288 17.6367L0.589851 17.8555C0.722663 18.1367 0.964851 18.3789 1.2461 18.5117L1.46485 18.6133H10H18.5352L18.7539 18.5117C19.0352 18.3789 19.2774 18.1367 19.4102 17.8555L19.5117 17.6367L19.5234 14.4219C19.5313 11.2266 19.5313 11.2031 19.4531 11.0937C19.3633 10.9648 19.1524 10.8906 18.9805 10.9258C18.832 10.9531 18.6875 11.1016 18.6563 11.2539C18.6445 11.3242 18.6328 12.7344 18.6328 14.3906C18.6328 17.3047 18.6289 17.4062 18.5547 17.5273C18.5039 17.6094 18.4336 17.6641 18.332 17.6914C18.125 17.75 1.87501 17.75 1.66798 17.6914C1.3711 17.6094 1.39063 17.8203 1.36719 14.3164C1.34766 11.0195 1.35157 11.0977 1.17579 10.9883C1.07032 10.9219 0.886726 10.9023 0.753913 10.9414Z" fill="#CA0F2E"/>
</svg>
