<svg width="19" height="18" viewBox="0 0 19 18" fill="none" xmlns="http://www.w3.org/2000/svg">
<g clip-path="url(#clip0_125_307)">
<path d="M2.34699 1.10391C2.001 1.19883 1.67924 1.47656 1.50279 1.82812C1.34018 2.15508 1.3125 2.38359 1.3125 3.52266V4.57031H9.65413H17.9923L17.9819 3.45234L17.9715 2.33789L17.8608 2.09883C17.6394 1.62422 17.117 1.22344 16.5738 1.10391C16.4146 1.07227 16.0929 1.05469 15.5081 1.05469H14.6674V1.85273C14.6674 2.2957 14.6501 2.71055 14.6328 2.77734C14.6155 2.84766 14.5463 2.95664 14.4771 3.02344C14.3802 3.11836 14.3249 3.14297 14.1761 3.15703C14.0239 3.16758 13.972 3.15703 13.8751 3.08672C13.6122 2.90391 13.6122 2.90742 13.6018 1.93008L13.5879 1.05469H9.43962H5.29129V1.81758C5.28783 2.73516 5.27054 2.85117 5.10792 3.01289C4.88304 3.24492 4.4817 3.19922 4.31217 2.92148C4.23951 2.80195 4.23605 2.75273 4.22567 1.92305L4.21529 1.05469L3.36071 1.0582C2.80022 1.0582 2.45078 1.07578 2.34699 1.10391Z" fill="white"/>
<path d="M1.31942 10.7121L1.3298 15.7676L1.41975 15.9996C1.58929 16.4461 1.85915 16.7238 2.26049 16.8645C2.42656 16.9242 2.7933 16.9277 9.51228 16.9277H16.5876L16.8194 16.8469C17.29 16.6816 17.6982 16.3336 17.8954 15.9258L18.0061 15.6973L18.0165 10.6805L18.0234 5.66016H9.66797H1.3125L1.31942 10.7121ZM6.18739 7.67461C6.23237 7.6957 6.30502 7.7625 6.34308 7.81523C6.40882 7.90664 6.41574 7.96992 6.42612 8.63086C6.4365 9.28477 6.43304 9.36211 6.37076 9.50625C6.24967 9.78398 6.21853 9.79102 5.33973 9.79102C4.24989 9.79102 4.28795 9.8332 4.28795 8.7082C4.28795 7.58672 4.24297 7.63242 5.34319 7.63242C5.87946 7.62891 6.12857 7.64297 6.18739 7.67461ZM10.3046 7.67461C10.3496 7.6957 10.4222 7.7625 10.4603 7.81523C10.526 7.90664 10.5329 7.96992 10.5433 8.64141C10.5571 9.45 10.5329 9.59063 10.3669 9.71719C10.2734 9.7875 10.225 9.79102 9.47768 9.79102C8.36362 9.79102 8.40513 9.83672 8.40513 8.7082C8.40513 7.58672 8.36016 7.63242 9.46038 7.63242C9.99665 7.62891 10.2458 7.64297 10.3046 7.67461ZM14.4944 7.68164C14.6847 7.78359 14.702 7.86445 14.702 8.71875C14.702 9.84727 14.7574 9.79102 13.6329 9.79102C12.8718 9.79102 12.8475 9.7875 12.7403 9.71016C12.5811 9.59414 12.5569 9.46406 12.5569 8.69063C12.5569 7.95234 12.5777 7.83984 12.7472 7.70625C12.8406 7.63242 12.8752 7.62891 13.6191 7.62891C14.2453 7.62891 14.4148 7.63945 14.4944 7.68164ZM6.24967 12.4734C6.40882 12.5895 6.43304 12.7195 6.43304 13.4754C6.43304 14.1926 6.41228 14.291 6.24621 14.4492C6.15279 14.5371 6.14933 14.5371 5.37433 14.5477C4.63739 14.5582 4.58895 14.5547 4.4817 14.4844C4.29487 14.3684 4.28449 14.3016 4.29487 13.4191C4.30525 12.6352 4.30525 12.6246 4.38828 12.5367C4.43672 12.484 4.52321 12.4277 4.57857 12.4102C4.63739 12.3926 5.01451 12.382 5.41239 12.3855C6.10781 12.3926 6.14241 12.3961 6.24967 12.4734ZM10.3461 12.4559C10.5191 12.5754 10.5329 12.6422 10.5329 13.4613C10.5329 13.8797 10.5225 14.2664 10.5052 14.3191C10.4914 14.3719 10.4291 14.4457 10.3669 14.4844C10.2665 14.5477 10.1904 14.5547 9.4846 14.5547C8.34978 14.5547 8.39821 14.6039 8.41205 13.4297C8.42243 12.6316 8.42243 12.6246 8.50547 12.5367C8.55391 12.484 8.6404 12.4277 8.69576 12.4102C8.75458 12.3926 9.1317 12.382 9.52958 12.3855C10.1593 12.3926 10.2665 12.3996 10.3461 12.4559ZM14.3941 12.4102C14.4598 12.4313 14.5532 12.4875 14.6017 12.5367L14.6847 12.6281V13.4859V14.3438L14.5878 14.4387L14.4944 14.5371H13.6502H12.806L12.7161 14.4527C12.5708 14.3121 12.55 14.175 12.5638 13.3875C12.5777 12.3609 12.5604 12.3785 13.6122 12.3785C13.9754 12.375 14.3249 12.3926 14.3941 12.4102Z" fill="white"/>
</g>
<defs>
<clipPath id="clip0_125_307">
<rect width="17.7143" height="18" fill="white" transform="translate(0.793457)"/>
</clipPath>
</defs>
</svg>
