<svg width="18" height="18" viewBox="0 0 18 18" fill="none" xmlns="http://www.w3.org/2000/svg">
<g clip-path="url(#clip0_502_349)">
<path d="M4.15352 0.0386715C3.99531 0.0843735 3.77383 0.319921 3.72812 0.48164C3.70703 0.555468 3.68945 0.791016 3.68945 1.00547V1.39922L3.01445 1.41328C2.40625 1.42734 2.3043 1.44141 2.01953 1.52578C1.11953 1.79648 0.395312 2.51367 0.114062 3.42773L0.015625 3.74414V9.70312V15.6621L0.114062 15.9785C0.395312 16.8891 1.10898 17.6027 2.01953 17.884L2.33594 17.9824H8.99805H15.6602L15.9766 17.884C17.1402 17.5219 17.9629 16.4637 17.977 15.307C17.9805 14.9801 17.9734 14.9449 17.8855 14.8113C17.7414 14.5898 17.5691 14.502 17.2914 14.502C17.1016 14.502 17.0383 14.5195 16.9187 14.5969C16.7113 14.734 16.6305 14.8852 16.5883 15.2227C16.5074 15.8906 16.1875 16.3195 15.6285 16.5129C15.4598 16.5727 15.1152 16.5762 8.99805 16.5762C2.88086 16.5762 2.53633 16.5727 2.36758 16.5129C1.97031 16.3758 1.66094 16.0805 1.50273 15.6902L1.42188 15.4863V9.7207C1.42188 4.26445 1.42539 3.94453 1.48516 3.77578C1.62227 3.37852 1.92109 3.06562 2.30781 2.91445C2.48359 2.84766 2.59609 2.83359 3.09531 2.81953L3.68242 2.80547L3.69297 3.27656C3.70703 3.69492 3.71406 3.7582 3.79141 3.87773C3.83711 3.95156 3.93906 4.05352 4.01641 4.10625C4.13594 4.18711 4.19922 4.20117 4.39258 4.20117C4.58594 4.20117 4.64922 4.18711 4.76875 4.10625C4.84609 4.05352 4.94805 3.95156 4.99375 3.87773C5.07109 3.7582 5.07812 3.69492 5.08867 3.27656L5.10273 2.8125H6.67773H8.25273L8.2668 3.28008C8.27734 3.71953 8.28438 3.7582 8.37227 3.8918C8.51641 4.11328 8.68867 4.20117 8.96641 4.20117C9.15625 4.20117 9.21953 4.18359 9.33906 4.10625C9.41641 4.05352 9.51836 3.95156 9.56406 3.87773C9.64141 3.7582 9.64844 3.69492 9.65898 3.27656L9.67305 2.8125H11.2656H12.8582L12.8723 3.28008C12.8828 3.71953 12.8898 3.7582 12.9777 3.8918C13.1219 4.11328 13.2941 4.20117 13.5719 4.20117C13.7617 4.20117 13.825 4.18359 13.9445 4.10625C14.0219 4.05352 14.1238 3.95156 14.1695 3.87773C14.2469 3.7582 14.2539 3.69492 14.268 3.27656L14.2785 2.80547L14.8832 2.81953C15.393 2.83359 15.5125 2.84414 15.6742 2.91094C16.0645 3.06562 16.3387 3.33633 16.4934 3.71601L16.5742 3.91992L16.5918 7.91367L16.6094 11.9039L16.7043 12.048C16.8484 12.266 17.0207 12.3574 17.2949 12.3574C17.5691 12.3574 17.7414 12.266 17.8855 12.048L17.9805 11.9039V7.82578V3.74414L17.882 3.42773C17.6008 2.51719 16.8766 1.79648 15.9766 1.52578C15.6918 1.44141 15.5898 1.42734 14.9676 1.41328L14.2785 1.39922L14.2645 0.935156C14.2539 0.499218 14.2469 0.460546 14.159 0.326952C14.0148 0.108984 13.8426 0.0175781 13.5684 0.0175781C13.2941 0.0175781 13.1219 0.108984 12.9777 0.326952C12.8898 0.460546 12.8828 0.499218 12.8723 0.938671L12.8582 1.40625H11.2656H9.67305L9.65898 0.938671C9.64844 0.523827 9.64141 0.460546 9.56406 0.341015C9.51836 0.267187 9.41641 0.165234 9.33906 0.112499C9.21953 0.0351562 9.15625 0.0175781 8.96641 0.0175781C8.68867 0.0175781 8.51641 0.105469 8.37227 0.326952C8.28438 0.460546 8.27734 0.499218 8.2668 0.938671L8.25273 1.40625H6.67773H5.10273L5.08867 0.938671C5.07812 0.523827 5.07109 0.460546 4.99375 0.341015C4.82852 0.0738277 4.46289 -0.0562515 4.15352 0.0386715Z" fill="#717171"/>
<path d="M4.15227 6.71751C3.98352 6.76673 3.76907 6.99876 3.71985 7.17806C3.63899 7.49095 3.76204 7.8179 4.02922 7.98314C4.22961 8.1097 4.57063 8.10267 4.7675 7.97259C4.98547 7.82845 5.07688 7.65619 5.07688 7.38197C5.07688 7.11126 4.98547 6.93548 4.77805 6.79837C4.62688 6.69642 4.3386 6.66126 4.15227 6.71751Z" fill="#717171"/>
<path d="M7.21086 6.71751C7.04211 6.76673 6.82766 6.99876 6.77844 7.17806C6.69758 7.49095 6.82063 7.8179 7.08782 7.98314C7.28821 8.1097 7.62922 8.10267 7.8261 7.97259C8.04407 7.82845 8.13547 7.65619 8.13547 7.38197C8.13547 7.11126 8.04407 6.93548 7.83665 6.79837C7.68547 6.69642 7.39719 6.66126 7.21086 6.71751Z" fill="#717171"/>
<path d="M10.2695 6.71751C10.1007 6.76673 9.88625 6.99876 9.83704 7.17806C9.75618 7.49095 9.87922 7.8179 10.1464 7.98314C10.3468 8.1097 10.6878 8.10267 10.8847 7.97259C11.1027 7.82845 11.1941 7.65619 11.1941 7.38197C11.1941 7.11126 11.1027 6.93548 10.8952 6.79837C10.7441 6.69642 10.4558 6.66126 10.2695 6.71751Z" fill="#717171"/>
<path d="M13.3281 6.71751C13.1593 6.76673 12.9448 6.99876 12.8956 7.17806C12.8148 7.49095 12.9378 7.8179 13.205 7.98314C13.4054 8.1097 13.7464 8.10267 13.9433 7.97259C14.1613 7.82845 14.2527 7.65619 14.2527 7.38197C14.2527 7.11126 14.1613 6.93548 13.9538 6.79837C13.8027 6.69642 13.5144 6.66126 13.3281 6.71751Z" fill="#717171"/>
<path d="M4.15227 9.77611C3.98352 9.82533 3.76907 10.0574 3.71985 10.2367C3.63899 10.5495 3.76204 10.8765 4.02922 11.0417C4.22961 11.1683 4.57063 11.1613 4.7675 11.0312C4.98547 10.887 5.07688 10.7148 5.07688 10.4406C5.07688 10.1699 4.98547 9.99408 4.77805 9.85697C4.62688 9.75501 4.3386 9.71986 4.15227 9.77611Z" fill="#717171"/>
<path d="M7.21086 9.77611C7.04211 9.82533 6.82766 10.0574 6.77844 10.2367C6.69758 10.5495 6.82063 10.8765 7.08782 11.0417C7.28821 11.1683 7.62922 11.1613 7.8261 11.0312C8.04407 10.887 8.13547 10.7148 8.13547 10.4406C8.13547 10.1699 8.04407 9.99408 7.83665 9.85697C7.68547 9.75501 7.39719 9.71986 7.21086 9.77611Z" fill="#717171"/>
<path d="M11.811 9.79805C11.6844 9.88242 11.6844 9.88242 11.5086 10.4414C11.382 10.8422 11.3258 10.9723 11.2449 11.0461L11.143 11.1445H10.5277H9.91251L9.80704 11.2395C9.65939 11.373 9.62775 11.5805 9.73673 11.7141C9.7754 11.7668 10.0039 11.9531 10.243 12.1289C10.6473 12.4242 10.7563 12.5438 10.7563 12.6809C10.7563 12.7125 10.6754 12.9832 10.577 13.282C10.4539 13.6652 10.4082 13.8516 10.4223 13.9254C10.4504 14.0484 10.6262 14.2031 10.7422 14.2031C10.8617 14.2031 10.918 14.168 11.368 13.841C11.8496 13.4895 11.9445 13.4473 12.1063 13.5141C12.1731 13.5422 12.3981 13.6898 12.6055 13.841C13.0555 14.168 13.1117 14.2031 13.2313 14.2031C13.3473 14.2031 13.5231 14.0484 13.5512 13.9254C13.5652 13.8516 13.5195 13.6652 13.3965 13.282C13.2981 12.9832 13.2172 12.7125 13.2172 12.6809C13.2172 12.5438 13.3262 12.4242 13.7305 12.1289C13.9695 11.9531 14.1945 11.7703 14.2367 11.7176C14.3492 11.577 14.3317 11.4082 14.1875 11.2641L14.068 11.1445H13.4492H12.8305L12.7285 11.0461C12.6477 10.9723 12.5914 10.8422 12.4649 10.4414C12.377 10.1602 12.2926 9.91406 12.2785 9.89297C12.2223 9.81914 12.0746 9.73828 11.9867 9.73828C11.9375 9.73828 11.8567 9.76641 11.811 9.79805Z" fill="#717171"/>
<path d="M4.15227 12.8347C3.98352 12.8839 3.76907 13.116 3.71985 13.2952C3.63899 13.6081 3.76204 13.9351 4.02922 14.1003C4.22961 14.2269 4.57063 14.2199 4.7675 14.0898C4.98547 13.9456 5.07688 13.7734 5.07688 13.4992C5.07688 13.2285 4.98547 13.0527 4.77805 12.9156C4.62688 12.8136 4.3386 12.7785 4.15227 12.8347Z" fill="#717171"/>
<path d="M7.21086 12.8347C7.04211 12.8839 6.82766 13.116 6.77844 13.2952C6.69758 13.6081 6.82063 13.9351 7.08782 14.1003C7.28821 14.2269 7.62922 14.2199 7.8261 14.0898C8.04407 13.9456 8.13547 13.7734 8.13547 13.4992C8.13547 13.2285 8.04407 13.0527 7.83665 12.9156C7.68547 12.8136 7.39719 12.7785 7.21086 12.8347Z" fill="#717171"/>
</g>
<defs>
<clipPath id="clip0_502_349">
<rect width="18" height="18" fill="white"/>
</clipPath>
</defs>
</svg>
