<svg width="25" height="19" viewBox="0 0 25 19" fill="none" xmlns="http://www.w3.org/2000/svg">
<path d="M8.95215 0.222656C8.86426 0.271484 8.76172 0.374023 8.71289 0.442383C8.65918 0.525391 8.17578 2.26855 8.15625 2.4541C8.15625 2.46387 10.1143 2.46875 12.502 2.46875C14.8945 2.46875 16.8477 2.46387 16.8477 2.4541C16.8281 2.26855 16.3447 0.525391 16.291 0.442383C16.2422 0.374023 16.1396 0.271484 16.0518 0.222656C15.9004 0.129883 15.7783 0.125 12.502 0.125C9.22559 0.125 9.10352 0.129883 8.95215 0.222656Z" fill="#CA0F2E"/>
<path d="M2.38281 3.34277C1.6748 3.57226 1.06934 4.19238 0.859375 4.90527C0.791016 5.14453 0.78125 5.82812 0.78125 11.0674C0.78125 16.7168 0.786133 16.9756 0.874023 17.2588C1.09863 17.9766 1.71387 18.5869 2.43652 18.7969C2.67578 18.8652 3.70117 18.875 12.5049 18.875C21.9873 18.875 22.3145 18.8701 22.6025 18.7822C23.3203 18.5576 23.9307 17.9424 24.1406 17.2197C24.209 16.9805 24.2188 16.2969 24.2188 11.0625C24.2188 5.82812 24.209 5.14453 24.1406 4.90527C23.9307 4.18261 23.3203 3.56738 22.6025 3.34277C22.3145 3.25488 21.9922 3.25 12.4854 3.25488C3.0957 3.25488 2.64648 3.25976 2.38281 3.34277ZM13.0859 5.66211C13.2861 5.67675 13.6572 5.74511 13.9111 5.81347C15.7617 6.31152 17.2363 7.79101 17.7637 9.68066C17.8857 10.1201 17.8955 10.2275 17.8955 11.0625C17.8955 11.8975 17.8857 12.0049 17.7637 12.4443C17.2363 14.334 15.752 15.8184 13.9014 16.3115C11.0107 17.083 8.05176 15.3643 7.23633 12.4443C7.11426 12.0049 7.10449 11.8975 7.10449 11.0625C7.10449 10.2275 7.11426 10.1201 7.23633 9.68066C7.76855 7.78125 9.24316 6.30664 11.1182 5.80859C11.5625 5.68652 12.3193 5.59375 12.5977 5.62304C12.666 5.63281 12.8857 5.64746 13.0859 5.66211ZM5.06836 6.52148C5.70312 6.90722 5.42969 7.88867 4.6875 7.88867C4.55566 7.88867 4.4043 7.84961 4.30664 7.79101C3.67188 7.40527 3.94531 6.42383 4.6875 6.42383C4.81934 6.42383 4.9707 6.46289 5.06836 6.52148Z" fill="#CA0F2E"/>
<path d="M11.5234 7.25391C10.4395 7.53711 9.49707 8.29395 9.00879 9.28027C8.70117 9.89551 8.59375 10.3594 8.59375 11.0625C8.59375 11.7754 8.70117 12.2344 9.01855 12.8691C9.21387 13.2646 9.32129 13.4014 9.74121 13.8213C10.1611 14.2412 10.2979 14.3486 10.6934 14.5439C11.3281 14.8613 11.7871 14.9688 12.5 14.9688C13.2129 14.9688 13.6719 14.8613 14.3066 14.5439C14.7021 14.3486 14.8389 14.2412 15.2588 13.8213C15.6787 13.4014 15.7861 13.2646 15.9814 12.8691C16.2988 12.2344 16.4062 11.7754 16.4062 11.0625C16.4062 10.3545 16.2988 9.90039 15.9863 9.25586C15.7861 8.85547 15.6885 8.72363 15.2637 8.29883C14.8389 7.87402 14.707 7.77637 14.3066 7.57617C13.6523 7.25879 13.208 7.15625 12.4805 7.16113C12.0605 7.16113 11.7822 7.19043 11.5234 7.25391ZM13.6133 8.18164C14.751 8.62109 15.5762 9.7832 15.5762 10.9453C15.5762 11.4873 15.3076 11.7949 14.8389 11.7949C14.4141 11.7949 14.1406 11.502 14.082 10.9893C13.9795 10.1006 13.4619 9.58301 12.5732 9.48047C12.417 9.46094 12.2168 9.40723 12.1338 9.36328C11.543 9.0166 11.6943 8.12793 12.3633 7.99121C12.627 7.9375 13.2129 8.02539 13.6133 8.18164Z" fill="#CA0F2E"/>
</svg>
