<svg width="70" height="70" viewBox="0 0 70 70" fill="none" xmlns="http://www.w3.org/2000/svg">
<path d="M31.8555 0.136223C25.1016 0.792473 18.8672 3.28075 13.3984 7.4917C10.7324 9.54248 7.27344 13.3979 5.27734 16.5425C4.41602 17.896 2.73438 21.3413 2.13281 22.9819C1.43555 24.8823 0.724609 27.6851 0.382812 29.8726C-0.0410156 32.6069 -0.0410156 37.3921 0.382812 40.1265C0.970703 43.8589 1.94141 46.9624 3.62305 50.3804C5.42773 54.0581 7.30078 56.6694 10.3086 59.6909C13.3301 62.6987 15.9414 64.5718 19.6191 66.3765C22.9961 68.0308 26.0312 69.0015 29.8047 69.6167C32.4707 70.0405 37.5293 70.0405 40.1953 69.6167C43.9688 69.0015 47.0039 68.0308 50.3809 66.3765C54.0586 64.5718 56.6699 62.6987 59.6914 59.6909C62.6992 56.6694 64.5723 54.0581 66.377 50.3804C68.0586 46.9624 69.0293 43.8589 69.6172 40.1265C70.041 37.3921 70.041 32.6069 69.6172 29.8726C69.0293 26.1401 68.0586 23.0366 66.377 19.6186C64.5723 15.9409 62.6992 13.3296 59.6914 10.3081C56.6699 7.30029 54.0586 5.42724 50.3809 3.62255C47.0176 1.96825 43.9004 0.983879 40.2637 0.40966C38.2539 0.0952072 33.7695 -0.0551834 31.8555 0.136223ZM50.3398 27.3159C51.2559 28.2319 51.4062 28.4507 51.4062 28.8608C51.4062 29.2983 50.7773 29.9409 41.9316 38.7866C33.0449 47.687 32.4434 48.2612 31.9922 48.2612C31.5547 48.2612 31.1035 47.8511 25.252 41.9995C21.8066 38.5679 18.8945 35.5874 18.7852 35.3823C18.4844 34.7944 18.6621 34.4253 19.8242 33.3042C20.6309 32.5112 20.9727 32.2651 21.2734 32.2651C21.6016 32.2651 22.4629 33.0581 26.7285 37.3237C29.5176 40.0991 31.8828 42.3823 31.9922 42.3823C32.1016 42.3823 35.8203 38.7456 40.2637 34.3159C47.7695 26.8101 48.3711 26.2495 48.8086 26.2495C49.2051 26.2495 49.4238 26.3999 50.3398 27.3159Z" fill="#CA0F2E"/>
</svg>
