<svg width="24" height="24" viewBox="0 0 24 24" fill="none" xmlns="http://www.w3.org/2000/svg">
<path d="M22.125 11.25H20.9719C20.7915 9.12987 19.8674 7.14178 18.3628 5.6372C16.8582 4.13263 14.8701 3.20847 12.75 3.02812V1.875C12.75 1.67609 12.671 1.48532 12.5303 1.34467C12.3897 1.20402 12.1989 1.125 12 1.125C11.8011 1.125 11.6103 1.20402 11.4697 1.34467C11.329 1.48532 11.25 1.67609 11.25 1.875V3.02812C9.12987 3.20847 7.14178 4.13263 5.6372 5.6372C4.13263 7.14178 3.20847 9.12987 3.02812 11.25H1.875C1.67609 11.25 1.48532 11.329 1.34467 11.4697C1.20402 11.6103 1.125 11.8011 1.125 12C1.125 12.1989 1.20402 12.3897 1.34467 12.5303C1.48532 12.671 1.67609 12.75 1.875 12.75H3.02812C3.20847 14.8701 4.13263 16.8582 5.6372 18.3628C7.14178 19.8674 9.12987 20.7915 11.25 20.9719V22.125C11.25 22.3239 11.329 22.5147 11.4697 22.6553C11.6103 22.796 11.8011 22.875 12 22.875C12.1989 22.875 12.3897 22.796 12.5303 22.6553C12.671 22.5147 12.75 22.3239 12.75 22.125V20.9719C14.8701 20.7915 16.8582 19.8674 18.3628 18.3628C19.8674 16.8582 20.7915 14.8701 20.9719 12.75H22.125C22.3239 12.75 22.5147 12.671 22.6553 12.5303C22.796 12.3897 22.875 12.1989 22.875 12C22.875 11.8011 22.796 11.6103 22.6553 11.4697C22.5147 11.329 22.3239 11.25 22.125 11.25ZM18.375 12.75H19.4625C19.2844 14.4695 18.52 16.0753 17.2976 17.2976C16.0753 18.52 14.4695 19.2844 12.75 19.4625V18.375C12.75 18.1761 12.671 17.9853 12.5303 17.8447C12.3897 17.704 12.1989 17.625 12 17.625C11.8011 17.625 11.6103 17.704 11.4697 17.8447C11.329 17.9853 11.25 18.1761 11.25 18.375V19.4625C9.53053 19.2844 7.92473 18.52 6.70238 17.2976C5.48003 16.0753 4.71559 14.4695 4.5375 12.75H5.625C5.82391 12.75 6.01468 12.671 6.15533 12.5303C6.29598 12.3897 6.375 12.1989 6.375 12C6.375 11.8011 6.29598 11.6103 6.15533 11.4697C6.01468 11.329 5.82391 11.25 5.625 11.25H4.5375C4.71559 9.53053 5.48003 7.92473 6.70238 6.70238C7.92473 5.48003 9.53053 4.71559 11.25 4.5375V5.625C11.25 5.82391 11.329 6.01468 11.4697 6.15533C11.6103 6.29598 11.8011 6.375 12 6.375C12.1989 6.375 12.3897 6.29598 12.5303 6.15533C12.671 6.01468 12.75 5.82391 12.75 5.625V4.5375C14.4695 4.71559 16.0753 5.48003 17.2976 6.70238C18.52 7.92473 19.2844 9.53053 19.4625 11.25H18.375C18.1761 11.25 17.9853 11.329 17.8447 11.4697C17.704 11.6103 17.625 11.8011 17.625 12C17.625 12.1989 17.704 12.3897 17.8447 12.5303C17.9853 12.671 18.1761 12.75 18.375 12.75Z" fill="#717171"/>
<path d="M12 15.75C14.0711 15.75 15.75 14.0711 15.75 12C15.75 9.92893 14.0711 8.25 12 8.25C9.92893 8.25 8.25 9.92893 8.25 12C8.25 14.0711 9.92893 15.75 12 15.75Z" fill="#717171"/>
</svg>
