<svg width="22" height="18" viewBox="0 0 22 18" fill="none" xmlns="http://www.w3.org/2000/svg">
<path d="M5.15647 0.870087C4.38733 0.904462 3.75139 0.938837 3.7385 0.947431C3.72991 0.960321 4.32718 1.57907 5.07054 2.33102C5.81389 3.07868 6.93108 4.20876 7.55413 4.8361L8.6885 5.97907L7.09866 6.73102L5.50882 7.48727L3.8846 6.86852C2.98655 6.52907 2.2389 6.24977 2.21311 6.24977C2.1014 6.24977 0.00881723 7.26383 0.0388953 7.30251C0.0560828 7.32399 0.502958 7.88258 1.03147 8.54001C1.86077 9.57126 1.98538 9.74743 1.94241 9.80758C1.6846 10.1599 1.65452 10.5896 1.86507 10.8646C2.01975 11.0709 2.35921 11.2599 2.72874 11.3459C3.78147 11.5865 5.89983 11.3459 7.35647 10.8216C7.75179 10.6798 20.4448 4.76305 20.883 4.51813C21.0721 4.41071 21.3385 4.20446 21.5319 4.0154C21.8198 3.7361 21.8713 3.65876 21.9358 3.43962C22.1162 2.82087 21.7983 2.30954 20.9905 1.92282C20.5049 1.69509 20.1483 1.60485 19.5639 1.57907C18.9881 1.55329 18.61 1.59626 17.9826 1.75954C17.4584 1.89704 17.0674 2.06032 15.0522 3.00563L13.3291 3.80915L10.317 2.30095L7.30921 0.792743L6.93108 0.79704C6.72483 0.801337 5.92561 0.831415 5.15647 0.870087ZM10.201 3.25915L13.2991 4.81891L15.3186 3.8779C16.4315 3.36227 17.5229 2.86813 17.7463 2.7822C18.7905 2.39118 19.8088 2.3654 20.5565 2.71774C20.8444 2.85524 21.0979 3.0486 21.0979 3.13454C21.0979 3.22907 20.7713 3.52985 20.4705 3.70602C20.1311 3.90798 7.52835 9.7861 7.06429 9.96227C6.02014 10.3533 4.18968 10.6197 3.29163 10.5123C3.06819 10.4822 2.83186 10.4392 2.76311 10.4134L2.6428 10.3662L2.93499 10.0955L3.22288 9.82477L2.35491 8.74196C1.87366 8.14469 1.47405 7.64196 1.46975 7.62048C1.45257 7.5818 2.15725 7.23805 2.25608 7.23805C2.28616 7.23805 3.03811 7.51735 3.93186 7.8568L5.55179 8.47126L7.18889 7.69352C8.09124 7.26383 9.13538 6.76969 9.50921 6.59352C9.87874 6.41735 10.1838 6.26266 10.1838 6.24548C10.1838 6.22829 9.19553 5.21423 7.98811 3.98962L5.78811 1.75954L6.2135 1.73376C7.18889 1.6822 6.71624 1.50173 10.201 3.25915Z" fill="#CA0F2E"/>
<path d="M0.730469 16.7559V17.207H11.1289H21.5273V16.7559V16.3047H11.1289H0.730469V16.7559Z" fill="#CA0F2E"/>
</svg>
