<svg width="20" height="20" viewBox="0 0 20 20" fill="none" xmlns="http://www.w3.org/2000/svg">
<path d="M16.8086 2.36329C16.7617 2.39454 16.7149 2.46876 16.7031 2.53126C16.6875 2.60157 16.8281 3.18361 17.1211 4.27736L17.5625 5.91798L17.3281 5.98439C17.1992 6.02345 17.0899 6.04689 17.086 6.04298C17.082 6.03907 16.8906 5.33204 16.6641 4.47267C16.4336 3.61329 16.2266 2.85939 16.2031 2.80079C16.1133 2.57423 15.8985 2.51564 15.7188 2.66798C15.6367 2.73829 15.6133 2.79298 15.6172 2.89454C15.6211 3.00001 16.3789 5.92579 16.4649 6.16017C16.4766 6.19923 16.1445 6.32814 16.0274 6.32814C16.0078 6.32814 15.8008 5.61329 15.5664 4.73439C15.336 3.85939 15.1211 3.09767 15.0938 3.04298C14.957 2.76954 14.5313 2.87111 14.5313 3.17579C14.5313 3.26954 15.1836 5.8047 15.375 6.44923C15.3867 6.4922 15.3399 6.51954 15.1914 6.55861C15.0195 6.60548 14.9844 6.60157 14.9336 6.55079C14.8985 6.51954 14.6914 5.80861 14.4688 4.97267C14.2422 4.14064 14.043 3.41017 14.0195 3.35548C13.9766 3.24611 13.8399 3.16407 13.707 3.16407C13.5938 3.16407 13.4375 3.33595 13.4375 3.46095C13.4375 3.51954 13.5586 4.02736 13.711 4.58986C13.8594 5.15236 13.9844 5.62501 13.9844 5.64064C13.9844 5.65626 13.918 5.62111 13.8399 5.5547C13.3985 5.21486 12.6406 4.82423 11.9961 4.60939C10.9102 4.24611 9.68361 4.17189 8.5547 4.39845C7.8633 4.53907 6.88673 4.93751 6.35548 5.29298C6.24611 5.3672 6.14064 5.4297 6.12892 5.4297C6.1172 5.4297 6.09376 5.22267 6.08205 4.96876C6.03126 3.92579 5.66017 3.20704 4.9922 2.85157C4.80861 2.75392 4.69533 2.72267 4.46095 2.70704C3.82814 2.66407 3.28908 2.91798 2.76173 3.50782C2.08595 4.26564 1.6758 5.30079 1.67189 6.25001C1.66798 6.62892 1.6797 6.69532 1.82814 7.13673C2.03126 7.73439 2.08595 8.07814 2.05861 8.5547C2.03908 8.87501 1.89845 9.43361 1.01173 12.7344C0.0742332 16.2344 -0.00779807 16.5625 0.00782693 16.8008C0.0429832 17.4336 0.593764 17.8125 1.24611 17.6563C1.49611 17.5977 1.76564 17.3672 1.85548 17.1328C1.89064 17.0391 2.23439 15.7969 2.6172 14.3711C3.25001 12.0078 3.31251 11.793 3.33986 11.9531C3.66798 14.0234 5.05861 15.9102 6.93361 16.832C7.91798 17.3164 8.63283 17.5 9.68751 17.5274C11.6953 17.5859 13.4883 16.8203 14.8555 15.3164C15.7891 14.293 16.3945 12.9024 16.5078 11.5274L16.5352 11.1992L17.3047 14.0664C17.7266 15.6445 18.0938 16.9961 18.1172 17.0703C18.1836 17.2656 18.375 17.4883 18.5664 17.5899C18.6953 17.6563 18.7969 17.6758 19.0469 17.6758C19.3281 17.6758 19.3789 17.6641 19.5508 17.5586C19.836 17.3828 19.9766 17.1328 19.9922 16.7813C20 16.5274 19.9453 16.2969 19.3203 13.9727C18.9024 12.4141 18.6133 11.4102 18.5703 11.3633C18.4649 11.2461 18.2305 11.2617 18.1289 11.3906C18.082 11.4492 18.0469 11.5313 18.0469 11.5781C18.0469 11.625 18.3477 12.7774 18.711 14.1367C19.0781 15.5 19.375 16.6719 19.375 16.7461C19.375 17.0938 18.8945 17.1953 18.7344 16.8828C18.707 16.8242 18.2461 15.1524 17.7149 13.1641C17.1328 10.9805 16.7031 9.45704 16.6367 9.31251C16.4844 8.98829 16.1797 8.68751 15.8164 8.50782C15.3985 8.30079 15.3399 8.22267 15.1953 7.69923C15.1289 7.45704 15.082 7.25001 15.086 7.24611C15.0938 7.23829 15.6875 7.07814 16.4063 6.88282L17.7149 6.53126L17.7813 6.75392C17.8203 6.87501 17.8789 7.09376 17.9141 7.24611C17.9883 7.55861 17.9766 7.59376 17.6953 8.04298C17.4961 8.36329 17.457 8.4922 17.4336 8.92579C17.4141 9.24611 17.4297 9.33595 17.5547 9.82423C17.6445 10.1563 17.7305 10.4024 17.7735 10.4453C17.8672 10.543 18.1016 10.543 18.207 10.4453C18.3125 10.3516 18.3008 10.1797 18.1641 9.64845C17.9883 8.97657 18.0117 8.69142 18.2813 8.30079C18.4922 7.99611 18.5625 7.78907 18.5664 7.48439C18.5664 7.24611 18.4766 6.87501 17.9297 4.84376C17.4727 3.14064 17.2735 2.45704 17.2149 2.39064C17.1211 2.28907 16.9336 2.27736 16.8086 2.36329ZM4.67189 3.39454C5.29689 3.6797 5.60548 4.72267 5.41408 5.89845C5.28126 6.70314 5.04298 7.15236 4.50783 7.58204C4.03908 7.96095 3.56251 8.64845 3.35548 9.24611C3.31251 9.37111 2.82814 11.1406 2.28126 13.1836C1.40626 16.457 1.27736 16.9063 1.18751 16.9805C0.972671 17.1758 0.625014 17.0313 0.625014 16.75C0.625014 16.6797 1.06642 14.9766 1.60158 12.9688C2.14064 10.9609 2.60548 9.17189 2.63673 8.9922C2.75392 8.32814 2.69533 7.73048 2.44923 7.01173C2.3047 6.59767 2.28908 6.50392 2.29298 6.21095C2.29689 5.64454 2.56251 4.85939 2.9297 4.30861C3.09767 4.06251 3.49611 3.65236 3.68751 3.52736C4.01955 3.31251 4.38283 3.26564 4.67189 3.39454ZM10.9375 4.98439C12.1172 5.19142 13.3672 5.84376 14.1445 6.66798C14.3164 6.85157 14.3281 6.87501 14.5078 7.55861C14.6094 7.94532 14.7266 8.33595 14.7695 8.42579C14.8711 8.63673 15.1289 8.87111 15.4219 9.01954L15.6563 9.13673L15.7383 9.48048C15.961 10.4375 15.957 11.4727 15.7227 12.3828C15.0235 15.125 12.4414 17.0391 9.62892 16.9024C8.03126 16.8242 6.68361 16.1992 5.54298 15.0078C4.0508 13.457 3.51955 11.2422 4.14455 9.19923C4.27736 8.76954 4.4258 8.53517 4.77345 8.21486C5.39064 7.64454 5.49611 7.51954 5.6758 7.14454C5.77345 6.94142 5.88283 6.6797 5.91798 6.56251C5.97267 6.36329 6.00001 6.33204 6.3008 6.10939C6.71876 5.80079 6.87501 5.70314 7.25392 5.51173C7.83205 5.22267 8.70314 4.97657 9.39455 4.90626C9.69923 4.87501 10.5703 4.91798 10.9375 4.98439Z" fill="#CA0F2E"/>
<path d="M8.96487 6.52725C7.57424 6.86319 6.4844 7.72256 5.87502 8.96475C4.69534 11.3593 5.95706 14.3202 8.51174 15.1562C9.36331 15.4335 10.4766 15.4257 11.3164 15.1405C12.9258 14.5937 14.0821 13.2108 14.3164 11.5546C14.3906 11.0429 14.3906 10.7421 14.3164 10.2538C14.2383 9.73038 14.1328 9.39053 13.9024 8.92569C13.3516 7.81241 12.375 6.98819 11.1602 6.6171C10.9844 6.56241 10.7461 6.51553 10.6328 6.51163C10.4531 6.50381 10.4102 6.51944 10.3477 6.59756C10.3086 6.64835 10.2735 6.73819 10.2735 6.79678C10.2735 6.98819 10.3789 7.06241 10.8281 7.1835C11.7422 7.42569 12.4453 7.89444 12.9766 8.60928C13.5117 9.32803 13.7852 10.2187 13.7344 11.0741C13.6524 12.4765 12.8828 13.6718 11.6563 14.3085C9.46877 15.4374 6.82424 14.2499 6.18362 11.8515C6.04299 11.3241 6.03518 10.5038 6.16409 10.0116C6.35159 9.28506 6.67581 8.71085 7.18362 8.19913C7.69534 7.68741 8.23831 7.37881 8.97659 7.1835C9.45706 7.0546 9.55081 6.98038 9.51565 6.76163C9.50393 6.68741 9.47268 6.60147 9.44143 6.57413C9.37112 6.50381 9.15627 6.48038 8.96487 6.52725Z" fill="#CA0F2E"/>
</svg>
