<svg width="327" height="65" viewBox="0 0 327 65" fill="none" xmlns="http://www.w3.org/2000/svg">
<rect width="327" height="65" fill="#555555"/>
<rect width="375" height="821" transform="translate(-24 -332)" fill="white"/>
<rect x="0.5" y="0.5" width="326" height="64" rx="4.5" stroke="#CA0F2E" stroke-dasharray="5 5"/>
<path d="M128.503 34.28H125.479V37.384H123.367V34.28H120.343V32.328H123.367V29.224H125.479V32.328H128.503V34.28ZM137.765 36.872H133.317L132.581 39H130.229L134.245 27.816H136.853L140.869 39H138.501L137.765 36.872ZM137.157 35.08L135.541 30.408L133.924 35.08H137.157ZM146.274 27.832C147.447 27.832 148.476 28.0613 149.362 28.52C150.258 28.9787 150.946 29.6347 151.426 30.488C151.916 31.3307 152.162 32.312 152.162 33.432C152.162 34.552 151.916 35.5333 151.426 36.376C150.946 37.208 150.258 37.8533 149.362 38.312C148.476 38.7707 147.447 39 146.274 39H142.37V27.832H146.274ZM146.194 37.096C147.367 37.096 148.274 36.776 148.914 36.136C149.554 35.496 149.874 34.5947 149.874 33.432C149.874 32.2693 149.554 31.3627 148.914 30.712C148.274 30.0507 147.367 29.72 146.194 29.72H144.61V37.096H146.194ZM157.742 27.832C158.916 27.832 159.945 28.0613 160.83 28.52C161.726 28.9787 162.414 29.6347 162.894 30.488C163.385 31.3307 163.63 32.312 163.63 33.432C163.63 34.552 163.385 35.5333 162.894 36.376C162.414 37.208 161.726 37.8533 160.83 38.312C159.945 38.7707 158.916 39 157.742 39H153.838V27.832H157.742ZM157.662 37.096C158.836 37.096 159.742 36.776 160.382 36.136C161.022 35.496 161.342 34.5947 161.342 33.432C161.342 32.2693 161.022 31.3627 160.382 30.712C159.742 30.0507 158.836 29.72 157.662 29.72H156.078V37.096H157.662ZM172.388 33.4C172.388 32.3013 172.633 31.32 173.124 30.456C173.625 29.5813 174.303 28.904 175.156 28.424C176.02 27.9333 176.985 27.688 178.052 27.688C179.3 27.688 180.393 28.008 181.332 28.648C182.271 29.288 182.927 30.1733 183.3 31.304H180.724C180.468 30.7707 180.105 30.3707 179.636 30.104C179.177 29.8373 178.644 29.704 178.036 29.704C177.385 29.704 176.804 29.8587 176.292 30.168C175.791 30.4667 175.396 30.8933 175.108 31.448C174.831 32.0027 174.692 32.6533 174.692 33.4C174.692 34.136 174.831 34.7867 175.108 35.352C175.396 35.9067 175.791 36.3387 176.292 36.648C176.804 36.9467 177.385 37.096 178.036 37.096C178.644 37.096 179.177 36.9627 179.636 36.696C180.105 36.4187 180.468 36.0133 180.724 35.48H183.3C182.927 36.6213 182.271 37.512 181.332 38.152C180.404 38.7813 179.311 39.096 178.052 39.096C176.985 39.096 176.02 38.856 175.156 38.376C174.303 37.8853 173.625 37.208 173.124 36.344C172.633 35.48 172.388 34.4987 172.388 33.4ZM187.453 27.832V39H185.213V27.832H187.453ZM197.267 27.832V29.64H194.291V39H192.051V29.64H189.075V27.832H197.267ZM207.781 27.832L204.005 35.112V39H201.765V35.112L197.973 27.832H200.501L202.901 32.936L205.285 27.832H207.781Z" fill="#CA0F2E"/>
</svg>
