<svg width="15" height="15" viewBox="0 0 15 15" fill="none" xmlns="http://www.w3.org/2000/svg">
<g clip-path="url(#clip0_125_248)">
<path d="M12.1143 0.061523C12.0352 0.0791011 11.8828 0.131835 11.7773 0.18164C11.6133 0.260742 11.4873 0.37207 10.8545 0.999023L10.1221 1.72559L11.6514 3.25781L13.1836 4.79004L13.9189 4.05762C14.3203 3.65332 14.71 3.24902 14.7773 3.1582C15.0146 2.84766 15.0586 2.44043 14.8975 2.08301C14.8359 1.95117 14.6807 1.77832 14.0537 1.14844C13.2686 0.354492 13.0576 0.18164 12.791 0.102539C12.5947 0.0439448 12.293 0.0263667 12.1143 0.061523Z" fill="#CA0F2E"/>
<path d="M5.44922 6.40137L1.59668 10.2539L3.12012 11.7773L4.64355 13.3008L8.51074 9.43359L12.3779 5.56641L10.8691 4.05762C10.04 3.22852 9.34863 2.54883 9.33105 2.54883C9.31348 2.54883 7.56738 4.2832 5.44922 6.40137Z" fill="#CA0F2E"/>
<path d="M0.383871 12.8496C0.11434 14.0654 8.22404e-05 14.6249 0.011801 14.6923C0.0323088 14.8007 0.126059 14.8974 0.254965 14.9414C0.334067 14.9707 0.574301 14.9179 2.06844 14.5576C3.01766 14.3291 3.79989 14.1357 3.80868 14.1298C3.82332 14.1181 0.817465 11.1035 0.788168 11.1035C0.779379 11.1035 0.597739 11.8886 0.383871 12.8496Z" fill="#CA0F2E"/>
</g>
<defs>
<clipPath id="clip0_125_248">
<rect width="15" height="15" fill="white"/>
</clipPath>
</defs>
</svg>
