<svg width="35" height="35" viewBox="0 0 35 35" fill="none" xmlns="http://www.w3.org/2000/svg">
<circle cx="17.5" cy="17.5" r="17.5" fill="#CA0F2E"/>
<g clip-path="url(#clip0_502_276)">
<path d="M21.5815 10.0816C21.2304 10.1949 21.1397 10.2629 20.4771 10.9228L19.8398 11.5571L21.389 13.1063L22.9409 14.6582L23.5385 14.0635C24.1757 13.4291 24.3229 13.2422 24.4164 12.9477C24.5438 12.5342 24.5155 12.1547 24.3229 11.7554C24.2153 11.5288 24.1757 11.4807 23.5951 10.9029C22.9438 10.2516 22.8305 10.1694 22.4595 10.0703C22.2414 10.0108 21.777 10.0165 21.5815 10.0816Z" fill="white"/>
<path d="M14.9343 16.4648L10.9071 20.4919L10.4484 22.3328C10.1113 23.6836 9.99239 24.1962 10.0094 24.2529C10.0349 24.3548 10.1397 24.4625 10.2388 24.4879C10.3152 24.5078 13.8525 23.6497 13.9912 23.576C14.0309 23.5562 15.8632 21.738 18.0637 19.5376L22.0625 15.5359L20.5106 13.9839L18.9614 12.4348L14.9343 16.4648Z" fill="white"/>
</g>
<defs>
<clipPath id="clip0_502_276">
<rect width="14.5" height="14.5" fill="white" transform="translate(10 10)"/>
</clipPath>
</defs>
</svg>
