<svg width="24" height="18" viewBox="0 0 24 18" fill="none" xmlns="http://www.w3.org/2000/svg">
<path d="M4.9704 0.69233C4.27236 1.06445 3.63181 1.46252 3.5579 1.55772C3.36902 1.80002 3.36902 2.18079 3.5579 2.40579C3.63181 2.50098 4.88828 3.36637 6.35006 4.32695C7.80362 5.29618 8.9944 6.10964 8.9944 6.1356C8.9944 6.16156 8.20602 6.60291 7.24519 7.11348L5.49598 8.03079L4.26415 7.34714C3.59075 6.97502 2.93377 6.64618 2.81058 6.61156C2.62992 6.57695 2.38355 6.66348 1.75121 6.97502C0.544009 7.58945 0.305854 7.97887 0.765739 8.58464C1.43914 9.47598 3.6236 11.8558 3.84533 11.9423C3.99315 11.9943 5.09359 12.0289 6.70318 12.0289C8.77267 12.0289 9.38858 12.0029 9.6678 11.8991C10.103 11.7519 20.6968 6.07502 21.0828 5.78945C21.9861 5.1231 22.6267 4.35291 23.0373 3.45291C23.7764 1.80868 23.1851 0.865408 21.247 0.571177C20.7707 0.493292 19.6046 0.657715 18.9805 0.882715C18.7095 0.977907 17.6008 1.5231 16.525 2.09425L14.5623 3.12406L10.5711 1.55772C8.37027 0.700984 6.49788 2.28882e-05 6.40754 2.28882e-05C6.31721 0.00867653 5.66844 0.311562 4.9704 0.69233Z" fill="#CA0F2E"/>
<path d="M0.815349 15.6462C0.618255 15.7846 0.536133 16.1221 0.536133 16.8144C0.536133 17.4202 0.56077 17.5846 0.70859 17.775L0.872834 18H11.9511H23.0294L23.1937 17.775C23.3415 17.5846 23.3661 17.4202 23.3661 16.8144C23.3661 16.1221 23.284 15.7846 23.0869 15.6462C22.9719 15.5596 0.93032 15.5596 0.815349 15.6462Z" fill="#CA0F2E"/>
</svg>
