<svg width="32" height="24" viewBox="0 0 32 24" fill="none" xmlns="http://www.w3.org/2000/svg">
<path d="M7.5 0.174961C6.38125 0.224961 5.45625 0.274961 5.4375 0.287461C5.425 0.306211 6.29375 1.20621 7.375 2.29996C8.45625 3.38746 10.0813 5.03121 10.9875 5.94371L12.6375 7.60621L10.325 8.69996L8.0125 9.79996L5.65 8.89996C4.34375 8.40621 3.25625 7.99996 3.21875 7.99996C3.05625 7.99996 0.0125032 9.47496 0.0562532 9.53121C0.0812532 9.56246 0.731253 10.375 1.5 11.3312C2.70625 12.8312 2.8875 13.0875 2.825 13.175C2.45 13.6875 2.40625 14.3125 2.7125 14.7125C2.9375 15.0125 3.43125 15.2875 3.96875 15.4125C5.5 15.7625 8.58125 15.4125 10.7 14.65C11.275 14.4437 29.7375 5.83746 30.375 5.48121C30.65 5.32496 31.0375 5.02496 31.3187 4.74996C31.7375 4.34371 31.8125 4.23121 31.9062 3.91246C32.1687 3.01246 31.7062 2.26871 30.5312 1.70621C29.825 1.37496 29.3062 1.24371 28.4562 1.20621C27.6187 1.16871 27.0688 1.23121 26.1562 1.46871C25.3937 1.66871 24.825 1.90621 21.8937 3.28121L19.3875 4.44996L15.0063 2.25621L10.6313 0.0624609L10.0813 0.0687113C9.78125 0.0749617 8.61875 0.118711 7.5 0.174961ZM14.8375 3.64996L19.3438 5.91871L22.2812 4.54996C23.9 3.79996 25.4875 3.08121 25.8125 2.95621C27.3312 2.38746 28.8125 2.34996 29.9 2.86246C30.3187 3.06246 30.6875 3.34371 30.6875 3.46871C30.6875 3.60621 30.2125 4.04371 29.775 4.29996C29.2812 4.59371 10.95 13.1437 10.275 13.4C8.75625 13.9687 6.09375 14.3562 4.7875 14.2C4.4625 14.1562 4.11875 14.0937 4.01875 14.0562L3.84375 13.9875L4.26875 13.5937L4.6875 13.2L3.425 11.625C2.725 10.7562 2.14375 10.025 2.1375 9.99371C2.1125 9.93746 3.1375 9.43746 3.28125 9.43746C3.325 9.43746 4.41875 9.84371 5.71875 10.3375L8.075 11.2312L10.4563 10.1C11.7688 9.47496 13.2875 8.75621 13.8313 8.49996C14.3688 8.24371 14.8125 8.01871 14.8125 7.99371C14.8125 7.96871 13.375 6.49371 11.6188 4.71246L8.41875 1.46871L9.0375 1.43121C10.4563 1.35621 9.76875 1.09371 14.8375 3.64996Z" fill="#888888"/>
<path d="M1.0625 23.2812V23.9375H16.1875H31.3125V23.2812V22.625H16.1875H1.0625V23.2812Z" fill="#888888"/>
</svg>
