<svg width="25" height="25" viewBox="0 0 25 25" fill="none" xmlns="http://www.w3.org/2000/svg">
<path d="M3.16406 3.2175C2.45605 3.44699 1.85059 4.06711 1.64062 4.78C1.57227 5.01926 1.5625 5.83957 1.5625 12.5095C1.5625 19.9118 1.5625 19.9753 1.66504 20.2732C1.83105 20.7761 2.17773 21.2302 2.6123 21.5134C2.71973 21.5866 2.74902 21.5866 2.80273 21.528C2.83691 21.489 4.33105 19.6482 6.12305 17.4314C7.91504 15.2146 9.50195 13.2907 9.64355 13.154C10.3857 12.4607 11.4844 12.3093 12.373 12.778C12.5342 12.8659 12.9639 13.2468 13.6035 13.8767C14.1406 14.4089 14.5996 14.8435 14.624 14.8435C14.6436 14.8435 15.6982 14.3015 16.9629 13.6374C18.2275 12.9685 19.4189 12.3728 19.6045 12.3093C19.8535 12.2214 20.0879 12.1872 20.4883 12.1677C21.167 12.1384 21.5088 12.2214 22.5781 12.6657C23.0078 12.8415 23.374 12.988 23.3984 12.988C23.418 12.988 23.4375 11.2009 23.4375 9.01828C23.4375 5.53683 23.4277 5.01437 23.3594 4.78C23.1494 4.05734 22.5391 3.44211 21.8213 3.2175C21.5332 3.12961 21.2256 3.12473 12.4854 3.12961C3.85254 3.12961 3.42773 3.13449 3.16406 3.2175ZM18.6035 5.60031C18.999 5.70773 19.2236 5.83957 19.541 6.1423C20.0342 6.61105 20.2637 7.14328 20.2637 7.81223C20.2637 9.09641 19.2529 10.1071 17.9688 10.1071C17.2949 10.1071 16.7529 9.86789 16.2695 9.35519C15.8643 8.92551 15.6738 8.43723 15.6738 7.81223C15.6738 7.16769 15.8643 6.69406 16.3037 6.23508C16.9287 5.5759 17.7246 5.35617 18.6035 5.60031Z" fill="#CA0F2E"/>
<path d="M17.5391 7.12891C17.3047 7.27539 17.1875 7.49512 17.1875 7.8125C17.1875 8.30078 17.4805 8.59375 17.9688 8.59375C18.457 8.59375 18.75 8.30078 18.75 7.8125C18.75 7.32422 18.457 7.03125 17.9688 7.03125C17.7881 7.03125 17.6465 7.06055 17.5391 7.12891Z" fill="#CA0F2E"/>
<path d="M20.1367 13.6768C20.0293 13.7012 19.248 14.0967 18.4033 14.5508C17.5586 15.0098 16.6113 15.5176 16.2988 15.6885C15.9814 15.8545 15.7227 16.0107 15.7227 16.0303C15.7227 16.0547 16.9922 17.3779 18.54 18.9795L21.3574 21.8848L21.5625 21.8604C22.0557 21.8066 22.7246 21.3672 23.042 20.8936C23.4424 20.293 23.4424 20.3076 23.4277 17.2656L23.4131 14.5801L22.2656 14.1211C21.1963 13.6865 21.0938 13.6572 20.7275 13.6426C20.5127 13.6328 20.249 13.6475 20.1367 13.6768Z" fill="#CA0F2E"/>
<path d="M11.0825 14.0576C10.9897 14.0771 10.8627 14.1211 10.8041 14.1504C10.7211 14.1992 4.65179 21.5967 4.51995 21.8164C4.49066 21.8604 5.97991 21.875 11.8881 21.875H19.2905L15.5698 18.0518C13.5239 15.9521 11.7905 14.1992 11.7221 14.1553C11.561 14.0527 11.3022 14.0137 11.0825 14.0576Z" fill="#CA0F2E"/>
</svg>
