<svg width="18" height="18" viewBox="0 0 18 18" fill="none" xmlns="http://www.w3.org/2000/svg">
<path d="M8.54423 0.020998C7.7954 0.108889 7.33485 0.217873 6.80751 0.425295C4.22001 1.45186 2.68368 4.1167 3.09852 6.86943C3.3622 8.62022 4.39227 10.1601 5.92509 11.0917C6.53329 11.4573 7.34188 11.7597 8.00985 11.8616L8.28056 11.9038L8.2911 12.9128L8.29813 13.9218H7.51766C6.83212 13.9218 6.7161 13.9323 6.59306 13.9886C6.14657 14.196 6.05516 14.7444 6.41024 15.1101C6.58954 15.2964 6.76884 15.328 7.58095 15.328H8.29462L8.30516 16.4249C8.31571 17.5112 8.31571 17.5253 8.40009 17.6589C8.44579 17.7327 8.54774 17.8347 8.62509 17.8874C8.82899 18.0245 9.17352 18.0245 9.37743 17.8874C9.45477 17.8347 9.55673 17.7327 9.60243 17.6589C9.68681 17.5253 9.68681 17.5112 9.69735 16.4249L9.7079 15.328H10.4216C11.2337 15.328 11.413 15.2964 11.5923 15.1101C11.9474 14.7444 11.8559 14.196 11.4095 13.9886C11.2864 13.9323 11.1704 13.9218 10.4849 13.9218H9.70438L9.71141 12.9128L9.72196 11.9038L9.99266 11.8616C10.6606 11.7597 11.4692 11.4573 12.0774 11.0917C15.5368 8.99287 15.9727 4.16943 12.9458 1.49405C12.1091 0.755764 11.0825 0.274122 9.95048 0.0842781C9.64813 0.0315437 8.76923 -0.00712776 8.54423 0.020998ZM9.94345 1.51162C10.8505 1.70498 11.5536 2.0917 12.2181 2.75967C13.1251 3.6667 13.554 4.69326 13.5505 5.97647C13.5505 6.546 13.5013 6.8835 13.3536 7.34756C12.8087 9.04912 11.3708 10.255 9.59891 10.494C9.13485 10.5573 8.86766 10.5573 8.4036 10.494C6.63173 10.255 5.19384 9.04912 4.64891 7.34756C4.50126 6.8835 4.45204 6.546 4.45204 5.97647C4.44852 5.36826 4.50829 5.00264 4.67704 4.51045C4.91962 3.80733 5.24306 3.30108 5.78446 2.75967C6.53681 2.00381 7.37001 1.59248 8.44227 1.44131C8.79032 1.39209 9.56727 1.42725 9.94345 1.51162Z" fill="#717171"/>
</svg>
