<svg width="24" height="24" viewBox="0 0 24 24" fill="none" xmlns="http://www.w3.org/2000/svg">
<g clip-path="url(#clip0_500_1008)">
<path d="M1.61719 3.62812C1.22344 3.72656 0.928125 3.89531 0.628125 4.19531C0.323438 4.5 0.135938 4.83281 0.0515625 5.24062C0.01875 5.4 0 6.15937 0 7.33594V9.1875H1.46719H2.92969L3.07031 8.89687C3.58125 7.83281 4.94063 7.37812 6 7.92188C6.11719 7.98281 6.39375 8.15156 6.62344 8.30625L7.03125 8.58281V6.07031V3.5625L4.44375 3.56719C2.53594 3.56719 1.79063 3.58594 1.61719 3.62812Z" fill="#CA0F2E"/>
<path d="M8.4375 6.07031V8.58281L8.85 8.30625C9.5625 7.82344 9.90938 7.6875 10.4297 7.6875C11.2641 7.6875 12.0563 8.175 12.3984 8.89687L12.5344 9.1875H18.2672H24V7.33594C24 6.13594 23.9813 5.4 23.9484 5.24062C23.775 4.43437 23.1234 3.78281 22.3219 3.61406C22.1438 3.57656 20.0906 3.5625 15.2578 3.5625H8.4375V6.07031Z" fill="#CA0F2E"/>
<path d="M4.64063 9.2007C4.40156 9.32727 4.21875 9.62258 4.21875 9.88977C4.21875 10.4476 4.87031 10.8601 5.35781 10.6116C5.5875 10.4898 6.42188 9.92727 6.42188 9.88977C6.42188 9.85227 5.5875 9.28977 5.35781 9.16789C5.14688 9.06008 4.87969 9.07414 4.64063 9.2007Z" fill="#CA0F2E"/>
<path d="M9.97969 9.24758C9.54844 9.51008 9.04688 9.85695 9.04688 9.88977C9.04688 9.92727 9.88125 10.4898 10.1109 10.6116C10.5984 10.8601 11.25 10.4476 11.25 9.88977C11.25 9.62258 11.0672 9.32727 10.8281 9.2007C10.5375 9.04602 10.2938 9.06008 9.97969 9.24758Z" fill="#CA0F2E"/>
<path d="M0 14.5547C0 17.325 0.0140625 18.5859 0.0515625 18.7594C0.225 19.5656 0.871875 20.2125 1.67813 20.3859C1.84688 20.4187 2.75156 20.4375 4.47656 20.4375H7.03125V16.3219V12.2109L6.23438 13.4062C5.39531 14.6672 5.25938 14.8125 4.93125 14.8125C4.68281 14.8125 4.42031 14.6484 4.30781 14.4281C4.13438 14.0859 4.18125 13.9547 4.81406 13.0031C5.11875 12.5437 5.38594 12.1406 5.40469 12.1125C5.42344 12.075 5.32969 12.0656 5.09063 12.0844C4.25156 12.1359 3.39844 11.6156 3.04219 10.8281L2.93438 10.5938H1.46719H0V14.5547Z" fill="#CA0F2E"/>
<path d="M12.3984 10.8844C12.0422 11.6391 11.1984 12.1359 10.3781 12.0844C10.1344 12.0656 10.0453 12.075 10.0641 12.1125C10.0828 12.1406 10.3219 12.5016 10.5938 12.9141C11.1844 13.8 11.25 13.9172 11.25 14.1094C11.25 14.4656 10.9031 14.8125 10.5516 14.8125C10.2 14.8125 10.1109 14.7234 9.24844 13.4297L8.4375 12.2109V16.3266V20.4375H15.2578C20.0953 20.4375 22.1438 20.4234 22.3219 20.3859C23.1188 20.2172 23.7797 19.5516 23.9484 18.7594C23.9859 18.5906 24 17.2734 24 14.5547V10.5938H18.2672H12.5344L12.3984 10.8844ZM20.8125 13.5C21.0234 13.6078 21.1875 13.875 21.1875 14.1094C21.1875 14.3437 21.0234 14.6109 20.8125 14.7188C20.6344 14.8078 20.5406 14.8125 17.625 14.8125C14.7094 14.8125 14.6156 14.8078 14.4375 14.7188C13.9594 14.475 13.95 13.8 14.4188 13.5187L14.6016 13.4062H17.6156C20.5453 13.4062 20.6344 13.4109 20.8125 13.5ZM20.8125 16.3125C21.0234 16.4203 21.1875 16.6875 21.1875 16.9219C21.1875 17.1562 21.0234 17.4234 20.8125 17.5312C20.6344 17.6203 20.5406 17.625 17.6203 17.625H14.6156L14.4281 17.5219C13.9547 17.2547 13.95 16.6125 14.4188 16.3312L14.6016 16.2188H17.6156C20.5453 16.2188 20.6344 16.2234 20.8125 16.3125Z" fill="#CA0F2E"/>
</g>
<defs>
<clipPath id="clip0_500_1008">
<rect width="24" height="24" fill="white"/>
</clipPath>
</defs>
</svg>
