<svg width="26" height="26" viewBox="0 0 26 26" fill="none" xmlns="http://www.w3.org/2000/svg">
<path d="M17.875 3.25C16.929 3.25 15.9959 3.47026 15.1498 3.89333C14.3036 4.31641 13.5676 4.93068 13 5.6875C12.2326 4.66432 11.1628 3.90853 9.94196 3.52718C8.72116 3.14584 7.41133 3.15826 6.19799 3.56271C4.98465 3.96716 3.92932 4.74312 3.18149 5.78067C2.43367 6.81823 2.03125 8.06478 2.03125 9.34375C2.03125 16.6461 12.1773 22.4047 12.6039 22.6484C12.7248 22.7164 12.8614 22.7514 13 22.75C13.1388 22.7524 13.2756 22.7173 13.3961 22.6484C15.2645 21.5561 17.017 20.2766 18.6266 18.8297C22.1711 15.6406 23.9688 12.4516 23.9688 9.34375C23.9688 7.72759 23.3267 6.17762 22.1839 5.03482C21.0411 3.89202 19.4912 3.25 17.875 3.25Z" fill="#CA0F2E"/>
</svg>
