<svg width="27" height="27" viewBox="0 0 27 27" fill="none" xmlns="http://www.w3.org/2000/svg">
<g clip-path="url(#clip0_494_679)">
<path d="M12.5139 0.84375C12.3082 0.896484 12.0604 0.98086 11.9602 1.02832C10.9107 1.55566 2.49961 6.20156 2.27813 6.38086C1.69805 6.84492 1.23926 7.54629 0.991406 8.33203L0.870117 8.72754V15.8994V23.0713L0.991406 23.4668C1.4291 24.8484 2.42051 25.8135 3.77051 26.1562C4.17656 26.2617 4.34531 26.2617 13.4842 26.2617C21.8689 26.2617 22.8234 26.2512 23.1662 26.1773C24.474 25.882 25.5393 24.9064 25.9875 23.5986L26.1299 23.1768L26.1457 16.0471C26.1615 8.03672 26.1826 8.51133 25.766 7.67285C25.4813 7.09805 25.0752 6.5918 24.6428 6.28066C24.3475 6.06973 17.2389 2.17793 15.525 1.29199C15.0504 1.04414 14.6496 0.880663 14.407 0.822657C13.8902 0.70664 13.0043 0.717188 12.5139 0.84375ZM9.71895 17.6186C9.99844 17.7609 10.1197 17.9455 10.2779 18.4518C10.4889 19.1109 10.7525 19.5486 11.2113 19.9863C11.8916 20.6297 12.8355 20.983 13.7004 20.9145C14.233 20.8723 14.5178 20.7984 15.0029 20.5664C15.8836 20.1445 16.5639 19.2902 16.8223 18.2725C16.9383 17.7979 17.2283 17.5605 17.6766 17.5605C18.1037 17.5605 18.457 17.9297 18.457 18.3779C18.457 18.7049 18.3094 19.1953 18.0352 19.7543C16.5639 22.7865 12.651 23.5512 10.1039 21.2994C9.2918 20.5822 8.54297 19.1637 8.54297 18.3463C8.54297 17.8928 8.88574 17.5605 9.3498 17.5605C9.49219 17.5605 9.65566 17.5869 9.71895 17.6186Z" fill="#AAAAAA"/>
</g>
<defs>
<clipPath id="clip0_494_679">
<rect width="27" height="27" fill="white"/>
</clipPath>
</defs>
</svg>
