<svg width="32" height="32" viewBox="0 0 32 32" fill="none" xmlns="http://www.w3.org/2000/svg">
<circle cx="16" cy="16" r="16" fill="black" fill-opacity="0.6"/>
<path d="M16 23.5625C16 23.5625 7.40625 18.75 7.40625 12.9063C7.40625 11.8732 7.76417 10.872 8.41913 10.0731C9.07408 9.27421 9.9856 8.72689 10.9986 8.52429C12.0116 8.32169 13.0635 8.47632 13.9754 8.96187C14.8872 9.44742 15.6027 10.2339 16 11.1875V11.1875C16.3973 10.2339 17.1128 9.44742 18.0246 8.96187C18.9365 8.47632 19.9884 8.32169 21.0014 8.52429C22.0144 8.72689 22.9259 9.27421 23.5809 10.0731C24.2358 10.872 24.5938 11.8732 24.5938 12.9063C24.5938 18.75 16 23.5625 16 23.5625Z" stroke="white" stroke-width="1.5" stroke-linecap="round" stroke-linejoin="round"/>
</svg>
