<svg width="38" height="38" viewBox="0 0 38 38" fill="none" xmlns="http://www.w3.org/2000/svg">
<circle opacity="0.3" cx="19" cy="19" r="19" fill="black"/>
<path d="M23.5001 22.0002C22.9999 21.9994 22.5046 22.0995 22.0439 22.2944C21.5833 22.4893 21.1666 22.7751 20.8188 23.1346L16.497 20.3596C16.8343 19.4848 16.8343 18.5157 16.497 17.6409L20.8188 14.8659C21.4268 15.4877 22.232 15.8788 23.0966 15.9724C23.9612 16.0659 24.8315 15.8561 25.5584 15.3787C26.2854 14.9014 26.8238 14.1862 27.0816 13.3557C27.3393 12.5251 27.3004 11.6308 26.9715 10.8257C26.6425 10.0207 26.044 9.355 25.2784 8.9426C24.5127 8.53021 23.6275 8.39674 22.7743 8.56505C21.9211 8.73335 21.1529 9.19297 20.6012 9.86523C20.0496 10.5375 19.7487 11.3806 19.7501 12.2502C19.7516 12.7149 19.8374 13.1755 20.0032 13.6096L15.6813 16.3846C15.161 15.8501 14.4931 15.4828 13.7629 15.3299C13.0328 15.177 12.2736 15.2453 11.5825 15.5261C10.8914 15.8069 10.2997 16.2875 9.88318 16.9063C9.46664 17.5252 9.24414 18.2543 9.24414 19.0002C9.24414 19.7462 9.46664 20.4753 9.88318 21.0941C10.2997 21.713 10.8914 22.1936 11.5825 22.4744C12.2736 22.7552 13.0328 22.8235 13.7629 22.6706C14.4931 22.5177 15.161 22.1504 15.6813 21.6159L20.0032 24.3909C19.8374 24.825 19.7516 25.2855 19.7501 25.7502C19.7501 26.4919 19.97 27.2169 20.3821 27.8336C20.7941 28.4503 21.3798 28.931 22.065 29.2148C22.7502 29.4986 23.5042 29.5729 24.2317 29.4282C24.9591 29.2835 25.6273 28.9263 26.1517 28.4019C26.6762 27.8774 27.0333 27.2093 27.178 26.4818C27.3227 25.7544 27.2485 25.0004 26.9646 24.3152C26.6808 23.63 26.2002 23.0443 25.5835 22.6322C24.9668 22.2202 24.2418 22.0002 23.5001 22.0002Z" fill="white"/>
</svg>
