<svg width="117" height="64" viewBox="0 0 117 64" fill="none" xmlns="http://www.w3.org/2000/svg">
<path d="M90.0064 18.0869C90.0064 18.6502 90.0064 19.1681 90.0064 19.7774C90.1562 19.6384 90.2435 19.5663 90.3205 19.4846C93.1424 16.4934 96.603 15.1819 100.702 15.4765C108.417 16.0309 114.807 22.1165 116.024 29.9629C117.234 37.7681 113.288 45.3532 106.179 48.5727C102.023 50.4552 97.7716 50.6985 93.5676 48.6299C92.7094 48.2076 91.9257 47.6337 91.0774 47.1111C91.0774 52.4335 91.0774 57.7736 91.0774 63.1451C87.5537 63.1451 84.0817 63.1451 80.5846 63.1451C80.5846 47.7673 80.5846 32.403 80.5846 17.0131C83.7082 17.0131 86.8167 17.0131 90.0064 17.0131C90.0064 17.3526 90.0064 17.697 90.0064 18.0869ZM93.7912 38.6904C95.9104 40.3719 98.2727 40.8699 100.825 39.9459C104.53 38.6041 106.494 34.6411 105.459 30.6334C104.673 27.5895 101.979 25.3032 99.0099 25.0902C93.8928 24.7232 90.1933 29.477 91.2213 34.4095C91.5751 36.1068 92.4528 37.5021 93.7912 38.6904Z" fill="white"/>
<path d="M0.759766 3.90684C0.759766 3.35885 0.759766 2.85685 0.759766 2.33938C13.3811 2.33938 25.9514 2.33938 38.5453 2.33938C38.5453 5.26125 38.5453 8.15356 38.5453 11.1008C34.0131 11.1008 29.4972 11.1008 24.9294 11.1008C24.9294 23.5729 24.9294 35.9903 24.9294 48.4378C21.4054 48.4378 17.9335 48.4378 14.414 48.4378C14.414 36.0086 14.414 23.5891 14.414 11.1205C9.84908 11.1205 5.3313 11.1205 0.759766 11.1205C0.759766 8.69872 0.759766 6.32578 0.759766 3.90684Z" fill="#FEFFFF"/>
<path d="M55.8386 16.8586C56.385 16.8983 56.8891 16.9355 57.4257 16.9751C57.4257 20.1948 57.4257 23.3916 57.4257 26.6217C56.0755 26.3561 54.7442 26.437 53.4153 26.7409C50.156 27.4862 47.5581 30.3105 47.1479 33.6113C47.0517 34.385 46.9992 35.169 46.9963 35.9485C46.9814 39.9221 46.9894 43.8958 46.9894 47.8694C46.9894 48.0506 46.9894 48.2318 46.9894 48.4397C43.479 48.4397 40.0035 48.4397 36.497 48.4397C36.497 37.9735 36.497 27.5058 36.497 17.0143C39.6304 17.0143 42.7507 17.0143 45.9221 17.0143C45.9221 18.6229 45.9221 20.2079 45.9221 21.9073C48.4191 18.4976 51.6437 16.7534 55.8386 16.8586Z" fill="white"/>
<path d="M62.709 22.9623C62.709 20.9565 62.709 18.9968 62.709 17.0124C66.2093 17.0124 69.6698 17.0124 73.1677 17.0124C73.1677 27.4716 73.1677 37.9375 73.1677 48.4348C69.7092 48.4348 66.2371 48.4348 62.709 48.4348C62.709 39.9608 62.709 31.4846 62.709 22.9623Z" fill="white"/>
<path d="M67.0143 12.5012C64.2136 12.0663 62.1108 9.60793 62.0765 6.76689C62.0425 3.9483 64.116 1.43111 66.8684 0.949751C70.0828 0.387617 73.0509 2.378 73.7224 5.54594C74.3704 8.60252 72.4385 11.6675 69.3313 12.3972C68.6036 12.568 67.8148 12.4787 67.0143 12.5012Z" fill="#FEFEFF"/>
<path d="M93.7666 38.6701C92.4534 37.5025 91.5758 36.1072 91.222 34.4099C90.1939 29.4774 93.8935 24.7236 99.0105 25.0906C101.98 25.3036 104.674 27.5899 105.46 30.6338C106.494 34.6415 104.531 38.6045 100.825 39.9463C98.2734 40.8703 95.911 40.3723 93.7666 38.6701Z" fill="#CA0F2E"/>
</svg>
