<svg width="15" height="17" viewBox="0 0 15 17" fill="none" xmlns="http://www.w3.org/2000/svg">
<path d="M6.94219 0.0665321C6.59355 0.159501 6.3877 0.279032 6.10547 0.564579C5.73691 0.929813 5.54102 1.35813 5.54102 1.79309C5.54102 1.93919 5.54766 1.96243 5.59414 1.94583C5.73691 1.88938 6.25156 1.75657 6.52051 1.70345C6.94219 1.62376 8.02129 1.62376 8.46289 1.70345C8.73848 1.75325 9.24648 1.88274 9.40586 1.94583C9.45234 1.96243 9.45898 1.93919 9.45898 1.79309C9.45898 1.56067 9.37598 1.2552 9.2498 1.01282C9.12031 0.767118 8.70859 0.348759 8.47285 0.222587C8.06445 0.00344622 7.42695 -0.0596397 6.94219 0.0665321Z" fill="#CA0F2E"/>
<path d="M6.9022 2.6563C4.83697 2.94517 3.21002 4.45259 2.78502 6.46802C2.73189 6.71372 2.70865 7.00591 2.68541 7.70317C2.64556 8.81548 2.60904 9.30688 2.50279 10.0473C2.28033 11.5879 1.77896 12.8629 1.18463 13.3909C0.822712 13.7163 0.79615 13.7461 0.776228 13.859C0.726423 14.1081 0.885798 14.377 1.11822 14.4434C1.28756 14.4899 13.7122 14.4899 13.8815 14.4434C14.1139 14.377 14.2766 14.0948 14.2235 13.8458C14.2003 13.7428 14.1704 13.7096 13.8151 13.3909C13.3801 13.0057 12.9684 12.169 12.7128 11.1596C12.467 10.1868 12.3708 9.34673 12.3143 7.70317C12.2911 7.00591 12.2678 6.71372 12.2147 6.46802C11.8196 4.59204 10.3487 3.11782 8.46939 2.72271C8.10084 2.64302 7.24752 2.60981 6.9022 2.6563Z" fill="#CA0F2E"/>
<path d="M5.19561 15.5457C5.24209 15.7084 5.521 16.077 5.77002 16.3094C6.06885 16.5916 6.42744 16.7942 6.81924 16.9037C7.19443 17.0133 7.80205 17.0133 8.17725 16.9071C8.579 16.7908 8.92764 16.5949 9.22978 16.3127C9.47881 16.077 9.75771 15.7084 9.8042 15.5457L9.82744 15.4727H7.4999H5.17236L5.19561 15.5457Z" fill="#CA0F2E"/>
</svg>
