<svg width="22" height="22" viewBox="0 0 22 22" fill="none" xmlns="http://www.w3.org/2000/svg">
<path d="M10.6007 0.0373211C10.1342 0.123344 9.89641 0.282484 8.99021 1.1126C8.42047 1.63303 8.06607 1.92551 7.95392 1.96422C7.7969 2.02013 7.68923 2.01153 6.75612 1.8911C6.19086 1.81368 5.59421 1.74916 5.43271 1.74916C4.75979 1.74056 4.14967 2.05024 3.77284 2.58358C3.54853 2.91046 3.49918 3.0696 3.28385 4.25671C3.18515 4.79865 3.073 5.29758 3.03711 5.3707C2.95188 5.52124 2.83524 5.59435 1.91558 6.05457C0.663948 6.68254 0.448613 6.84598 0.188418 7.36641C0.0448613 7.65889 0.00448613 7.86534 0 8.25674C0 8.61804 0.067292 8.79868 0.623573 9.89116C0.986949 10.6094 1.0991 10.8675 1.0991 11.0009C1.0991 11.1342 0.986949 11.3923 0.623573 12.1105C0.067292 13.203 0 13.3837 0 13.745C0.00448613 14.1364 0.0448613 14.3428 0.188418 14.6353C0.448613 15.1557 0.663948 15.3192 1.91558 15.9471C2.83524 16.4073 2.95188 16.4805 3.03711 16.631C3.073 16.7041 3.18515 17.2031 3.28385 17.7493C3.38254 18.2912 3.4947 18.8246 3.5261 18.9321C3.76835 19.7063 4.52202 20.2439 5.3699 20.2525C5.54486 20.2568 6.15498 20.1923 6.73369 20.1149C7.68923 19.9902 7.7969 19.9816 7.95392 20.0375C8.06607 20.0762 8.42047 20.3687 8.99021 20.8891C9.67659 21.5214 9.90987 21.7063 10.1342 21.8052C10.5155 21.9773 10.9192 22.0375 11.2961 21.9773C11.8569 21.887 12.0632 21.7579 13.0098 20.8891C13.5795 20.3687 13.9339 20.0762 14.0461 20.0375C14.2031 19.9816 14.3108 19.9902 15.2439 20.1106C15.8091 20.188 16.4058 20.2525 16.5673 20.2525C17.2402 20.2611 17.8503 19.9515 18.2272 19.4181C18.4515 19.0912 18.5008 18.9321 18.7162 17.745C18.8148 17.2031 18.927 16.7041 18.9629 16.631C19.0481 16.4762 19.1468 16.4159 20.2011 15.8869C21.197 15.3837 21.4168 15.2331 21.6546 14.8891C21.8923 14.5536 21.9955 14.2353 22 13.8138C22 13.3751 21.9551 13.2503 21.3764 12.1105C21.0131 11.3923 20.9009 11.1342 20.9009 11.0009C20.9009 10.8675 21.0131 10.6094 21.3764 9.89116C21.9551 8.75137 22 8.62664 22 8.18792C21.9955 7.76642 21.8923 7.44813 21.6546 7.11265C21.4168 6.76856 21.197 6.61802 20.2011 6.11479C19.1468 5.58575 19.0481 5.52554 18.9629 5.3707C18.927 5.29758 18.8148 4.79865 18.7162 4.25671C18.5008 3.0696 18.4515 2.91046 18.2272 2.58358C17.8503 2.05024 17.2402 1.74056 16.5673 1.74916C16.4058 1.74916 15.8091 1.81368 15.2439 1.8911C14.3108 2.01153 14.2031 2.02013 14.0461 1.96422C13.9339 1.92551 13.5795 1.63303 13.0098 1.1126C12.3324 0.493238 12.0856 0.295387 11.8748 0.200764C11.4441 0.00721359 11.0404 -0.0443993 10.6007 0.0373211ZM8.86011 5.34489C9.89641 5.55564 10.6815 6.42877 10.7622 7.46104C10.8475 8.54922 10.0669 9.58148 8.94984 9.86106C8.12887 10.0675 7.26754 9.83095 6.64845 9.2374C5.91272 8.53201 5.72431 7.51695 6.15946 6.62662C6.63948 5.65027 7.75653 5.12123 8.86011 5.34489ZM15.7015 6.26963C15.9886 6.43737 16.1097 6.81157 15.9617 7.07824C15.8809 7.22017 7.02529 15.702 6.88622 15.7708C6.73369 15.8439 6.46003 15.8267 6.29853 15.7321C6.01142 15.5643 5.89029 15.1901 6.03834 14.9235C6.1146 14.7944 14.9657 6.30404 15.1048 6.23092C15.2484 6.1578 15.54 6.175 15.7015 6.26963ZM14.2794 12.1449C14.9119 12.3256 15.522 12.7987 15.7957 13.3191C16.2622 14.2009 16.1097 15.2676 15.4278 15.9514C14.6472 16.7342 13.575 16.9278 12.5926 16.4676C11.803 16.0934 11.3006 15.3794 11.2378 14.5407C11.1525 13.4654 11.9286 12.4288 13.0322 12.1406C13.3552 12.0589 13.9788 12.0589 14.2794 12.1449Z" fill="#CA0F2E"/>
<path d="M7.8823 6.66965C7.48752 6.8503 7.2677 7.18149 7.26322 7.603C7.25873 8.20085 7.72977 8.65247 8.35335 8.65247C9.45245 8.65247 9.8562 7.28041 8.9186 6.72127C8.61354 6.54492 8.2053 6.52342 7.8823 6.66965Z" fill="#CA0F2E"/>
<path d="M13.4001 13.3621C12.4491 13.5987 12.2517 14.7858 13.0816 15.2761C13.3777 15.4525 13.759 15.4783 14.0865 15.345C14.9299 14.9966 14.9613 13.8525 14.1358 13.4525C13.9474 13.3578 13.5885 13.3148 13.4001 13.3621Z" fill="#CA0F2E"/>
</svg>
