<svg width="24" height="24" viewBox="0 0 24 24" fill="none" xmlns="http://www.w3.org/2000/svg">
<path d="M11.3456 0.731251C8.75338 1.05938 6.74244 2.69063 5.95963 5.09531C5.70182 5.87813 5.66432 6.24375 5.64088 8.13281L5.61276 9.87188L5.29869 9.92344C4.53463 10.0406 3.95338 10.5188 3.65338 11.2734L3.54088 11.5547L3.52682 16.3828C3.51744 19.7719 3.52682 21.3 3.56432 21.5156C3.70494 22.3359 4.32838 23.0156 5.13463 23.2266C5.37838 23.2875 6.23151 23.2969 12.0018 23.2969C17.7721 23.2969 18.6253 23.2875 18.869 23.2266C19.5815 23.0391 20.1253 22.5234 20.3737 21.7969C20.4581 21.5484 20.4628 21.3188 20.4628 16.5703V11.6016L20.3503 11.2969C20.0737 10.5375 19.4831 10.0453 18.7049 9.92344L18.3909 9.87188L18.3628 8.13281C18.3393 6.24375 18.3018 5.87813 18.044 5.09531C17.5237 3.49688 16.3987 2.17031 14.9268 1.42031C14.3924 1.14375 13.7737 0.928125 13.2159 0.820314C12.8315 0.745314 11.6737 0.689064 11.3456 0.731251ZM13.0237 2.22188C14.6081 2.55938 15.9299 3.65156 16.5628 5.15625C16.8815 5.90625 16.8909 5.98594 16.9096 8.025L16.9284 9.89063H12.0018H7.07526L7.09401 8.025C7.10807 6.29531 7.11744 6.14063 7.21119 5.80781C7.48307 4.84219 7.91901 4.12031 8.62682 3.45C9.41901 2.70469 10.2815 2.31094 11.5096 2.1375C11.7721 2.1 12.6815 2.15156 13.0237 2.22188ZM12.5128 13.4766C13.7971 13.7813 14.4815 15.2203 13.9096 16.425C13.7128 16.8422 13.3706 17.1938 12.9909 17.3766L12.7096 17.5078L12.7049 18.375C12.7049 19.1063 12.6909 19.2703 12.6206 19.4063C12.3909 19.8703 11.6128 19.8703 11.3831 19.4063C11.3128 19.2703 11.2987 19.1063 11.2987 18.375L11.294 17.5078L11.0128 17.3766C10.8581 17.3016 10.6237 17.1328 10.4924 17.0016C9.68151 16.1906 9.69557 14.8125 10.5299 14.0016C10.7831 13.7531 11.0831 13.5844 11.4393 13.4906C11.819 13.3922 12.1284 13.3875 12.5128 13.4766Z" fill="#CA0F2E"/>
</svg>
