<svg width="50" height="50" viewBox="0 0 50 50" fill="none" xmlns="http://www.w3.org/2000/svg">
<g clip-path="url(#clip0_250_119)">
<path d="M23.3984 0.0976562C21.162 0.351562 18.9941 1.13281 17.1386 2.34375C13.789 4.54102 11.6113 7.69531 10.7226 11.6309C10.5273 12.5195 10.498 12.8906 10.5077 14.5996C10.5077 16.2109 10.5468 16.7188 10.7226 17.4805C11.1913 19.5996 11.8456 21.1035 13.0956 22.9492C13.5546 23.623 14.3456 24.7852 14.8632 25.5371C16.7382 28.3008 18.7011 31.7773 21.6991 37.6465C23.2226 40.6445 23.4277 40.9863 23.789 41.2402C24.5409 41.7676 25.4589 41.7676 26.2109 41.2402C26.5429 41.0059 26.7284 40.7324 27.3339 39.5508C30.371 33.5547 31.8456 30.9863 35.9374 24.5605C38.1933 21.0059 38.8085 19.7266 39.2577 17.627C39.58 16.1133 39.6288 13.7598 39.3749 12.2461C38.5741 7.56836 35.6738 3.64258 31.4648 1.52344C30.537 1.05469 28.662 0.439453 27.5878 0.253906C26.5038 0.0585938 24.4335 -0.0195312 23.3984 0.0976562ZM26.6113 8.56445C28.1445 8.94531 29.6386 10.1172 30.498 11.6211C31.1327 12.7441 31.3964 14.502 31.1132 15.8203C30.6249 18.1543 28.7304 20.1172 26.4648 20.6445C26.1132 20.7324 25.4589 20.8008 24.9999 20.8008C23.2519 20.8008 21.8945 20.2344 20.6445 18.9941C19.3163 17.666 18.6718 16.0352 18.7792 14.248C18.8866 12.4805 19.6972 10.8887 21.0546 9.76562C22.5878 8.49609 24.5995 8.06641 26.6113 8.56445Z" fill="#CA0F2E"/>
<path d="M24.2773 12.6468C23.0664 13.0765 22.5586 14.6878 23.3008 15.7523C24.4043 17.3148 26.875 16.6898 27.0312 14.7953C27.1582 13.2328 25.7422 12.1195 24.2773 12.6468Z" fill="#CA0F2E"/>
<path d="M12.207 30.5474C11.748 30.606 9.42381 31.27 8.30076 31.6606C6.86521 32.1587 4.83396 33.1353 3.76951 33.8188C-0.117211 36.3579 -1.07424 40.0493 1.3281 43.1841C2.25584 44.3755 3.72068 45.4399 5.90818 46.4946C9.52146 48.2329 14.0136 49.2778 20.2148 49.8247C22.0605 49.9907 27.9394 49.9907 29.7851 49.8247C37.2754 49.1704 42.666 47.6763 46.3379 45.2544C48.8379 43.604 50.1074 41.5337 49.9707 39.3071C49.7558 35.6841 46.0547 32.7837 39.2676 30.9087C37.7246 30.4888 37.1679 30.4595 36.5332 30.7817C35.3711 31.3872 35.0879 32.9497 35.9668 33.9458C36.3574 34.395 36.5625 34.4927 37.8906 34.854C41.2207 35.772 43.5058 36.8169 44.7851 38.0181C45.6347 38.8091 45.8398 39.1509 45.7715 39.7173C45.5273 41.8755 39.834 44.3364 32.8125 45.3032C30.0195 45.6841 28.8476 45.7524 25 45.7524C21.1523 45.7524 19.9804 45.6841 17.1875 45.3032C12.1875 44.6099 7.69529 43.1353 5.52732 41.4849C4.68748 40.8403 4.28709 40.2935 4.22849 39.7173C4.16013 39.1509 4.36521 38.8091 5.21482 38.0181C6.49412 36.8169 8.77927 35.772 12.1094 34.854C13.3886 34.5024 13.6133 34.4048 13.9844 34.0142C14.834 33.1255 14.707 31.6216 13.7109 30.938C13.3203 30.6646 12.6465 30.4888 12.207 30.5474Z" fill="#CA0F2E"/>
</g>
<defs>
<clipPath id="clip0_250_119">
<rect width="50" height="50" fill="white"/>
</clipPath>
</defs>
</svg>
