<svg width="28" height="28" viewBox="0 0 28 28" fill="none" xmlns="http://www.w3.org/2000/svg">
<g clip-path="url(#clip0_500_1057)">
<path d="M13.015 0.907949C11.697 1.0556 10.9259 1.2142 9.9798 1.51498C7.20714 2.40639 4.79542 4.20014 3.17667 6.58451C2.04464 8.25248 1.3337 10.0736 1.00011 12.1517C0.868858 13.0103 0.868858 14.979 1.00558 15.8486C1.41026 18.4298 2.42198 20.6556 4.07355 22.5751C6.16261 25.0087 9.08292 26.5728 12.3587 27.0267C13.0314 27.1197 14.9728 27.1142 15.64 27.0212C19.4517 26.4962 22.6837 24.522 24.8165 21.4212C25.9431 19.7861 26.6704 17.9267 26.9931 15.8486C27.1298 14.99 27.1298 13.0158 26.9986 12.1572C26.5501 9.30795 25.2868 6.77045 23.329 4.79076C21.311 2.74545 18.79 1.47123 15.8751 1.01186C15.3665 0.929825 13.4251 0.85873 13.015 0.907949ZM14.4806 6.27279C14.5571 6.32748 14.672 6.44779 14.7321 6.52983C14.847 6.67748 14.847 6.73217 14.847 10.0626C14.847 13.3931 14.847 13.4478 14.7321 13.5954C14.5189 13.8853 14.3439 13.9728 13.9993 13.9728C13.6548 13.9728 13.4798 13.8853 13.2665 13.5954C13.1517 13.4478 13.1517 13.3822 13.1353 10.2103C13.1243 8.42748 13.1353 6.89623 13.1517 6.79779C13.19 6.57904 13.4196 6.30014 13.6439 6.2017C13.8626 6.09779 14.3001 6.13607 14.4806 6.27279ZM10.122 7.74389C10.3298 7.84779 10.5048 8.11029 10.5376 8.36186C10.5868 8.72826 10.4775 8.92514 9.95245 9.40639C7.81417 11.3587 7.27277 14.29 8.58527 16.8384C9.74464 19.0861 12.3095 20.4204 14.7923 20.0704C15.8587 19.9173 16.9962 19.4361 17.8056 18.7908C19.4681 17.4728 20.3595 15.2689 20.0696 13.2072C19.8618 11.7634 19.1126 10.347 18.079 9.43373C17.554 8.97436 17.4501 8.67904 17.6579 8.22514C17.7837 7.95717 18.0298 7.76576 18.3142 7.72748C18.697 7.67826 18.8939 7.79311 19.5446 8.44389C20.6712 9.56498 21.3876 10.872 21.7157 12.4142C21.8798 13.1908 21.8962 14.5908 21.7431 15.3947C21.4423 17.0079 20.715 18.3861 19.5501 19.5509C18.3853 20.7158 17.0071 21.4431 15.3939 21.7439C14.6446 21.8861 13.354 21.8861 12.6048 21.7439C9.35636 21.1314 6.86261 18.6431 6.25558 15.3947C6.10245 14.5962 6.11886 13.1908 6.27745 12.4306C6.64386 10.7298 7.48605 9.27514 8.7712 8.1267C9.35089 7.60717 9.67902 7.5142 10.122 7.74389Z" fill="#CA0F2E"/>
</g>
<defs>
<clipPath id="clip0_500_1057">
<rect width="28" height="28" fill="white"/>
</clipPath>
</defs>
</svg>
