<svg width="20" height="20" viewBox="0 0 20 20" fill="none" xmlns="http://www.w3.org/2000/svg">
<path d="M10.2732 0.859373C6.54276 1.16406 3.43729 3.62109 2.28495 7.1875C2.20683 7.43359 2.13651 7.64062 2.13261 7.64844C2.12479 7.65234 1.97636 7.4375 1.79667 7.16797C1.61698 6.89844 1.41386 6.625 1.34354 6.5664C0.956826 6.22656 0.331826 6.33984 0.0896386 6.79297C-0.0158302 6.99609 -0.0314552 7.36328 0.0544823 7.53516C0.210732 7.83203 2.03495 10.543 2.14042 10.6328C2.30839 10.7734 2.51151 10.832 2.76151 10.8125C2.96464 10.793 3.04276 10.75 4.42558 9.82031C5.22245 9.28516 5.92558 8.80469 5.98417 8.75391C6.26151 8.52344 6.33964 8.08594 6.16386 7.74609C5.99589 7.41406 5.53886 7.22266 5.18339 7.33984C5.10917 7.36719 4.7537 7.58594 4.39433 7.83203C4.03104 8.07812 3.73026 8.27344 3.72245 8.26953C3.70292 8.24609 3.86698 7.69922 3.98808 7.39453C4.51151 6.0664 5.35526 4.96484 6.48808 4.12109C9.42948 1.92969 13.5545 2.23047 16.1521 4.82422C17.5545 6.22656 18.3201 8.08203 18.3201 10.0781C18.3201 11.3281 18.0623 12.3711 17.4764 13.5156C17.1443 14.1562 16.7928 14.6445 16.2732 15.1836C15.5701 15.9141 15.0154 16.3203 14.1599 16.7383C11.617 17.9766 8.71073 17.6875 6.43339 15.9687C5.99589 15.6406 5.34745 14.9844 4.98808 14.5078C4.65214 14.0547 4.48417 13.9453 4.15604 13.9453C3.53886 13.9492 3.13651 14.5859 3.40995 15.1211C3.64433 15.5859 4.53886 16.582 5.21464 17.1289C6.22245 17.9492 7.46464 18.5742 8.70683 18.8867C10.1717 19.2539 11.6834 19.2539 13.1443 18.8867C15.324 18.3359 17.2224 17 18.4724 15.1289C19.1912 14.0547 19.699 12.7344 19.9099 11.4062C20.0076 10.7773 20.0076 9.30469 19.9099 8.67187C19.4646 5.8164 17.8006 3.39062 15.324 1.99609C13.8201 1.14844 11.9373 0.726561 10.2732 0.859373Z" fill="#969696"/>
<path d="M10.4765 5.04296C10.2734 5.14453 10.0898 5.35937 10.0351 5.55468C10.0117 5.64843 9.99997 6.53515 10.0078 7.97656C10.0195 10.0195 10.0273 10.2656 10.0859 10.3711C10.1953 10.5664 12.7656 13.1602 12.9453 13.2539C13.3203 13.4492 13.832 13.3125 14.039 12.957C14.1758 12.7227 14.1992 12.5469 14.125 12.293C14.0664 12.0937 13.9961 12.0117 12.875 10.8711L11.6836 9.66015L11.6718 7.60937L11.6601 5.55859L11.5429 5.37109C11.3164 5.00781 10.8437 4.86328 10.4765 5.04296Z" fill="#969696"/>
</svg>
