<svg width="18" height="18" viewBox="0 0 18 18" fill="none" xmlns="http://www.w3.org/2000/svg">
<path d="M8.47266 0.74634C6.375 1.02759 4.42188 2.13696 3.08984 3.80493C2.53516 4.49634 2.00391 5.45728 1.73438 6.25806C1.66016 6.47681 1.58984 6.6565 1.57812 6.6565C1.56641 6.6565 1.48828 6.48072 1.40625 6.26587C1.32031 6.04712 1.23438 5.86353 1.21484 5.8479C1.17188 5.82056 0.132812 6.22681 0.132812 6.27368C0.132812 6.35572 1.34766 9.33228 1.41016 9.40259C1.64453 9.66431 2.12109 9.63306 2.32812 9.34009C2.39844 9.24243 2.41797 9.13697 2.44531 8.75025C2.53125 7.49634 2.80469 6.50025 3.33594 5.54712C5 2.55493 8.54688 1.1604 11.7969 2.2229C13.9258 2.91821 15.6445 4.64087 16.3398 6.77368C16.9375 8.60962 16.7734 10.5901 15.8906 12.2737C14.8711 14.2151 13.1406 15.5159 10.9531 15.9846C10.5039 16.0784 10.3906 16.0862 9.56641 16.0862C8.74219 16.0862 8.62891 16.0784 8.17578 15.9807C6.15625 15.551 4.47656 14.3596 3.44922 12.6292L3.24609 12.2854L2.75391 12.5432C2.48438 12.6838 2.24609 12.8127 2.23047 12.8284C2.19141 12.8596 2.45312 13.3284 2.74219 13.7463C4.10156 15.7112 6.23438 16.9885 8.64844 17.2815C9.13281 17.3401 10.1406 17.3284 10.6602 17.262C12.5547 17.012 14.207 16.1838 15.543 14.8127C16.2305 14.1096 16.6289 13.5549 17.043 12.7229C17.6484 11.5081 17.9141 10.3713 17.9141 9.00025C17.918 7.64478 17.6523 6.51197 17.0547 5.28931C16.6797 4.5315 16.1875 3.83618 15.5703 3.20337C14.2227 1.82837 12.5586 0.992434 10.6406 0.734621C10.1172 0.668215 9.03125 0.672121 8.47266 0.74634Z" fill="#717171"/>
<path d="M8.41406 7.60156C8.41406 9.6875 8.41797 9.76562 8.49219 9.89062C8.53516 9.96094 8.625 10.0508 8.69531 10.0938C8.82031 10.168 8.89844 10.1719 10.6914 10.1719H12.5547V9.96484C12.5547 9.85547 12.543 9.58984 12.5273 9.37891L12.5039 9H11.0234H9.54688V7.22266V5.44531H8.98047H8.41406V7.60156Z" fill="#717171"/>
</svg>
