<svg width="40" height="40" viewBox="0 0 40 40" fill="none" xmlns="http://www.w3.org/2000/svg">
<path d="M6.33649 2.6249C6.08649 2.9374 6.10993 3.60927 6.36774 3.86708C6.60993 4.11708 6.94586 4.1249 7.17243 3.88271C7.42243 3.61708 7.42243 2.83583 7.16461 2.59365C6.9068 2.35146 6.53961 2.36708 6.33649 2.6249Z" fill="#717171"/>
<path d="M2.6959 4.72691C2.35215 5.06285 2.46153 5.43003 3.00059 5.74253C3.40684 5.97691 3.6959 5.99253 3.90684 5.7816C4.25059 5.43785 4.06309 4.96128 3.46153 4.6566C3.11778 4.48472 2.91465 4.50035 2.6959 4.72691Z" fill="#717171"/>
<path d="M9.87465 4.78125C9.56215 4.99219 9.48402 5.08594 9.4684 5.30469C9.43715 5.61719 9.69496 5.9375 9.97621 5.9375C10.2028 5.9375 10.5934 5.75 10.8434 5.52344C11.0934 5.29687 11.0778 4.90625 10.8121 4.69531C10.5231 4.46875 10.3121 4.49219 9.87465 4.78125Z" fill="#717171"/>
<path d="M6.21094 4.91413C5.08594 5.211 4.29688 6.31257 4.39844 7.43757C4.50782 8.67194 5.39063 9.51569 6.64844 9.59382C7.17969 9.62507 7.30469 9.60163 7.70313 9.42194C8.58594 9.01569 9.0625 8.336 9.125 7.38288C9.1875 6.39069 8.67188 5.51569 7.78907 5.086C7.38282 4.89069 6.61719 4.80475 6.21094 4.91413ZM7.41407 6.22663C7.94532 6.62507 8.10938 7.25007 7.82813 7.81257C7.42188 8.63288 6.1875 8.65632 5.72657 7.84382C5.35938 7.211 5.61719 6.43757 6.28907 6.12507C6.59375 5.98444 7.14844 6.03132 7.41407 6.22663Z" fill="#717171"/>
<path d="M25.2736 8.42188C24.8829 8.60938 13.3439 16.5703 12.9767 16.9062C12.6408 17.2188 12.5001 17.5547 12.5001 18.0469C12.5001 18.5391 12.6408 18.875 12.9767 19.1953C13.3126 19.5078 13.5783 19.6094 14.0704 19.6094H14.4533V26.3281V33.0469H13.9064C13.2658 33.0469 13.047 33.1875 13.047 33.6172C13.047 34.0781 13.2423 34.1719 14.2658 34.2031L15.1564 34.2344V35.3203V36.4062H12.1564H9.15638L9.1095 35.9141C8.9845 34.6719 8.11732 20.9219 8.15638 20.8828C8.17982 20.8594 8.96107 21.0781 9.89857 21.3672C10.8283 21.6562 11.7111 21.8906 11.8595 21.8906C12.172 21.8906 12.4767 21.6875 12.6876 21.3359C12.8126 21.1172 12.8204 21.0312 12.7423 20.6484C12.5548 19.6953 11.8439 18.6641 11.0001 18.1172L10.547 17.8281L11.0626 17.5078C11.6329 17.1484 11.8439 16.8047 11.7658 16.375C11.6954 16 11.5158 15.7969 11.0314 15.5547C10.4142 15.2422 9.82044 15.1328 9.05482 15.1719C8.32044 15.2109 7.65638 15.4609 7.09388 15.9062L6.77357 16.1562L6.31263 15.8125C5.21888 15.0156 3.65638 14.9297 2.39857 15.6094C2.18763 15.7266 1.96888 15.9141 1.89857 16.0469C1.65638 16.5078 1.81263 17.1484 2.21888 17.3594C2.31263 17.4062 2.51575 17.5312 2.67982 17.6328L2.97669 17.8203L2.50794 18.1328C1.70325 18.6719 1.07044 19.5547 0.828254 20.4922C0.687629 21.0391 0.765754 21.3906 1.10169 21.6719C1.50013 22.0078 1.57044 22 3.65638 21.3594C4.57044 21.0781 5.34388 20.8672 5.36732 20.8906C5.41419 20.9375 4.49232 35.6328 4.40638 36.1484L4.36732 36.3984L2.33607 36.4219C0.304817 36.4453 0.297004 36.4453 0.148567 36.6328C-0.0467458 36.8672 -0.0389333 37.1172 0.164192 37.375L0.320442 37.5781H20.0001H39.6798L39.8361 37.375C40.0392 37.1172 40.047 36.8672 39.8517 36.6328C39.7033 36.4531 39.6642 36.4453 38.2892 36.4219L36.8751 36.3984V35.3125V34.2344L37.7814 34.2031C38.6251 34.1797 38.6954 34.1641 38.8361 33.9922C39.0079 33.7734 39.0314 33.4531 38.8751 33.2344C38.7892 33.1172 38.6408 33.0781 38.1486 33.0469L37.5392 33.0078L37.5158 26.3047L37.5001 19.6094H37.9298C39.4767 19.6094 40.1095 17.7578 38.8986 16.7812C38.6408 16.5781 34.5392 13.7344 33.3204 12.9141C33.0626 12.7422 32.6876 12.7891 32.5079 13.0156C32.297 13.2812 32.3048 13.4609 32.5236 13.7031C32.6173 13.8125 33.9611 14.7734 35.5079 15.8438C37.922 17.5156 38.3204 17.8203 38.3439 18C38.3986 18.4688 37.9767 18.5781 37.4611 18.2266C37.2892 18.1094 34.7736 16.375 31.8751 14.375C28.9767 12.3672 26.5236 10.6875 26.4298 10.6406C26.1095 10.4688 25.7501 10.5312 25.2658 10.8438C25.0158 11.0078 22.4533 12.7734 19.5704 14.7656C16.6954 16.7578 14.2423 18.4062 14.1173 18.4219C13.6251 18.5 13.4923 17.9531 13.9298 17.6328C14.0626 17.5234 16.7658 15.6562 19.922 13.4688C23.797 10.7969 25.7423 9.49219 25.9064 9.46875C26.047 9.45312 26.2345 9.48438 26.3361 9.53906C26.4376 9.58594 27.4142 10.25 28.5079 11C30.5861 12.4375 30.7658 12.5234 31.0939 12.2266C31.2189 12.1172 31.2501 12 31.2345 11.7656L31.2111 11.4453L29.2579 10.0938C28.1876 9.34375 27.1564 8.64844 26.9689 8.53906C26.5079 8.26562 25.7189 8.21094 25.2736 8.42188ZM31.2345 15.3516L36.3283 18.8672V25.9141V32.9688H33.8673H31.4064V28.4375V23.9141L31.797 23.9609C32.3204 24.0234 32.9611 23.7188 33.2658 23.2656C33.5626 22.8125 33.5939 22.1172 33.3439 21.6484C33.0939 21.1797 31.5079 19.9219 31.1642 19.9219C30.8283 19.9219 30.6095 20.1797 30.6408 20.5312C30.6642 20.7812 30.7345 20.875 31.2892 21.3125C32.2423 22.0703 32.3439 22.1719 32.3439 22.375C32.3439 22.625 32.0861 22.8438 31.8595 22.7812C31.7579 22.7578 30.4845 21.7891 29.0236 20.625C26.8126 18.875 26.3283 18.5234 26.1173 18.5156C25.8517 18.5156 25.3908 18.8516 21.5783 21.7734C20.8283 22.3438 20.1642 22.8125 20.0861 22.8125C19.8126 22.8125 19.6564 22.6016 19.6798 22.2578C19.6876 22.1094 25.8595 17.3984 26.0861 17.3594C26.172 17.3438 26.5392 17.5781 27.0001 17.9375C28.7189 19.2891 28.8439 19.375 29.047 19.375C29.4611 19.375 29.7345 18.8906 29.5314 18.5156C29.4376 18.3438 27.2111 16.5781 26.8126 16.3672C26.422 16.1562 25.7501 16.1562 25.3829 16.375C24.8595 16.6875 19.1798 21.0312 18.8908 21.3359C18.2345 22.0469 18.3829 23.125 19.2111 23.7109C19.4923 23.9062 19.6095 23.9453 20.047 23.9453H20.547V28.4531V32.9688H18.1251H15.7033V25.9141V18.8594L18.8908 16.6641C20.6408 15.4531 22.9298 13.8672 23.9845 13.1328C25.0392 12.3984 25.9533 11.8125 26.0236 11.8203C26.0939 11.8281 28.4376 13.4141 31.2345 15.3516ZM5.28138 16.5469C5.6095 16.7109 5.88294 16.9531 6.297 17.4453C6.672 17.8828 6.84388 17.8438 7.52357 17.1641C7.94544 16.7344 8.17982 16.5547 8.46888 16.4609C8.91419 16.3047 9.75794 16.2969 10.1486 16.4375L10.4142 16.5312L9.50013 17.0625C8.60169 17.5859 8.43763 17.7344 8.43763 18.0312C8.43763 18.3281 8.69544 18.5078 9.33607 18.6719C10.2892 18.9141 11.0001 19.4609 11.3751 20.2578C11.4533 20.4141 11.4923 20.5625 11.4767 20.5781C11.4533 20.6016 10.4298 20.3047 9.19544 19.9219C7.95325 19.5312 6.86732 19.2188 6.76575 19.2188C6.672 19.2188 5.57825 19.5312 4.33607 19.9219C3.09388 20.3047 2.06263 20.6094 2.047 20.5859C1.96888 20.5156 2.39857 19.8125 2.72669 19.4844C3.14075 19.0625 3.64857 18.7891 4.31263 18.6328C4.84388 18.5156 5.07825 18.3125 5.07825 17.9922C5.07825 17.7266 4.84388 17.5234 3.96888 17.0312C3.547 16.7969 3.20325 16.5781 3.20325 16.5469C3.19544 16.2891 4.78138 16.2891 5.28138 16.5469ZM28.1876 21.4531L30.2345 23.0703V28.0156V32.9688H29.7267H29.2189V29.0703C29.2189 25.3203 29.2111 25.1719 29.0626 24.9844C28.7814 24.6172 28.6408 24.6016 25.8751 24.625L23.2814 24.6484L23.0314 24.9062L22.7736 25.1562L22.7501 29.0625L22.7267 32.9688H22.2267H21.7189V28.0547V23.1406L23.8908 21.4922C25.0783 20.5859 26.0704 19.8438 26.0939 19.8438C26.1173 19.8438 27.0626 20.5703 28.1876 21.4531ZM6.90638 20.5625C6.92982 20.6641 7.15638 24.0781 7.422 28.1641C7.67982 32.2422 7.91419 35.7734 7.93763 35.9922L7.9845 36.4062H6.77357H5.56263L5.59388 36.0703C5.61732 35.8906 5.83607 32.5078 6.09388 28.5547C6.63294 20.1641 6.61732 20.3906 6.76575 20.3906C6.82044 20.3906 6.89075 20.4688 6.90638 20.5625ZM28.047 29.375V32.9688H25.9767H23.9064V29.375V25.7812H25.9767H28.047V29.375ZM20.547 35.3125V36.4062H18.4376H16.3283V35.3125V34.2188H18.4376H20.547V35.3125ZM30.2345 35.3125V36.4062H25.9767H21.7189V35.3125V34.2188H25.9767H30.2345V35.3125ZM35.7033 35.3125V36.4062H33.5548H31.4064V35.3125V34.2188H33.5548H35.7033V35.3125Z" fill="#717171"/>
<path d="M24.5781 14.6172C24.2969 14.8359 24.2969 15.2422 24.5781 15.4609C24.7734 15.6172 24.8906 15.625 26.3438 15.625C27.8906 15.625 27.8984 15.625 28.0859 15.4297C28.1953 15.3281 28.2812 15.1484 28.2812 15.0391C28.2812 14.9297 28.1953 14.75 28.0859 14.6484C27.8984 14.4531 27.8906 14.4531 26.3438 14.4531C24.8906 14.4531 24.7734 14.4609 24.5781 14.6172Z" fill="#717171"/>
<path d="M17.2263 24.7186C17.0935 24.7733 16.9138 24.9217 16.8357 25.0467C16.695 25.2499 16.6794 25.4374 16.656 27.1483C16.6325 29.2186 16.6638 29.3749 17.1325 29.7186C17.4528 29.9608 18.82 29.9999 19.2185 29.7811C19.7263 29.5077 19.7653 29.328 19.7653 27.2655C19.7653 25.1952 19.7263 24.9999 19.2185 24.7499C18.8825 24.578 17.5935 24.5624 17.2263 24.7186ZM18.5935 27.2733V28.7577L18.2263 28.7342L17.8513 28.7108L17.8278 27.2421L17.8122 25.7811H18.2028H18.5935V27.2733Z" fill="#717171"/>
<path d="M32.7344 24.7812C32.2812 25.0859 32.2656 25.1641 32.2656 27.2656C32.2656 29.0469 32.2734 29.1953 32.4219 29.4375C32.6406 29.7969 32.9922 29.9219 33.7891 29.9219C34.5469 29.9219 34.8906 29.8125 35.1406 29.4922C35.3047 29.2812 35.3125 29.2109 35.3125 27.2578V25.2344L35.0469 24.9375L34.7812 24.6484L33.8906 24.625C33.0703 24.6016 32.9922 24.6094 32.7344 24.7812ZM34.1406 27.2656V28.75H33.7891H33.4375V27.2656V25.7812H33.7891H34.1406V27.2656Z" fill="#717171"/>
<path d="M24.219 22.3203C23.8206 22.4688 23.6877 22.9844 23.9846 23.2812C24.1331 23.4297 24.2424 23.4375 26.0002 23.4375C27.844 23.4375 27.8674 23.4375 28.0315 23.2578C28.3127 22.9609 28.2502 22.5703 27.8831 22.3828C27.7112 22.2891 27.3206 22.2656 26.0002 22.2734C25.0862 22.2734 24.2815 22.2969 24.219 22.3203Z" fill="#717171"/>
<path d="M24.3828 28.9529C24.1016 29.3123 24.1719 29.7733 24.5469 29.9686C25.1484 30.2811 25.6641 29.5154 25.2266 28.9529C25.1094 28.8045 24.9922 28.7498 24.8047 28.7498C24.6172 28.7498 24.5 28.8045 24.3828 28.9529Z" fill="#717171"/>
<path d="M3.04728 8.71875C2.85197 8.82813 2.64884 8.96875 2.60197 9.03906C2.33634 9.39063 2.61759 9.92188 3.07072 9.92188C3.32853 9.92188 3.79728 9.6875 3.96916 9.46875C4.14103 9.25 4.08634 8.85938 3.85978 8.67969C3.59416 8.46875 3.47697 8.47656 3.04728 8.71875Z" fill="#717171"/>
<path d="M9.76566 8.61719C9.5391 8.73438 9.4141 9.03906 9.48441 9.32031C9.5391 9.5625 10.125 9.92188 10.461 9.92188C10.8985 9.92188 11.1485 9.46094 10.9375 9.05469C10.8594 8.92188 10.1719 8.51562 10.0235 8.51562C9.99223 8.51562 9.87504 8.5625 9.76566 8.61719Z" fill="#717171"/>
<path d="M6.51611 10.4766C6.1958 10.6407 6.06299 11.3126 6.2583 11.7501C6.43799 12.1485 7.06299 12.1798 7.2583 11.8048C7.39893 11.5548 7.36768 10.8204 7.21143 10.6407C7.03955 10.4376 6.73486 10.3673 6.51611 10.4766Z" fill="#717171"/>
</svg>
