<svg width="40" height="40" viewBox="0 0 40 40" fill="none" xmlns="http://www.w3.org/2000/svg">
<path d="M19.6565 1.34375C19.5784 1.39062 19.1409 2.1875 18.6878 3.11719C18.2347 4.04687 17.8597 4.8125 17.844 4.82812C17.8362 4.84375 17.0081 4.97656 16.0003 5.11719C14.9925 5.26562 14.1097 5.40625 14.0315 5.4375C13.8519 5.50781 13.6878 5.89062 13.7347 6.14062C13.7581 6.25781 14.2815 6.82812 15.1331 7.64844L16.5003 8.96094L16.1722 10.8437C15.9065 12.4062 15.8675 12.7578 15.9456 12.9062C16.0784 13.1484 16.2503 13.2734 16.4769 13.2812C16.5784 13.2812 17.3909 12.8906 18.2894 12.4219C19.18 11.9453 19.9534 11.5625 20.0081 11.5625C20.055 11.5625 20.8206 11.9453 21.719 12.4219C22.6097 12.8906 23.4222 13.2812 23.5237 13.2812C23.7503 13.2734 23.9222 13.1484 24.055 12.9062C24.1331 12.7578 24.094 12.4062 23.8284 10.8437L23.5003 8.96875L24.8675 7.64844C25.7112 6.82812 26.2425 6.25781 26.2659 6.14062C26.3128 5.89844 26.1487 5.50781 25.969 5.4375C25.8909 5.40625 25.0081 5.26562 24.0003 5.11719C22.9925 4.96875 22.1644 4.84375 22.1487 4.82812C22.1409 4.8125 21.7581 4.04687 21.3128 3.10937C20.805 2.07031 20.43 1.39062 20.3284 1.33594C20.1253 1.22656 19.8519 1.22656 19.6565 1.34375ZM20.6644 4.61719C21.0081 5.30469 21.3519 5.90625 21.4378 5.95312C21.5628 6.02344 23.8831 6.39844 24.219 6.40625C24.2815 6.40625 23.844 6.89062 23.2581 7.48437C22.6722 8.07812 22.1878 8.60156 22.1878 8.64062C22.1878 8.67969 22.2894 9.3125 22.4222 10.0391C22.5472 10.7734 22.6565 11.3984 22.6565 11.4297C22.6565 11.4609 22.0706 11.1875 21.3597 10.8203C20.4065 10.3281 20.0237 10.1641 19.8987 10.2031C19.805 10.2344 19.2034 10.5312 18.5628 10.8672C17.9222 11.2031 17.3831 11.4687 17.3675 11.4531C17.3519 11.4375 17.4456 10.8125 17.5784 10.0703C17.7034 9.32812 17.8128 8.67969 17.8128 8.64062C17.8128 8.60156 17.3284 8.07812 16.7425 7.48437C16.1565 6.89062 15.719 6.40625 15.7815 6.40625C16.1175 6.39844 18.4378 6.02344 18.5628 5.95312C18.6487 5.90625 18.9925 5.30469 19.3362 4.61719C19.68 3.92187 19.9769 3.35937 20.0003 3.35937C20.0237 3.35937 20.3206 3.92187 20.6644 4.61719Z" fill="#717171"/>
<path d="M9.46068 8.25814C9.36693 8.33627 9.05443 8.89877 8.75756 9.50814C8.41381 10.2113 8.16381 10.6253 8.07006 10.6488C7.99193 10.6722 7.47631 10.7503 6.91381 10.8285C6.35912 10.8988 5.781 11.0081 5.64037 11.0628C5.35912 11.1722 5.21068 11.4691 5.281 11.7581C5.30443 11.8519 5.74193 12.3441 6.24975 12.8519L7.17162 13.766L6.98412 14.8675C6.76537 16.1644 6.75756 16.391 6.91381 16.6175C7.16381 16.9691 7.36693 16.93 8.64818 16.2738L9.8435 15.6644L10.2497 15.8831C11.8747 16.7503 12.2107 16.8988 12.406 16.8285C12.5154 16.7894 12.6716 16.6644 12.7497 16.555C12.8982 16.3597 12.8982 16.3441 12.6794 15.055L12.4607 13.7581L13.4216 12.7894C14.4607 11.7425 14.531 11.5941 14.2029 11.2113C14.0388 11.0316 13.8982 10.9925 12.7419 10.8206C12.0388 10.7191 11.4529 10.6253 11.4451 10.6097C11.4294 10.5941 11.1716 10.0863 10.8669 9.47689C10.5701 8.86752 10.2419 8.31283 10.1404 8.25033C9.91381 8.08627 9.66381 8.09408 9.46068 8.25814ZM10.1872 10.9222C10.3747 11.2972 10.5857 11.6488 10.6404 11.7035C10.7263 11.7738 12.0154 12.0316 12.2966 12.0316C12.3357 12.0316 12.1013 12.305 11.7732 12.6488C11.0935 13.3441 11.1013 13.3363 11.2888 14.3206C11.3513 14.6566 11.406 14.9691 11.406 15.0081C11.406 15.0472 11.0544 14.8988 10.6326 14.6722L9.85131 14.266L9.02318 14.6722C8.39037 14.9847 8.20287 15.0472 8.23412 14.9378C8.32006 14.6331 8.43725 13.8597 8.43725 13.5628C8.43725 13.2738 8.39037 13.1956 7.83568 12.641C7.49975 12.305 7.26537 12.0316 7.30443 12.0316C7.74975 12.0238 8.87475 11.7816 9.00756 11.6644C9.0935 11.5863 9.30443 11.2347 9.4685 10.8753C9.63256 10.5238 9.78881 10.2347 9.80443 10.2347C9.82787 10.2347 9.99975 10.5472 10.1872 10.9222Z" fill="#717171"/>
<path d="M29.8596 8.24984C29.758 8.31234 29.4299 8.86703 29.133 9.4764C28.8283 10.0858 28.5627 10.6014 28.5471 10.617C28.5393 10.6327 27.9533 10.7264 27.2502 10.828C26.1018 10.9998 25.9612 11.0389 25.8049 11.2186C25.469 11.5936 25.5471 11.742 26.5783 12.7889L27.5393 13.7577L27.3205 15.0545C27.1018 16.3436 27.1018 16.3592 27.2502 16.5545C27.5471 16.953 27.7033 16.9452 28.719 16.4217C29.2268 16.1639 29.7658 15.8905 29.9065 15.8045L30.1565 15.6639L31.3518 16.2733C32.633 16.9295 32.8362 16.9686 33.0862 16.617C33.2424 16.3905 33.2346 16.1639 33.0158 14.867L32.8283 13.7655L33.7502 12.8514C34.258 12.3436 34.6955 11.8514 34.719 11.7577C34.7893 11.4686 34.6408 11.1717 34.3596 11.0623C34.219 11.0077 33.6487 10.8983 33.0862 10.828C32.5315 10.7498 32.008 10.6717 31.9299 10.6483C31.8362 10.6248 31.5862 10.2108 31.2424 9.50765C30.9455 8.89828 30.633 8.33578 30.5393 8.25765C30.3362 8.09359 30.0862 8.08578 29.8596 8.24984ZM30.5315 10.8748C30.6955 11.2342 30.9065 11.5858 30.9924 11.6639C31.1252 11.7811 32.2502 12.0233 32.6955 12.0311C32.7346 12.0311 32.5002 12.3045 32.1643 12.6405C31.6096 13.1952 31.5627 13.2733 31.5627 13.5623C31.5627 13.8592 31.6799 14.6327 31.7658 14.9373C31.7971 15.0467 31.6096 14.9842 30.9768 14.6717L30.1487 14.2733L29.3752 14.6795C28.9455 14.8983 28.594 15.0467 28.594 15.0077C28.594 14.9686 28.6487 14.6561 28.7112 14.3202C28.8987 13.3358 28.9065 13.3436 28.2268 12.6483C27.8987 12.3045 27.6643 12.0311 27.7033 12.0311C27.9846 12.0311 29.2737 11.7733 29.3596 11.703C29.4143 11.6483 29.6252 11.2967 29.8127 10.9217C30.0002 10.5467 30.1721 10.2342 30.1955 10.2342C30.2112 10.2342 30.3674 10.5233 30.5315 10.8748Z" fill="#717171"/>
<path d="M17.0703 13.9453C16.8906 14.1172 16.875 14.1953 16.875 14.8828V15.625H15.8203C14.7969 15.625 14.75 15.6328 14.5703 15.8203C14.375 16.0078 14.375 16.0078 14.375 17.6953V19.375H11.7578H9.13281L8.94531 19.5703L8.75 19.7578V21.7578V23.75H9.375H10V22.1875V20.625H12.1875H14.375V27.8125V35H12.1875H10V30V25H9.375H8.75V29.9453V34.8984L8.30469 34.6797C8.05469 34.5547 7.77344 34.4531 7.6875 34.4531C7.52344 34.4531 7.51562 34.4141 7.48437 33.4531C7.45312 32.5703 7.42969 32.4141 7.24219 32.0625C6.94531 31.4766 6.70312 31.2266 6.15625 30.9297L5.66406 30.6641H4.375H3.08594L2.59375 30.9297C2.04687 31.2266 1.8125 31.4688 1.5 32.0625L1.28906 32.4609L1.26562 35.4062L1.24219 38.3594L1.4375 38.5547L1.63281 38.75H20H38.3672L38.5625 38.5547L38.7578 38.3594L38.7344 35.4062L38.7109 32.4609L38.5 32.0625C38.1875 31.4688 37.9531 31.2266 37.4062 30.9297L36.9141 30.6641H35.625H34.3359L33.8437 30.9297C33.2969 31.2266 33.0547 31.4766 32.7578 32.0625C32.5703 32.4141 32.5469 32.5703 32.5156 33.4531C32.4844 34.4141 32.4766 34.4531 32.3125 34.4531C32.2266 34.4531 31.9453 34.5547 31.6953 34.6797L31.25 34.8984V33.3828V31.875H30.625H30V33.4375V35H27.8125H25.625V27.8125V20.625H27.8125H30V25.625V30.625H30.625H31.25V25.1953V19.7578L31.0547 19.5703L30.8672 19.375H28.2422H25.625V17.6953C25.625 16.0078 25.625 16.0078 25.4297 15.8203C25.25 15.6328 25.2031 15.625 24.1797 15.625H23.125V14.8828C23.125 14.1953 23.1094 14.1172 22.9297 13.9453L22.7422 13.75H20H17.2578L17.0703 13.9453ZM21.875 16.25V17.5H20H18.125V16.25V15H20H21.875V16.25ZM16.875 17.6172C16.875 18.3047 16.8906 18.3828 17.0703 18.5547L17.2578 18.75H20H22.7422L22.9297 18.5547C23.1094 18.3828 23.125 18.3047 23.125 17.6172V16.875H23.75H24.375V27.1875V37.5H23.4375H22.5V35.1953V32.8828L22.3047 32.6953L22.1172 32.5H20H17.8828L17.6953 32.6953L17.5 32.8828V35.1953V37.5H16.5625H15.625V27.1875V16.875H16.25H16.875V17.6172ZM5.5 31.9844C5.64062 32.0469 5.85937 32.2266 5.98437 32.3906C6.19531 32.6641 6.21094 32.7344 6.23437 33.5703C6.25781 34.3281 6.25 34.4531 6.14062 34.4531C6.07812 34.4531 5.82812 34.5234 5.58594 34.6172C4.65625 34.9609 3.88281 35.9922 3.78125 37.0078L3.72656 37.5H3.11719H2.5V35.2031C2.5 33.7578 2.53125 32.8203 2.58594 32.6797C2.69531 32.3906 2.95312 32.1094 3.24219 31.9844C3.57031 31.8438 5.15625 31.8359 5.5 31.9844ZM36.75 31.9844C36.8906 32.0469 37.1094 32.2266 37.2344 32.3906L37.4609 32.6797L37.4844 35.0938L37.5078 37.5H36.8906H36.2734L36.2266 37.0859C36.1172 36 35.3672 34.9688 34.4297 34.625C34.1797 34.5312 33.9297 34.4531 33.8672 34.4531C33.7734 34.4531 33.75 34.3047 33.75 33.6797C33.75 32.6328 33.9219 32.2422 34.4922 31.9844C34.8203 31.8438 36.4062 31.8359 36.75 31.9844ZM21.25 35.625V37.5H20H18.75V35.625V33.75H20H21.25V35.625ZM7.82031 35.8438C8.32031 36.1016 8.67187 36.6016 8.72656 37.1484L8.77344 37.5H6.875H4.97656L5.02344 37.1484C5.15625 35.9062 6.63281 35.2266 7.82031 35.8438ZM34.0703 35.8438C34.5703 36.1016 34.9219 36.6016 34.9766 37.1484L35.0234 37.5H33.125H31.2266L31.2734 37.1484C31.4062 35.9062 32.8828 35.2266 34.0703 35.8438ZM14.375 36.875V37.5H12.1875H10V36.875V36.25H12.1875H14.375V36.875ZM30 36.875V37.5H27.8125H25.625V36.875V36.25H27.8125H30V36.875Z" fill="#717171"/>
<path d="M16.875 20.625V21.25H17.5H18.125V20.625V20H17.5H16.875V20.625Z" fill="#717171"/>
<path d="M19.375 20.625V21.25H20H20.625V20.625V20H20H19.375V20.625Z" fill="#717171"/>
<path d="M21.875 20.625V21.25H22.5H23.125V20.625V20H22.5H21.875V20.625Z" fill="#717171"/>
<path d="M16.875 23.125V23.75H17.5H18.125V23.125V22.5H17.5H16.875V23.125Z" fill="#717171"/>
<path d="M19.375 23.125V23.75H20H20.625V23.125V22.5H20H19.375V23.125Z" fill="#717171"/>
<path d="M21.875 23.125V23.75H22.5H23.125V23.125V22.5H22.5H21.875V23.125Z" fill="#717171"/>
<path d="M16.875 25.625V26.25H17.5H18.125V25.625V25H17.5H16.875V25.625Z" fill="#717171"/>
<path d="M19.375 25.625V26.25H20H20.625V25.625V25H20H19.375V25.625Z" fill="#717171"/>
<path d="M21.875 25.625V26.25H22.5H23.125V25.625V25H22.5H21.875V25.625Z" fill="#717171"/>
<path d="M16.875 28.125V28.75H17.5H18.125V28.125V27.5H17.5H16.875V28.125Z" fill="#717171"/>
<path d="M19.375 28.125V28.75H20H20.625V28.125V27.5H20H19.375V28.125Z" fill="#717171"/>
<path d="M21.875 28.125V28.75H22.5H23.125V28.125V27.5H22.5H21.875V28.125Z" fill="#717171"/>
<path d="M16.875 30.625V31.25H17.5H18.125V30.625V30H17.5H16.875V30.625Z" fill="#717171"/>
<path d="M19.375 30.625V31.25H20H20.625V30.625V30H20H19.375V30.625Z" fill="#717171"/>
<path d="M21.875 30.625V31.25H22.5H23.125V30.625V30H22.5H21.875V30.625Z" fill="#717171"/>
<path d="M4.23438 16.3747C4.14062 16.4372 3.89844 16.82 3.69531 17.2106C3.5 17.609 3.30469 17.9528 3.26562 17.9762C3.22656 17.9997 2.83594 18.07 2.39844 18.1247C1.49219 18.2497 1.25 18.3981 1.25 18.8356C1.25 19.0387 1.36719 19.2028 1.89844 19.7575L2.54688 20.4294L2.39844 21.2731C2.25781 22.0544 2.25781 22.1247 2.375 22.3122C2.64844 22.7184 2.84375 22.7106 3.75 22.2653L4.5625 21.859L5.39062 22.2653C6.29688 22.7106 6.49219 22.7184 6.75781 22.3122C6.875 22.1325 6.875 22.0544 6.75 21.2575L6.60938 20.3903L7.25 19.734C7.78125 19.195 7.89062 19.0387 7.89062 18.8356C7.89062 18.3903 7.64062 18.2419 6.73438 18.1247C6.30469 18.07 5.91406 17.9997 5.875 17.9762C5.83594 17.9528 5.64062 17.609 5.44531 17.2106C5.07812 16.4919 4.85938 16.2497 4.57031 16.2497C4.48438 16.2497 4.32812 16.3044 4.23438 16.3747ZM4.85938 18.82C5.00781 19.0856 5.26562 19.2184 5.63281 19.2184C5.75781 19.2184 5.85938 19.2419 5.85938 19.2653C5.85938 19.2965 5.73438 19.4606 5.57812 19.6325C5.29688 19.9372 5.29688 19.9528 5.34375 20.4059L5.39062 20.8747L5.10156 20.7028C4.73438 20.484 4.49219 20.484 4.08594 20.695L3.75 20.859L3.79688 20.4059C3.84375 19.9606 3.84375 19.9372 3.5625 19.6325C3.40625 19.4606 3.28125 19.2965 3.28125 19.2809C3.28125 19.2575 3.4375 19.2184 3.63281 19.2028C4.04688 19.1481 4.17969 19.0622 4.39062 18.6403C4.5625 18.2965 4.57031 18.3044 4.85938 18.82Z" fill="#717171"/>
<path d="M35.0938 16.3747C35 16.4372 34.7578 16.82 34.5547 17.2106C34.3594 17.609 34.1641 17.9528 34.125 17.9762C34.0859 17.9997 33.6953 18.07 33.2578 18.1247C32.3516 18.2497 32.1094 18.3981 32.1094 18.8356C32.1094 19.0387 32.2188 19.195 32.75 19.734L33.3906 20.3903L33.25 21.2575C33.125 22.0544 33.125 22.1325 33.2422 22.3122C33.5078 22.7184 33.7109 22.7106 34.6094 22.2653L35.4219 21.859L36.25 22.2653C37.1562 22.7106 37.3516 22.7184 37.625 22.3122C37.7422 22.1247 37.7422 22.0544 37.6016 21.2731L37.4531 20.4294L38.1016 19.7575C38.6328 19.2028 38.75 19.0387 38.75 18.8356C38.75 18.3903 38.5 18.2419 37.5938 18.1247C37.1641 18.07 36.7734 17.9997 36.7344 17.9762C36.6953 17.9528 36.5 17.609 36.3047 17.2106C35.9375 16.4919 35.7188 16.2497 35.4297 16.2497C35.3438 16.2497 35.1875 16.3044 35.0938 16.3747ZM35.7188 18.82C35.8672 19.0856 36.125 19.2184 36.4922 19.2184C36.6172 19.2184 36.7188 19.2419 36.7188 19.2653C36.7188 19.2965 36.5938 19.4606 36.4375 19.6325C36.1562 19.9372 36.1562 19.9606 36.2031 20.4059L36.25 20.859L35.9141 20.695C35.5078 20.484 35.2656 20.484 34.8984 20.7028L34.6094 20.8747L34.6562 20.4059C34.7031 19.9528 34.7031 19.9372 34.4219 19.6325C34.2656 19.4606 34.1406 19.2965 34.1406 19.2809C34.1406 19.2575 34.2969 19.2184 34.4922 19.2028C34.9062 19.1481 35.0391 19.0622 35.25 18.6403C35.4219 18.2965 35.4297 18.3044 35.7188 18.82Z" fill="#717171"/>
<path d="M11.25 23.125V23.75H12.1875H13.125V23.125V22.5H12.1875H11.25V23.125Z" fill="#717171"/>
<path d="M26.875 23.125V23.75H27.8125H28.75V23.125V22.5H27.8125H26.875V23.125Z" fill="#717171"/>
<path d="M11.25 26.25V26.875H12.1875H13.125V26.25V25.625H12.1875H11.25V26.25Z" fill="#717171"/>
<path d="M26.875 26.25V26.875H27.8125H28.75V26.25V25.625H27.8125H26.875V26.25Z" fill="#717171"/>
<path d="M11.25 29.375V30H12.1875H13.125V29.375V28.75H12.1875H11.25V29.375Z" fill="#717171"/>
<path d="M26.875 29.375V30H27.8125H28.75V29.375V28.75H27.8125H26.875V29.375Z" fill="#717171"/>
<path d="M11.25 32.5V33.125H12.1875H13.125V32.5V31.875H12.1875H11.25V32.5Z" fill="#717171"/>
<path d="M26.875 32.5V33.125H27.8125H28.75V32.5V31.875H27.8125H26.875V32.5Z" fill="#717171"/>
</svg>
