<svg width="20" height="20" viewBox="0 0 20 20" fill="none" xmlns="http://www.w3.org/2000/svg">
<path d="M5.64452 0.0273438C5.22655 0.128906 4.15624 0.453125 3.99218 0.527344C3.73046 0.648438 3.39843 0.984375 3.26952 1.25781C3.14062 1.53125 3.0703 1.88672 3.10155 2.12109C3.11327 2.23047 3.79296 4.66406 4.60937 7.53516C5.8828 11.9922 6.11327 12.7656 6.1953 12.8398C6.30468 12.9414 6.35937 12.9492 6.49999 12.8867C6.74218 12.7734 6.8164 13.0781 5.1914 7.41406C3.60155 1.86719 3.61718 1.92969 3.7578 1.59766C3.83593 1.41797 4.07812 1.14844 4.22655 1.07031C4.38671 0.988281 5.80077 0.585938 5.93358 0.585938C6.26952 0.585938 6.71093 0.851562 6.86327 1.14453C6.95702 1.33203 8.16405 5.58984 8.16405 5.74609C8.16405 5.93359 8.07421 6.21875 7.96874 6.36719C7.82812 6.5625 7.59374 6.71094 7.24218 6.81641C6.90624 6.91797 6.83593 6.97656 6.83593 7.15625C6.83593 7.22656 7.04296 8.00781 7.16405 8.38672C7.18358 8.44922 7.15624 8.47656 7.02733 8.53516C6.64452 8.71094 6.39062 9.10938 6.39062 9.53125C6.39452 10.168 6.83202 10.6016 7.52343 10.6523L7.81249 10.6758L7.88671 10.9336C7.92968 11.0742 8.01952 11.3945 8.08983 11.6406C8.16015 11.8867 8.24999 12.125 8.28905 12.168C8.35937 12.2461 8.42577 12.2461 11.9492 12.2656L15.5312 12.2852L15.6914 12.3906C15.9336 12.5508 15.9922 12.7109 16.0078 13.2617C16.0234 13.793 15.9844 14 15.8359 14.1797C15.625 14.4297 15.8867 14.4141 11.6133 14.4141C7.89452 14.4141 7.70702 14.4102 7.55468 14.3398C7.34765 14.2461 7.14452 14.0391 7.03905 13.8203C6.93749 13.5977 6.77343 13.5234 6.59765 13.6133C6.22265 13.8086 6.64062 14.5547 7.30077 14.8711C7.42187 14.9258 7.52343 14.9805 7.53124 14.9844C7.53905 14.9883 7.33983 15.4688 7.09374 16.0469C6.58983 17.2266 6.52343 17.4297 6.52343 17.8438C6.52343 18.7617 7.11718 19.5859 7.99999 19.8906L8.26171 19.9805H11.3281H14.3945L14.6562 19.8906C15.543 19.582 16.1328 18.7578 16.1328 17.8203C16.1328 17.4375 16.0625 17.207 15.6016 16.1367C15.3711 15.6094 15.1797 15.1484 15.168 15.1133C15.1523 15.0586 15.1953 15.043 15.4023 15.0234C15.8867 14.9688 16.2773 14.6953 16.4766 14.2617C16.5703 14.0625 16.582 13.9922 16.5937 13.4492C16.6094 12.9297 16.5976 12.8203 16.5273 12.582C16.4258 12.2461 16.1875 11.9648 15.8672 11.8086L15.6445 11.6992L12.1797 11.6875C8.93749 11.6797 8.71483 11.6719 8.6953 11.6094C8.55858 11.1328 8.43749 10.707 8.43749 10.6875C8.43749 10.6758 9.6914 10.6641 11.2226 10.6641C13.6055 10.6641 14.0391 10.6562 14.2383 10.6055C14.7695 10.4648 15.1094 10 15.0664 9.47266C15.0351 9.06641 14.8281 8.75 14.4726 8.5625L14.2773 8.45703L11.0312 8.44531L7.78905 8.4375L7.64062 7.91797C7.48046 7.33984 7.48046 7.34375 7.55077 7.34375C7.67187 7.34375 8.02733 7.13281 8.22265 6.94922C8.47655 6.71094 8.60155 6.50781 8.6914 6.19531C8.8164 5.76172 8.78124 5.58203 8.10937 3.24219C7.76952 2.07031 7.45312 1.02344 7.40624 0.917969C7.21874 0.511719 6.80858 0.179688 6.34765 0.0585938C6.12499 0.00390625 5.80858 -0.0117188 5.64452 0.0273438ZM14.2109 9.10156C14.3555 9.19141 14.4922 9.39453 14.4922 9.52344C14.4922 9.67969 14.3828 9.87891 14.25 9.96094C14.125 10.0391 14.0625 10.0391 10.7305 10.0391C6.99608 10.0391 7.20312 10.0508 7.05468 9.80469C6.96483 9.64453 6.97265 9.37109 7.07812 9.23828C7.24999 9.01953 7.12499 9.02734 10.7422 9.02344C14.0078 9.02344 14.0859 9.02734 14.2109 9.10156ZM9.28124 15.0703C9.24218 15.1367 8.1914 17.6055 8.16015 17.7109C8.10937 17.8828 8.18358 18.0977 8.33983 18.2383L8.48046 18.3594H11.3281H14.1758L14.3164 18.2383C14.4726 18.0977 14.5469 17.8867 14.4961 17.7109C14.4766 17.6484 14.2383 17.0781 13.9648 16.4453C13.6914 15.8125 13.4453 15.2344 13.418 15.1641L13.3633 15.0391H13.9219H14.4844L14.9726 16.1836C15.2422 16.8125 15.4844 17.4062 15.5039 17.5039C15.6523 18.1445 15.3594 18.832 14.8008 19.168C14.3867 19.418 14.4141 19.4141 11.3281 19.4141C8.28515 19.4141 8.27343 19.4141 7.89452 19.1914C7.3203 18.8555 6.99218 18.1211 7.14452 17.5117C7.17187 17.4102 7.39452 16.8555 7.64062 16.2852C7.8828 15.7109 8.10155 15.1992 8.12499 15.1406L8.16405 15.0391H8.73046C9.04687 15.0391 9.29296 15.0547 9.28124 15.0703ZM13.2734 16.3359C13.5781 17.0508 13.8359 17.668 13.8516 17.7031C13.875 17.7695 13.7383 17.7734 11.3281 17.7734C8.91796 17.7734 8.78124 17.7695 8.80468 17.7031C8.8203 17.668 9.07812 17.0508 9.3828 16.3359L9.93358 15.0391H11.3281H12.7226L13.2734 16.3359Z" fill="#CA0F2E"/>
<path d="M12.6523 0.0352755C11.6875 0.136838 10.8203 0.793088 10.4648 1.68762C10.3242 2.03528 10.2773 2.44153 10.25 3.45715C10.2187 4.70715 10.2734 5.6134 10.4023 6.02746C10.668 6.8634 11.2734 7.48059 12.0976 7.75793C12.5 7.89075 13.3516 7.94934 14.1562 7.89465C14.8164 7.85168 15.0469 7.79309 15.4687 7.57434C15.8516 7.37512 16.1601 7.09778 16.4023 6.7384C16.7812 6.16809 16.8594 5.80481 16.8984 4.42981C16.9375 3.04309 16.8984 2.85168 16.5859 2.85168C16.4844 2.85168 16.4297 2.87903 16.3672 2.95715C16.2851 3.05871 16.2812 3.09387 16.3086 3.53528C16.3437 4.24621 16.2695 5.5509 16.1719 5.8634C15.9609 6.55481 15.3633 7.09778 14.6562 7.25012C14.2969 7.32434 12.8516 7.32434 12.4922 7.25012C11.7656 7.09387 11.1758 6.54309 10.9609 5.82043C10.8555 5.47278 10.8008 4.10949 10.8516 3.10949C10.8867 2.39465 10.9101 2.23059 10.9883 2.00012C11.2187 1.33606 11.7344 0.8634 12.4258 0.6759C12.7891 0.578244 14.3594 0.578244 14.7226 0.6759C15.3125 0.836057 15.7656 1.20324 16.0469 1.74621C16.2656 2.16809 16.4219 2.25403 16.6211 2.0509C16.7578 1.91809 16.7422 1.79699 16.5547 1.43371C16.3203 0.972775 15.8789 0.539182 15.4297 0.320432C14.9141 0.0665255 14.7422 0.0352755 13.7891 0.0196505C13.3281 0.011838 12.8164 0.0196505 12.6523 0.0352755Z" fill="#CA0F2E"/>
<path d="M12.9688 1.17188C12.5156 1.20312 12.3164 1.26562 12.0469 1.44531C11.7109 1.67969 11.5078 2.04297 11.4414 2.52734C11.3906 2.92188 11.3906 5.00781 11.4414 5.40234C11.4648 5.58203 11.5234 5.79297 11.5898 5.92188C11.7266 6.20703 12.0742 6.52734 12.3711 6.64844C12.5859 6.73438 12.6406 6.73828 13.5742 6.73828C14.5039 6.73828 14.5625 6.73438 14.7734 6.64844C15.082 6.52344 15.3984 6.22656 15.5469 5.92188C15.7188 5.57031 15.7539 5.17969 15.7344 3.67188C15.7188 2.5 15.7109 2.38672 15.6328 2.17578C15.4648 1.71484 15.0898 1.35547 14.6484 1.23438C14.3867 1.16406 13.5273 1.13281 12.9688 1.17188ZM14.4844 1.80469C14.7227 1.86328 15.0117 2.14453 15.0859 2.38672C15.125 2.51562 15.1367 2.91797 15.1367 3.98438V5.41016L15.0195 5.64453C14.7891 6.10156 14.5039 6.19141 13.3789 6.16406C12.625 6.14453 12.4453 6.09375 12.2305 5.83203C12.0273 5.58203 12.0117 5.46094 12.0117 3.92578C12.0117 2.65625 12.0195 2.5 12.082 2.33594C12.168 2.11328 12.4375 1.85938 12.6484 1.80469C12.8594 1.75 14.2617 1.74609 14.4844 1.80469Z" fill="#CA0F2E"/>
</svg>
