<svg width="33" height="35" viewBox="0 0 33 35" fill="none" xmlns="http://www.w3.org/2000/svg">
<path d="M22.3174 0.0948086C21.9961 0.272543 21.9756 0.39559 21.9688 2.24129C21.9688 4.12118 21.9961 4.27157 22.3447 4.42879C22.6934 4.58602 23.0762 4.47665 23.2402 4.16219C23.3701 3.90926 23.3838 0.64852 23.2539 0.375082C23.1035 0.046957 22.6523 -0.0897617 22.3174 0.0948086Z" fill="black"/>
<path d="M16.6364 2.85059C16.2604 2.9873 16.069 3.45898 16.2467 3.80078C16.3014 3.91016 16.8278 4.4707 17.4088 5.03809C18.441 6.06348 18.4752 6.08398 18.7623 6.08398C19.1793 6.08398 19.4391 5.83105 19.4391 5.41406C19.4391 5.11328 19.4254 5.09961 18.4 4.05371C17.1901 2.83008 17.0192 2.71387 16.6364 2.85059Z" fill="black"/>
<path d="M28.0186 2.99414C27.8682 3.10352 27.3213 3.62305 26.8086 4.15625C25.8857 5.09277 25.8652 5.12012 25.8652 5.41406C25.8652 5.83105 26.125 6.08398 26.542 6.08398C26.8291 6.08398 26.8633 6.06348 27.8955 5.03809C28.4766 4.4707 29.0029 3.91016 29.0576 3.80078C29.2695 3.39746 28.9961 2.90527 28.5244 2.83008C28.3398 2.7959 28.2373 2.83008 28.0186 2.99414Z" fill="black"/>
<path d="M22.009 7.31446C21.5784 7.42383 20.9631 7.79297 20.6624 8.11426C20.512 8.27832 20.2864 8.62012 20.177 8.86621C19.9788 9.28321 19.9583 9.38574 19.9104 10.418C19.8831 11.0537 19.8147 11.6895 19.7463 11.9287C19.1516 14.1367 16.8137 16.1123 13.1497 17.5205C12.3088 17.8418 10.969 18.2656 10.3469 18.4092C10.2034 18.4434 10.1487 18.4023 9.99146 18.1494C9.89575 17.9854 9.677 17.7529 9.51978 17.6436C8.95923 17.2334 8.90454 17.2266 4.93286 17.2266C1.00903 17.2266 1.02954 17.2266 0.858643 17.6025C0.742432 17.8623 0.742432 34.3643 0.858643 34.624C1.02954 35 1.00903 35 4.93286 35C8.90454 35 8.95923 34.9932 9.51978 34.583C9.677 34.4736 9.89575 34.2412 9.99146 34.0771C10.094 33.9063 10.217 33.79 10.2649 33.8037C10.3127 33.8174 11.0305 34.0088 11.8645 34.2139C14.8245 34.959 15.5969 35.0137 21.6262 34.9863L26.0354 34.9658L26.4934 34.7471C27.1292 34.4463 27.5256 34.0635 27.8333 33.4414C28.0725 32.9492 28.0862 32.8877 28.0862 32.2725C28.0862 31.6982 28.0588 31.5615 27.8879 31.1855C27.7786 30.9531 27.7034 30.748 27.717 30.7344C27.7307 30.7275 27.9085 30.625 28.1067 30.5225C28.5784 30.2695 28.968 29.8389 29.2346 29.2715C29.4329 28.8545 29.4534 28.752 29.4534 28.1641C29.4534 27.5967 29.426 27.46 29.2551 27.084C29.1458 26.8516 29.0706 26.6465 29.0842 26.6328C29.0979 26.626 29.2756 26.5234 29.4739 26.4209C29.9456 26.168 30.3352 25.7373 30.6018 25.1699C30.8001 24.7529 30.8206 24.6504 30.8206 24.0625C30.8206 23.4951 30.7932 23.3584 30.6223 22.9824C30.5129 22.75 30.4377 22.5449 30.4514 22.5313C30.4651 22.5244 30.6428 22.4219 30.8411 22.3193C31.3127 22.0664 31.7024 21.6357 31.969 21.0684C32.1672 20.6514 32.1877 20.5488 32.1877 19.9541C32.1877 19.3389 32.1741 19.2773 31.9348 18.7852C31.6272 18.1631 31.2307 17.7803 30.595 17.4795L30.137 17.2607L27.2864 17.2402C25.7141 17.2266 24.429 17.1992 24.429 17.1719C24.429 17.1445 24.5383 16.7959 24.6682 16.3926C25.2698 14.5059 25.5706 11.8809 25.3928 10.0488C25.3313 9.37207 25.2835 9.19434 25.0784 8.77735C24.634 7.875 23.8001 7.32129 22.802 7.27344C22.5149 7.25977 22.1594 7.28028 22.009 7.31446ZM23.4036 8.84571C23.8547 9.13965 23.9573 9.39942 24.0256 10.3428C24.1213 11.6074 23.9573 13.6787 23.6702 14.9023C23.5266 15.4902 23.3215 16.167 23.1165 16.6934L22.9182 17.2266H21.6877C20.7581 17.2266 20.4094 17.2471 20.2659 17.3223C20.0745 17.4248 19.9172 17.6846 19.9172 17.917C19.9172 18.1084 20.095 18.4297 20.2385 18.498C20.3069 18.5322 22.5149 18.5732 25.1467 18.5938L29.9319 18.6279L30.1917 18.792C30.3352 18.8809 30.5335 19.0791 30.636 19.2295C30.7864 19.4619 30.8206 19.585 30.8206 19.9541C30.8206 20.4941 30.6497 20.8291 30.219 21.1094L29.9456 21.2939L27.8879 21.3281C26.7532 21.3486 25.7756 21.3896 25.7073 21.4238C25.5637 21.4922 25.386 21.8135 25.386 22.0117C25.386 22.21 25.5637 22.5313 25.7073 22.5996C25.7756 22.6338 26.4456 22.6748 27.2044 22.6953C28.551 22.7295 28.5784 22.7363 28.8518 22.9141C29.2756 23.1943 29.4534 23.5293 29.4534 24.0625C29.4534 24.5957 29.2756 24.9307 28.8518 25.2109L28.5784 25.3955L26.5208 25.4297C25.386 25.4502 24.4085 25.4912 24.3401 25.5254C24.1965 25.5938 24.0188 25.915 24.0188 26.1133C24.0188 26.3115 24.1965 26.6328 24.3401 26.7012C24.4085 26.7354 25.0784 26.7764 25.8372 26.7969C27.1838 26.8311 27.2112 26.8379 27.4846 27.0156C27.9085 27.2959 28.0862 27.6309 28.0862 28.1641C28.0862 28.6973 27.9085 29.0322 27.4846 29.3125L27.2112 29.4971L25.1536 29.5313C24.0188 29.5518 23.0413 29.5928 22.9729 29.627C22.8293 29.6953 22.6516 30.0166 22.6516 30.2148C22.6516 30.4131 22.8293 30.7344 22.9729 30.8027C23.0413 30.8369 23.7112 30.8779 24.47 30.8984C25.8167 30.9326 25.844 30.9395 26.1174 31.1172C26.5481 31.3975 26.719 31.7324 26.719 32.2725C26.719 32.6416 26.6848 32.7646 26.5344 32.9971C26.4319 33.1475 26.2336 33.3457 26.0901 33.4346L25.8303 33.5986L21.5237 33.6191C15.6038 33.6465 14.9475 33.5986 11.9192 32.8193L10.3811 32.4297L10.3606 26.127L10.3469 19.8311L10.634 19.7559C15.1389 18.6006 18.5159 16.6523 20.1292 14.2803C20.8879 13.1592 21.2024 12.1543 21.2776 10.5889C21.3186 9.65918 21.346 9.49512 21.4827 9.27637C21.6536 9.00293 21.9407 8.77051 22.2278 8.67481C22.5422 8.57227 23.1165 8.6543 23.4036 8.84571ZM8.60376 18.6758C8.99341 18.8535 8.97974 18.5322 8.97974 26.1133C8.97974 33.6943 8.99341 33.373 8.60376 33.5508C8.47388 33.6123 7.57837 33.6328 5.28833 33.6328H2.1438V26.1133V18.5938H5.28833C7.57837 18.5938 8.47388 18.6143 8.60376 18.6758Z" fill="black"/>
<path d="M6.59396 21.4238C5.99923 21.752 6.25216 22.6953 6.92892 22.6953C7.27755 22.6953 7.61251 22.3604 7.61251 22.0186C7.61251 21.5059 7.04513 21.1709 6.59396 21.4238Z" fill="black"/>
<path d="M6.59473 24.1579C6.25293 24.3493 6.25293 24.3767 6.24609 27.4597C6.24609 30.5632 6.25293 30.6247 6.59473 30.8025C6.9502 30.987 7.38086 30.8572 7.53125 30.5222C7.64746 30.2693 7.64746 24.6911 7.53125 24.4382C7.38086 24.1101 6.92969 23.9734 6.59473 24.1579Z" fill="black"/>
<path d="M14.1132 8.70898C13.7919 8.88672 13.6826 9.2832 13.8603 9.63184C14.0312 9.95312 14.1952 9.98047 15.8222 9.98047C17.456 9.98047 17.6269 9.94629 17.7841 9.60449C17.9413 9.25586 17.832 8.87305 17.5175 8.70898C17.2509 8.57227 14.3593 8.57227 14.1132 8.70898Z" fill="black"/>
<path d="M27.7851 8.70898C27.4638 8.88672 27.3544 9.2832 27.5322 9.63184C27.7031 9.95312 27.8671 9.98047 29.4941 9.98047C31.1279 9.98047 31.2988 9.94629 31.456 9.60449C31.6132 9.25586 31.5038 8.87305 31.1894 8.70898C30.9228 8.57227 28.0312 8.57227 27.7851 8.70898Z" fill="black"/>
</svg>
