<svg width="23" height="22" viewBox="0 0 23 22" fill="none" xmlns="http://www.w3.org/2000/svg">
<path d="M10.1396 0.0634556C7.64746 0.398798 5.5291 1.44352 3.75449 3.21911C1.98848 4.9818 0.905664 7.18732 0.600586 9.62499C0.514648 10.3172 0.514648 11.6929 0.600586 12.3636C0.914258 14.8271 1.97988 17.0025 3.7373 18.7652C4.36035 19.3886 4.79434 19.7497 5.45605 20.1883C6.92129 21.1642 8.64863 21.7876 10.4104 21.9681C11.042 22.0326 12.6533 21.9939 13.2334 21.8994C15.5623 21.5253 17.6248 20.472 19.292 18.8039C20.9936 17.1057 21.9947 15.1753 22.4115 12.7849C22.5404 12.0541 22.5748 10.4247 22.476 9.66798C22.1408 7.12283 21.1053 5.01189 19.3135 3.21911C17.5389 1.43922 15.3732 0.373001 12.8982 0.0591564C12.2666 -0.0225296 10.7412 -0.0182304 10.1396 0.0634556ZM12.185 2.6774C13.6287 2.75049 15.2143 3.34378 16.5205 4.30682C17.049 4.69375 17.9256 5.5837 18.2822 6.08671C18.9955 7.10133 19.451 8.11166 19.7002 9.24236C19.7475 9.45302 19.7861 9.64219 19.7861 9.66798C19.7861 9.72388 17.9213 9.72388 17.2338 9.66798C16.6107 9.61639 16.1252 9.50461 15.6268 9.29825C14.965 9.0274 14.5611 8.74794 13.8178 8.06007C13.1045 7.39798 12.4514 7.13143 11.549 7.13143C10.9818 7.13143 10.5865 7.21741 10.0967 7.45387C9.78301 7.60434 9.61973 7.72042 9.25879 8.06007C8.44238 8.81673 7.87949 9.17357 7.08887 9.43153C6.45723 9.63789 6.11348 9.67658 4.65254 9.69808C3.64277 9.71528 3.28613 9.71098 3.28613 9.67228C3.28613 9.64649 3.3248 9.44442 3.37207 9.22516C4.10684 5.91474 6.79238 3.34378 10.1225 2.76339C10.5221 2.6946 11.4158 2.62151 11.6221 2.64301C11.6822 2.65161 11.9357 2.6645 12.185 2.6774ZM12.3225 9.91304C12.7092 10.0979 13.083 10.4676 13.2678 10.8589C13.3967 11.134 13.4053 11.177 13.4053 11.6456C13.4053 12.1143 13.3967 12.1573 13.2678 12.4324C13.083 12.8236 12.7135 13.1934 12.3225 13.3782C12.0475 13.5072 12.0045 13.5158 11.5361 13.5158C11.0678 13.5158 11.0248 13.5072 10.7498 13.3782C10.3588 13.1934 9.98926 12.8236 9.80449 12.4324C9.67558 12.1573 9.66699 12.1143 9.66699 11.6456C9.66699 11.177 9.67558 11.134 9.80449 10.8589C9.96348 10.5235 10.3416 10.1194 10.6338 9.96893C10.9818 9.78836 11.1494 9.75397 11.6006 9.76687C11.983 9.77547 12.0646 9.79266 12.3225 9.91304ZM6.41426 13.6706C7.88379 13.9027 9.17715 15.1667 9.49512 16.6801C9.58535 17.1143 9.57676 17.8624 9.47363 18.2923C9.40918 18.5717 9.28027 18.9673 9.2373 19.0318C9.23301 19.0361 9.02676 18.9716 8.78184 18.8856C7.94394 18.5932 6.98574 18.0558 6.24668 17.4582C5.32285 16.7145 4.4291 15.5451 3.91777 14.4187L3.76309 14.0747L4.07246 13.9543C4.94473 13.619 5.59785 13.5416 6.41426 13.6706ZM17.8439 13.6405C18.0631 13.6749 18.4799 13.7824 18.7764 13.8813C19.3951 14.0919 19.365 13.9973 19.0084 14.7153C18.033 16.6629 16.3143 18.1805 14.2775 18.8899C14.0369 18.9759 13.8393 19.0361 13.835 19.0318C13.792 18.9802 13.6373 18.4815 13.5771 18.2063C13.517 17.944 13.5084 17.742 13.5213 17.282C13.5385 16.7661 13.56 16.65 13.6803 16.2888C13.7576 16.0653 13.8865 15.7643 13.9639 15.6182C14.5654 14.5433 15.6354 13.8039 16.8557 13.6276C17.2252 13.5717 17.4057 13.576 17.8439 13.6405Z" fill="#CA0F2E"/>
<path d="M11.1752 11.0831C10.9775 11.2163 10.8916 11.3796 10.8916 11.646C10.8916 11.9124 10.9775 12.0757 11.1752 12.2089C11.2611 12.2647 11.3771 12.2905 11.5361 12.2905C11.9443 12.2905 12.1807 12.0542 12.1807 11.646C12.1807 11.2378 11.9443 11.0015 11.5361 11.0015C11.3771 11.0015 11.2611 11.0272 11.1752 11.0831Z" fill="#CA0F2E"/>
</svg>
