<svg width="24" height="24" viewBox="0 0 24 24" fill="none" xmlns="http://www.w3.org/2000/svg">
<g clip-path="url(#clip0_515_1162)">
<path d="M10.3453 0.0703125C9.93281 0.224998 9.53438 0.646873 9.42656 1.04062C9.38438 1.20469 9.14063 2.98594 9.14063 3.13594C9.14063 3.15937 9.02813 3.21562 8.89688 3.2625C8.76094 3.30469 8.46094 3.42188 8.23125 3.52031C8.00156 3.62344 7.8 3.70312 7.78125 3.70312C7.76719 3.70312 7.3875 3.41719 6.9375 3.07031C6.02344 2.3625 5.84063 2.27344 5.32031 2.27812C4.76719 2.28281 4.65938 2.35312 3.525 3.48281C2.44688 4.55625 2.325 4.725 2.26875 5.2125C2.24531 5.41406 2.25938 5.55 2.33438 5.79844C2.41875 6.07031 2.52188 6.23438 3.07031 6.93281C3.41719 7.38281 3.70313 7.76719 3.70313 7.78125C3.70313 7.8 3.62344 8.00156 3.52031 8.23125C3.42188 8.46094 3.30469 8.76094 3.2625 8.89219C3.21563 9.02812 3.15469 9.14062 3.12656 9.14062C3.09375 9.14531 2.61563 9.20156 2.05781 9.27656C0.932813 9.42187 0.754688 9.47812 0.426563 9.80625C0.31875 9.91406 0.1875 10.1016 0.126563 10.2187C0.028125 10.425 0.0234375 10.4672 0.0234375 12C0.0234375 13.5328 0.028125 13.575 0.126563 13.7812C0.1875 13.8984 0.31875 14.0859 0.426563 14.1937C0.754688 14.5219 0.932813 14.5781 2.05781 14.7234C2.61563 14.7984 3.09375 14.8547 3.12656 14.8594C3.15469 14.8594 3.21563 14.9719 3.2625 15.1031C3.30469 15.2391 3.42188 15.5391 3.52031 15.7687C3.62344 15.9984 3.70313 16.2 3.70313 16.2187C3.70313 16.2328 3.41719 16.6172 3.07031 17.0672C2.52188 17.7656 2.41875 17.9297 2.33438 18.2016C2.26406 18.4453 2.24531 18.5859 2.26875 18.7828C2.32969 19.2891 2.41406 19.4062 3.50625 20.4984C4.65938 21.6469 4.7625 21.7172 5.32031 21.7219C5.84063 21.7266 6.02344 21.6375 6.9375 20.9297C7.3875 20.5828 7.76719 20.2969 7.79063 20.2969C7.80938 20.2969 8.01094 20.3766 8.23594 20.4797C8.46094 20.5781 8.76094 20.6953 8.89688 20.7375C9.02813 20.7844 9.14063 20.8453 9.14063 20.8734C9.14063 20.9062 9.20156 21.3844 9.27656 21.9375C9.42188 23.0625 9.4875 23.2547 9.81094 23.5734C9.91875 23.6812 10.1016 23.8125 10.2188 23.8734C10.425 23.9719 10.4672 23.9766 12 23.9766C13.5328 23.9766 13.575 23.9719 13.7813 23.8734C13.8984 23.8125 14.0859 23.6812 14.1938 23.5734C14.5172 23.25 14.5781 23.0719 14.7234 21.9422C14.7984 21.3844 14.8594 20.9062 14.8594 20.8734C14.8594 20.8453 14.9719 20.7844 15.1078 20.7375C15.2391 20.6953 15.5391 20.5781 15.7688 20.4797C15.9984 20.3766 16.2 20.2969 16.2188 20.2969C16.2328 20.2969 16.6125 20.5828 17.0625 20.9297C17.9766 21.6375 18.1594 21.7266 18.6797 21.7219C19.2375 21.7172 19.3453 21.6422 20.475 20.5172C21.6234 19.3734 21.7125 19.2422 21.7219 18.6891C21.7266 18.1594 21.6422 17.9812 20.9297 17.0625C20.5828 16.6125 20.2969 16.2328 20.2969 16.2187C20.2969 16.2 20.3766 15.9984 20.4797 15.7687C20.5781 15.5391 20.6953 15.2391 20.7375 15.1031C20.7844 14.9719 20.8313 14.8594 20.8453 14.8594C20.8641 14.8594 21.3 14.8078 21.8156 14.7422C23.0578 14.5875 23.1984 14.5406 23.5594 14.1844C24 13.7437 24.0047 13.7156 23.9906 11.925C23.9766 10.4859 23.9719 10.4203 23.8734 10.2187C23.8125 10.1016 23.6813 9.91406 23.5734 9.80625C23.2453 9.47812 23.0672 9.42187 21.9422 9.27656C21.3844 9.20156 20.9063 9.14531 20.8734 9.14062C20.8453 9.14062 20.7844 9.02812 20.7375 8.89219C20.6953 8.76094 20.5781 8.46094 20.4797 8.23125C20.3766 8.00156 20.2969 7.8 20.2969 7.78125C20.2969 7.76719 20.5828 7.3875 20.9297 6.9375C21.6375 6.02344 21.7266 5.84062 21.7219 5.31562C21.7219 4.77187 21.6281 4.63125 20.475 3.48281C19.3453 2.35781 19.2375 2.28281 18.6797 2.27812C18.1594 2.27344 17.9766 2.3625 17.0625 3.07031C16.6125 3.41719 16.2328 3.70312 16.2188 3.70312C16.2 3.70312 15.9984 3.62344 15.7688 3.52031C15.5391 3.42188 15.2391 3.30469 15.1078 3.2625C14.9719 3.21562 14.8594 3.15469 14.8594 3.12656C14.8594 3.09375 14.7984 2.61562 14.7234 2.05781C14.5781 0.928123 14.5172 0.75 14.1938 0.426561C14.0859 0.318748 13.8984 0.1875 13.7813 0.126562C13.5797 0.0281239 13.5188 0.0234375 12.0469 0.014061C10.8234 0.00468636 10.4859 0.0187492 10.3453 0.0703125ZM12.9516 7.12969C13.9547 7.33125 14.7141 7.73438 15.45 8.46094C16.1578 9.15469 16.5703 9.85312 16.8188 10.7766C16.9266 11.175 16.9406 11.3156 16.9406 12C16.9406 12.6844 16.9266 12.825 16.8188 13.2234C16.5703 14.1469 16.1578 14.8453 15.45 15.5391C13.8188 17.1422 11.4375 17.4281 9.44063 16.2516C8.85938 15.9141 8.08594 15.1406 7.74844 14.5594C6.79219 12.9375 6.79219 11.0484 7.74375 9.45C8.02969 8.97187 8.58281 8.35781 9.0375 8.01562C10.1438 7.18594 11.6016 6.85312 12.9516 7.12969Z" fill="#CA0F2E"/>
</g>
<defs>
<clipPath id="clip0_515_1162">
<rect width="24" height="24" fill="white"/>
</clipPath>
</defs>
</svg>
