<svg width="30" height="30" viewBox="0 0 30 30" fill="none" xmlns="http://www.w3.org/2000/svg">
<path d="M17.3438 20.1562H4.6875" stroke="white" stroke-width="2" stroke-linecap="round" stroke-linejoin="round"/>
<path d="M25.3125 20.1562H22.0312" stroke="white" stroke-width="2" stroke-linecap="round" stroke-linejoin="round"/>
<path d="M19.6875 22.5C20.9819 22.5 22.0312 21.4507 22.0312 20.1562C22.0312 18.8618 20.9819 17.8125 19.6875 17.8125C18.3931 17.8125 17.3438 18.8618 17.3438 20.1562C17.3438 21.4507 18.3931 22.5 19.6875 22.5Z" stroke="white" stroke-width="2" stroke-linecap="round" stroke-linejoin="round"/>
<path d="M9.84375 9.84375H4.6875" stroke="white" stroke-width="2" stroke-linecap="round" stroke-linejoin="round"/>
<path d="M25.3125 9.84375H14.5312" stroke="white" stroke-width="2" stroke-linecap="round" stroke-linejoin="round"/>
<path d="M12.1875 12.1875C13.4819 12.1875 14.5312 11.1382 14.5312 9.84375C14.5312 8.54933 13.4819 7.5 12.1875 7.5C10.8931 7.5 9.84375 8.54933 9.84375 9.84375C9.84375 11.1382 10.8931 12.1875 12.1875 12.1875Z" stroke="white" stroke-width="2" stroke-linecap="round" stroke-linejoin="round"/>
</svg>
