<svg width="18" height="18" viewBox="0 0 18 18" fill="none" xmlns="http://www.w3.org/2000/svg">
<g clip-path="url(#clip0_506_367)">
<path d="M5.44863 0.0562248C5.16738 0.130053 4.83691 0.330444 4.60488 0.562475C4.37636 0.790991 4.25683 0.97732 4.14082 1.28669L4.05996 1.49412L4.04941 8.85935C4.04238 14.0906 4.04941 16.2914 4.07754 16.4531C4.1373 16.7941 4.32363 17.1562 4.58027 17.4164C4.85097 17.6906 5.01972 17.7996 5.35722 17.9121L5.6209 18H8.97129C12.6662 18 12.5221 18.007 12.9475 17.7785C13.1936 17.6484 13.5486 17.3144 13.6822 17.0859C13.7314 16.998 13.8123 16.8222 13.858 16.6992L13.9389 16.4707L13.9494 9.12302C13.9564 3.84255 13.9494 1.70857 13.9213 1.53982C13.858 1.17068 13.6787 0.84021 13.3834 0.548412C13.1021 0.270678 12.8771 0.13357 12.5678 0.0527096C12.2619 -0.0246334 5.74394 -0.0246334 5.44863 0.0562248ZM10.0682 1.22693C10.1877 1.33943 10.1877 1.47302 10.0682 1.58552L9.97675 1.6699H9.00996H8.04316L7.95879 1.57146C7.91308 1.51872 7.87441 1.4449 7.87441 1.40974C7.87441 1.31833 8.00097 1.16716 8.0959 1.14958C8.13808 1.13904 8.58105 1.13552 9.07675 1.13904L9.97675 1.14255L10.0682 1.22693ZM7.4455 1.23044C7.60371 1.3781 7.49824 1.66287 7.28379 1.66287C7.13261 1.66287 7.03066 1.56443 7.03066 1.42029C7.03066 1.27966 7.14316 1.16013 7.27675 1.16013C7.32597 1.16013 7.40332 1.19177 7.4455 1.23044ZM13.0424 8.92966V15.1875H9.05215H5.06191V8.92966V2.67185H9.05215H13.0424V8.92966ZM9.29824 15.8695C9.6041 16.0101 9.77285 16.2738 9.77285 16.6008C9.76933 17.4726 8.58808 17.7222 8.22246 16.9277C8.13808 16.7449 8.13808 16.4426 8.22246 16.2562C8.29629 16.0945 8.54238 15.866 8.70058 15.8238C8.89394 15.764 9.11543 15.7816 9.29824 15.8695Z" fill="#717171"/>
</g>
<defs>
<clipPath id="clip0_506_367">
<rect width="18" height="18" fill="white"/>
</clipPath>
</defs>
</svg>
