<svg width="24" height="24" viewBox="0 0 24 24" fill="none" xmlns="http://www.w3.org/2000/svg">
<g clip-path="url(#clip0_515_1155)">
<path d="M11.4891 0.590748C11.2359 0.703247 11.0203 0.890747 10.9031 1.097C10.8422 1.20481 10.1859 2.71418 9.44531 4.45325C8.70469 6.19231 8.08594 7.63137 8.06719 7.65012C8.05313 7.66887 6.43594 7.82825 4.47188 8.00637C1.36406 8.29231 0.88125 8.34387 0.717188 8.42825C0.225 8.68137 0 9.047 0 9.59544C0 9.98918 0.0984375 10.2517 0.342188 10.5001C0.426563 10.5845 1.65 11.6673 3.06094 12.9048L5.62969 15.1595L5.60156 15.3236C5.58281 15.4126 5.23594 16.9642 4.82344 18.7642C4.37813 20.7236 4.07812 22.1439 4.07812 22.2892C4.07812 22.5892 4.29844 23.0579 4.51875 23.2267C4.88906 23.5079 5.31563 23.597 5.74219 23.4798C5.84531 23.4517 7.28438 22.6173 8.93906 21.6282C10.5938 20.6392 11.9719 19.8282 12 19.8282C12.0281 19.8282 13.4063 20.6392 15.0609 21.6236C16.7156 22.6126 18.1406 23.447 18.2297 23.4751C18.7781 23.6626 19.4625 23.3954 19.7484 22.8892C20.0109 22.4111 20.0203 22.4907 19.1531 18.6704C18.7266 16.7861 18.375 15.2251 18.375 15.197C18.375 15.1736 19.5281 14.1423 20.9438 12.9048C22.3547 11.6673 23.5734 10.5845 23.6578 10.5001C23.7422 10.4157 23.8453 10.2704 23.8922 10.1767C23.9906 9.97044 24.0281 9.39387 23.9578 9.17356C23.8219 8.77043 23.4234 8.42356 23.0016 8.33918C22.8938 8.31575 21.2672 8.16106 19.3828 7.98762C17.5031 7.81887 15.9469 7.66418 15.9328 7.65012C15.9188 7.63137 15.2766 6.14075 14.5078 4.34075C12.9797 0.759497 13.0078 0.81106 12.5344 0.604809C12.2766 0.496998 11.7281 0.487621 11.4891 0.590748Z" fill="#CA0F2E"/>
</g>
<defs>
<clipPath id="clip0_515_1155">
<rect width="24" height="24" fill="white"/>
</clipPath>
</defs>
</svg>
