<svg width="27" height="27" viewBox="0 0 27 27" fill="none" xmlns="http://www.w3.org/2000/svg">
<path d="M10.3096 2.23593C9.8666 2.34668 9.53437 2.53652 9.19688 2.87402C8.8541 3.21679 8.64316 3.59121 8.54824 4.05C8.5166 4.20292 8.49023 4.79355 8.49023 5.35254V6.38086H7.14551H5.80078V15.6094V24.8379H13.5H21.1992V15.6094V6.38086H19.8545H18.5098V5.35254C18.5098 4.78828 18.4834 4.20292 18.4518 4.05C18.2566 3.14297 17.5236 2.40996 16.6219 2.22011C16.2105 2.13574 10.6629 2.14628 10.3096 2.23593ZM16.5059 3.84961C16.8803 4.03945 16.9277 4.21347 16.9277 5.3789V6.38086H14.3859H11.8494L11.3959 6.62343C10.3412 7.19296 9.62402 7.83105 9.31816 8.47441C9.17051 8.78554 9.14941 8.89101 9.14941 9.23906C9.15469 9.61347 9.17051 9.68203 9.38672 10.1092L9.62402 10.5732L10.8369 10.7156C12.1131 10.8686 12.2607 10.9055 12.4348 11.09C12.498 11.1533 13.2205 12.382 14.0484 13.8164C15.4248 16.2 15.5566 16.4479 15.5566 16.6693C15.5566 17.1123 15.4881 17.1703 13.6055 18.2619C11.1006 19.7121 11.1586 19.6857 10.7367 19.4432C10.5574 19.343 10.415 19.1215 9.55547 17.6396C7.46719 14.0221 7.43555 13.9641 7.43555 13.7742C7.43555 13.6635 7.61484 13.173 7.88906 12.5191L8.34258 11.4486L8.23184 11.2904C8.00508 10.974 7.70449 10.2516 7.61484 9.81386C7.40391 8.74863 7.7625 7.64121 8.64316 6.68144L8.92266 6.38086H9.49746H10.0723V5.36308C10.0775 4.2082 10.1092 4.08691 10.473 3.8707L10.6787 3.74414H13.4895C16.2 3.74414 16.3055 3.74941 16.5059 3.84961ZM17.6766 9.60293C18.1354 9.69785 18.5098 9.90879 18.8525 10.2516C20.2131 11.6174 19.4748 13.9219 17.5658 14.2488C16.8223 14.3754 16.084 14.1328 15.5303 13.5791C14.5916 12.6457 14.5916 11.1902 15.5303 10.2568C16.1104 9.67148 16.8855 9.43945 17.6766 9.60293Z" fill="#AAAAAA"/>
<path d="M9.68711 12.3503C9.64492 12.4452 9.49727 12.788 9.36016 13.115L9.1123 13.7003L10.2566 15.6884C11.1373 17.2071 11.4221 17.6659 11.4854 17.6396C11.5328 17.6237 12.0496 17.3337 12.635 16.9909L13.7055 16.3739L13.6105 16.2157C13.5578 16.1314 13.0568 15.2612 12.4979 14.2909C11.9389 13.3206 11.4484 12.4927 11.4115 12.4505C11.3535 12.3872 10.1986 12.1974 9.82422 12.1816C9.7873 12.1816 9.72402 12.2607 9.68711 12.3503Z" fill="#AAAAAA"/>
<path d="M16.8117 11.2377C16.585 11.3537 16.4004 11.6648 16.4004 11.918C16.4004 12.1816 16.585 12.4822 16.8223 12.6035C16.933 12.6615 17.1018 12.709 17.1914 12.709C17.4551 12.709 17.7557 12.5244 17.877 12.2871C17.935 12.1764 17.9824 12.0076 17.9824 11.918C17.9824 11.6543 17.7979 11.3537 17.5605 11.2324C17.3021 11.1006 17.0648 11.1006 16.8117 11.2377Z" fill="#AAAAAA"/>
<path d="M2.34668 6.43355C1.32363 6.64448 0.49043 7.37749 0.147656 8.37417L0.0263672 8.72749V15.6093V22.4912L0.147656 22.8445C0.448242 23.7093 1.10215 24.3685 1.98281 24.6849C2.24648 24.7851 2.4416 24.8062 3.25898 24.8273L4.21875 24.8484V15.6146V6.38081L3.39082 6.38609C2.93203 6.39136 2.4627 6.41245 2.34668 6.43355Z" fill="#AAAAAA"/>
<path d="M22.7812 15.6093V24.8484L23.7463 24.8273C24.5584 24.8062 24.7535 24.7851 25.0172 24.6849C25.8979 24.3685 26.5518 23.7093 26.8523 22.8445L26.9736 22.4912V15.6093V8.72749L26.8523 8.37417C26.5518 7.50933 25.8979 6.85015 25.0172 6.53374C24.7535 6.43355 24.5584 6.41245 23.7463 6.39136L22.7812 6.37027V15.6093Z" fill="#AAAAAA"/>
</svg>
