<svg width="20" height="20" viewBox="0 0 20 20" fill="none" xmlns="http://www.w3.org/2000/svg">
<path d="M9.58587 2.02337L3.28118 3.28118L2.02337 9.58587C2.00366 9.68653 2.00902 9.7905 2.039 9.8886C2.06897 9.9867 2.12263 10.0759 2.19524 10.1484L10.3515 18.3046C10.409 18.3634 10.4776 18.4102 10.5534 18.4421C10.6292 18.474 10.7107 18.4904 10.7929 18.4904C10.8751 18.4904 10.9566 18.474 11.0324 18.4421C11.1082 18.4102 11.1768 18.3634 11.2343 18.3046L18.3046 11.2343C18.3634 11.1768 18.4102 11.1082 18.4421 11.0324C18.474 10.9566 18.4904 10.8751 18.4904 10.7929C18.4904 10.7107 18.474 10.6292 18.4421 10.5534C18.4102 10.4776 18.3634 10.409 18.3046 10.3515L10.1484 2.19524C10.0759 2.12263 9.9867 2.06897 9.8886 2.039C9.7905 2.00902 9.68653 2.00366 9.58587 2.02337V2.02337Z" stroke="#2E2E2E" stroke-width="1.5" stroke-linecap="round" stroke-linejoin="round"/>
<path d="M6.5625 7.34375C6.99397 7.34375 7.34375 6.99397 7.34375 6.5625C7.34375 6.13103 6.99397 5.78125 6.5625 5.78125C6.13103 5.78125 5.78125 6.13103 5.78125 6.5625C5.78125 6.99397 6.13103 7.34375 6.5625 7.34375Z" fill="#2E2E2E"/>
</svg>
