<svg width="32" height="28" viewBox="0 0 32 28" fill="none" xmlns="http://www.w3.org/2000/svg">
<path d="M14.331 0.495388C13.4379 -0.180223 12.694 -0.732163 12.6715 -0.734509C12.65 -0.728055 12.7442 0.519278 12.8784 2.05139C13.0166 3.5787 13.2183 5.88128 13.3335 7.16217L13.5424 9.49513L11.0642 8.86101L8.5819 8.2317L7.33775 6.03091C6.64738 4.81704 6.06955 3.81017 6.04068 3.78623C5.91559 3.6825 2.63106 2.87511 2.62883 2.94633C2.62813 2.98635 2.60987 4.02669 2.59127 5.25349C2.56237 7.17813 2.53833 7.49107 2.43436 7.51854C1.81856 7.67369 1.38595 8.12688 1.36637 8.63027C1.34808 9.00483 1.55263 9.53168 1.8866 9.97099C2.84193 11.2178 5.43724 12.9152 7.55493 13.6806C8.12921 13.8889 27.8348 19.0485 28.5529 19.1812C28.8643 19.2365 29.3541 19.2529 29.7461 19.2207C30.3278 19.1753 30.4573 19.1366 30.733 18.951C31.5095 18.4258 31.6282 17.558 31.0828 16.375C30.7505 15.6692 30.435 15.2371 29.8046 14.6656C29.1839 14.1022 28.7206 13.7993 27.8665 13.3996C27.1519 13.0669 26.5625 12.8867 23.4284 12.0741L20.7531 11.374L18.7808 6.88876L16.8132 2.40747L16.3859 2.06122C16.1509 1.87454 15.2281 1.16619 14.331 0.495388ZM17.7612 7.85394L19.7819 12.4767L22.9169 13.2981C24.6417 13.754 26.3225 14.214 26.6525 14.3253C28.1846 14.8569 29.3488 15.7735 29.8588 16.8622C30.0535 17.2834 30.1578 17.7353 30.078 17.8315C29.9903 17.9373 29.3454 17.9709 28.845 17.8889C28.2774 17.7999 8.70882 12.6807 8.02565 12.4471C6.4935 11.9155 4.19661 10.5143 3.29081 9.56024C3.06855 9.31911 2.84383 9.05158 2.79079 8.95888L2.69996 8.79426L3.27845 8.76243L3.85213 8.72662L3.8856 6.70835C3.90128 5.59279 3.9206 4.65887 3.93573 4.63082C3.95239 4.57157 5.06057 4.84093 5.17123 4.93269C5.20491 4.96061 5.78755 5.97148 6.47311 7.18136L7.71644 9.37335L10.2716 10.0225C11.6809 10.3791 13.3087 10.7953 13.8909 10.9451C14.4682 11.0909 14.9534 11.201 14.9694 11.1817C14.9853 11.1625 14.8203 9.1095 14.6053 6.6173L14.2125 2.07774L14.7127 2.44382C15.8527 3.29168 15.491 2.65078 17.7612 7.85394Z" fill="#888888"/>
<path d="M1.0625 27.2812V27.9375H16.1875H31.3125V27.2812V26.625H16.1875H1.0625V27.2812Z" fill="#888888"/>
</svg>
