<svg width="19" height="19" viewBox="0 0 19 19" fill="none" xmlns="http://www.w3.org/2000/svg">
<g clip-path="url(#clip0_464_1323)">
<path d="M15.6788 3.97071C13.4596 3.98555 13.1813 3.99668 13.0811 4.05235C12.621 4.30469 12.5356 4.97266 12.9216 5.33262C13.1257 5.52559 13.1702 5.5293 14.7956 5.5293H16.3096L13.5005 8.33848L10.6876 11.1514L8.93602 9.39981C7.72625 8.19375 7.13621 7.62969 7.04344 7.58887C6.85047 7.51094 6.5573 7.51836 6.39031 7.60371C6.1825 7.71504 0.12625 13.7898 0.0557419 13.9605C-0.207735 14.6063 0.497344 15.2631 1.1282 14.9551C1.23211 14.9068 2.18582 13.9791 4.00789 12.1533L6.73543 9.42578L8.51668 11.2033C10.3833 13.0662 10.3759 13.0625 10.6876 13.0625C11.0067 13.0625 10.9028 13.1553 14.2389 9.82285L17.4007 6.66485L17.4118 8.18633C17.4229 9.65957 17.4266 9.70782 17.5046 9.85254C17.653 10.1346 17.8942 10.2793 18.2022 10.2793C18.5177 10.2793 18.796 10.1012 18.9296 9.81543C18.9927 9.67442 19.0001 9.51856 19.0001 7.12129V4.5793L18.9073 4.39004C18.796 4.1711 18.6141 4.03008 18.3692 3.97442C18.2764 3.95215 18.1948 3.93731 18.1837 3.94473C18.1725 3.94844 17.0481 3.95957 15.6788 3.97071Z" fill="#CA0F2E"/>
</g>
<defs>
<clipPath id="clip0_464_1323">
<rect width="19" height="19" fill="white"/>
</clipPath>
</defs>
</svg>
