<svg width="27" height="27" viewBox="0 0 27 27" fill="none" xmlns="http://www.w3.org/2000/svg">
<g clip-path="url(#clip0_84_1403)">
<path d="M12.5244 0.348064C12.44 0.35861 12.1394 0.395525 11.8652 0.427166C9.01753 0.748846 6.30171 2.08302 4.19233 4.1924C2.13042 6.24904 0.896436 8.71701 0.437646 11.6912C0.316357 12.4822 0.316357 14.5178 0.437646 15.3088C0.806787 17.7135 1.68745 19.7807 3.15347 21.6686C3.60171 22.2487 4.74605 23.393 5.32612 23.8412C7.28257 25.36 9.37612 26.2301 11.8916 26.5887C12.6035 26.6889 14.5441 26.6731 15.3193 26.5623C18.2671 26.1299 21.0093 24.7219 23.008 22.6231C24.975 20.5559 26.1826 18.0246 26.5833 15.1348C26.6783 14.4809 26.6783 12.5192 26.5833 11.8653C26.1826 8.97541 24.975 6.44416 23.008 4.37697C21.0146 2.27814 18.2566 0.864861 15.3457 0.448259C14.7761 0.363884 12.883 0.29533 12.5244 0.348064ZM16.5216 8.89631C17.2494 9.52912 18.3041 10.4309 18.8525 10.9055C19.4062 11.3748 19.9072 11.8389 19.9757 11.9285C20.039 12.0182 20.0917 12.1658 20.0917 12.2608C20.0917 12.3557 20.039 12.5033 19.9757 12.5983C19.7701 12.883 15.2876 16.7115 15.0873 16.7695C14.9554 16.8065 14.8605 16.7959 14.7076 16.7326C14.3595 16.5955 14.3437 16.5164 14.3437 15.1295V13.9061L13.6212 13.943C11.1269 14.0643 9.91401 14.6444 9.53433 15.8942C9.37612 16.4215 9.41831 17.3971 9.65034 18.2461C9.78745 18.7576 9.80327 18.8736 9.75054 19.0002C9.67671 19.1795 9.55542 19.2481 9.31284 19.2481C9.15991 19.2481 9.05972 19.1901 8.74858 18.9264C8.00503 18.283 7.37749 17.318 7.08745 16.374C6.96089 15.9574 6.9398 15.8098 6.9398 15.1611C6.93452 14.2488 7.03472 13.7795 7.36694 13.0781C7.57261 12.6457 7.6728 12.5139 8.0894 12.1026C8.63257 11.5647 9.15991 11.2588 10.0089 10.974C10.9054 10.6735 12.4083 10.4625 13.8427 10.4256L14.3173 10.4151L14.3437 9.23908L14.3701 8.05783L14.5441 7.9049C14.6759 7.78361 14.7656 7.75197 14.9501 7.75197C15.1875 7.75197 15.2138 7.77306 16.5216 8.89631Z" fill="#AAAAAA"/>
</g>
<defs>
<clipPath id="clip0_84_1403">
<rect width="27" height="27" fill="white"/>
</clipPath>
</defs>
</svg>
