<svg width="27" height="27" viewBox="0 0 27 27" fill="none" xmlns="http://www.w3.org/2000/svg">
<path d="M12.3928 0.0368509C11.4699 0.184507 10.6684 0.458726 10.0514 0.827867C9.09689 1.3974 8.22677 2.26224 7.65724 3.20091C7.36193 3.68607 7.09825 4.36107 6.9506 4.98334C6.79767 5.64252 6.76075 6.96088 6.87677 7.62533C7.21427 9.56595 8.3797 11.2113 10.1358 12.2185C11.8654 13.2099 14.1699 13.2943 16.0631 12.44C16.6959 12.1552 17.2918 11.7175 17.9088 11.1058C19.2904 9.72416 19.8969 8.15267 19.8125 6.21205C19.7334 4.48763 19.1481 3.13236 17.9457 1.9142C16.9859 0.938609 15.7889 0.311069 14.4652 0.0790386C14.0486 0.00520992 12.7408 -0.0211573 12.3928 0.0368509Z" fill="#AAAAAA"/>
<path d="M7.43555 13.057C6.77109 13.1572 6.32813 13.289 5.79023 13.558C4.76191 14.0642 3.98672 14.9027 3.375 16.1631C2.60508 17.7504 2.21484 19.6963 2.21484 21.9955C2.21484 23.3877 2.31504 23.8834 2.75801 24.7588C2.92148 25.0804 3.09023 25.2967 3.4541 25.6605C3.9709 26.1826 4.41914 26.4779 5.04668 26.6994C5.9168 27.0158 5.62676 27.0053 13.6898 26.9894L21.0674 26.9736L21.5156 26.8365C22.0852 26.6572 22.3857 26.5254 22.7654 26.2828C23.6461 25.7238 24.2947 24.8379 24.5742 23.8359C24.743 23.2084 24.7904 22.4596 24.7324 21.3047C24.4688 16.1367 22.507 13.2258 19.1689 13.0412C18.4518 13.0043 18.4412 13.0043 17.2125 13.7953C16.2633 14.4017 15.6041 14.7023 14.7287 14.9291C14.0695 15.1031 12.8883 15.1031 12.2344 14.9344C11.301 14.6918 10.6734 14.4017 9.72422 13.7847C9.37617 13.558 8.94902 13.2943 8.76445 13.1994C8.45859 13.0412 8.39004 13.0254 7.99981 13.0306C7.7625 13.0359 7.50938 13.0465 7.43555 13.057Z" fill="#AAAAAA"/>
</svg>
