<svg width="40" height="40" viewBox="0 0 40 40" fill="none" xmlns="http://www.w3.org/2000/svg">
<g clip-path="url(#clip0_289_1992)">
<path d="M8.71875 0.164062L8.51562 0.320312V1.78906C8.51562 3.21875 8.52344 3.25781 8.69531 3.42188C8.83594 3.55469 8.97656 3.59375 9.28125 3.59375H9.6875V4.21875V4.84375H7.49219C6.10156 4.84375 5.24219 4.875 5.14844 4.92969C4.97656 5.01562 2.42188 10.0703 2.42188 10.3203C2.42188 10.4062 2.50781 10.5625 2.61719 10.6641C2.79688 10.8516 2.84375 10.8594 3.82812 10.8594H4.84375V15.1562V19.4531H3.80469C2.82031 19.4531 2.75 19.4609 2.60156 19.625C2.38281 19.8594 0 24.6484 0 24.8516C0 25.3359 0.335938 25.4688 1.53125 25.4688H2.42188V29.5078V33.5391L2.03125 33.9531C1.51562 34.5 1.16406 35.2422 1.10938 35.9062L1.07031 36.4062H0.726562C0.46875 36.4062 0.335938 36.4531 0.195312 36.6016C0 36.7891 0 36.8047 0 38.2031C0 39.6016 0 39.6172 0.195312 39.8047L0.382812 40H20H39.6172L39.8047 39.8047C40 39.6172 40 39.6016 40 38.2031C40 36.2734 40.1484 36.4062 37.9688 36.4062H36.3203L36.3438 35.7656L36.3672 35.1328L36.8359 35.0078C38.7812 34.4688 40.1094 32.6328 39.9766 30.6641C39.8984 29.6172 39.5234 28.75 38.8047 27.9922L38.4219 27.5859L38.5859 27.1094C38.7969 26.5 38.8047 25.6953 38.6016 25.1094C38.2891 24.2422 37.5469 23.4844 36.7422 23.2266L36.3281 23.0938V21.8594V20.625L37.8359 20.6172C38.6562 20.6094 39.4219 20.5859 39.5234 20.5547C39.8047 20.4766 40.0312 20.1328 39.9688 19.8906C39.9062 19.625 34.0312 11.7891 33.8047 11.6641C33.7109 11.6094 33.5703 11.5703 33.4922 11.5625C33.2812 11.5625 32.9688 11.9141 32.9688 12.1562C32.9688 12.3125 33.6562 13.2812 35.5859 15.8594C37.0234 17.7812 38.2031 19.375 38.2031 19.3984C38.2031 19.4297 37.7344 19.4531 37.1562 19.4531H36.1016L31.2812 12.6484C27.8203 7.76562 26.4062 5.82812 26.2578 5.77344C26.1172 5.71094 26 5.71875 25.8438 5.79688C25.7109 5.85938 23.9453 8.21875 20.7812 12.5781C18.1094 16.25 15.8828 19.3047 15.8281 19.3594C15.7578 19.4297 15.4844 19.4531 14.8125 19.4375L13.8984 19.4141L19.75 11.5859C22.9766 7.28906 25.6797 3.72656 25.7656 3.67969C26.0469 3.53125 26.2891 3.58594 26.5391 3.84375C26.6719 3.98438 27.8359 5.52344 29.1406 7.26562C30.4375 9.00781 31.5703 10.4922 31.6562 10.5625C32.0078 10.875 32.5781 10.5938 32.5781 10.1172C32.5781 9.94531 31.9609 9.07812 29.9453 6.39062C27.1016 2.59375 27.0547 2.53906 26.2656 2.44531C25.4062 2.34375 24.9609 2.65625 23.875 4.11719L23.3438 4.84375H19.5234H15.7031V4.21875V3.59375H16.1328C16.4922 3.59375 16.6016 3.5625 16.7578 3.39844C16.9531 3.21094 16.9531 3.19531 16.9531 1.79688C16.9531 0.398438 16.9531 0.382812 16.7578 0.195312L16.5703 0H12.75C9 0 8.92188 0 8.71875 0.164062ZM15.7812 1.79688V2.42188H12.7344H9.6875V1.79688V1.17188H12.7344H15.7812V1.79688ZM14.5312 4.21875V4.84375H12.6953H10.8594V4.21875V3.59375H12.6953H14.5312V4.21875ZM22.3672 6.125C22.3359 6.17969 21.7266 7.00781 21.0156 7.95312L19.7266 9.67969L16.7891 9.6875C13.9375 9.6875 13.8438 9.69531 13.6406 9.85156C13.3828 10.0547 13.3594 10.4688 13.5938 10.7031C13.7422 10.8516 13.8516 10.8594 16.2578 10.8594C17.9531 10.8594 18.7578 10.8828 18.7344 10.9375C18.7188 10.9844 17.2891 12.9219 15.5547 15.2344L12.4062 19.4531L9.23438 19.4375L6.05469 19.4141L6.03125 15.1328L6.01562 10.8594H8.85938H11.7109L11.8672 10.6562C12.0703 10.3984 12.0781 10.1484 11.8828 9.91406L11.7344 9.72656L7.85938 9.70312L3.98438 9.67969L4.90625 7.85156L5.82031 6.01562H14.125C21.1094 6.01562 22.4219 6.03125 22.3672 6.125ZM30.6953 13.8438L35.1562 20.1406V21.625V23.1016L34.6719 23.2812C34 23.5234 33.2266 24.2891 32.9688 24.9609C32.7266 25.6016 32.7188 26.5 32.9609 27.1328L33.1406 27.5859L32.7031 28.0547C31.5 29.3516 31.2266 31.1406 31.9844 32.7734C32.4766 33.8359 33.7422 34.8281 34.8672 35.0391L35.1562 35.0938V35.75V36.4062H33.5625C31.4609 36.4062 31.5625 36.3359 31.5625 37.7812V38.8281H30.9375H30.3125V32.9766C30.3125 27.1797 30.3125 27.125 30.1484 26.9219L29.9922 26.7188H26.0859C22.2891 26.7188 22.1797 26.7266 22.0312 26.875C21.875 27.0312 21.875 27.1328 21.875 32.9297V38.8281H19.4141H16.9531V36.0156V33.1953L16.7578 33.0078C16.5156 32.7578 16.2188 32.7578 15.9766 33.0078L15.7812 33.1953V36.0156V38.8281H14.5312H13.2812V37.7969C13.2812 36.8516 13.2656 36.75 13.1094 36.5859C12.9688 36.4297 12.8672 36.4062 12.4141 36.4062H11.8828L11.7969 36.1016C11.75 35.9297 11.5781 35.5859 11.3984 35.3203C10.6953 34.2734 9.375 33.7734 8.13281 34.0938L7.63281 34.2188L7.23438 33.8438C6.32031 32.9844 5.17969 32.6328 3.96875 32.8359L3.59375 32.8984V29.1875V25.4688H9.6875H15.7812V28.2812C15.7812 30.9922 15.7891 31.1016 15.9375 31.25C16.1719 31.4844 16.5859 31.4609 16.7891 31.2031C16.9531 31 16.9531 30.9375 16.9531 25.4922V19.9844L17.4062 19.3516C23.7812 10.4375 26.0469 7.34375 26.1328 7.4375C26.1875 7.49219 28.2422 10.375 30.6953 13.8438ZM15.7812 22.4609V24.2969H8.67188C4.75781 24.2969 1.5625 24.2812 1.5625 24.2578C1.5625 24.2344 1.96875 23.4062 2.46094 22.4219L3.35938 20.625H9.57031H15.7812V22.4609ZM36.25 24.2969C37.4453 24.625 37.9531 26.125 37.2188 27.1797C36.8672 27.7031 36.875 27.8984 37.2734 28.2188C38.0547 28.8516 38.2109 29.0234 38.5 29.5938C38.7734 30.1484 38.7891 30.2344 38.7891 30.8906C38.7812 31.4453 38.7422 31.7031 38.6016 32.0547C38.2812 32.8672 37.3594 33.6797 36.5391 33.875L36.3203 33.9219L36.3438 33.1953L36.3672 32.4609L37.2188 31.9062C37.6875 31.5938 38.0938 31.2969 38.1328 31.2344C38.2734 31.0156 38.2109 30.6406 38 30.4766C37.7109 30.25 37.5938 30.2656 36.9844 30.6641C36.6875 30.8516 36.4219 31.0156 36.3906 31.0156C36.3516 31.0156 36.3281 29.8438 36.3281 28.4062V25.7891L36.125 25.6328C36.0078 25.5391 35.8672 25.4688 35.8125 25.4688C35.6328 25.4688 35.3203 25.6406 35.2656 25.7734C35.2344 25.8438 35.1875 26.3516 35.1641 26.9141L35.1172 27.9297L34.6328 27.4531C34.2422 27.0703 34.125 26.8906 34.0234 26.5391C33.6328 25.1875 34.8906 23.9219 36.25 24.2969ZM29.1406 33.3594V38.8281H26.0938H23.0469V33.3594V27.8906H26.0938H29.1406V33.3594ZM34.6094 28.9219L35.1484 29.3359V31.625L35.1562 33.9141L34.9844 33.8672C33.7422 33.5078 32.8359 32.3984 32.75 31.1328C32.7109 30.5156 32.8594 29.8438 33.1484 29.375C33.3906 28.9766 33.8281 28.5156 33.9609 28.5156C34.0234 28.5156 34.3125 28.7031 34.6094 28.9219ZM5.27344 34.0234C5.875 34.1797 6.36719 34.5469 6.76562 35.125C7.14844 35.6875 7.39062 35.75 7.96875 35.4375C8.77344 35 9.61719 35.125 10.2578 35.7891C10.4609 36 10.625 36.2266 10.625 36.2891C10.625 36.3906 10.1094 36.4062 6.44531 36.4062H2.26562V36.1094C2.26562 35.5469 2.82031 34.6562 3.39062 34.3047C3.64844 34.1406 4.35938 33.9219 4.64844 33.9141C4.74219 33.9062 5.01562 33.9609 5.27344 34.0234ZM12.1094 38.2031V38.8281H6.64062H1.17188V38.2031V37.5781H6.64062H12.1094V38.2031ZM38.8281 38.2031V38.8281H35.7812H32.7344V38.2031V37.5781H35.7812H38.8281V38.2031Z" fill="#717171"/>
<path d="M7.60938 12.1953C7.28906 12.3594 7.26562 12.5547 7.26562 15.1875C7.26562 17.625 7.27344 17.7188 7.42969 17.9219L7.58594 18.125H10.2812C12.8672 18.125 12.9766 18.1172 13.125 17.9688C13.2734 17.8203 13.2812 17.7109 13.2812 15.1328C13.2812 12.5 13.2812 12.4453 13.1172 12.2969C12.9609 12.1563 12.7891 12.1484 10.3594 12.1328C8.67188 12.125 7.71875 12.1484 7.60938 12.1953ZM12.1094 15.1172V16.9531H10.2734H8.4375V15.1172V13.2813H10.2734H12.1094V15.1172Z" fill="#717171"/>
<path d="M22.2656 14.5859C22.2031 14.6094 22.0859 14.6797 22.0156 14.75C21.8828 14.8594 21.875 15.1484 21.875 18.7891C21.875 22.6797 21.875 22.7109 22.0391 22.8594C22.1953 23 22.375 23.0078 26.0703 23.0078H29.9375L30.125 22.7891L30.3125 22.5703V18.7891V15.0078L30.125 14.7891L29.9375 14.5703L26.1562 14.5547C24.0859 14.5469 22.3281 14.5625 22.2656 14.5859ZM29.1016 18.7891V21.8359L26.0781 21.8594L23.0469 21.875V18.7891V15.7031L26.0781 15.7188L29.1016 15.7422V18.7891Z" fill="#717171"/>
<path d="M6.25 26.875C6.10156 27.0234 6.09375 27.1328 6.09375 29.7188V32.4141L6.29688 32.5703C6.5 32.7266 6.58594 32.7344 9.6875 32.7344C12.7891 32.7344 12.875 32.7266 13.0781 32.5703L13.2812 32.4141V29.7188C13.2812 27.1328 13.2734 27.0234 13.125 26.875C12.9766 26.7266 12.8672 26.7188 9.6875 26.7188C6.50781 26.7188 6.39844 26.7266 6.25 26.875ZM12.1094 29.7266V31.5625H9.6875H7.26562V29.7266V27.8906H9.6875H12.1094V29.7266Z" fill="#717171"/>
<path d="M24.4531 31.719C24.3047 31.8675 24.2969 31.9768 24.2969 33.3518V34.8362L24.5 34.9925C24.7344 35.18 24.8359 35.1956 25.1094 35.0706C25.4375 34.9222 25.4844 34.6643 25.4531 33.2034C25.4297 31.8987 25.4219 31.8597 25.2422 31.7112C25.0078 31.5159 24.6484 31.5237 24.4531 31.719Z" fill="#717171"/>
</g>
<defs>
<clipPath id="clip0_289_1992">
<rect width="40" height="40" fill="white"/>
</clipPath>
</defs>
</svg>
