<svg width="26" height="22" viewBox="0 0 26 22" fill="none" xmlns="http://www.w3.org/2000/svg">
<path d="M3.44348 0.0741768C3.17177 0.19648 0.669744 2.64255 0.596155 2.85804C0.499923 3.14342 0.522566 3.60933 0.64144 3.81317C0.777297 4.04031 3.14347 6.33496 3.38121 6.46891C3.60198 6.59704 4.10012 6.60869 4.31523 6.49221C4.51901 6.38155 4.75676 6.11365 4.83035 5.91563C4.86431 5.82245 4.89262 5.60696 4.89262 5.43224V5.11775H5.28887H5.68511V4.65765C5.68511 3.52198 6.09834 2.37465 6.72668 1.74566C6.83989 1.635 6.93047 1.51853 6.93047 1.49523C6.93047 1.47193 6.47195 1.44864 5.91154 1.44864H4.89262V1.13997C4.89262 0.813823 4.7511 0.435264 4.57562 0.272192C4.28692 0.0101128 3.78312 -0.0772467 3.44348 0.0741768Z" fill="#CA0F2E"/>
<path d="M8.91217 1.50691C7.85929 1.65833 6.98754 2.43875 6.66488 3.51618C6.56865 3.84815 6.56299 4.25583 6.56299 10.9709C6.56299 17.7325 6.56865 18.0936 6.67054 18.4722C6.91395 19.3807 7.63852 20.132 8.54423 20.4174C8.86123 20.5164 9.17823 20.5222 13.2143 20.5222C17.2504 20.5222 17.5674 20.5164 17.8844 20.4174C18.7901 20.132 19.5146 19.3807 19.7581 18.4722C19.86 18.0936 19.8656 17.7325 19.8656 11C19.8656 4.26748 19.86 3.90639 19.7581 3.52783C19.4807 2.48534 18.5467 1.64668 17.5051 1.50691C17.0183 1.44285 9.37069 1.44285 8.91217 1.50691ZM14.488 3.33564C16.0333 3.76079 17.1258 4.69845 17.8278 6.19522C18.2353 7.06299 18.3372 7.52308 18.3316 8.43745C18.3202 9.94586 17.7712 11.2271 16.6617 12.3162C16.039 12.9219 15.439 13.2772 14.5898 13.5451C14.154 13.679 13.9898 13.6965 13.2992 13.7023C12.4444 13.7023 12.0425 13.6324 11.3519 13.3471C10.4915 12.9918 9.5858 12.2638 9.04803 11.4892C7.62154 9.43335 7.83098 6.54466 9.52919 4.77416C10.2651 4.0054 11.1538 3.51618 12.252 3.2774C12.7331 3.17257 14.0238 3.20751 14.488 3.33564ZM17.1145 15.7233C17.4202 15.8339 17.4994 16.1601 17.2787 16.3988L17.1598 16.5328H13.22H9.28578L9.15558 16.4047C8.93482 16.195 8.99142 15.8689 9.27446 15.7407C9.50655 15.6417 16.8258 15.6184 17.1145 15.7233Z" fill="#CA0F2E"/>
<path d="M12.6586 4.06947C12.1945 4.13354 11.7303 4.27331 11.385 4.45385L11.1133 4.59945L11.4529 4.99548C12.0077 5.64195 12.2794 5.87491 12.4775 5.87491C12.8681 5.87491 13.2983 6.17775 13.5078 6.6029C13.604 6.7951 13.6323 6.98146 13.6549 7.65122C13.6776 8.44328 13.6776 8.48405 13.5247 8.84514C13.2304 9.56731 13.2247 9.62555 13.4172 9.9051C13.6436 10.2429 13.9153 10.3885 14.204 10.3361C14.3908 10.3011 14.5437 10.173 15.0927 9.60808L15.7607 8.9325V8.40834C15.7607 7.70946 15.8739 7.47068 16.4966 6.83586L16.9721 6.34083L16.8702 6.14281C16.5532 5.53712 15.8513 4.87318 15.1154 4.49462C14.4191 4.13354 13.4398 3.96464 12.6586 4.06947Z" fill="#CA0F2E"/>
<path d="M10.1293 5.37989C9.9821 5.53714 9.78397 5.78175 9.6934 5.92153C9.49528 6.21855 9.14431 6.96402 9.12733 7.13874C9.10469 7.29599 10.1066 8.3676 10.3217 8.41419C10.7689 8.51902 10.9104 8.57144 11.1539 8.74616C11.335 8.86846 11.4765 9.02571 11.5727 9.22372C11.7029 9.49163 11.7143 9.56734 11.7143 10.3303C11.7143 11.099 11.7086 11.1631 11.5614 11.4427C11.4822 11.5999 11.369 11.7688 11.318 11.8154C11.2274 11.8911 11.0633 12.1765 11.0633 12.2522C11.0633 12.2755 11.2501 12.3745 11.4765 12.4852C12.8577 13.1433 14.5673 12.9103 15.8579 11.8969C16.373 11.4893 16.7806 10.9826 17.0636 10.3885C17.3863 9.71876 17.4825 9.28779 17.4825 8.49573C17.4825 7.86674 17.3806 7.18533 17.2957 7.2261C17.2731 7.23775 17.1089 7.40664 16.9334 7.60466L16.6108 7.97157V8.47825C16.6108 9.22955 16.5089 9.42174 15.6541 10.2429C15.2805 10.6098 14.8503 10.9767 14.7088 11.0525C14.1087 11.3786 13.3389 11.1748 12.8464 10.5516C12.3992 9.98667 12.32 9.39844 12.6256 8.81604C12.7502 8.57144 12.7615 8.48408 12.7615 7.74443C12.7615 6.83007 12.7445 6.79512 12.3143 6.72523C11.9067 6.66117 11.7426 6.53887 11.052 5.79922L10.3897 5.0887L10.1293 5.37989Z" fill="#CA0F2E"/>
<path d="M8.91211 8.56554C8.91777 8.87421 9.05929 9.60221 9.18948 9.97495C9.34798 10.4467 9.69328 11.0233 10.0386 11.4076L10.3273 11.728L10.4292 11.5824C10.4801 11.5067 10.599 11.3494 10.6952 11.2446C10.8481 11.0582 10.8594 11.0058 10.882 10.4991C10.916 9.75364 10.8764 9.56727 10.6499 9.42749C10.548 9.36343 10.3952 9.31101 10.3103 9.31101C10.0669 9.31101 9.71593 9.09553 9.331 8.72279C9.1442 8.5306 8.96872 8.37918 8.95173 8.37918C8.92909 8.37918 8.91211 8.46654 8.91211 8.56554Z" fill="#CA0F2E"/>
<path d="M22.1303 15.5078C21.9208 15.6068 21.6774 15.8689 21.5982 16.0843C21.5642 16.1775 21.5359 16.393 21.5359 16.5677V16.8822H21.1453H20.7604L20.7264 17.5345C20.6755 18.6236 20.3585 19.503 19.7981 20.1378C19.6339 20.33 19.498 20.4989 19.498 20.5164C19.498 20.5339 19.9566 20.5513 20.517 20.5513H21.5359V20.8542C21.5359 21.1862 21.6774 21.5647 21.8529 21.7278C22.1416 21.9899 22.6284 22.0772 22.968 21.9258C23.2454 21.8093 25.7588 19.3691 25.8324 19.1419C25.9286 18.8566 25.9059 18.3906 25.7871 18.1868C25.6512 17.9538 23.285 15.665 23.0473 15.5311C22.8322 15.4088 22.368 15.4029 22.1303 15.5078Z" fill="#CA0F2E"/>
</svg>
