<svg width="18" height="18" viewBox="0 0 18 18" fill="none" xmlns="http://www.w3.org/2000/svg">
<path d="M7.85742 0.0527611C6.2332 0.263699 4.73554 0.889481 3.44531 1.89495C3.02695 2.21839 2.33086 2.90393 1.99336 3.32229C1.01953 4.52815 0.379684 5.94495 0.105466 7.49182C0.0070282 8.04026 -0.0316437 9.35862 0.0316376 9.95979C0.246091 11.9672 1.1039 13.7953 2.51367 15.2543C3.79336 16.5762 5.4 17.4692 7.14375 17.8278C8.31797 18.0668 9.7207 18.0633 10.8809 17.8207C14.3227 17.1 17.0719 14.3578 17.8207 10.8949C18.0633 9.76292 18.0633 8.23714 17.8207 7.10511C17.0121 3.36097 13.9113 0.523855 10.125 0.0527611C9.59062 -0.010519 8.36367 -0.010519 7.85742 0.0527611ZM9.27422 3.30823C9.36562 3.35393 9.46406 3.44182 9.52031 3.5262L9.61523 3.67034L9.62578 6.19104L9.63633 8.71526L11.1621 9.93518C12.8004 11.2465 12.832 11.2782 12.832 11.5875C12.832 11.8582 12.593 12.1324 12.3152 12.1852C12.0621 12.2344 11.9742 12.1746 10.2516 10.7965C9.3375 10.0653 8.55703 9.42542 8.51484 9.36917C8.47265 9.31643 8.41992 9.21448 8.39883 9.14417C8.37422 9.05979 8.36718 8.14221 8.37422 6.34222L8.38476 3.67034L8.47968 3.5262C8.58515 3.36448 8.81719 3.2344 8.99648 3.2344C9.06328 3.2344 9.18633 3.26956 9.27422 3.30823Z" fill="#717171"/>
</svg>
