<svg width="26" height="26" viewBox="0 0 26 26" fill="none" xmlns="http://www.w3.org/2000/svg">
<g clip-path="url(#clip0_196_1064)">
<path d="M12.4059 0.0708961C11.4664 0.299412 10.6946 1.11191 10.5067 2.07168C10.3949 2.65566 10.5321 3.40215 10.8418 3.86933L10.9688 4.0623H9.18127C7.23635 4.0623 7.09416 4.07754 6.60158 4.34668C6.28166 4.51933 5.93635 4.89004 5.77385 5.24551C5.6926 5.41308 5.2051 7.43926 4.41799 10.8924C3.10276 16.6611 3.09768 16.7018 3.27541 17.24C3.47854 17.8291 3.93049 18.3115 4.50432 18.5451L4.79885 18.6619L7.79494 18.6771C10.0039 18.6873 10.8215 18.6771 10.9281 18.6314C11.0856 18.5654 11.2227 18.3521 11.2227 18.1795C11.2227 18.0119 11.0906 17.7986 10.9434 17.7326C10.8469 17.6869 10.0547 17.6717 7.93205 17.6717C5.24573 17.6717 5.03752 17.6615 4.84963 17.5752C4.4383 17.3873 4.20979 17.042 4.20979 16.6104C4.20979 16.4834 4.75315 13.985 5.42346 11.06C6.77424 5.14902 6.68283 5.44863 7.17033 5.20996L7.44455 5.07793L13.0559 5.08808L18.6723 5.10332L18.916 5.25566C19.0887 5.3623 19.2004 5.4791 19.2817 5.63652C19.3528 5.78379 19.8301 7.77441 20.5918 11.1209C21.9223 16.9404 21.8969 16.7982 21.6125 17.2096C21.5211 17.3365 21.3688 17.4635 21.2113 17.5447L20.9524 17.6717H18.0375H15.1227L14.95 17.8443C14.7164 18.0779 14.7164 18.2811 14.95 18.5146L15.1278 18.6924L18.1645 18.6771L21.2012 18.6619L21.4957 18.5451C22.0746 18.3115 22.5215 17.8291 22.7196 17.2299C22.9024 16.6865 22.8973 16.6561 21.5821 10.8924C20.7949 7.44433 20.3074 5.41308 20.2262 5.24551C20.0637 4.89004 19.7184 4.51933 19.3985 4.34668C18.9059 4.07754 18.7637 4.0623 16.8188 4.0623H15.0313L15.1582 3.86933C15.341 3.59004 15.4934 3.12793 15.5238 2.73691C15.6457 1.26933 14.4371 -0.0154324 12.9594 0.00488091C12.802 0.00488091 12.5531 0.0353489 12.4059 0.0708961ZM13.6805 1.18808C14.2137 1.44707 14.4981 1.91933 14.4981 2.53886C14.4981 2.97051 14.3914 3.25996 14.1223 3.56972C13.7059 4.03691 12.9188 4.18418 12.3297 3.89472C11.5172 3.49355 11.2379 2.48301 11.7305 1.71113C12.1367 1.07129 12.9797 0.847849 13.6805 1.18808Z" fill="#2E2E2E"/>
<path d="M9.47071 7.7293C9.18633 7.88672 9.19141 7.79531 9.19141 10.3699C9.19141 12.0355 9.20665 12.777 9.24727 12.8684C9.32344 13.0359 9.60782 13.168 9.79571 13.1273C9.87696 13.1121 9.99376 13.041 10.0598 12.9699C10.1664 12.8582 10.1867 12.777 10.202 12.4063L10.2172 11.9746L10.8215 12.5688L11.4258 13.168L11.6391 13.1375C11.9285 13.0969 12.0859 12.9191 12.0859 12.6348C12.0859 12.4316 12.0606 12.3961 11.3496 11.6801L10.6133 10.9387L11.1973 10.4664C11.5223 10.2023 11.8168 9.94336 11.8574 9.88242C12.1113 9.52188 11.6949 8.98867 11.2785 9.15117C11.2074 9.17656 10.9383 9.36445 10.6844 9.57266L10.2121 9.95352L10.1969 8.9582L10.1816 7.96289L10.0141 7.81563C9.84141 7.6582 9.64844 7.62774 9.47071 7.7293Z" fill="#2E2E2E"/>
<path d="M14.4168 9.67863C13.8938 9.83605 13.3961 10.3235 13.2184 10.8415C13.0965 11.2021 13.1118 11.7302 13.2539 12.111C13.4164 12.5325 13.8735 12.9896 14.295 13.1521C14.6707 13.2943 15.2598 13.3095 15.5594 13.1825C15.6661 13.1368 15.7676 13.1013 15.7828 13.1013C15.793 13.1013 15.793 13.2028 15.7828 13.3247C15.7067 13.9747 15.0008 14.2642 14.4473 13.8681C14.1629 13.665 13.8836 13.6548 13.6957 13.8376C13.3098 14.2235 13.645 14.7415 14.4422 14.9853C15.3055 15.2544 16.2094 14.8532 16.6207 14.0204L16.7832 13.6853L16.7985 11.7911L16.8137 9.89699L16.6614 9.74972C16.4836 9.56691 16.2551 9.55167 16.0114 9.69894C15.8539 9.79542 15.8489 9.79542 15.5696 9.69386C15.2395 9.58214 14.7571 9.57199 14.4168 9.67863ZM15.4223 10.745C15.6457 10.9126 15.7575 11.1005 15.7778 11.3595C15.8539 12.1364 14.9399 12.563 14.3914 12.0146C14.0004 11.6235 14.0868 10.9735 14.5641 10.7146C14.8028 10.5825 15.2293 10.6028 15.4223 10.745Z" fill="#2E2E2E"/>
<path d="M12.7512 17.743C12.3094 17.9867 12.4973 18.6875 13 18.6875C13.259 18.6875 13.5078 18.4387 13.5078 18.1848C13.5078 17.8039 13.0863 17.5551 12.7512 17.743Z" fill="#2E2E2E"/>
<path d="M0.258964 21.8056C-0.0812705 21.9935 -0.0711142 22.5317 0.279276 22.6892C0.472245 22.7755 25.5277 22.7755 25.7207 22.6892C25.868 22.6231 26 22.4099 26 22.2423C26 22.0747 25.868 21.8614 25.7207 21.7954C25.5176 21.6989 0.43162 21.7091 0.258964 21.8056Z" fill="#2E2E2E"/>
<path d="M0.258964 25.0556C-0.0812705 25.2435 -0.0711142 25.7817 0.279276 25.9392C0.472245 26.0255 25.5277 26.0255 25.7207 25.9392C25.868 25.8731 26 25.6599 26 25.4923C26 25.3247 25.868 25.1114 25.7207 25.0454C25.5176 24.9489 0.43162 24.9591 0.258964 25.0556Z" fill="#2E2E2E"/>
</g>
<defs>
<clipPath id="clip0_196_1064">
<rect width="26" height="26" fill="white"/>
</clipPath>
</defs>
</svg>
