<svg width="315" height="168" viewBox="0 0 315 168" fill="none" xmlns="http://www.w3.org/2000/svg">
<g clip-path="url(#clip0_5_500)">
<path d="M42.0131 60.5013L41.1005 62.2536L38.7991 61.6571L38.052 63.6536L38.5839 64.7376L39.3424 62.7078L41.5547 63.2815L42.5192 61.4326L44.2431 61.5895L44.3197 60.7123L42.0131 60.5013Z" fill="#F7A491"/>
<path d="M43.2011 53.8008L42.4623 50.4905L39.9726 50.7223L39.1303 47.4817L36.6892 47.3362L35.7455 44.9852L34.8297 45.4144L36.0911 48.5594L38.4049 48.6966L39.2813 52.0682L41.7296 51.8406L42.3991 54.8401L43.2011 53.8008Z" fill="#F7CC7F"/>
<path d="M236.624 88.8885C236.624 88.8885 236.564 87.8928 237.456 87.1486C238.25 86.4845 239.324 86.6622 239.936 87.4012C240.645 88.2566 240.736 89.8935 239.524 92.3931C236.855 93.132 235.27 92.7433 234.562 91.888C233.951 91.149 233.972 90.0556 234.768 89.3915C235.66 88.6474 236.624 88.8885 236.624 88.8885Z" fill="#F48C7F"/>
<path d="M230.328 94.717C231.204 94.1984 231.883 93.7359 232.529 93.2505C232.742 93.0905 233.158 92.8753 233.168 92.5812C233.174 92.4284 233.099 92.3037 232.942 92.2705C232.652 92.2112 232.384 92.522 232.17 92.6831C231.516 93.1747 230.752 93.6995 229.95 94.1859C229.8 94.2774 229.778 94.506 229.875 94.6412C229.984 94.795 230.177 94.8064 230.328 94.717Z" fill="#F48C7F"/>
<path d="M242.506 88.2004C242.823 87.9708 243.135 87.7348 243.449 87.4999C243.749 87.2754 244.142 87.0624 244.349 86.7475C244.502 86.5147 244.314 86.2205 244.035 86.3068C243.674 86.418 243.363 86.7319 243.063 86.9584C242.751 87.1944 242.437 87.4293 242.129 87.6693C241.799 87.9261 242.166 88.4478 242.506 88.2004Z" fill="#F48C7F"/>
<path d="M236.277 96.6741C236.179 95.7169 236.507 95.1546 236.684 94.6266C236.779 94.3439 236.455 94.135 236.243 94.3512C235.662 94.9467 235.543 95.9538 235.632 96.7437C235.68 97.1594 236.319 97.0919 236.277 96.6741Z" fill="#F48C7F"/>
<path d="M241.124 95.6358C240.87 95.3198 240.684 94.9644 240.578 94.5726C240.514 94.3325 240.504 93.5353 240.064 93.713C239.649 93.8804 239.886 94.5923 239.982 94.8968C240.112 95.3042 240.323 95.6878 240.592 96.0183C240.858 96.3415 241.388 95.9663 241.124 95.6358Z" fill="#F48C7F"/>
<path d="M242.316 91.6676C242.585 91.6645 242.853 91.6614 243.121 91.6593C243.389 91.6562 243.692 91.7165 243.887 91.4982C243.996 91.3756 243.951 91.2072 243.849 91.1012C243.665 90.9089 243.294 90.99 243.05 90.9942C242.782 90.9983 242.514 91.0035 242.245 91.0077C242.066 91.0108 241.933 91.2062 241.952 91.3735C241.973 91.5658 242.137 91.6697 242.316 91.6676Z" fill="#F48C7F"/>
<path d="M233.037 88.5663C231.181 87.4532 231.187 87.4355 230.955 87.4033C230.717 87.37 230.533 87.6506 230.68 87.8523C230.826 88.0508 230.805 88.0154 232.763 89.1795C232.918 89.272 233.136 89.1629 233.205 89.0101C233.286 88.8292 233.193 88.6598 233.037 88.5663Z" fill="#F48C7F"/>
<path d="M235.887 86.4138C235.794 86.0688 235.664 85.7372 235.5 85.4192C235.347 85.124 235.153 84.6511 234.773 84.6491C234.692 84.6491 234.594 84.7229 234.569 84.7987C234.458 85.1168 234.769 85.441 234.909 85.7144C235.061 86.0116 235.182 86.3265 235.281 86.6456C235.334 86.8129 235.543 86.894 235.7 86.8337C235.876 86.7662 235.932 86.5843 235.887 86.4138Z" fill="#F48C7F"/>
<path d="M240.123 83.6648C240.08 83.5068 239.896 83.4642 239.759 83.5006C239.48 83.5754 239.351 83.9984 239.249 84.2416C239.13 84.5254 239.04 84.8174 238.968 85.1157C238.927 85.2882 239.078 85.4639 239.242 85.4899C239.433 85.52 239.567 85.387 239.614 85.2155C239.926 84.0982 240.231 84.0535 240.123 83.6648Z" fill="#F48C7F"/>
<path d="M55.7271 21.3166C55.5077 23.0502 57.3062 24.4273 58.9049 24.3182C60.6723 24.1987 62.1717 22.7426 62.4304 20.9975C62.7098 19.1091 61.5809 17.5989 59.8331 17.4607C58.132 17.3256 57.0434 18.8472 57.5349 20.3822C57.8867 21.4829 58.8874 21.8934 59.3913 21.5889C59.7835 21.3519 59.7597 20.7554 59.2847 20.6504C59.0943 20.6078 58.8977 20.7148 58.7963 20.8614C58.3803 20.6951 57.984 19.9343 58.253 19.1132C58.5966 18.0635 59.917 18.0032 60.7375 18.4927C61.7816 19.1153 61.9462 20.4571 61.5633 21.5265C61.1608 22.649 60.0639 23.5335 58.8687 23.6187C57.5152 23.7154 56.3242 22.6729 56.2155 21.3187C56.1897 20.9986 55.7664 21.0069 55.7271 21.3166Z" fill="#CA0F2E"/>
<path d="M212.852 76.2502C212.633 77.9838 214.432 79.361 216.03 79.2518C217.798 79.1323 219.297 77.6762 219.556 75.9312C219.835 74.0427 218.706 72.5326 216.958 72.3943C215.257 72.2592 214.169 73.7808 214.66 75.3159C215.012 76.4165 216.013 76.8271 216.517 76.5225C216.909 76.2856 216.886 75.689 216.41 75.584C216.22 75.5414 216.023 75.6485 215.922 75.795C215.506 75.6287 215.109 74.8679 215.378 74.0469C215.722 72.9971 217.042 72.9369 217.863 73.4264C218.907 74.0489 219.072 75.3907 218.689 76.4602C218.287 77.5827 217.189 78.4671 215.994 78.5524C214.641 78.649 213.45 77.6066 213.341 76.2523C213.315 75.9322 212.892 75.9395 212.852 76.2502Z" fill="#9BC1F9"/>
<path d="M197.706 32.5569L197.693 30.9034L196.329 29.9763C196.174 29.8713 196.206 29.6323 196.384 29.573L197.945 29.0492L198.402 27.4601C198.454 27.2792 198.689 27.2366 198.801 27.3883L199.779 28.7187L201.424 28.6636C201.612 28.6574 201.726 28.8694 201.616 29.0232L200.659 30.3691L201.22 31.924C201.284 32.1007 201.117 32.2753 200.939 32.2181L199.369 31.7192L198.071 32.7357C197.924 32.85 197.707 32.745 197.706 32.5569Z" fill="#CA0F2E"/>
<path d="M171.007 14.4498C170.926 13.2899 171.798 12.2849 172.952 12.2048C174.107 12.1248 175.108 12.9989 175.188 14.1588C175.267 15.3186 174.397 16.3237 173.242 16.4037C172.088 16.4848 171.088 15.6097 171.007 14.4498Z" fill="#CA0F2E"/>
<path d="M174.56 20.3937C174.435 19.7826 174.36 19.1299 174.153 18.5416C173.975 18.0354 173.188 18.1903 173.228 18.7339C173.276 19.399 173.483 20.0746 173.622 20.7263C173.678 20.9903 174.026 21.1129 174.256 21.0318C174.538 20.931 174.614 20.6587 174.56 20.3937Z" fill="#CA0F2E"/>
<path d="M178.151 17.786C177.457 17.3744 176.851 16.8652 176.211 16.3788C175.71 15.9984 175.171 16.6531 175.583 17.1042C176.174 17.7527 176.951 18.2589 177.7 18.7027C177.937 18.843 178.267 18.7058 178.383 18.4709C178.511 18.208 178.389 17.9263 178.151 17.786Z" fill="#CA0F2E"/>
<path d="M176.836 14.0184C176.679 14.1452 176.648 14.3271 176.745 14.5038C176.98 14.932 177.576 14.9102 177.999 14.8956C178.441 14.8811 178.883 14.7907 179.301 14.6472C179.919 14.4352 179.583 13.4728 178.963 13.6859C177.752 14.1016 177.292 13.6505 176.836 14.0184Z" fill="#CA0F2E"/>
<path d="M176.169 9.92661C175.559 10.8225 175.06 11.125 175.138 11.6186C175.183 11.9065 175.41 12.0448 175.687 11.9814C176.015 11.9065 176.193 11.5584 176.39 11.3131C176.578 11.0782 176.762 10.8433 176.931 10.5928C177.083 10.3662 177.105 10.0721 176.881 9.87672C176.694 9.7125 176.324 9.69899 176.169 9.92661Z" fill="#CA0F2E"/>
<path d="M173.793 9.77071C173.598 9.22715 173.555 9.02967 173.302 8.77712C173.083 8.55782 172.618 8.69813 172.587 9.02136C172.551 9.39864 172.63 9.5379 172.834 10.1095C172.928 10.3683 173.221 10.5128 173.481 10.4213C173.741 10.3299 173.886 10.0305 173.793 9.77071Z" fill="#CA0F2E"/>
<path d="M171.226 11.0855C170.347 10.4151 170.169 10.2259 169.823 10.2623C169.62 10.2841 169.394 10.4785 169.437 10.7071C169.519 11.1312 169.765 11.2466 170.573 11.839C170.79 11.998 171.088 12.0063 171.275 11.7901C171.443 11.5968 171.442 11.2497 171.226 11.0855Z" fill="#CA0F2E"/>
<path d="M167.696 14.1608C167.349 14.3458 167.489 14.9466 167.863 14.9965C168.223 15.0432 168.362 14.9861 170.107 14.666C170.376 14.6161 170.598 14.4186 170.578 14.1224C170.56 13.8709 170.307 13.5996 170.036 13.6495C168.224 13.9769 168.042 13.9748 167.696 14.1608Z" fill="#CA0F2E"/>
<path d="M170.43 17.0283C169.473 17.9585 169.333 17.7943 168.955 18.3628C168.782 18.6227 169.067 19.0374 169.368 18.9823C169.754 18.9116 169.857 18.8461 170.36 18.4449C170.653 18.2121 170.932 17.9627 171.201 17.7029C171.399 17.5106 171.346 17.1489 171.151 16.9784C170.928 16.782 170.629 16.834 170.43 17.0283Z" fill="#CA0F2E"/>
<path d="M205.962 52.5421L207.745 52.6367C207.745 52.6367 210.106 51.1131 210.217 50.5238C210.328 49.9345 210.048 48.6499 210.407 48.5158C210.766 48.3828 211.513 48.31 211.922 49.13C212.22 49.7256 211.792 51.7918 211.992 51.9466C212.117 52.0433 213.139 52.1264 213.887 52.1753C214.38 52.2075 214.812 52.511 215.012 52.9641L215.013 52.9652C215.149 53.2707 215.051 53.6303 214.781 53.8268L214.361 54.1323L214.645 54.5709C214.856 54.8983 214.764 55.3348 214.44 55.5479L214.11 55.7661L214.307 56.027C214.562 56.3627 214.469 56.846 214.109 57.0632L213.816 57.2399L213.852 57.3199C214.003 57.6546 213.875 58.0495 213.557 58.2304L213.264 58.3967L208.517 58.1452C208.072 58.1213 207.637 58.0069 207.238 57.8084L205.583 57.4426C205.405 57.4031 205.283 57.2389 205.296 57.057L205.578 52.8872C205.589 52.6845 205.761 52.5318 205.962 52.5421Z" fill="#CA0F2E"/>
<path d="M52.4573 28.1013C59.5983 27.2241 65.8225 30.0844 66.3595 34.4911C66.6276 36.6945 65.4231 38.8667 63.2593 40.5982L66.9483 46.7386L60.2336 42.4378C58.5242 43.2256 56.5426 43.7952 54.3995 44.0581C47.2585 44.9353 41.0343 42.0751 40.4972 37.6683C39.9612 33.2616 45.3162 28.9785 52.4573 28.1013Z" fill="#CA0F2E"/>
<path d="M58.4207 36.2663C58.0658 38.7596 55.7665 40.4922 53.2851 40.1347C50.8037 39.7782 49.0787 37.4678 49.4336 34.9744C49.7885 32.4811 52.0878 30.7485 54.5692 31.106C57.0506 31.4636 58.7746 33.774 58.4207 36.2663Z" fill="white"/>
<path d="M51.4225 35.9909C51.2331 37.3243 52.1551 38.5591 53.4817 38.7492C54.8083 38.9394 56.0376 38.0134 56.228 36.681L51.4225 35.9909Z" fill="#CA0F2E"/>
<path d="M68.2563 158.738C68.2563 158.738 104.724 99.7754 118.62 97.1438C132.515 94.5123 144.419 118.625 144.419 118.625C144.419 118.625 150.711 113.114 160.383 115.267C170.055 117.419 221.936 166.319 221.936 166.319L65.5948 164.361L68.2563 158.738Z" fill="#9BC1F9"/>
<path d="M85.503 110.762C117.88 116.173 166.461 164.8 203.464 164.8C240.467 164.8 248.434 153.17 262.31 155.629C276.185 158.088 294.813 164.8 294.813 164.8L19.8461 165.616C19.8461 165.616 53.1257 105.351 85.503 110.762Z" fill="#86B1F2"/>
<path d="M106.782 90.1908L100.456 141.545H113.109L106.782 90.1908Z" fill="#3C8F7C"/>
<path d="M118.619 101.659L112.292 153.013H124.946L118.619 101.659Z" fill="#3C8F7C"/>
<path d="M31.6012 139.223H29.663V160.802H31.6012V139.223Z" fill="#355389"/>
<path d="M30.6326 97.3611L24.306 148.716H36.9593L30.6326 97.3611Z" fill="#3C8F7C"/>
<path d="M26.6001 130.091L35.6213 137.861L35.2747 135.045L26.8805 127.814L26.6001 130.091Z" fill="#50BFA5"/>
<path d="M27.9867 118.834L33.5114 120.73L33.2517 118.623L28.2257 116.896L27.9867 118.834Z" fill="#50BFA5"/>
<path d="M45.7819 130.812H44.388V155.349H45.7819V130.812Z" fill="#355389"/>
<path d="M45.4497 87.0645L38.5798 136.593H52.3196L45.4497 87.0645Z" fill="#3C8F7C"/>
<path d="M39.0154 133.451L51.3428 129.547L51.1565 128.204L39.2193 131.984L39.0154 133.451Z" fill="#50BFA5"/>
<path d="M41.1864 117.804L49.355 115.217L49.1687 113.874L41.3892 116.337L41.1864 117.804Z" fill="#50BFA5"/>
<path d="M19.8461 165.616C19.8461 165.616 55.3443 134.645 101.115 132.743C116.484 132.104 179.42 144.912 232.417 154.976C234.645 155.399 239.462 159.541 241.718 159.966C266.807 164.703 290.189 165.704 297.751 166.01L19.8461 165.616Z" fill="#96D9C9"/>
<path d="M300.133 131.551L300.184 128.884C300.184 126.906 298.681 125.302 296.827 125.302C292.155 125.302 288.368 129.343 288.368 134.328V137.972C288.368 139.568 287.523 140.955 286.286 141.65C285.162 142.282 284.474 143.544 284.474 144.9V146.822C284.474 148.901 285.389 150.843 286.91 152.145C287.799 152.907 288.368 154.076 288.368 155.387V158.107C288.368 161.114 290.653 163.552 293.471 163.552H295.079C297.898 163.552 300.183 161.113 300.183 158.107C299.72 154.308 300.842 152.116 302.136 150.863C304.038 149.02 305.151 146.429 305.151 143.687V143.302C305.151 140.409 303.9 137.7 301.809 135.859C300.887 135.046 300.133 133.719 300.133 131.551Z" fill="#50BFA5"/>
<path d="M305.387 166.71C305.387 166.71 292.356 149.324 284.155 146.658C275.955 143.992 283.683 154.582 283.683 154.582C283.683 154.582 269.136 138.606 263.798 140.045C258.904 141.365 263.798 151.269 263.798 151.269C263.798 151.269 258.287 145.785 251.603 145.785C244.919 145.785 256.769 166.319 256.769 166.319L305.387 166.71Z" fill="#9BC1F9"/>
<path d="M263.798 166.319C263.798 166.319 254.891 142.393 243.859 145.161C234.919 147.403 241.275 159.441 240.73 158.894C240.184 158.347 235.39 150.176 227.631 150.176C219.874 150.176 230.012 161.204 230.012 161.204C230.012 161.204 213.483 156.019 212.189 161.464C211.115 165.982 217.123 166.32 217.123 166.32H263.798V166.319Z" fill="#86B1F2"/>
<path d="M151.022 130.389C151.676 130.784 152.274 131.317 152.871 131.792C156.116 134.381 159.408 136.886 163.885 142.153C169.869 149.194 174.339 157.191 177.066 165.924C177.163 166.237 177.655 166.103 177.556 165.788C175.783 160.171 173.267 154.796 170.104 149.834C161.556 136.424 150.906 130.32 151.022 130.389Z" fill="#CA0F2E"/>
<path d="M167.18 132.005C167.895 136.736 170.353 140.99 172.047 145.405C176.578 157.215 177.322 166.209 177.73 167.206C177.771 167.306 177.901 167.289 177.914 167.181C178.027 166.256 177.028 159.779 175.059 153.042C171.786 141.841 168.359 137.467 167.335 131.962C167.317 131.858 167.166 131.904 167.18 132.005Z" fill="#CA0F2E"/>
<path d="M156.406 130.631C156.284 130.876 155.779 131.541 155.711 132.334C155.578 133.096 155.883 133.987 155.897 133.953C155.944 133.965 155.144 133.452 154.79 132.512C154.375 131.62 154.406 130.303 154.71 129.827C155.205 128.776 156.282 128.532 156.556 128.971C156.845 129.407 156.644 130.078 156.406 130.631Z" fill="#CA0F2E"/>
<path d="M163.833 138.12C163.741 138.377 163.321 139.095 163.347 139.888C163.305 140.657 163.711 141.502 163.721 141.466C163.769 141.472 162.917 141.06 162.457 140.172C161.941 139.34 161.817 138.032 162.061 137.525C162.428 136.427 163.463 136.056 163.787 136.46C164.122 136.857 164.003 137.546 163.833 138.12Z" fill="#CA0F2E"/>
<path d="M173.286 141.808C173.095 141.873 172.489 141.962 172.045 142.343C171.583 142.675 171.285 143.3 171.311 143.29C171.329 143.32 171.173 142.636 171.47 141.96C171.71 141.277 172.403 140.6 172.807 140.508C173.607 140.213 174.299 140.642 174.217 141.016C174.145 141.392 173.694 141.642 173.286 141.808Z" fill="#CA0F2E"/>
<path d="M174.225 144.116C174.035 144.182 173.428 144.27 172.984 144.652C172.523 144.983 172.225 145.609 172.251 145.598C172.268 145.628 172.112 144.945 172.409 144.268C172.649 143.585 173.343 142.909 173.747 142.816C174.547 142.521 175.238 142.95 175.156 143.324C175.084 143.701 174.634 143.949 174.225 144.116Z" fill="#CA0F2E"/>
<path d="M153.259 135.531C153.418 135.335 153.779 134.656 154.414 134.295C154.999 133.891 155.858 133.807 155.835 133.833C155.863 133.867 155.129 133.391 154.21 133.453C153.308 133.444 152.222 133.974 151.94 134.413C151.253 135.231 151.461 136.231 151.933 136.293C152.406 136.368 152.89 135.943 153.259 135.531Z" fill="#CA0F2E"/>
<path d="M157.805 139.746C157.964 139.549 158.325 138.871 158.96 138.509C159.545 138.106 160.404 138.022 160.381 138.048C160.409 138.082 159.675 137.606 158.756 137.667C157.854 137.659 156.767 138.189 156.486 138.628C155.799 139.446 156.007 140.445 156.479 140.509C156.952 140.584 157.435 140.157 157.805 139.746Z" fill="#CA0F2E"/>
<path d="M165.87 135.967C166.122 135.979 166.881 135.875 167.546 136.18C168.213 136.419 168.786 137.068 168.752 137.064C168.741 137.107 168.694 136.231 168.104 135.52C167.582 134.782 166.516 134.209 165.998 134.237C164.935 134.159 164.251 134.915 164.478 135.336C164.695 135.764 165.322 135.908 165.87 135.967Z" fill="#CA0F2E"/>
<path d="M167.202 139.202C167.454 139.215 168.213 139.111 168.876 139.415C169.545 139.654 170.117 140.303 170.083 140.3C170.072 140.342 170.025 139.466 169.436 138.755C168.913 138.017 167.848 137.445 167.329 137.473C166.267 137.395 165.583 138.151 165.809 138.571C166.027 139 166.654 139.143 167.202 139.202Z" fill="#CA0F2E"/>
<path d="M163.592 146.242C163.75 146.045 164.111 145.367 164.747 145.005C165.331 144.602 166.19 144.517 166.167 144.543C166.195 144.578 165.462 144.102 164.542 144.163C163.639 144.155 162.553 144.685 162.271 145.123C161.584 145.941 161.792 146.941 162.264 147.005C162.738 147.079 163.222 146.653 163.592 146.242Z" fill="#CA0F2E"/>
<path d="M150.582 132.031C150.708 131.928 151.024 131.55 151.47 131.407C151.89 131.232 152.441 131.293 152.423 131.306C152.437 131.33 152.038 130.934 151.453 130.851C150.888 130.727 150.134 130.916 149.901 131.153C149.361 131.576 149.36 132.231 149.649 132.332C149.937 132.444 150.296 132.24 150.582 132.031Z" fill="#CA0F2E"/>
<path d="M151.79 129.375C151.784 129.538 151.673 130.019 151.828 130.463C151.941 130.905 152.321 131.311 152.321 131.289C152.349 131.284 151.794 131.203 151.376 130.783C150.937 130.404 150.635 129.686 150.684 129.356C150.696 128.669 151.217 128.274 151.471 128.444C151.729 128.608 151.784 129.02 151.79 129.375Z" fill="#CA0F2E"/>
<path d="M294.82 133.753C298.157 144.304 299.676 155.437 299.235 166.71H299.657C300.049 155.662 298.553 144.555 295.223 134.016C294.449 131.566 293.673 128.699 291.397 127.212C291.353 127.182 291.315 127.251 291.356 127.281C293.404 128.757 294.095 131.463 294.82 133.753Z" fill="#CA0F2E"/>
<path d="M297.752 166.71C293.676 156.22 288.038 146.021 280.644 136.481C280.571 136.386 280.402 136.515 280.477 136.611C287.459 145.77 293.101 155.885 297.23 166.709H297.752V166.71Z" fill="#CA0F2E"/>
<path d="M295.786 128.027C295.58 128.206 294.862 128.623 294.497 129.327C294.084 129.976 294.023 130.912 294.051 130.886C294.089 130.915 293.55 130.135 293.583 129.134C293.543 128.155 294.075 126.955 294.536 126.635C295.393 125.859 296.476 126.05 296.56 126.56C296.656 127.07 296.216 127.611 295.786 128.027Z" fill="#CA0F2E"/>
<path d="M292.267 135.696C292.521 135.601 293.232 135.171 294.022 135.188C294.788 135.14 295.633 135.538 295.597 135.549C295.604 135.597 295.185 134.746 294.296 134.291C293.462 133.782 292.159 133.671 291.657 133.921C290.568 134.3 290.21 135.345 290.614 135.665C291.013 135.999 291.697 135.872 292.267 135.696Z" fill="#CA0F2E"/>
<path d="M293.4 139.777C293.656 139.682 294.365 139.252 295.155 139.27C295.921 139.221 296.766 139.619 296.73 139.631C296.737 139.678 296.318 138.827 295.429 138.373C294.595 137.864 293.292 137.752 292.79 138.003C291.701 138.381 291.343 139.427 291.747 139.747C292.145 140.081 292.829 139.954 293.4 139.777Z" fill="#CA0F2E"/>
<path d="M283.825 145.958C284.081 145.862 284.791 145.433 285.58 145.451C286.346 145.402 287.19 145.8 287.155 145.811C287.162 145.859 286.743 145.008 285.854 144.554C285.02 144.045 283.717 143.933 283.216 144.184C282.126 144.562 281.768 145.608 282.173 145.928C282.57 146.261 283.254 146.135 283.825 145.958Z" fill="#CA0F2E"/>
<path d="M280.94 141.599C281.196 141.504 281.906 141.074 282.695 141.092C283.461 141.043 284.306 141.441 284.27 141.452C284.277 141.5 283.858 140.649 282.969 140.195C282.135 139.686 280.833 139.574 280.331 139.825C279.241 140.203 278.883 141.248 279.288 141.569C279.685 141.902 280.37 141.776 280.94 141.599Z" fill="#CA0F2E"/>
<path d="M297.622 132.795C297.39 132.938 296.616 133.237 296.144 133.874C295.635 134.449 295.428 135.364 295.459 135.342C295.492 135.377 295.083 134.521 295.272 133.539C295.385 132.565 296.099 131.466 296.605 131.221C297.572 130.591 298.612 130.95 298.615 131.468C298.632 131.987 298.112 132.452 297.622 132.795Z" fill="#CA0F2E"/>
<path d="M299.603 137.611C299.311 137.679 298.348 137.685 297.718 138.237C297.048 138.699 296.709 139.706 296.749 139.695C296.785 139.752 296.374 138.534 296.699 137.436C296.931 136.315 297.897 135.314 298.531 135.251C299.759 134.933 300.978 135.839 300.931 136.464C300.899 137.099 300.227 137.421 299.603 137.611Z" fill="#CA0F2E"/>
<path d="M301.196 144.527C300.896 144.544 299.946 144.388 299.232 144.825C298.494 145.167 297.991 146.103 298.033 146.098C298.059 146.161 297.858 144.891 298.362 143.864C298.778 142.797 299.898 141.974 300.534 142.019C301.797 141.913 302.847 143.012 302.695 143.62C302.559 144.24 301.843 144.444 301.196 144.527Z" fill="#CA0F2E"/>
<path d="M290.579 146.186C290.344 146.257 289.562 146.318 289.081 146.803C288.562 147.217 288.344 148.056 288.375 148.044C288.408 148.089 288.005 147.121 288.206 146.209C288.331 145.284 289.061 144.415 289.573 144.327C290.553 143.998 291.596 144.666 291.594 145.177C291.604 145.695 291.075 145.995 290.579 146.186Z" fill="#CA0F2E"/>
<path d="M290.13 128.023C290.277 127.956 290.679 127.671 291.146 127.646C291.597 127.584 292.114 127.782 292.093 127.79C292.099 127.819 291.815 127.333 291.269 127.103C290.754 126.84 289.978 126.83 289.692 127.001C289.064 127.273 288.898 127.906 289.151 128.078C289.401 128.257 289.8 128.152 290.13 128.023Z" fill="#CA0F2E"/>
<path d="M291.967 125.762C291.919 125.917 291.692 126.354 291.73 126.823C291.728 127.28 291.993 127.769 291.998 127.747C292.026 127.749 291.509 127.53 291.211 127.017C290.882 126.539 290.771 125.768 290.901 125.46C291.086 124.799 291.69 124.55 291.892 124.779C292.102 125.004 292.052 125.416 291.967 125.762Z" fill="#CA0F2E"/>
<path d="M279.129 137.462C279.276 137.395 279.678 137.11 280.145 137.085C280.597 137.023 281.114 137.221 281.092 137.23C281.098 137.258 280.814 136.772 280.269 136.543C279.753 136.279 278.977 136.269 278.692 136.44C278.063 136.712 277.898 137.345 278.15 137.518C278.4 137.696 278.799 137.591 279.129 137.462Z" fill="#CA0F2E"/>
<path d="M281.209 135.242C281.149 135.393 280.886 135.81 280.886 136.281C280.847 136.736 281.071 137.245 281.078 137.223C281.106 137.229 280.609 136.967 280.353 136.431C280.065 135.928 280.016 135.15 280.171 134.855C280.409 134.211 281.031 134.012 281.215 134.257C281.406 134.499 281.322 134.905 281.209 135.242Z" fill="#CA0F2E"/>
<path d="M189.963 161.348C190.222 161.51 190.879 162.063 191.216 162.406C192.139 163.347 192.975 164.687 193.432 166.199C193.461 166.294 193.47 166.383 193.559 166.439C193.581 166.452 193.613 166.444 193.624 166.421C193.678 166.32 193.634 166.227 193.603 166.121C193.389 165.362 192.948 164.41 192.284 163.483C191.161 161.916 190.328 161.553 189.968 161.339C189.963 161.336 189.958 161.345 189.963 161.348Z" fill="#CA0F2E"/>
<path d="M189.049 162.284C189.196 162.216 189.598 161.931 190.066 161.906C190.517 161.844 191.033 162.043 191.012 162.051C191.019 162.079 190.733 161.594 190.189 161.364C189.673 161.1 188.897 161.091 188.612 161.261C187.984 161.533 187.817 162.166 188.071 162.339C188.321 162.518 188.72 162.413 189.049 162.284Z" fill="#CA0F2E"/>
<path d="M190.887 160.022C190.84 160.177 190.612 160.615 190.65 161.083C190.648 161.541 190.913 162.029 190.918 162.007C190.946 162.009 190.43 161.79 190.132 161.278C189.803 160.8 189.691 160.028 189.821 159.721C190.007 159.06 190.61 158.81 190.813 159.039C191.022 159.264 190.971 159.676 190.887 160.022Z" fill="#CA0F2E"/>
<path d="M129.507 153.793C135.81 155.73 141.265 159.726 146.51 163.61C150.046 166.228 149.749 166.726 150.489 167.156C150.609 167.226 150.765 167.11 150.725 166.974C150.535 166.309 149.813 165.747 149.323 165.292C148.752 164.761 148.143 164.274 147.521 163.808C146.187 162.812 144.802 161.88 143.428 160.941C140.633 159.031 137.774 157.19 134.716 155.73C133.04 154.929 131.308 154.253 129.523 153.741C129.487 153.732 129.474 153.783 129.507 153.793Z" fill="#CA0F2E"/>
<path d="M135.687 152.895C135.595 153.152 135.175 153.87 135.2 154.663C135.159 155.432 135.565 156.277 135.575 156.241C135.623 156.247 134.771 155.835 134.311 154.947C133.795 154.115 133.671 152.807 133.915 152.3C134.282 151.202 135.317 150.832 135.641 151.235C135.975 151.633 135.856 152.321 135.687 152.895Z" fill="#CA0F2E"/>
<path d="M140.971 156.017C140.879 156.274 140.459 156.991 140.485 157.784C140.444 158.554 140.849 159.399 140.86 159.362C140.907 159.368 140.056 158.956 139.595 158.068C139.08 157.236 138.956 155.928 139.2 155.421C139.566 154.323 140.602 153.953 140.926 154.356C141.261 154.753 141.142 155.441 140.971 156.017Z" fill="#CA0F2E"/>
<path d="M146.246 159.695C146.154 159.951 145.734 160.67 145.759 161.463C145.718 162.232 146.124 163.077 146.134 163.04C146.182 163.047 145.33 162.634 144.869 161.746C144.354 160.914 144.23 159.606 144.474 159.099C144.84 158.002 145.876 157.632 146.2 158.034C146.534 158.431 146.415 159.12 146.246 159.695Z" fill="#CA0F2E"/>
<path d="M132.988 157.894C133.146 157.697 133.508 157.018 134.143 156.657C134.728 156.255 135.586 156.169 135.564 156.195C135.592 156.23 134.858 155.754 133.938 155.815C133.036 155.807 131.949 156.337 131.668 156.775C130.981 157.593 131.189 158.594 131.66 158.655C132.134 158.731 132.618 158.305 132.988 157.894Z" fill="#CA0F2E"/>
<path d="M138.49 161.115C138.648 160.919 139.009 160.24 139.645 159.879C140.23 159.475 141.088 159.391 141.066 159.417C141.094 159.452 140.36 158.976 139.441 159.037C138.539 159.029 137.452 159.56 137.171 159.997C136.484 160.815 136.692 161.815 137.163 161.877C137.636 161.953 138.12 161.527 138.49 161.115Z" fill="#CA0F2E"/>
<path d="M128.904 154.878C129.029 154.776 129.346 154.397 129.792 154.255C130.212 154.079 130.762 154.14 130.745 154.153C130.758 154.178 130.36 153.782 129.774 153.699C129.209 153.574 128.456 153.763 128.222 154C127.683 154.423 127.682 155.078 127.97 155.18C128.258 155.291 128.618 155.088 128.904 154.878Z" fill="#CA0F2E"/>
<path d="M130.111 152.224C130.105 152.386 129.994 152.867 130.15 153.311C130.262 153.754 130.642 154.159 130.641 154.137C130.669 154.132 130.114 154.051 129.696 153.631C129.258 153.253 128.956 152.535 129.004 152.204C129.017 151.517 129.537 151.122 129.792 151.293C130.051 151.457 130.105 151.868 130.111 152.224Z" fill="#CA0F2E"/>
<path d="M313.813 168H1.18689C0.531878 168 0 167.467 0 166.808C0 166.15 0.530843 165.616 1.18689 165.616H313.813C314.468 165.616 315 166.149 315 166.808C315 167.466 314.468 168 313.813 168Z" fill="#2E3552"/>
<path d="M59.1967 62.7858C56.7464 63.4437 56.3376 72.9327 56.3376 72.9327L48.5695 72.0379C48.5695 72.0379 49.9851 62.1435 54.088 58.009C58.1909 53.8746 68.5584 56.4022 72.5009 58.9766C76.4424 61.5511 74.7329 64.8301 74.7329 64.8301C74.7329 64.8301 61.6481 62.1279 59.1967 62.7858Z" fill="#13375B"/>
<path d="M51.3893 70.6857C50.9826 79.6967 48.4681 80.4949 48.4185 80.6206C48.3657 80.63 46.3572 82.1817 44.1345 80.1301L44.8733 79.3776C45.191 79.7029 45.6752 79.996 46.1378 80.128C47.1705 80.3982 47.839 79.8806 47.9207 79.8567C47.9756 79.8131 48.5033 79.493 48.7672 79.0554C50.0575 77.3228 50.6722 72.8205 50.8471 70.668L51.3893 70.6857Z" fill="#355389"/>
<path d="M77.5031 64.0984C77.5031 64.0984 76.4135 68.3929 76.2883 71.882C76.1641 75.372 73.7686 78.2832 73.4571 87.0166C73.1456 95.7511 71.9029 103.78 71.9029 103.78C71.9029 103.78 62.2535 104.454 60.3537 102.398C58.4538 100.341 59.2775 81.6433 61.1556 72.5544C63.0337 63.4644 54.7752 60.9856 59.0664 58.008C63.3576 55.0303 68.9382 57.0476 71.3006 57.8562C73.6641 58.6659 77.5714 62.1726 77.5031 64.0984Z" fill="#184655"/>
<path d="M61.5695 71.3238C61.5695 71.3238 60.4302 78.2977 61.287 85.361C62.1438 92.4243 60.78 106.36 60.78 106.36C60.78 106.36 53.5913 111.4 51.4793 107.398C51.083 106.646 50.1341 97.7196 50.0482 93.9874C49.9572 90.0234 50.5004 76.1785 50.6836 71.6918C50.7219 70.7512 50.9992 69.8366 51.4886 69.0342C53.0594 66.4577 56.6646 60.7549 57.9188 60.5574C59.5548 60.3007 62.4284 63.8542 61.5695 71.3238Z" fill="#F7CC7F"/>
<path d="M50.4952 76.508C51.5062 77.4974 57.9312 83.7043 61.1566 84.1523C61.1193 83.7573 61.0862 83.3634 61.0583 82.9737C58.5365 82.5673 52.8545 77.3083 50.5511 75.0654C50.5325 75.5258 50.5139 76.0081 50.4952 76.508Z" fill="#13375B"/>
<path d="M61.5519 93.1882C61.5591 92.8005 61.5643 92.4139 61.5664 92.0304C59.6179 92.8691 52.7614 92.3338 50.043 92.0304C50.0399 92.4336 50.0379 92.8057 50.0389 93.1414C52.5307 93.4199 59.2278 94.1558 61.5519 93.1882Z" fill="#13375B"/>
<path d="M50.6898 102.205C50.7302 102.57 50.7705 102.928 50.8109 103.274C53.5199 103.819 58.7394 101.496 61.2436 100.403C61.2694 99.9906 61.2953 99.5655 61.3201 99.13C58.9919 100.145 53.0719 102.655 50.6898 102.205Z" fill="#13375B"/>
<path d="M50.5325 100.692C51.737 101.199 59.2298 104.428 60.9414 104.539C60.9683 104.221 60.9962 103.866 61.0262 103.481C59.8207 103.368 54.116 100.973 50.4114 99.421C50.4497 99.8451 50.4901 100.27 50.5325 100.692Z" fill="#13375B"/>
<path d="M57.8608 103.844H60.2657C61.1328 103.844 61.8365 103.138 61.8365 102.267V88.1007C61.8365 87.2297 61.1328 86.523 60.2657 86.523H57.8608C56.9937 86.523 56.29 87.2297 56.29 88.1007V102.267C56.29 103.138 56.9927 103.844 57.8608 103.844Z" fill="#50BFA5"/>
<path d="M61.8365 91.6801H56.29V92.8462H61.8365V91.6801Z" fill="#13375B"/>
<path d="M57.3973 152.605C57.3973 152.605 54.8289 154.974 54.8227 154.978C54.4626 155.245 53.4972 155.832 53.2167 156.122C52.1644 157.209 58.9101 159.919 58.3006 158.379C58.2458 158.24 58.1423 157.013 58.4683 156.612C58.9712 155.994 59.8756 155.112 59.8756 155.112L57.3973 152.605Z" fill="#F7A491"/>
<path d="M58.2986 158.357C58.2986 158.357 56.8499 157.582 56.1918 157.097C55.5336 156.613 55.4508 155.164 54.86 154.952C54.2091 154.718 51.4742 157.528 51.4742 157.528C51.4742 157.528 56.8199 163.363 59.6169 165.307C60.2191 165.726 60.9497 165.593 61.2073 165.597C62.1966 165.615 59.8528 161.398 58.2986 158.357Z" fill="#184655"/>
<path d="M89.7466 157.199C89.7466 157.199 90.5445 161.078 90.5455 161.086C90.5952 161.593 90.6024 162.875 90.7183 163.316C91.1571 164.972 97.6596 159.941 95.826 159.648C95.6604 159.622 94.8347 159.288 94.5511 158.777C94.0575 157.887 93.5898 156.222 93.5898 156.222L89.7466 157.199Z" fill="#F7A491"/>
<path d="M95.8042 159.637C95.8042 159.637 94.221 160.605 93.3756 160.969C92.5302 161.333 90.9821 160.324 90.4368 160.78C89.8366 161.281 90.8145 165.724 90.8145 165.724C90.8145 165.724 101.937 162.762 104.304 161.225C105.24 160.615 99.6267 159.872 95.8042 159.637Z" fill="#184655"/>
<path d="M97.5375 101.277C95.7629 100.492 95.6884 100.818 95.4638 100.711C95.1979 100.585 93.238 97.2312 93.238 97.2312C93.238 97.2312 87.3925 87.3866 87.0966 86.8441L85.9324 74.9812L79.7413 74.0833C79.7413 74.0833 81.3597 86.9429 81.5646 87.5966C81.7695 88.2503 91.2854 100.6 92.0863 101.714C92.0863 101.714 92.5281 103.407 92.8417 104.46C93.1552 105.513 93.9365 106.357 94.071 106.639C94.0907 106.681 94.5987 107.59 95.5331 108.537C96.3392 109.353 95.9688 108.203 95.9688 108.203C95.9688 108.203 94.7622 106.42 94.9257 106.345C95.052 106.288 95.6501 107.302 96.5317 108.214C96.7583 108.449 96.9829 108.678 97.1909 108.889C97.7372 109.441 98.2505 109.257 97.7755 108.588C97.6079 108.351 97.3192 107.965 97.0729 107.72C96.807 107.455 96.6528 107.125 96.4644 106.867C96.0919 106.355 95.8136 105.987 95.8436 105.983C95.8829 105.977 95.8839 105.822 96.1323 106.063C96.4313 106.353 96.9228 107.112 97.3978 107.505C97.6669 107.727 98.1998 108.226 98.1998 108.226C98.1998 108.226 99.1538 108.828 99.2108 108.783C99.517 108.544 98.9903 107.949 98.5826 107.695C98.4129 107.4 97.8366 106.891 97.8366 106.891C97.8366 106.891 96.9166 105.597 97.106 105.46C97.1867 105.401 97.85 106.125 98.6178 106.731C99.3308 107.293 100.148 107.743 100.289 107.618C100.526 107.405 99.8058 106.696 99.8058 106.696C99.8058 106.696 99.2728 106.227 99.1083 106.057C98.9158 105.859 98.3871 105.217 98.3871 105.217C98.3871 105.217 96.6548 102.9 96.8452 102.785C97.0356 102.67 97.6369 102.562 97.7962 102.668C97.9556 102.773 98.1387 103.12 98.2981 103.226C98.4574 103.331 98.7627 103.331 98.9169 103.145C99.0711 102.958 98.5102 102.152 98.5102 102.152C98.5102 102.152 98.0497 101.504 97.5375 101.277Z" fill="#F8A492"/>
<path d="M80.2504 64.1286C85.0435 65.275 86.2511 76.0185 86.5409 77.406C84.9525 77.9672 83.0671 78.5326 81.4363 79.0097L79.4847 63.9114C79.4857 63.9114 79.7558 64.0101 80.2504 64.1286Z" fill="#CA0F2E"/>
<path d="M83.7604 103.989L90.6531 131.663L95.0116 158.463L89.5852 159.198C89.5852 159.198 81.9413 138.702 81.7292 136.344C81.516 133.986 77.6801 122.959 77.6801 122.959L83.7604 103.989Z" fill="#13375B"/>
<path d="M67.6727 100.785C67.6727 100.785 68.189 127.32 67.7637 129.785C67.3384 132.251 55.7903 153.289 55.7903 153.289L59.678 157.534C59.678 157.534 76.2014 138.292 76.9288 136.595C78.0702 133.934 83.7066 103.934 83.7066 103.934L67.6727 100.785Z" fill="#13375B"/>
<path d="M74.0045 64.0652C74.0045 64.0652 71.0771 63.796 69.9067 66.5835C68.7364 69.3709 67.5661 82.7731 68.0979 89.2065C68.6298 95.6389 66.3854 104.543 66.3854 104.543C76.5904 109.849 83.8432 104.109 83.8432 104.109C83.8432 104.109 86.5378 79.493 85.5454 74.9469C83.4717 65.4444 79.4847 63.9134 79.4847 63.9134L74.0045 64.0652Z" fill="#CA0F2E"/>
<path d="M65.897 108.397C64.7918 106.586 64.5435 106.844 64.4079 106.608C64.2475 106.328 64.4255 102.02 64.4255 102.02C64.4255 102.02 64.8684 89.3177 64.916 88.6328L70.5773 76.9061L65.6838 72.3029C65.6838 72.3029 59.8569 85.2332 59.6686 85.9648C59.4792 86.6965 60.8265 103.96 60.8979 105.483C60.8979 105.483 60.3309 107.325 60.0111 108.494C59.6914 109.664 59.8973 110.924 59.8569 111.267C59.8507 111.318 59.7814 112.472 60.0639 113.92C60.3071 115.168 60.631 113.875 60.631 113.875C60.631 113.875 60.5834 111.483 60.7665 111.515C60.9083 111.539 60.8596 112.845 61.1152 114.228C61.1804 114.584 61.2467 114.935 61.3098 115.257C61.4753 116.102 62.0269 116.245 61.9896 115.333C61.9762 115.011 61.942 114.478 61.8655 114.099C61.7827 113.691 61.8344 113.291 61.8158 112.937C61.7785 112.236 61.7423 111.725 61.7713 111.739C61.8085 111.758 61.8975 111.614 61.9782 111.99C62.0755 112.441 62.0766 113.446 62.2701 114.098C62.3797 114.468 62.5629 115.256 62.5629 115.256C62.5629 115.256 63.0565 116.396 63.13 116.389C63.5315 116.354 63.4073 115.48 63.1952 114.996C63.2127 114.619 62.9975 113.795 62.9975 113.795C62.9975 113.795 62.924 112.033 63.1662 112.022C63.2697 112.017 63.4404 113.093 63.7695 114.123C64.0747 115.08 64.5342 115.996 64.7266 115.965C65.0536 115.912 64.8239 114.814 64.8239 114.814C64.8239 114.814 64.6231 114.054 64.5755 113.796C64.5197 113.494 64.4193 112.577 64.4193 112.577C64.4193 112.577 64.2134 109.371 64.4441 109.379C64.6749 109.388 65.2595 109.653 65.3392 109.849C65.4189 110.043 65.3837 110.477 65.4634 110.672C65.5431 110.866 65.809 111.052 66.048 110.973C66.2871 110.893 66.2519 109.804 66.2519 109.804C66.2519 109.804 66.2157 108.919 65.897 108.397Z" fill="#F8A492"/>
<path d="M63.2728 75.7358L69.6874 80.7339C69.6874 80.7339 72.5196 78.0213 73.9424 75.0207C75.3828 71.9838 73.6289 63.9799 72.0963 64.3915C68.6681 65.3124 63.2728 75.7358 63.2728 75.7358Z" fill="#CA0F2E"/>
<path d="M75.2297 58.1129L74.2694 64.4674C74.2694 64.4674 77.7753 72.0337 79.8676 71.3768C81.6236 70.826 80.5433 64.1317 80.5433 64.1317C80.5433 64.1317 79.5861 60.5367 79.8728 58.7376C80.1604 56.9385 75.2297 58.1129 75.2297 58.1129Z" fill="#F7A491"/>
<path d="M79.8737 58.7376C80.1604 56.9385 75.2296 58.1129 75.2296 58.1129L75.15 58.6399C75.2938 58.9922 75.4707 59.2947 75.6849 59.5254C76.786 60.7154 78.5078 61.4305 79.9958 61.4845C79.8468 60.5148 79.7558 59.4755 79.8737 58.7376Z" fill="#F47458"/>
<path d="M74.4205 49.1228C74.2808 49.0718 73.3039 56.3596 75.1583 58.3655C77.0136 60.3704 80.6281 61.0272 81.9247 59.4474C83.3589 57.7003 83.2865 49.868 80.4025 47.8049C77.5186 45.7418 74.4205 49.1228 74.4205 49.1228Z" fill="#F7A491"/>
<path d="M79.3057 43.9064C77.0757 44.3627 75.6322 45.7314 75.1013 46.3145C74.0893 46.4351 72.7131 46.9963 71.2923 49.3597C69.5456 52.2657 70.8349 55.4845 72.8693 57.0632C74.9027 58.643 74.8747 60.467 74.8747 60.467L75.1965 59.5233C75.4335 58.8083 75.5308 58.0506 75.4511 57.3002C75.4035 56.8502 75.3073 56.3638 75.122 55.9636C74.6326 54.9087 76.1723 54.2082 76.6049 53.331C76.937 52.6554 76.9536 51.11 77.4772 49.9927L78.1032 49.1404C78.1032 49.1404 79.5468 48.0128 80.9582 48.3308C82.3686 48.6488 82.1658 43.3202 79.3057 43.9064Z" fill="#184655"/>
<path d="M76.5086 54.6291C76.5231 55.5188 76.1206 56.2463 75.6094 56.2546C75.0982 56.2629 74.6719 55.55 74.6574 54.6603C74.6429 53.7706 75.0455 53.0431 75.5566 53.0348C76.0678 53.0254 76.4942 53.7395 76.5086 54.6291Z" fill="#F7A491"/>
<path d="M77.6655 77.538C77.799 72.0015 77.4575 64.3915 72.1998 62.2328C70.3217 61.4409 68.0276 62.3316 66.2871 62.9812C68.4218 62.6818 70.4355 63.5081 71.4754 64.0932C75.8029 66.2904 75.7698 72.5866 75.6125 77.4891C75.2183 89.8176 65.8121 88.5112 65.8121 88.5112L65.5927 89.3323C65.5927 89.3323 69.1265 90.4974 73.634 88.2628C77.2288 86.4814 77.6655 77.538 77.6655 77.538Z" fill="#184655"/>
<path d="M250.699 118.111C250.699 118.111 247.794 132.451 249.119 133.782C250.443 135.113 257.773 137.828 259.437 137.207C261.101 136.586 264.525 120.203 263.574 118.579C262.623 116.954 251.47 115.829 250.699 118.111Z" fill="#CA0F2E"/>
<path d="M251.877 160.686C251.877 160.686 252.068 162.333 252.068 162.612C252.068 162.892 252.068 162.892 252.068 162.892L251.931 163.176L251.877 163.289L252.858 164.671C252.858 164.671 256.796 164.73 256.884 164.73C256.971 164.73 256.357 163.774 256.357 163.774C256.357 163.774 255.054 162.789 254.82 162.098C254.586 161.407 255.019 159.966 255.019 159.966L251.877 160.686Z" fill="#F7A491"/>
<path d="M232.896 150.833C232.896 150.833 231.494 151.707 231.276 151.881C231.058 152.055 231.058 152.055 231.058 152.055L230.922 152.338L230.868 152.451L229.18 152.538C229.18 152.538 226.686 149.477 226.632 149.407C226.577 149.338 227.349 149.511 227.349 149.511C227.349 149.511 228.923 149.725 229.608 149.48C230.293 149.235 231.677 147.865 231.677 147.865L232.896 150.833Z" fill="#F7A491"/>
<path d="M245.642 135.384L230.535 148.307L232.862 151.615C232.862 151.615 247.686 142.259 248.499 142.148C249.311 142.038 250.587 142.325 250.74 142.921C250.894 143.517 251.367 161.145 251.367 161.145H255.401L257.503 138.651L245.642 135.384Z" fill="#B75742"/>
<path d="M267.405 116.952C268.523 116.217 271.148 113.386 272.038 112.423C272.047 112.31 272.132 111.655 272.847 110.823C273.352 110.236 273.735 108.896 274.066 109.276C274.397 109.656 273.576 110.721 273.951 110.728C274.328 110.735 276.196 108.626 276.496 108.97C276.796 109.314 274.899 111.189 275.235 111.196C275.572 111.202 277.111 109.303 277.537 109.79C277.961 110.277 275.519 111.856 275.747 112.116C275.974 112.377 277.488 111.343 277.83 111.735C278.171 112.127 275.695 113.05 275.892 113.054C276.091 113.058 277.519 113.019 277.531 113.295C277.543 113.607 273.915 114.093 273.471 114.635C272.523 116.15 270.837 118.919 269.128 120.134C267.038 121.62 262.206 124.772 262.206 124.772L259.807 121.658C259.807 121.657 266.08 117.825 267.405 116.952Z" fill="#F7A491"/>
<path d="M273.951 111.398C274.044 111.582 274.084 111.782 274.097 111.983C274.09 112.016 274.178 112.667 273.625 113.162C273.84 112.759 274.078 112.312 273.951 111.398Z" fill="#F48C7F"/>
<path d="M245.259 113.545C244.372 112.541 242.575 109.121 241.967 107.957C241.988 107.845 242.076 107.191 241.602 106.201C241.268 105.501 241.247 104.106 240.829 104.386C240.41 104.665 240.926 105.91 240.561 105.817C240.196 105.725 238.941 103.199 238.563 103.453C238.183 103.706 239.526 106.013 239.199 105.931C238.872 105.849 237.881 103.612 237.344 103.97C236.808 104.329 238.754 106.494 238.466 106.686C238.179 106.878 236.987 105.482 236.555 105.77C236.124 106.059 238.274 107.601 238.082 107.552C237.889 107.503 236.52 107.09 236.438 107.354C236.345 107.653 239.72 109.074 240.007 109.713C240.528 111.425 241.435 114.54 242.768 116.161C244.399 118.145 248.241 122.457 248.241 122.457L251.368 120.082C251.368 120.083 246.311 114.737 245.259 113.545Z" fill="#F7A491"/>
<path d="M240.386 106.465C240.248 106.618 240.157 106.8 240.093 106.991C240.092 107.025 239.837 107.63 240.242 108.252C240.139 107.807 240.026 107.314 240.386 106.465Z" fill="#F48C7F"/>
<path d="M247.793 115.844L244.973 119.539L248.474 124.77C248.474 124.77 248.145 128.657 247.64 129.87C247.135 131.083 244.215 136.067 244.215 136.067C244.215 136.067 251.307 140.433 258.245 139.794C258.245 139.794 260.199 129.694 260.748 128.723C261.297 127.752 266.589 122.945 266.589 122.945L264.019 118.776L259.584 121.247C259.584 121.247 251.478 119.931 251.087 119.539C250.697 119.147 247.793 115.844 247.793 115.844Z" fill="#F7CC7F"/>
<path d="M256.941 108.288C256.941 108.288 254.204 106.832 253.267 109.243C253.267 109.243 250.807 108.993 251.233 111.551C251.233 111.551 248.758 112.8 250.325 116.02C250.325 116.02 249.637 119.049 253.164 119.24C253.164 119.24 253.691 120.314 255.301 120.063C256.911 119.813 257.321 119.386 257.321 119.386C257.321 119.386 260.175 120.224 261.039 117.637C261.039 117.637 263.001 117.166 261.683 114.638C261.683 114.638 263.395 111.36 260.38 110.374C260.381 110.376 260.03 107.024 256.941 108.288Z" fill="#F47458"/>
<path d="M258.048 115.39C257.825 116.014 257.985 116.642 258.405 116.792C258.824 116.943 259.344 116.561 259.567 115.937C259.789 115.313 259.63 114.686 259.21 114.535C258.791 114.384 258.27 114.767 258.048 115.39Z" fill="#F7A491"/>
<path d="M250.664 113.86C250.633 114.521 250.969 115.075 251.414 115.096C251.859 115.117 252.245 114.598 252.276 113.936C252.307 113.275 251.971 112.721 251.526 112.7C251.081 112.68 250.696 113.198 250.664 113.86Z" fill="#F7A491"/>
<path d="M253.795 118.241C253.795 118.285 253.439 119.82 253.25 120.631C253.18 120.933 253.332 121.243 253.614 121.372C254.366 121.717 255.847 122.199 256.869 121.268C256.962 121.182 257.012 121.06 257.008 120.934L256.882 117.27L253.795 118.241Z" fill="#F7A491"/>
<path d="M253.604 119.101C254.401 119.504 255.403 119.512 256.527 118.85C256.668 118.766 256.803 118.678 256.929 118.583L256.885 117.27L253.796 118.241C253.795 118.262 253.711 118.632 253.604 119.101Z" fill="#F48C7F"/>
<path d="M255.984 109.782C255.984 109.782 257.333 110.14 258.124 111.457C258.917 112.774 259.354 116.582 256.525 118.248C253.697 119.914 251.639 117.335 251.692 114.895C251.746 112.454 252.826 109.335 255.984 109.782Z" fill="#F7A491"/>
<path d="M251.16 165.682C250.559 165.605 251.598 163.511 251.931 163.176L256.356 163.774C256.356 163.774 258.485 164.767 258.99 165.274C259.11 165.394 259.126 165.604 258.606 165.682C256.936 165.932 252.494 165.852 251.16 165.682Z" fill="#07345A"/>
<path d="M229.404 154.537C229.923 154.85 230.868 152.81 230.922 152.338L227.349 149.512C227.349 149.512 224.592 148.718 224.035 149.278C223.53 149.785 228.224 153.825 229.404 154.537Z" fill="#07345A"/>
<path d="M259.369 135.713C256.516 132.848 257.082 124.044 257.605 120.324L258.829 120.496C258.388 123.647 257.784 132.364 260.243 134.834L259.369 135.713Z" fill="#CA0F2E"/>
<path d="M247.195 130.78L247.056 129.663C249.274 123.365 251.304 119.3 251.325 119.26L252.429 119.819C252.409 119.859 250.07 125.409 247.195 130.78Z" fill="#CA0F2E"/>
<path d="M204.665 120.123C204.665 120.123 199.799 119.475 198.024 120.398C196.248 121.321 195.277 132.302 195.277 132.302L196.854 132.783C196.854 132.783 196.629 140.388 197.834 140.916C199.038 141.444 207.503 139.805 209.433 137.867C211.362 135.928 207.729 119.719 207.729 119.719L204.665 120.123Z" fill="#184655"/>
<path d="M214.271 112.369C214.838 111.091 215.551 107.121 215.79 105.773C215.735 105.668 215.442 105.047 215.602 103.912C215.715 103.111 215.298 101.719 215.802 101.864C216.306 102.01 216.182 103.409 216.517 103.202C216.851 102.995 217.304 100.087 217.762 100.219C218.218 100.351 217.607 103.069 217.906 102.884C218.205 102.699 218.489 100.162 219.135 100.348C219.78 100.534 218.524 103.302 218.871 103.403C219.217 103.502 219.964 101.738 220.483 101.887C221.002 102.037 219.349 104.25 219.525 104.141C219.701 104.031 220.932 103.189 221.097 103.425C221.283 103.692 218.375 106.172 218.289 106.899C218.309 108.765 218.384 112.148 217.569 114.18C216.571 116.668 214.105 122.169 214.105 122.169L210.252 120.798C210.251 120.798 213.6 113.884 214.271 112.369Z" fill="#F7A491"/>
<path d="M216.893 103.789C217.079 103.898 217.226 104.05 217.35 104.22C217.362 104.252 217.805 104.774 217.598 105.52C217.561 105.046 217.517 104.519 216.893 103.789Z" fill="#F48C7F"/>
<path d="M189.605 121.11C189.605 121.11 189.775 120.482 189.352 119.438C189.081 118.769 189.116 117.468 188.732 117.707C188.347 117.946 188.76 119.132 188.437 119.027C188.114 118.922 187.093 116.502 186.744 116.72C186.395 116.936 187.505 119.157 187.216 119.063C186.927 118.97 186.129 116.833 185.636 117.139C185.143 117.446 186.797 119.564 186.533 119.728C186.269 119.893 185.259 118.53 184.862 118.776C184.465 119.023 186.325 120.571 186.155 120.516C185.985 120.461 184.779 120.006 184.695 120.247C184.601 120.52 187.104 121.621 187.337 122.231C187.57 122.841 191.407 129.093 192.679 129.233C193.952 129.373 200.084 126.106 200.635 124.887C201.185 123.667 200.811 122.272 199.996 122.008C199.182 121.743 193.44 125.021 193.184 124.938C192.93 124.854 189.605 121.11 189.605 121.11Z" fill="#F7A491"/>
<path d="M188.492 119.465C188.348 119.625 188.253 119.815 188.183 120.013C188.181 120.048 187.913 120.677 188.332 121.329C188.227 120.864 188.112 120.349 188.492 119.465Z" fill="#F48C7F"/>
<path d="M194.814 150.266C194.155 150.036 192.963 148.825 192.963 148.825C191.434 150.012 188.264 153.715 188.264 153.715C188.264 153.715 188.856 154.125 189.362 153.894C189.868 153.664 192.194 152.618 193.275 152.995C193.557 153.094 196.712 154.169 199.509 154.892C199.854 153.885 198.908 151.871 199.374 150.925C197.881 150.438 195.033 150.343 194.814 150.266Z" fill="#F7A491"/>
<path d="M194.051 149.798C194.051 149.798 191.307 152.615 191.039 153.115C190.821 153.522 187.417 154.92 187.246 154.397C187.075 153.875 191.296 148.278 191.962 148.073C192.629 147.868 194.051 149.798 194.051 149.798Z" fill="#07345A"/>
<path d="M211.821 158.453C211.591 159.094 210.355 160.262 210.355 160.262C211.596 161.73 215.455 164.76 215.455 164.76C215.455 164.76 215.871 164.183 215.628 163.695C215.385 163.208 214.151 160.177 214.528 159.125C214.626 158.851 215.346 156.811 216.023 155.658C214.98 155.336 213.956 154.84 212.975 154.398C212.487 155.848 211.896 158.241 211.821 158.453Z" fill="#F7A491"/>
<path d="M211.389 136.62C211.389 136.62 218.528 143.699 219.256 145.065C219.799 146.086 216.504 156.579 216.504 156.579C216.504 156.579 213.407 156.342 212.112 155.087C212.112 155.087 213.751 147.766 213.41 147.437C213.07 147.107 204.913 142.355 204.913 142.355L205.926 138.015L211.389 136.62Z" fill="#B75742"/>
<path d="M209.815 136.434C209.815 136.434 207.952 140.779 207.952 142.474C207.952 143.772 208.523 154.173 205.794 155.176C204.246 155.745 196.954 154.906 196.954 154.906L197.614 150.196C197.614 150.196 201.086 150.714 201.391 150.419C201.697 150.124 198.611 142.281 199.254 139.59C199.898 136.899 205.25 135.258 205.25 135.258L209.815 136.434Z" fill="#B75742"/>
<path d="M212.128 116.239C212.128 116.239 212.998 116.501 215.678 120.159L211.376 126.988L208.755 120.641L212.128 116.239Z" fill="#F7CC7F"/>
<path d="M205.858 120.705C205.858 120.705 208.233 120.436 209.088 120.124C209.944 119.813 215.555 138.413 213.592 138.836C209.493 139.721 198.844 142.077 198.844 142.077C198.844 142.077 198.658 141.014 199.232 139.178C200.226 135.999 200.789 128.725 200.789 127.442C200.789 126.689 196.903 129.301 196.903 129.301L195.276 123.391C195.276 123.391 200.236 121.39 201.974 121.03C202.46 120.93 205.858 120.705 205.858 120.705Z" fill="#F7CC7F"/>
<path d="M213.255 132.645C212.631 129.609 207.319 120.499 207.273 120.412L208.364 119.826C208.554 120.184 212.854 127.886 213.514 131.098L213.255 132.645Z" fill="#184655"/>
<path d="M211.395 159.136C211.395 159.136 214.489 161.971 215.049 162.245C215.506 162.469 216.561 165.824 215.981 166.009C215.4 166.194 209.656 162.035 209.42 161.341C209.184 160.647 211.395 159.136 211.395 159.136Z" fill="#07345A"/>
<path d="M199.19 136.635L198.634 135.746C198.681 135.715 203.38 132.702 203.91 128.858C204.445 124.973 201.719 120.892 201.691 120.851L202.555 120.26C202.678 120.439 205.537 124.711 204.946 129.002C204.349 133.334 199.4 136.502 199.19 136.635Z" fill="#3C8F7C"/>
<path d="M205.925 108.268C205.925 108.268 207.803 107.584 209.018 109.495C210.231 111.407 209.575 111.226 210.166 112.181C210.757 113.137 212.299 112.939 212.299 114.422C212.299 115.905 211.61 116.135 211.61 116.135C211.61 116.135 212.234 117.289 211.545 118.475C210.855 119.662 209.138 120.684 207.699 120.518C207.699 120.518 205.54 121.707 203.374 121.146C201.208 120.585 201.963 120.585 201.077 120.585C200.191 120.585 197.795 119.366 198.189 117.585C198.189 117.585 196.729 115.843 198.145 114.422C199.562 112.999 199.829 111.554 200.649 109.643C201.47 107.733 204.94 107.806 205.925 108.268Z" fill="#184655"/>
<path d="M207.18 118.444C207.18 118.444 207.101 121.068 207.346 121.314C207.592 121.561 207.934 121.969 207.574 122.596C207.213 123.223 205.646 122.823 204.916 122.464C204.215 122.12 203.763 121.48 203.763 121.48L204.128 117.322L207.18 118.444Z" fill="#F7A491"/>
<path d="M206.138 119.531C205.635 119.354 204.755 119.012 204.077 117.905L204.127 117.323L207.179 118.444C207.179 118.444 207.159 119.084 207.17 119.762C206.743 119.744 206.378 119.615 206.138 119.531Z" fill="#B75742"/>
<path d="M203.59 114.355C203.59 114.355 203.516 112.812 202.573 113.112C201.629 113.411 202.348 115.741 203.131 115.664C203.913 115.587 203.59 114.355 203.59 114.355Z" fill="#F7A491"/>
<path d="M206.556 109.314C206.556 109.314 208.033 109.281 208.787 110.435C209.541 111.588 210.362 114.884 209.115 117.158C207.868 119.432 206.276 118.872 205.62 118.641C204.964 118.411 203.668 117.9 203.012 115.774C202.356 113.648 202.832 108.87 206.556 109.314Z" fill="#F7A491"/>
<path d="M204.438 46.0567L203.594 47.6209L200.939 46.5369L199.425 48.6717L197.306 48.1863L197.062 49.2641L199.896 49.9126L201.33 47.8901L204.093 49.0178L205.362 46.6637L204.438 46.0567Z" fill="#50BFA5"/>
<path d="M257.142 91.2654L255.769 92.8036L256.252 94.8116C256.292 94.9737 256.128 95.1109 255.976 95.0434L254.096 94.2067L252.344 95.2887C252.202 95.376 252.022 95.2627 252.04 95.0964L252.251 93.0416L250.685 91.7019C250.559 91.5938 250.611 91.387 250.773 91.3517L252.784 90.9183L253.568 89.009C253.631 88.8552 253.843 88.8407 253.927 88.9851L254.959 90.7717L257.01 90.9308C257.173 90.9432 257.253 91.1417 257.142 91.2654Z" fill="#FED333"/>
<path d="M209.963 87.5135L208.59 89.0517L209.074 91.0596C209.113 91.2218 208.949 91.359 208.797 91.2914L206.917 90.4547L205.165 91.5367C205.023 91.624 204.843 91.5107 204.861 91.3444L205.072 89.2897L203.506 87.95C203.38 87.8419 203.432 87.635 203.594 87.5997L205.605 87.1663L206.389 85.2571C206.452 85.1032 206.665 85.0887 206.748 85.2332L207.78 87.0198L209.831 87.1788C209.996 87.1913 210.074 87.3887 209.963 87.5135Z" fill="#FED333"/>
<path d="M100.342 20.8894C100.342 21.2833 98.5329 21.6024 96.303 21.6024C94.072 21.6024 92.2642 21.2833 92.2642 20.8894C92.2642 20.4955 94.073 20.1765 96.303 20.1765C98.534 20.1765 100.342 20.4955 100.342 20.8894Z" fill="#CA0F2E"/>
<path d="M96.303 8.20132C94.4652 8.20132 92.9761 9.53686 92.9761 11.1832C92.9761 12.8305 96.303 20.8894 96.303 20.8894C96.303 20.8894 99.6298 12.8305 99.6298 11.1832C99.6308 9.53686 98.1407 8.20132 96.303 8.20132ZM96.303 12.9157C95.5238 12.9157 94.8915 12.2807 94.8915 11.4981C94.8915 10.7155 95.5238 10.0804 96.303 10.0804C97.0821 10.0804 97.7144 10.7155 97.7144 11.4981C97.7144 12.2817 97.0821 12.9157 96.303 12.9157Z" fill="#CA0F2E"/>
<path d="M160.775 109.626C160.155 109.089 159.683 107.402 159.803 107.28C159.96 107.121 160.538 107.235 160.721 107.305C160.904 107.375 161.126 107.439 161.309 107.51C161.492 107.58 161.695 107.502 161.799 107.278C161.902 107.056 161.231 106.617 160.971 106.511C160.155 106.183 157.8 105.746 157.553 105.689C157.26 105.622 153.906 101.517 152.646 100.204C152.646 100.204 152.646 100.204 152.647 100.204C150.648 97.9899 148.702 95.614 148.492 95.3791L143.015 83.8217L138.017 84.1897C138.017 84.1897 143.915 97.1012 144.284 97.7134C144.459 98.0044 149.489 102.774 149.491 102.772C152.115 104.964 154.433 106.888 154.868 107.271C154.868 107.271 155.331 108.979 155.907 109.968C156.277 110.602 160.662 109.71 160.775 109.626Z" fill="#F48C7F"/>
<path d="M140.616 74.8783C140.616 74.8783 144.47 74.1965 146.385 88.2732L139.835 90.1076L137.11 82.6691L140.616 74.8783Z" fill="#F47458"/>
<path d="M148.276 120.795V128.095C148.276 129.507 149.416 130.653 150.823 130.653H166.748C168.154 130.653 169.294 129.507 169.294 128.095V120.795H148.276Z" fill="#CA0F2E"/>
<path d="M168.423 128.8L169.292 128.112C169.292 128.106 169.292 128.1 169.292 128.095V127.638L168.122 128.565L166.871 127.585L168.117 126.598L169.292 127.519V127.047L168.417 126.361L169.292 125.668V125.194L168.116 126.125L166.865 125.145L168.111 124.159L169.292 125.085V124.613L168.411 123.922L169.292 123.224V122.75L168.11 123.686L166.859 122.706L168.104 121.72L169.291 122.65V122.178L168.403 121.483L169.271 120.796H168.673L168.102 121.247L167.527 120.796H166.925L167.803 121.484L166.557 122.47L165.306 121.49L166.184 120.796H165.586L165.006 121.254L164.421 120.796H163.818L164.706 121.492L163.46 122.478L162.209 121.498L163.096 120.797H162.498L161.909 121.264L161.314 120.797H160.712L161.609 121.5L160.363 122.487L159.112 121.507L160.008 120.797H159.41L158.812 121.271L158.208 120.797H157.606L158.513 121.508L157.267 122.494L156.016 121.514L156.922 120.797H156.323L155.715 121.278L155.1 120.797H154.498L155.415 121.516L154.169 122.502L152.918 121.522L153.834 120.798H153.236L152.618 121.287L151.994 120.798H151.392L152.319 121.524L151.073 122.511L149.822 121.531L150.747 120.798H150.149L149.522 121.295L148.889 120.798H148.286L149.223 121.532L148.275 122.282V123.224L149.229 123.971L148.275 124.726V125.658L149.234 126.41L148.275 127.17V128.093L149.24 128.85L148.604 129.354C148.665 129.463 148.734 129.566 148.81 129.664L149.541 129.085L150.793 130.066L150.159 130.567C150.319 130.609 150.484 130.637 150.654 130.649L151.093 130.302L151.544 130.655H152.146L151.393 130.065L152.639 129.078L153.89 130.058L153.136 130.655H153.734L154.191 130.294L154.651 130.655H155.253L154.49 130.056L155.736 129.07L156.987 130.05L156.223 130.654H156.821L157.287 130.285L157.758 130.654H158.36L157.587 130.048L158.833 129.062L160.084 130.042L159.311 130.654H159.909L160.384 130.278L160.864 130.654H161.466L160.684 130.041L161.93 129.054L163.181 130.034L162.399 130.654H162.997L163.482 130.27L163.972 130.654H164.574L163.781 130.033L165.027 129.047L166.278 130.027L165.485 130.654H166.083L166.578 130.262L167.053 130.634C167.216 130.614 167.373 130.58 167.524 130.531L166.877 130.024L168.123 129.038L168.817 129.582C168.89 129.481 168.954 129.374 169.012 129.262L168.423 128.8ZM167.817 126.362L166.571 127.349L165.32 126.369L166.566 125.382L167.817 126.362ZM151.381 125.183L152.627 124.196L153.878 125.177L152.632 126.163L151.381 125.183ZM152.332 126.4L151.086 127.386L149.835 126.406L151.081 125.42L152.332 126.4ZM154.178 125.413L155.429 126.393L154.184 127.379L152.932 126.399L154.178 125.413ZM154.478 125.176L155.724 124.189L156.975 125.169L155.729 126.156L154.478 125.176ZM157.275 125.404L158.526 126.384L157.281 127.371L156.03 126.391L157.275 125.404ZM157.574 125.167L158.82 124.181L160.071 125.161L158.826 126.147L157.574 125.167ZM160.373 125.397L161.624 126.377L160.378 127.363L159.127 126.383L160.373 125.397ZM160.672 125.16L161.917 124.174L163.169 125.154L161.923 126.14L160.672 125.16ZM163.47 125.39L164.721 126.37L163.475 127.356L162.224 126.376L163.47 125.39ZM163.769 125.153L165.015 124.166L166.266 125.146L165.02 126.133L163.769 125.153ZM166.561 122.942L167.812 123.922L166.566 124.908L165.315 123.928L166.561 122.942ZM165.009 121.726L166.26 122.706L165.015 123.692L163.764 122.712L165.009 121.726ZM163.463 122.95L164.714 123.93L163.469 124.917L162.218 123.937L163.463 122.95ZM161.912 121.734L163.163 122.714L161.917 123.701L160.666 122.721L161.912 121.734ZM160.366 122.958L161.617 123.938L160.372 124.924L159.12 123.944L160.366 122.958ZM158.815 121.742L160.066 122.722L158.82 123.708L157.569 122.728L158.815 121.742ZM157.269 122.965L158.52 123.945L157.274 124.931L156.023 123.951L157.269 122.965ZM155.718 121.749L156.969 122.729L155.723 123.715L154.472 122.735L155.718 121.749ZM154.173 122.973L155.424 123.953L154.178 124.94L152.927 123.96L154.173 122.973ZM152.621 121.757L153.872 122.737L152.626 123.724L151.375 122.744L152.621 121.757ZM151.076 122.98L152.327 123.961L151.081 124.947L149.83 123.967L151.076 122.98ZM148.278 122.751L149.524 121.764L150.775 122.745L149.529 123.731L148.278 122.751ZM148.284 125.19L149.53 124.204L150.781 125.184L149.535 126.17L148.284 125.19ZM149.54 128.611L148.289 127.63L149.535 126.644L150.786 127.624L149.54 128.611ZM151.093 129.827L149.842 128.846L151.087 127.86L152.338 128.84L151.093 129.827ZM152.638 128.602L151.386 127.622L152.632 126.636L153.883 127.616L152.638 128.602ZM154.19 129.818L152.939 128.838L154.185 127.852L155.436 128.832L154.19 129.818ZM155.735 128.595L154.484 127.615L155.729 126.629L156.981 127.609L155.735 128.595ZM157.286 129.811L156.035 128.831L157.281 127.845L158.532 128.825L157.286 129.811ZM158.832 128.588L157.581 127.608L158.827 126.621L160.078 127.601L158.832 128.588ZM160.383 129.804L159.132 128.824L160.378 127.837L161.629 128.817L160.383 129.804ZM161.929 128.579L160.678 127.599L161.924 126.613L163.175 127.593L161.929 128.579ZM163.48 129.795L162.229 128.815L163.475 127.829L164.726 128.809L163.48 129.795ZM165.026 128.572L163.775 127.592L165.021 126.606L166.272 127.586L165.026 128.572ZM166.577 129.788L165.326 128.808L166.572 127.822L167.823 128.802L166.577 129.788Z" fill="white"/>
<path d="M169.668 120.795H147.284C146.997 120.795 146.764 120.561 146.764 120.273V118.186C146.764 117.897 146.997 117.664 147.284 117.664H169.668C169.956 117.664 170.187 117.898 170.187 118.186V120.273C170.189 120.561 169.956 120.795 169.668 120.795Z" fill="#CA0F2E"/>
<path d="M154.229 117.664L159.047 122.716L162.961 117.664H154.229Z" fill="#FAE0B2"/>
<path d="M164.504 119.999C164.07 119.999 163.718 119.645 163.718 119.209V115.658C163.718 112.56 161.489 109.441 158.595 109.441L157.5 109.417C154.606 109.417 152.663 112.56 152.663 115.658V119.209C152.663 119.645 152.312 119.999 151.877 119.999C151.442 119.999 151.091 119.645 151.091 119.209V115.658C151.091 111.689 154.15 108.46 157.912 108.46H158.469C162.23 108.46 165.29 111.689 165.29 115.658V119.209C165.291 119.645 164.938 119.999 164.504 119.999Z" fill="#B75742"/>
<path d="M164.979 119.23C164.979 119.478 164.779 119.68 164.531 119.68C164.284 119.68 164.084 119.478 164.084 119.23C164.084 118.981 164.285 118.781 164.531 118.781C164.779 118.781 164.979 118.981 164.979 119.23Z" fill="#FAE0B2"/>
<path d="M152.367 118.857C152.367 119.106 152.167 119.306 151.92 119.306C151.673 119.306 151.473 119.105 151.473 118.857C151.473 118.609 151.674 118.407 151.92 118.407C152.168 118.408 152.367 118.609 152.367 118.857Z" fill="#FAE0B2"/>
<path d="M155.68 108.113C155.68 108.113 155.275 110.693 156.488 110.978C157.701 111.265 160.478 110.202 160.216 109.749C159.954 109.295 157.391 107.325 157.012 107.707C156.631 108.089 156.202 107.778 155.68 108.113Z" fill="#F7A491"/>
<path d="M144.758 62.7941C144.015 57.9311 139.635 54.4348 135.054 56.794C134.023 57.3251 132.628 58.4019 131.917 59.3186C129.96 61.841 129.486 64.9673 127.412 67.3931C125.624 69.4842 120.849 69.0903 118.62 70.6982C116.391 72.307 114.829 75.1912 114.829 78.6407C114.829 82.4987 115.696 86.5947 118.673 89.034C121.649 91.4733 125.879 92.0813 129.581 91.0472C133.282 90.013 136.457 87.4802 138.743 84.3788C141.028 81.2775 142.645 77.8778 143.783 74.1934C145.053 70.0829 145.238 65.937 144.758 62.7941Z" fill="#184655"/>
<path d="M143.097 76.8427C140.709 71.4974 132.735 70.8956 127.666 73.7954C126.16 74.657 125.892 74.5936 124.946 75.5435C122.467 78.0327 118.847 103.517 126.409 105.123C133.97 106.729 140.396 105.997 142.889 102.064C144.559 99.4293 146.772 85.0679 143.097 76.8427Z" fill="#F7CC7F"/>
<path d="M143.505 156.079C143.505 156.079 143.89 160.304 143.636 161.682C143.602 161.867 143.527 162.1 143.44 162.357C143.18 163.13 143.895 165.489 143.895 165.489L153.48 165.524C154.002 165.526 153.653 165.194 153.228 164.888C152.533 164.389 151.973 164.06 149.759 163.021C149.614 162.953 149.087 162.627 148.898 162.513C148.417 162.227 147.931 161.772 147.512 161.316C146.815 160.556 146.708 156.833 146.708 156.833L143.505 156.079Z" fill="#F7A491"/>
<path d="M148.897 162.512C146.37 163.196 144.492 162.776 143.438 162.366C143.178 163.137 142.687 165.745 142.98 165.745C145.384 165.745 147.418 166.202 154.306 166.093C154.552 166.089 154.522 165.239 154.362 165.05C153.917 164.532 149.087 162.627 148.897 162.512Z" fill="#355389"/>
<path d="M131.482 105.925C131.482 105.925 131.619 111.956 133.34 115.818C135.016 119.58 143.037 128.857 145.17 134.272C144.51 137.326 142.698 141.619 142.83 145.004C142.979 148.84 142.756 158.99 142.756 158.99L147.061 159.127L152.708 132.933L144.198 104.671L140.336 97.808L131.482 105.925Z" fill="#13375B"/>
<path d="M113.092 150.073C113.092 150.073 110.447 153.719 109.282 154.639C108.658 155.133 106.964 155.796 106.785 156.612C106.606 157.428 114.458 164.647 114.458 164.647C114.874 165.017 114.828 164.505 114.701 163.962C114.496 163.074 114.277 162.416 113.236 160.025C113.168 159.869 112.975 159.237 112.903 159.013C112.719 158.444 112.648 157.74 112.633 157.08C112.607 155.981 115.124 152.933 115.124 152.933L113.092 150.073Z" fill="#F7A491"/>
<path d="M112.903 159.012C110.408 157.776 109.201 156.116 108.646 155.046C107.899 155.478 105.889 156.399 106.065 156.657C107.454 158.681 108.895 161.198 114.472 165.966C114.671 166.136 115.49 165.153 115.492 164.889C115.5 164.162 112.975 159.236 112.903 159.012Z" fill="#355389"/>
<path d="M127.995 69.3907C127.995 69.3907 122.371 59.3092 121.003 57.1661C119.635 55.023 116.07 46.5068 115.943 46.1711C115.816 45.8354 118.398 41.8059 117.821 41.6677C117.245 41.5294 116.607 43.7921 115.993 43.5218C115.378 43.2516 113.582 37.8045 113.231 38.0747C112.575 38.5798 114.2 41.4536 113.85 41.6344C113.5 41.8153 112.441 38.4728 111.755 38.5715C111.069 38.6702 113.06 41.6355 112.869 41.8974C112.677 42.1593 110.609 39.3656 110.235 39.9611C110.032 40.2843 112.136 42.4004 111.733 42.5979C111.329 42.7964 109.456 41.4307 109.258 41.8246C109.061 42.2185 110.99 42.7579 111.567 43.8191C112.144 44.8802 113.126 45.3396 113.534 47.305C113.942 49.2703 114.552 56.3845 116.643 59.9338C118.733 63.4831 123.329 71.3384 123.329 71.3384L127.995 69.3907Z" fill="#F79C8D"/>
<path d="M131.787 102.063C131.787 102.063 128.459 107.084 127.666 111.24C126.894 115.287 128.177 127.507 126.836 133.172C124.554 135.297 120.62 137.772 118.797 140.622C116.731 143.852 110.759 152.043 110.759 152.043L114.209 154.632L133.778 136.413L141.7 112.105L144.418 104.997L131.787 102.063Z" fill="#13375B"/>
<path d="M134.48 73.4929C134.48 73.4929 130.074 73.2113 128.331 75.1163C126.587 77.0214 132.198 92.0886 132.515 94.5123C132.832 96.936 129.915 101.77 129.915 101.77C129.915 101.77 142.042 107.465 145.001 105.503C145.001 105.503 144.527 86.076 144.209 84.3435C143.893 82.612 141.251 75.5695 140.617 74.8773C139.982 74.1851 134.48 73.4929 134.48 73.4929Z" fill="#CA0F2E"/>
<path d="M135.948 67.5906C135.948 67.5906 135.925 67.7205 135.883 67.9419C135.687 69.0041 134.93 72.5263 134.419 73.495C133.801 74.6653 136.534 78.3985 139.164 77.9423C139.947 77.8061 138.501 74.5125 138.572 74.1633C138.704 73.495 138.885 72.5845 139.07 71.6502C139.173 71.1233 139.279 70.589 139.378 70.086C139.659 68.659 139.889 67.4908 139.889 67.4908L135.948 67.5906Z" fill="#F7A491"/>
<path d="M135.883 67.9419C135.925 67.7205 135.948 67.5906 135.948 67.5906L139.888 67.4918C139.888 67.4918 139.658 68.659 139.377 70.087C139.279 70.587 139.174 71.118 139.071 71.6419C138.462 71.5525 137.827 71.2552 137.189 70.6961C136.494 70.086 136.039 69.3533 135.764 68.5717C135.813 68.3223 135.853 68.1061 135.883 67.9419Z" fill="#F47458"/>
<path d="M138.6 58.6118C138.6 58.6118 136.742 58.3967 135.578 59.9058C134.414 61.4149 133.159 66.0836 136.051 68.6206C138.943 71.1586 141.801 68.2859 142.225 65.2396C142.649 62.1944 142.813 58.5017 138.6 58.6118Z" fill="#F7A491"/>
<path d="M143.08 65.196C142.735 65.8684 142.155 66.2415 141.786 66.0285C141.416 65.8154 141.397 65.0972 141.741 64.4248C142.087 63.7523 142.666 63.3792 143.036 63.5933C143.406 63.8043 143.426 64.5225 143.08 65.196Z" fill="#F7A491"/>
<path d="M138.808 58.113C138.808 58.113 136.326 62.5519 134.551 62.7567C132.775 62.9614 132.542 65.3207 132.542 65.3207C132.542 65.3207 133.176 59.886 134.935 58.8374C136.693 57.7897 138.808 58.113 138.808 58.113Z" fill="#184655"/>
<path d="M135.016 63.8719C135.16 64.6597 134.87 65.383 134.367 65.487C133.865 65.5909 133.341 65.0349 133.196 64.2471C133.051 63.4592 133.342 62.7359 133.845 62.6319C134.348 62.529 134.872 63.084 135.016 63.8719Z" fill="#F7A491"/>
<path d="M126.439 66.123C126.439 66.123 132.66 72.8288 133.584 75.531C134.508 78.2333 132.683 82.0985 130.16 82.268C127.637 82.4363 122.025 70.3666 122.025 70.3666L126.439 66.123Z" fill="#CA0F2E"/>
<path d="M133.689 72.3309C136.432 76.0185 137.684 81.8699 135.834 87.5082C135.071 89.7366 134.21 91.8963 132.569 94.1256C130.501 96.8944 128.877 97.6199 129.019 97.5367L128.409 96.3477C128.42 96.3394 129.222 95.9122 130.217 94.8979C130.274 94.8251 132.504 92.7569 134.026 88.6577C137.597 79.5449 132.589 73.7579 132.504 73.5418C132.469 73.494 132.436 73.337 132.412 73.309L133.689 72.3309Z" fill="#F7CC7F"/>
<path d="M144.701 94.8397C143.876 83.8062 139.318 74.3587 139.268 74.2973L140.51 74.1965C140.566 74.2651 141.902 74.9989 143.17 78.0535C144.218 80.5759 145.399 84.5378 145.418 89.5994C145.421 90.648 144.701 94.8397 144.701 94.8397Z" fill="#F7CC7F"/>
<path d="M125.912 4.12405L123.831 2.0402L124.503 1.36359L125.845 2.70848L127.352 0.882385L128.084 1.49143L125.912 4.12405Z" fill="#50BFA5"/>
<path d="M175.486 39.4071C172.372 35.3579 173.118 29.52 177.149 26.3916C181.181 23.2643 186.993 24.0137 190.108 28.0629C193.222 32.1121 192.476 37.95 188.444 41.0784C184.413 44.2057 178.6 43.4553 175.486 39.4071ZM191.15 27.2543C187.584 22.6168 180.962 21.7635 176.344 25.345C171.727 28.9276 170.878 35.5782 174.444 40.2157C176.166 42.4565 178.656 43.8897 181.452 44.2504C190.771 45.4508 196.862 34.6813 191.15 27.2543Z" fill="#86B1F2"/>
<path d="M175.486 39.4071C172.372 35.3579 173.118 29.52 177.149 26.3916C181.181 23.2643 186.993 24.0136 190.108 28.0629C193.222 32.1121 192.476 37.95 188.444 41.0784C184.413 44.2057 178.6 43.4553 175.486 39.4071Z" fill="white"/>
<path d="M182.791 27.486C180.995 27.5183 179.563 28.9224 179.593 30.6238C179.623 32.3251 182.846 35.9347 182.846 35.9347C182.846 35.9347 186.127 32.2098 186.097 30.5084C186.068 28.807 184.587 27.4538 182.791 27.486ZM182.867 31.7982C182.148 31.8107 181.556 31.2702 181.544 30.5895C181.533 29.9087 182.105 29.3475 182.823 29.334C183.541 29.3215 184.134 29.863 184.146 30.5427C184.158 31.2235 183.586 31.7847 182.867 31.7982Z" fill="#86B1F2"/>
<path d="M180.358 38.4665L180.765 38.4593L180.791 38.6692H180.8C181.03 38.3158 181.552 38.3397 181.696 38.6723H181.702C182.006 38.2337 182.714 38.2753 182.729 39.0652L182.746 39.984L182.276 39.9923L182.261 39.1442C182.257 38.9176 182.182 38.7887 182.026 38.7908C181.899 38.7929 181.787 38.8999 181.79 39.0881L181.807 40.0006L181.337 40.0089L181.322 39.1348C181.319 38.9374 181.246 38.8043 181.094 38.8074C180.971 38.8095 180.851 38.9197 180.855 39.1088L180.871 40.0172L180.401 40.0255C180.377 39.033 180.389 38.9415 180.358 38.4665Z" fill="#86B1F2"/>
<path d="M183.336 38.2223C183.002 38.2285 182.989 37.74 183.331 37.7348C183.67 37.7286 183.686 38.2161 183.336 38.2223ZM183.129 39.9777L183.103 38.4187L183.585 38.4104L183.612 39.9694L183.129 39.9777Z" fill="#86B1F2"/>
<path d="M183.959 38.4031L184.378 38.3959L184.404 38.6089H184.414C184.651 38.2244 185.441 38.1963 185.456 39.0111L185.472 39.9361L184.99 39.9445L184.974 39.0808C184.97 38.8802 184.899 38.744 184.724 38.7471C184.564 38.7503 184.463 38.8885 184.465 39.0548L184.481 39.9538L183.999 39.9621C183.977 38.9696 183.989 38.8781 183.959 38.4031Z" fill="#86B1F2"/>
<path d="M186.623 66.0077C186.707 60.8921 190.918 56.7992 196.011 56.8824C201.105 56.9666 205.181 61.1966 205.097 66.3122C205.013 71.4278 200.801 75.5217 195.708 75.4375C190.615 75.3533 186.539 71.1232 186.623 66.0077ZM206.413 66.333C206.509 60.4743 201.865 55.6549 196.033 55.5593C190.2 55.4627 185.402 60.1272 185.307 65.9848C185.26 68.8159 186.315 71.4964 188.275 73.5314C194.808 80.3119 206.26 75.7171 206.413 66.333Z" fill="#86B1F2"/>
<path d="M186.623 66.0077C186.707 60.8921 190.918 56.7992 196.011 56.8824C201.105 56.9666 205.181 61.1966 205.097 66.3122C205.013 71.4278 200.801 75.5217 195.708 75.4375C190.615 75.3533 186.539 71.1233 186.623 66.0077Z" fill="white"/>
<path d="M196.231 73.4212C195.986 73.4212 195.787 73.2217 195.787 72.9753V59.3477C195.787 59.1013 195.986 58.9018 196.231 58.9018C196.476 58.9018 196.675 59.1013 196.675 59.3477V72.9764C196.675 73.2217 196.476 73.4212 196.231 73.4212Z" fill="#86B1F2"/>
<path d="M198.498 64.1234H191.889C191.827 64.1234 191.767 64.1026 191.717 64.0652L189.844 62.6444C189.698 62.5332 189.692 62.3149 189.833 62.1965L191.714 60.6084C191.766 60.5647 191.83 60.5408 191.897 60.5408H198.498C198.655 60.5408 198.784 60.6687 198.784 60.8277V63.8365C198.784 63.9955 198.655 64.1234 198.498 64.1234Z" fill="#86B1F2"/>
<path d="M194.256 68.2786H200.866C200.928 68.2786 200.988 68.2578 201.037 68.2204L202.91 66.7996C203.056 66.6884 203.062 66.4702 202.922 66.3517L201.041 64.7636C200.989 64.72 200.924 64.696 200.857 64.696H194.256C194.099 64.696 193.971 64.8239 193.971 64.9829V67.9918C193.972 68.1508 194.099 68.2786 194.256 68.2786Z" fill="#86B1F2"/>
<path d="M194.447 67.8015V65.1741H200.789L202.434 66.5637L200.803 67.8015H194.447Z" fill="#FDFFFE"/>
<path d="M68.2666 24.3057C68.3504 19.1901 72.562 15.0962 77.6552 15.1804C82.7484 15.2646 86.8244 19.4947 86.7406 24.6102C86.6568 29.7258 82.4452 33.8197 77.352 33.7355C72.2588 33.6513 68.1828 29.4213 68.2666 24.3057ZM88.0568 24.6321C88.152 18.7734 83.509 13.954 77.6769 13.8584C71.8439 13.7628 67.0456 18.4262 66.9504 24.2839C66.9038 27.115 67.9583 29.7954 69.9192 31.8304C76.4518 38.611 87.9037 34.0151 88.0568 24.6321Z" fill="#86B1F2"/>
<path d="M86.5235 26.4578C87.6229 21.4541 84.4756 16.5026 79.4937 15.3984C74.5119 14.2941 69.582 17.4553 68.4826 22.459C67.3832 27.4627 70.5305 32.4142 75.5124 33.5184C80.4942 34.6227 85.424 31.4615 86.5235 26.4578Z" fill="white"/>
<path d="M74.7816 30.7007C74.5861 30.7007 74.4277 30.5417 74.4277 30.3442V19.4604C74.4277 19.2639 74.5861 19.1049 74.7816 19.1049C74.9772 19.1049 75.1366 19.2639 75.1366 19.4604V30.3442C75.1366 30.5406 74.9772 30.7007 74.7816 30.7007Z" fill="#86B1F2"/>
<path d="M80.4274 30.7007C80.2318 30.7007 80.0724 30.5417 80.0724 30.3442V19.4604C80.0724 19.2639 80.2308 19.1049 80.4274 19.1049C80.623 19.1049 80.7823 19.2639 80.7823 19.4604V30.3442C80.7823 30.5406 80.623 30.7007 80.4274 30.7007Z" fill="#86B1F2"/>
<path d="M76.668 21.1171C76.668 22.5919 75.7843 23.7871 74.6937 23.7871C73.603 23.7871 72.7193 22.5919 72.7193 21.1171C72.7193 19.6422 73.603 18.447 74.6937 18.447C75.7833 18.447 76.668 19.6433 76.668 21.1171Z" fill="#86B1F2"/>
<path d="M82.1369 18.7141H81.6816C81.5977 18.7141 81.5294 18.7827 81.5294 18.8669V21.8228C81.5294 21.9069 81.4611 21.9755 81.3773 21.9755H81.0162C80.9324 21.9755 80.8641 21.9069 80.8641 21.8228V18.8669C80.8641 18.7827 80.7958 18.7141 80.712 18.7141H80.1046C80.0207 18.7141 79.9524 18.7827 79.9524 18.8669V21.8228C79.9524 21.9069 79.8841 21.9755 79.8003 21.9755H79.4392C79.3554 21.9755 79.2871 21.9069 79.2871 21.8228V18.8669C79.2871 18.7827 79.2188 18.7141 79.135 18.7141H78.6414C78.5576 18.7141 78.4893 18.7827 78.4893 18.8669V22.49C78.4893 23.5428 79.3398 24.3972 80.3881 24.3972C81.4363 24.3972 82.2869 23.5428 82.2869 22.49V18.8669C82.289 18.7827 82.2207 18.7141 82.1369 18.7141Z" fill="#86B1F2"/>
<path d="M150.316 25.7244C145.356 24.5562 142.267 19.5539 143.43 14.5734C144.593 9.59195 149.574 6.48956 154.532 7.65776C159.492 8.82597 162.581 13.8283 161.418 18.8087C160.256 23.7902 155.275 26.8926 150.316 25.7244ZM154.833 6.37004C149.153 5.03242 143.48 8.56718 142.148 14.272C140.816 19.9769 144.336 25.6755 150.015 27.0132C152.761 27.6596 155.592 27.193 157.987 25.7015C165.971 20.7273 163.93 8.51105 154.833 6.37004Z" fill="#86B1F2"/>
<path d="M158.955 23.2526C162.563 19.6293 162.563 13.7545 158.955 10.1308C155.347 6.50713 149.498 6.5068 145.89 10.1301C142.283 13.7534 142.283 19.6282 145.891 23.2519C149.499 26.8756 155.348 26.8759 158.955 23.2526Z" fill="white"/>
<path d="M149.628 21.1794H149.621L149.177 21.4008L149.08 20.9892L149.696 20.6878L150.15 20.6795L150.191 23.0357L149.66 23.045L149.628 21.1794Z" fill="#86B1F2"/>
<path d="M152.292 21.9735H152.299C152.426 21.7313 152.51 21.6284 152.77 21.2179L153.43 21.2064L152.811 21.935L153.551 22.9764L152.877 22.9889L152.438 22.2676L152.3 22.4443L152.31 22.9982L151.761 23.0076L151.716 20.4342L152.264 20.4249L152.292 21.9735Z" fill="#86B1F2"/>
<path d="M153.708 21.2012L154.169 21.1929L154.198 21.432H154.208C154.469 21.0308 155.063 21.0578 155.227 21.4361H155.234C155.383 21.221 155.574 21.1295 155.792 21.1254C156.131 21.1191 156.391 21.354 156.4 21.883L156.419 22.9265L155.885 22.9359L155.868 21.9714C155.864 21.7136 155.778 21.5671 155.601 21.5702C155.456 21.5723 155.329 21.6949 155.333 21.908L155.352 22.9442L154.818 22.9535L154.8 21.961C154.791 21.407 154.262 21.5276 154.269 21.9308L154.288 22.9639L153.754 22.9733C153.728 21.8446 153.742 21.7406 153.708 21.2012Z" fill="#86B1F2"/>
<path d="M152.705 19.346C150.685 19.346 149.048 17.7018 149.048 15.6731V13.9436H156.362V15.6731C156.362 17.7018 154.725 19.346 152.705 19.346Z" fill="#86B1F2"/>
<path d="M156.652 17.4326H155.326C154.553 17.4326 153.924 16.8007 153.924 16.0243C153.924 15.248 154.553 14.6161 155.326 14.6161H156.652C157.424 14.6161 158.054 15.248 158.054 16.0243C158.054 16.8018 157.424 17.4326 156.652 17.4326ZM155.326 15.1066C154.822 15.1066 154.412 15.5182 154.412 16.0254C154.412 16.5315 154.822 16.9442 155.326 16.9442H156.652C157.155 16.9442 157.566 16.5326 157.566 16.0254C157.566 15.5192 157.156 15.1066 156.652 15.1066H155.326Z" fill="#86B1F2"/>
<path d="M151.775 9.30614C151.963 10.0669 151.181 10.3112 151.243 10.8547C151.291 11.6477 152.06 11.5106 152.114 12.3919C152.128 12.6257 152.035 12.8814 151.849 13.0425C151.884 12.9573 151.913 12.8721 151.927 12.7879C151.964 12.5457 151.897 12.2745 151.736 12.0874C151.571 11.893 151.321 11.7881 151.158 11.5916C150.965 11.3609 150.836 11.0938 150.906 10.6895C150.923 10.5419 151.032 10.3247 151.208 10.1501C151.463 9.8892 151.636 9.80917 151.749 9.44021C151.757 9.39656 151.764 9.35187 151.775 9.30614Z" fill="#86B1F2"/>
<path d="M153.643 9.30614C153.832 10.0669 153.049 10.3112 153.112 10.8547C153.16 11.6477 153.929 11.5106 153.983 12.3919C153.997 12.6257 153.904 12.8814 153.718 13.0425C153.753 12.9573 153.782 12.8721 153.796 12.7879C153.833 12.5457 153.766 12.2745 153.605 12.0874C153.44 11.893 153.19 11.7881 153.027 11.5916C152.834 11.3609 152.705 11.0938 152.775 10.6895C152.792 10.5419 152.9 10.3247 153.076 10.1501C153.332 9.8892 153.505 9.80917 153.618 9.44021C153.626 9.39656 153.633 9.35187 153.643 9.30614Z" fill="#86B1F2"/>
<path d="M122.621 22.5305C118.436 25.4479 112.669 24.4034 109.763 20.2004C106.859 15.9973 107.899 10.2052 112.083 7.28672C116.268 4.36933 122.035 5.41385 124.941 9.61689C127.845 13.8199 126.805 19.6121 122.621 22.5305ZM111.333 6.20062C106.541 9.54206 105.356 16.1418 108.683 20.9549C112.01 25.768 118.581 26.9581 123.373 23.6166C125.689 22.0015 127.24 19.5778 127.741 16.7914C129.408 7.50498 119.008 0.848089 111.333 6.20062Z" fill="#86B1F2"/>
<path d="M119.049 24.0306C124.064 23.0898 127.37 18.2434 126.433 13.2058C125.496 8.16817 120.671 4.84706 115.656 5.78785C110.641 6.72864 107.335 11.5751 108.272 16.6127C109.209 21.6503 114.034 24.9714 119.049 24.0306Z" fill="white"/>
<path d="M113.551 10.2187C113.551 10.2187 111.096 16.2146 110.062 17.6416H125.283C125.283 17.6416 121.924 11.8795 121.666 10.2187H113.551Z" fill="#86B1F2"/>
<path d="M121.673 10.2623C121.473 10.9161 121.238 11.5563 120.991 12.1913C120.87 12.5104 120.736 12.8232 120.608 13.1392C120.474 13.453 120.338 13.7648 120.2 14.0766C119.92 14.6982 119.624 15.3124 119.302 15.9142C119.141 16.2156 118.974 16.5128 118.795 16.8049C118.749 16.8776 118.706 16.9504 118.658 17.0221C118.611 17.0928 118.563 17.1645 118.515 17.2352C118.421 17.3786 118.31 17.5106 118.204 17.6426C118.243 17.5667 118.285 17.4919 118.325 17.417C118.345 17.3796 118.368 17.3433 118.385 17.3048L118.441 17.1905C118.477 17.1136 118.517 17.0387 118.554 16.9629C118.591 16.887 118.625 16.809 118.662 16.7321C118.734 16.5793 118.807 16.4266 118.875 16.2707C118.943 16.1158 119.019 15.963 119.086 15.8071L119.919 13.9488L120.341 13.0217C120.485 12.7141 120.623 12.4033 120.77 12.0967C121.058 11.4794 121.354 10.8662 121.673 10.2623Z" fill="white"/>
<path d="M109.933 17.6322H110.276C110.275 17.6073 110.267 17.5813 110.253 17.5584L109.725 16.7082C109.68 16.6355 109.584 16.6126 109.512 16.6583C109.44 16.7041 109.417 16.7997 109.462 16.8724L109.933 17.6322Z" fill="#86B1F2"/>
<path d="M125.289 17.6322H124.947C124.948 17.6073 124.955 17.5813 124.97 17.5584L125.497 16.7082C125.543 16.6355 125.638 16.6126 125.71 16.6583C125.783 16.7041 125.806 16.7997 125.76 16.8724L125.289 17.6322Z" fill="#86B1F2"/>
<path d="M139.791 5.64459L136.513 4.202L135.767 6.47501L134.683 6.11748L135.82 2.64613L139.079 4.07936L139.91 1.39062L142.909 2.64509L144.141 0L145.176 0.486405L143.48 4.12613L140.629 2.93298L139.791 5.64459Z" fill="#CA0F2E"/>
</g>
<defs>
<clipPath id="clip0_5_500">
<rect width="315" height="168" fill="white"/>
</clipPath>
</defs>
</svg>
