<svg width="200" height="204" viewBox="0 0 200 204" fill="none" xmlns="http://www.w3.org/2000/svg">
<g clip-path="url(#clip0_5_1731)">
<path d="M176.557 191.674C176.176 190 177.175 188.326 178.288 187.119C179.401 185.912 180.728 184.832 181.315 183.231C182.261 180.637 181.026 177.265 182.629 175.105C183.571 173.835 185.254 173.416 186.09 172.058C186.529 171.348 186.678 170.467 186.853 169.625C187.746 165.333 189.705 161.324 192.452 158.146C192.622 161.971 191.843 165.849 190.222 169.231C189.569 170.589 188.772 171.917 188.548 173.436C188.189 175.903 189.416 178.457 188.859 180.881C188.22 183.65 185.403 185.494 185.258 188.345C185.135 190.759 187.019 192.891 186.866 195.304C186.8 196.331 186.366 197.285 185.885 198.161C184.189 201.255 181.705 203.377 177.964 203.285L173.377 203.436L176.557 191.674Z" fill="#F5F5F5"/>
<path d="M172.439 203.567C172.439 203.567 172.001 203.679 171.178 203.528C170.766 203.46 170.262 203.333 169.688 203.1C169.119 202.866 168.47 202.53 167.852 201.971C167.555 201.679 167.261 201.319 167.103 200.847C166.946 200.375 166.924 199.854 166.893 199.324C166.871 198.793 166.875 198.238 166.797 197.674C166.722 197.114 166.525 196.56 166.245 196.034C165.71 194.978 164.816 193.971 164.536 192.535C164.229 191.124 164.462 189.601 164.685 188.073C164.904 186.545 165.119 184.881 164.602 183.29C164.12 181.693 163.121 180.248 162.626 178.453C162.135 176.637 162.376 174.686 162.28 172.764C162.236 171.796 162.074 170.832 161.697 169.932C161.329 169.027 160.821 168.175 160.422 167.221C159.616 165.299 159.485 163.124 159.275 160.988C159.169 159.912 159.069 158.827 158.963 157.732C158.858 156.633 158.779 155.533 158.473 154.472C158.197 153.401 157.794 152.37 157.391 151.314C157.194 150.783 156.988 150.253 156.865 149.664C156.777 149.066 156.755 148.501 156.725 147.912C156.681 146.745 156.729 145.562 156.865 144.389C156.996 143.217 157.194 142.049 157.312 140.876C157.321 140.808 157.325 140.735 157.334 140.672L157.36 140.438L157.548 140.545C158.525 141.095 159.362 141.917 160.006 142.876C160.659 143.83 161.132 144.9 161.509 145.99C162.262 148.185 162.53 150.477 162.902 152.667C163.266 154.856 163.752 157.012 164.755 158.837C165.255 159.747 165.855 160.579 166.385 161.465C166.911 162.346 167.375 163.314 167.506 164.375C167.765 166.53 166.687 168.419 166.902 170.326C166.976 171.275 167.309 172.161 167.725 172.973C168.137 173.791 168.623 174.545 169.083 175.309C169.543 176.068 169.982 176.842 170.301 177.664C170.63 178.487 170.805 179.363 170.853 180.219C170.959 181.937 170.731 183.567 170.836 185.105C170.919 186.647 171.401 188.044 171.944 189.299C172.492 190.555 173.105 191.693 173.613 192.793C173.872 193.343 174.108 193.883 174.301 194.419C174.507 194.959 174.604 195.509 174.696 196.029C174.84 197.085 174.823 198.068 174.713 198.934C174.503 200.676 173.911 201.932 173.381 202.633C173.259 202.822 173.118 202.954 173.009 203.075C172.899 203.202 172.794 203.29 172.707 203.358C172.531 203.504 172.439 203.567 172.439 203.567C172.417 203.543 172.816 203.309 173.333 202.599C173.841 201.893 174.406 200.647 174.595 198.925C174.691 198.068 174.7 197.095 174.551 196.058C174.459 195.547 174.358 195.007 174.152 194.482C173.96 193.956 173.719 193.421 173.46 192.876C172.943 191.786 172.325 190.652 171.769 189.387C171.213 188.127 170.713 186.701 170.621 185.119C170.507 183.547 170.731 181.912 170.621 180.238C170.573 179.401 170.398 178.564 170.082 177.766C169.767 176.968 169.338 176.209 168.878 175.455C168.418 174.701 167.927 173.937 167.502 173.105C167.077 172.277 166.722 171.353 166.639 170.346C166.429 168.311 167.498 166.414 167.235 164.409C167.108 163.416 166.67 162.492 166.148 161.625C165.631 160.754 165.022 159.922 164.51 158.988C163.476 157.11 162.985 154.915 162.613 152.715C162.236 150.511 161.969 148.238 161.228 146.092C160.86 145.027 160.396 143.981 159.765 143.061C159.147 142.136 158.346 141.353 157.413 140.827L157.623 140.701C157.614 140.764 157.61 140.837 157.601 140.905C157.478 142.097 157.281 143.26 157.154 144.423C157.018 145.582 156.97 146.745 157.014 147.893C157.04 148.462 157.071 149.056 157.145 149.591C157.255 150.127 157.456 150.657 157.654 151.182C158.052 152.234 158.46 153.285 158.744 154.375C159.055 155.46 159.143 156.599 159.244 157.689C159.349 158.783 159.45 159.873 159.551 160.949C159.761 163.09 159.892 165.231 160.668 167.09C161.049 168.015 161.561 168.871 161.938 169.805C162.328 170.735 162.499 171.757 162.538 172.74C162.63 174.706 162.389 176.628 162.858 178.37C163.323 180.107 164.317 181.557 164.816 183.202C165.351 184.866 165.114 186.584 164.891 188.107C164.663 189.64 164.431 191.129 164.72 192.487C164.979 193.854 165.846 194.852 166.389 195.942C166.674 196.482 166.875 197.066 166.95 197.65C167.029 198.229 167.02 198.788 167.038 199.319C167.059 199.844 167.081 200.36 167.226 200.798C167.366 201.241 167.647 201.586 167.931 201.873C168.527 202.428 169.162 202.769 169.723 203.012C170.284 203.251 170.783 203.387 171.191 203.465C171.598 203.547 171.914 203.562 172.124 203.572C172.33 203.562 172.439 203.567 172.439 203.567Z" fill="#9BC1F9"/>
<path d="M158.263 143.479C158.267 143.479 158.28 143.533 158.306 143.635C158.333 143.757 158.363 143.908 158.407 144.092C158.495 144.496 158.6 145.1 158.771 145.859C158.946 146.613 159.358 147.47 159.708 148.526C160.072 149.572 160.44 150.783 160.782 152.146C161.123 153.504 161.426 155.017 161.741 156.633C162.065 158.248 162.389 159.981 163.182 161.616C163.555 162.448 163.971 163.285 164.304 164.204C164.646 165.124 164.825 166.127 164.948 167.129C165.158 169.148 165.482 171.197 165.903 173.294C166.801 177.474 167.655 181.455 168.435 185.08C169.232 188.691 169.951 191.946 170.56 194.691C171.151 197.411 171.629 199.62 171.966 201.178C172.124 201.927 172.247 202.516 172.334 202.944C172.369 203.129 172.4 203.285 172.422 203.406C172.439 203.509 172.448 203.567 172.444 203.567C172.439 203.567 172.422 203.518 172.396 203.416C172.365 203.294 172.325 203.148 172.277 202.964C172.176 202.535 172.032 201.951 171.857 201.212C171.497 199.659 170.985 197.46 170.358 194.749C169.736 192.01 168.996 188.759 168.172 185.153C167.384 181.528 166.521 177.547 165.614 173.367C165.189 171.27 164.865 169.183 164.659 167.173C164.536 166.175 164.365 165.207 164.037 164.316C163.717 163.421 163.305 162.584 162.933 161.747C162.135 160.078 161.807 158.297 161.496 156.686C161.189 155.066 160.9 153.557 160.571 152.2C160.247 150.842 159.897 149.63 159.546 148.584C159.213 147.533 158.815 146.667 158.652 145.888C158.499 145.114 158.411 144.511 158.341 144.102C158.315 143.912 158.289 143.762 158.271 143.635C158.263 143.533 158.254 143.479 158.263 143.479Z" fill="#9BC1F9"/>
<path d="M171.633 203.582C168.65 201.586 167.822 195.577 169.088 191.976C170.354 188.37 172.558 185.085 172.917 181.236C173.193 178.277 172.334 175.231 172.969 172.341C173.828 168.443 177.276 165.436 177.258 161.421C177.25 159.168 176.106 157.041 176.207 154.793C176.334 152.034 178.253 149.854 179.445 147.431C181.271 143.723 181.412 139.319 182.051 135.153C182.691 130.983 184.145 126.526 187.484 124.496C187.957 128.044 188.785 130.472 188.496 135.27C188.39 136.993 186.572 140.282 186.31 144.058C186.152 146.316 186.038 148.574 185.902 150.837C185.771 153.037 185.63 155.275 184.912 157.324C184.36 158.895 183.479 160.321 183.068 161.946C182.292 165.002 183.273 168.326 182.643 171.426C182.108 174.049 180.461 176.302 180.11 178.964C179.62 182.706 181.784 186.608 180.649 190.175C180.084 191.946 178.765 193.358 178.384 195.187C178.086 196.603 178.397 198.112 178.126 199.538C177.692 201.835 173.736 203.591 171.629 203.436" fill="#9BC1F9"/>
<path d="M186.642 128C186.647 128 186.642 128.068 186.629 128.2C186.612 128.35 186.59 128.54 186.559 128.783C186.489 129.294 186.406 130.044 186.248 131.017C186.077 131.995 185.617 133.09 185.249 134.414C184.859 135.732 184.474 137.255 184.128 138.964C183.777 140.667 183.484 142.555 183.173 144.589C182.853 146.603 182.524 148.832 181.604 150.944C181.179 152.005 180.702 153.066 180.343 154.2C179.975 155.328 179.799 156.54 179.694 157.791C179.528 160.302 179.212 162.905 178.774 165.533C177.828 170.779 176.93 175.771 176.111 180.316C175.248 184.842 174.472 188.925 173.819 192.355C173.158 195.766 172.623 198.53 172.251 200.467C172.063 201.406 171.914 202.146 171.808 202.672C171.756 202.91 171.716 203.095 171.686 203.241C171.655 203.367 171.638 203.436 171.633 203.436C171.629 203.436 171.638 203.367 171.655 203.236C171.677 203.09 171.708 202.9 171.747 202.657C171.839 202.131 171.971 201.387 172.133 200.443C172.487 198.501 172.991 195.728 173.609 192.311C174.244 188.871 174.998 184.788 175.839 180.258C176.649 175.713 177.543 170.72 178.476 165.479C178.914 162.852 179.225 160.277 179.396 157.762C179.506 156.506 179.685 155.255 180.067 154.097C180.439 152.939 180.921 151.878 181.346 150.822C182.257 148.745 182.586 146.564 182.919 144.545C183.238 142.516 183.549 140.623 183.913 138.915C184.272 137.207 184.675 135.679 185.083 134.36C185.468 133.032 185.941 131.946 186.125 130.993C186.301 130.039 186.401 129.28 186.493 128.779C186.533 128.54 186.568 128.35 186.594 128.204C186.62 128.068 186.638 128 186.642 128Z" fill="#EBEBEB"/>
<path d="M118.19 1.70317C115.631 -1.6107 108.981 0.472025 104.425 3.18249C104.425 3.18249 101.288 4.82726 100.123 5.67884C100.11 5.6837 100.096 5.6837 100.083 5.68857L89.4287 4.20925C88.5613 4.0876 87.6851 4.26278 86.9097 4.70074L86.0379 5.19709C85.5954 5.44526 85.6173 6.15572 86.0729 6.36984L93.9192 10.0925C93.9236 10.1411 93.9236 10.1509 93.928 10.1995C89.7573 13.2457 86.1824 15.8492 86.1824 15.8492C86.143 15.8784 86.1036 15.9075 86.0685 15.9319C84.6097 16.9684 82.8485 17.3577 81.1356 17.0219L76.9868 16.1995C76.7765 16.1557 76.5574 16.1655 76.3603 16.2579C75.6243 16.5937 75.4797 17.6691 76.0843 18.2287L80.8902 22.691C81.6437 23.3917 82.6908 23.5426 83.5801 23.09L85.8276 21.9416L97.2093 15.9221L95.9038 23.1192C95.8556 23.4161 96.0659 23.6837 96.3375 23.674L96.872 23.6545C97.608 23.6253 98.2739 23.1776 98.6419 22.4672L103.229 12.7348L116.656 5.63018C118.444 4.7202 119.084 3.01704 118.19 1.70317Z" fill="#9BC1F9"/>
<path d="M192.806 33.5718L159.016 32.7251C159.016 32.7251 162.126 26.7591 170.805 27.8589C179.094 28.9051 179.593 25.1046 183.825 24.7445C188.057 24.3844 191.51 28.0633 192.806 33.5718Z" fill="#F5F5F5"/>
<path d="M34.8331 53.8637H3.00101C3.00101 53.8637 5.81797 48.1752 14.0104 49.0024C21.8348 49.7956 22.2335 46.2044 26.2114 45.7616C30.1893 45.3187 33.5057 48.7056 34.8331 53.8637Z" fill="#F5F5F5"/>
<path d="M173.565 14.9441H149.281C149.281 14.9441 151.428 10.6034 157.68 11.236C163.651 11.8394 163.953 9.09977 166.989 8.76401C170.025 8.42824 172.553 11.0122 173.565 14.9441Z" fill="#F5F5F5"/>
<path d="M34.8025 71.7032H18.9171C18.9171 71.7032 20.3234 68.8662 24.4108 69.275C28.3143 69.6691 28.5158 67.8784 30.5004 67.6594C32.485 67.4404 34.141 69.129 34.8025 71.7032Z" fill="#F5F5F5"/>
<path d="M42.7451 22.8662H26.8597C26.8597 22.8662 28.266 20.0292 32.3535 20.438C36.2569 20.8321 36.4584 19.0414 38.443 18.8224C40.4276 18.6034 42.0836 20.292 42.7451 22.8662Z" fill="#FAFAFA"/>
<path d="M2 204C2 204.538 63.1188 205 138.491 205C213.893 205 275 204.577 275 204C275 203.423 213.893 203 138.491 203C63.1188 203 2 203.462 2 204Z" fill="#2E3552"/>
<path d="M32.7434 117.796C32.8091 117.095 33.3436 116.56 33.9789 116.56L43.3322 116.569C44.112 116.569 44.6947 117.363 44.5457 118.209C44.4275 118.866 43.9061 119.333 43.3016 119.314H33.9789C33.2429 119.319 32.6646 118.608 32.7434 117.796Z" fill="#263238"/>
<path d="M12.3412 200.204C12.5821 202.015 11.4518 203.698 9.82211 203.961C8.19238 204.229 6.67657 202.973 6.44 201.163C6.19904 199.353 7.32933 197.669 8.95905 197.406C10.5844 197.139 12.1002 198.394 12.3412 200.204Z" fill="#263238"/>
<path d="M10.0061 200.701L11.8286 196.526L10.8736 195.854L9.10802 200.209L10.0061 200.701Z" fill="#455A64"/>
<path d="M26.8597 149.304L38.1582 116.56L40.3005 117.757L29.3525 150.2L26.8597 149.304Z" fill="#263238"/>
<path d="M17.4406 199.903L0.762272 192.545C0.140175 192.272 -0.162106 191.489 0.0832291 190.798L16.6827 144.384C17.9882 140.73 21.7121 138.949 25.0022 140.399L32.0249 143.499C35.3106 144.949 36.9184 149.085 35.6129 152.74L19.0134 199.153C18.7681 199.839 18.0627 200.175 17.4406 199.903Z" fill="#CA0F2E"/>
<path d="M19.0528 199.382C19.0528 199.382 19.0791 199.285 19.1405 199.1C19.2062 198.905 19.2982 198.628 19.4164 198.277C19.6705 197.543 20.0342 196.482 20.5029 195.119C21.4624 192.37 22.8424 188.418 24.5466 183.533C26.2639 178.642 28.3098 172.822 30.5748 166.36C31.7138 163.129 32.9055 159.737 34.1453 156.224C34.4563 155.343 34.7674 154.457 35.0828 153.567C35.4157 152.696 35.5253 151.737 35.4333 150.793C35.2317 148.9 34.0445 147.153 32.3973 146.448C30.7544 145.723 28.8136 146.102 27.5081 147.338C26.8641 147.961 26.3559 148.745 26.0668 149.635C25.7513 150.53 25.4359 151.416 25.1292 152.292C23.885 155.805 22.689 159.197 21.5456 162.423C19.2587 168.876 17.1953 174.686 15.4648 179.572C13.7256 184.443 12.3193 188.384 11.3423 191.124C10.8517 192.477 10.4705 193.533 10.2077 194.258C10.0806 194.608 9.97984 194.876 9.90536 195.071C9.83527 195.255 9.79584 195.343 9.79584 195.343C9.79584 195.343 9.82213 195.246 9.88346 195.061C9.94918 194.866 10.0412 194.589 10.1595 194.238C10.4136 193.504 10.7772 192.443 11.2459 191.085C12.2054 188.341 13.5854 184.384 15.2896 179.499C17.0069 174.608 19.0528 168.788 21.3222 162.326C22.4612 159.095 23.6528 155.703 24.8927 152.19C25.2037 151.309 25.5148 150.423 25.8302 149.528C26.1281 148.608 26.6626 147.766 27.3416 147.114C28.7172 145.81 30.7632 145.406 32.4936 146.175C34.2285 146.92 35.4815 148.764 35.6918 150.754C35.7925 151.747 35.6698 152.769 35.3237 153.664C35.0083 154.56 34.6929 155.445 34.3862 156.321C33.142 159.835 31.946 163.221 30.8026 166.453C28.5157 172.905 26.4523 178.715 24.7218 183.601C22.9826 188.472 21.5763 192.414 20.5993 195.153C20.1086 196.506 19.7275 197.562 19.4646 198.287C19.3376 198.637 19.2368 198.905 19.1624 199.1C19.0923 199.29 19.0528 199.382 19.0528 199.382Z" fill="#263238"/>
<path d="M20.1306 166.394C20.0955 166.521 17.9138 165.562 15.2545 164.263C12.5953 162.959 10.4705 161.805 10.5056 161.679C10.5406 161.552 12.7223 162.511 15.3816 163.81C18.0365 165.114 20.1656 166.273 20.1306 166.394Z" fill="#263238"/>
<path d="M34.8901 116.56L36.844 112.277C37.0587 111.796 37.4267 111.421 37.8691 111.217L40.9402 109.8L49.2027 97.3479L49.9738 106.881L44.7034 112.915C44.7034 112.915 41.4046 120.633 38.7103 120.238C38.7103 120.238 38.8023 119.105 39.2492 118.243C40.1253 116.564 39.1922 116.564 39.0695 116.569L36.8308 116.574L34.8901 116.56Z" fill="#FFBE9D"/>
<path d="M48.3835 109.976C48.1338 110.389 46.0879 113.465 46.0879 113.465L40.3007 108.788L42.4035 106.506L48.3835 109.976Z" fill="#CA0F2E"/>
<path d="M39.2535 118.238C39.2535 118.238 37.7509 119.187 37.5625 120V120.477L39.3674 120.185L39.2535 118.238Z" fill="#FFBE9D"/>
<path d="M37.2382 119.158C37.4836 118.9 37.742 118.633 37.8428 118.273C37.9436 117.912 37.8209 117.45 37.5011 117.328C37.19 117.212 36.8702 117.465 36.6249 117.708C36.3139 118.019 36.0203 118.345 35.7443 118.691C35.5165 118.978 35.28 119.338 35.3632 119.708C35.4289 120.005 35.7005 120.214 35.9809 120.234C36.2569 120.253 36.5285 120.107 36.7301 119.898C36.9316 119.689 37.0718 119.411 37.19 119.134" fill="#FFBE9D"/>
<path d="M35.7049 119.012C35.9503 118.754 36.2087 118.487 36.3095 118.127C36.4102 117.766 36.2876 117.304 35.9678 117.182C35.6567 117.066 35.3369 117.319 35.0916 117.562C34.7805 117.873 34.487 118.2 34.211 118.545C33.9832 118.832 33.7466 119.192 33.8299 119.562C33.8956 119.859 34.1672 120.068 34.4476 120.088C34.7236 120.107 34.9952 119.961 35.1967 119.752C35.3983 119.543 35.5384 119.265 35.6567 118.988" fill="#FFBE9D"/>
<path d="M40.3006 111.698C40.305 111.64 39.9107 111.664 39.4639 112.097C39.2492 112.341 39.1134 112.676 38.9381 113.041C38.776 113.411 38.6096 113.864 38.6402 114.375C38.6753 114.895 38.9294 115.299 39.1134 115.64C39.3061 115.971 39.4069 116.316 39.4726 116.603C39.6084 117.192 39.5033 117.562 39.534 117.572C39.5602 117.591 39.7311 117.202 39.6303 116.564C39.5821 116.253 39.4901 115.878 39.293 115.518C39.1134 115.163 38.8943 114.788 38.8681 114.35C38.8374 113.912 38.982 113.494 39.1265 113.134C39.2842 112.774 39.4157 112.423 39.5778 112.209C39.753 112.005 39.9545 111.873 40.0816 111.796C40.2218 111.723 40.3006 111.718 40.3006 111.698Z" fill="#EB996E"/>
<path d="M102.65 67.781L108.788 89.5864L90.7255 110.55L74.1698 105.771L102.65 67.781Z" fill="#F5F5F5"/>
<path d="M102.651 67.781C102.651 67.781 102.602 67.8394 102.51 67.9611C102.414 68.0925 102.274 68.2725 102.094 68.5061C101.722 68.9976 101.179 69.7129 100.482 70.6375C99.0713 72.5061 97.0254 75.2165 94.4756 78.5937C89.3543 85.3966 82.2089 94.8905 74.0779 105.693L73.9639 105.844L74.1348 105.893C77.1402 106.759 80.2725 107.664 83.4663 108.589C85.924 109.299 88.3379 109.995 90.6905 110.672L90.7562 110.691L90.8 110.637C97.608 102.72 103.811 95.5134 108.85 89.6545L108.885 89.6107L108.867 89.5572C106.961 82.8759 105.406 77.4209 104.324 73.6253C103.785 71.7518 103.369 70.2871 103.08 69.2798C102.94 68.7932 102.83 68.4185 102.756 68.1557C102.69 67.9027 102.651 67.781 102.651 67.781C102.861 68.5401 105.025 76.3455 108.705 89.6156L108.727 89.5183C103.68 95.3625 97.4678 102.56 90.6467 110.462L90.7562 110.428C88.408 109.747 85.9897 109.051 83.532 108.341C80.3339 107.416 77.2059 106.516 74.1961 105.65L74.2531 105.849C82.3228 95.0462 89.4112 85.5523 94.4888 78.7494C97.0254 75.3431 99.0625 72.6083 100.469 70.7202C101.165 69.781 101.709 69.0511 102.081 68.5499C102.261 68.3066 102.401 68.1168 102.502 67.9805C102.602 67.854 102.651 67.781 102.651 67.781Z" fill="#263238"/>
<path d="M102.09 82.1655C101.231 80.5207 98.988 80.0292 97.6299 81.1922C96.4996 82.1606 95.9827 84 94.6246 84.4866C93.6432 84.837 92.5611 84.326 91.5447 84.5304C90.3575 84.7689 89.4725 85.9659 89.1264 87.2555C88.7803 88.5401 88.8767 89.9173 88.9731 91.2555L94.8524 91.3479L102.09 82.1655Z" fill="#9BC1F9"/>
<path d="M112.95 69.7713L74.884 113.343L90.397 111.596L112.096 86.1509L112.95 69.7713Z" fill="#F5F5F5"/>
<path d="M112.95 69.7713C112.915 70.4088 112.595 76.0146 112.021 86.146L112.043 86.0925C106.497 92.5839 98.9092 101.46 90.3181 111.513L90.3882 111.474C86.5549 111.908 82.5682 112.35 78.4895 112.813C77.2541 112.954 76.023 113.09 74.8752 113.221L74.9672 113.436C96.136 89.0998 112.109 70.7348 112.95 69.7713C112.109 70.7299 96.0616 89.0219 74.8007 113.26L74.5817 113.509L74.8927 113.474C76.0405 113.348 77.2672 113.207 78.507 113.066C82.5901 112.603 86.5724 112.156 90.4057 111.723L90.4452 111.718L90.4758 111.684C99.0494 101.606 106.615 92.7153 112.148 86.2093L112.166 86.1849V86.1557C112.652 76.0146 112.92 70.4088 112.95 69.7713Z" fill="#263238"/>
<path d="M98.0505 87.09C99.229 88.5937 99.0538 90.9927 98.0505 92.6423C97.0429 94.292 95.3913 95.3041 93.7178 96.0195C92.364 96.5985 90.6949 96.9635 89.5777 95.9416" fill="#9BC1F9"/>
<path d="M100.035 84.7202C99.965 85.0852 100.377 85.3528 100.71 85.3187C101.043 85.2847 101.349 85.0803 101.687 85.0608C102.602 85.0024 103.102 86.2092 103.847 86.7981C104.718 87.4842 106.09 87.1922 106.668 86.1898C107.167 85.3285 107.154 84.0535 107.943 83.5183C108.381 83.2214 108.933 83.2652 109.432 83.3674C109.932 83.4696 110.444 83.635 110.948 83.5426C111.452 83.455 111.956 83.017 111.956 82.4526L112.227 81.9805L112.88 69.9562L100.035 84.7202Z" fill="#9BC1F9"/>
<path d="M81.4817 112.462C80.6231 112.628 79.7994 112.141 79.668 111.182C79.5366 110.224 80.2156 109.221 81.0787 109.095C81.8541 108.983 82.6558 109.479 83.405 109.221C84.2549 108.929 84.6054 107.83 84.82 106.876C85.0347 105.917 85.3326 104.822 86.1562 104.453C87.5231 103.839 88.96 105.781 90.3795 105.353C91.4353 105.036 91.8427 103.625 92.6707 102.832C93.3322 102.195 94.3048 101.981 95.1372 102.292C95.9696 102.603 96.4559 103.124 96.6355 104.078L90.3532 111.44L81.4817 112.462Z" fill="#9BC1F9"/>
<path d="M91.8865 186.107L93.4505 196.122C93.4505 196.122 103.141 197.718 103.592 199.538L86.2175 203.606L83.2034 188.112L91.8865 186.107Z" fill="#CA0F2E"/>
<g opacity="0.6">
<path d="M87.9217 196.545C87.6062 196.725 87.4529 197.202 87.6019 197.557C87.7508 197.917 88.1845 198.092 88.5043 197.917C88.8241 197.742 89.0213 197.178 88.8373 196.842C88.6533 196.501 88.132 196.326 87.8603 196.584" fill="white"/>
</g>
<path opacity="0.6" d="M86.2175 203.606L85.9152 202.058L102.721 198.72C102.721 198.72 103.566 198.915 103.592 199.538L86.2175 203.606Z" fill="white"/>
<path d="M93.7133 195.961C93.7265 196.058 93.3103 196.2 92.951 196.599C92.583 196.988 92.4428 197.445 92.3596 197.431C92.2764 197.431 92.2983 196.837 92.7407 196.36C93.1832 195.878 93.7177 195.869 93.7133 195.961Z" fill="#263238"/>
<path d="M95.6935 196.37C95.7286 196.457 95.3912 196.701 95.1809 197.168C94.9575 197.625 94.9663 198.073 94.8787 198.092C94.7998 198.127 94.6377 197.586 94.9137 197.012C95.1853 196.438 95.676 196.282 95.6935 196.37Z" fill="#263238"/>
<path d="M97.1918 198.55C97.1174 198.589 96.9114 198.146 97.0297 197.577C97.148 197.007 97.5073 196.71 97.5598 196.783C97.6212 196.852 97.4153 197.187 97.3233 197.655C97.2225 198.122 97.2707 198.521 97.1918 198.55Z" fill="#263238"/>
<path d="M93.1306 193.723C93.1131 193.815 92.6969 193.776 92.2238 193.927C91.7462 194.063 91.4089 194.331 91.3476 194.263C91.2862 194.204 91.5842 193.771 92.1405 193.606C92.7013 193.431 93.1569 193.64 93.1306 193.723Z" fill="#263238"/>
<path opacity="0.3" d="M92.1931 188.092L92.4735 189.878L83.9219 191.791L83.6064 190.195L92.1931 188.092Z" fill="black"/>
<path d="M92.7802 191.708C92.789 191.747 92.4648 191.883 91.9084 191.908C91.6324 191.917 91.2995 191.893 90.9402 191.81C90.7606 191.766 90.5722 191.708 90.3838 191.63C90.2918 191.591 90.1867 191.557 90.0772 191.465C89.9633 191.387 89.8625 191.153 89.9414 190.973C90.0027 190.803 90.1473 190.706 90.2743 190.672C90.4014 190.637 90.5109 190.642 90.6116 190.647C90.8132 190.652 91.0103 190.681 91.1899 190.725C91.5536 190.813 91.8646 190.964 92.1012 191.124C92.5831 191.445 92.789 191.766 92.7627 191.791C92.732 191.83 92.4779 191.582 92.0048 191.333C91.7682 191.212 91.4747 191.095 91.1374 191.032C90.9709 190.998 90.7913 190.978 90.6073 190.978C90.4145 190.968 90.2568 191.002 90.2261 191.105C90.2174 191.144 90.2174 191.158 90.2656 191.207C90.3137 191.251 90.4014 191.29 90.489 191.328C90.6642 191.401 90.8351 191.465 91.0059 191.513C91.3389 191.611 91.6543 191.655 91.9172 191.674C92.4385 191.708 92.7715 191.655 92.7802 191.708Z" fill="#263238"/>
<path d="M92.6969 191.869C92.6706 191.888 92.4384 191.591 92.2895 190.988C92.2194 190.691 92.1756 190.316 92.2062 189.903C92.2238 189.698 92.2588 189.479 92.3158 189.265C92.3815 189.051 92.456 188.764 92.7801 188.647C92.951 188.599 93.1219 188.715 93.1963 188.832C93.2796 188.949 93.3102 189.061 93.3541 189.168C93.4285 189.387 93.468 189.606 93.4767 189.82C93.4986 190.243 93.4154 190.623 93.2927 190.905C93.0474 191.484 92.7144 191.679 92.7013 191.65C92.6619 191.611 92.9247 191.358 93.0956 190.818C93.1788 190.55 93.2314 190.209 93.2007 189.844C93.1832 189.659 93.1438 189.474 93.0781 189.29C93.0123 189.09 92.9116 188.939 92.8459 188.978C92.7582 188.998 92.64 189.187 92.6005 189.367C92.5436 189.562 92.5085 189.757 92.4822 189.942C92.4384 190.316 92.456 190.662 92.4954 190.944C92.583 191.513 92.7407 191.844 92.6969 191.869Z" fill="#263238"/>
<path d="M34.7937 186.72L38.5525 181.27L38.7497 180.988L45.1503 186.277L39.2184 193.509L39.4331 200.827C42.7363 201.776 43.2314 203.606 43.2314 203.606L36.3708 203.596L30.1367 190.258L34.7937 186.72Z" fill="#CA0F2E"/>
<path opacity="0.6" d="M30.1411 190.263L36.3709 203.601L43.2358 203.606L42.4604 202.462L36.8834 202.112L31.1312 189.509L30.1411 190.263Z" fill="white"/>
<path d="M39.3937 197.474C39.3411 197.552 38.9469 197.304 38.4168 197.319C37.8867 197.319 37.4968 197.582 37.4442 197.504C37.3785 197.445 37.7684 196.988 38.4124 196.983C39.0608 196.968 39.4594 197.411 39.3937 197.474Z" fill="#263238"/>
<path d="M39.2842 195.659C39.2141 195.713 38.9118 195.265 38.3642 195.144C37.8165 195.017 37.3785 195.304 37.3346 195.221C37.3127 195.187 37.3916 195.061 37.5843 194.944C37.7727 194.827 38.0838 194.74 38.4255 194.813C38.7628 194.891 39.0213 195.105 39.1571 195.294C39.2929 195.484 39.3192 195.635 39.2842 195.659Z" fill="#263238"/>
<path d="M39.3323 193.324C39.2578 193.367 39.0256 192.925 38.5437 192.74C38.0662 192.55 37.6369 192.73 37.6018 192.642C37.5843 192.603 37.6719 192.496 37.8603 192.419C38.0487 192.341 38.3422 192.307 38.6445 192.423C38.9468 192.54 39.157 192.774 39.2578 192.968C39.3586 193.163 39.3673 193.309 39.3323 193.324Z" fill="#263238"/>
<path d="M41.168 191.518C41.0848 191.552 40.892 191.114 40.4671 190.808C40.0509 190.487 39.6128 190.457 39.6084 190.36C39.5865 190.273 40.1166 190.141 40.6335 190.53C41.1549 190.915 41.2513 191.509 41.168 191.518Z" fill="#263238"/>
<path d="M42.0661 189.956C42.031 189.981 41.8032 189.674 41.4659 189.158C41.2731 188.856 41.0847 188.555 40.8876 188.243C40.7868 188.063 40.651 187.908 40.5678 187.625C40.5327 187.484 40.5327 187.314 40.6116 187.163C40.6817 187.002 40.8745 186.9 41.0278 186.925C41.3257 186.973 41.4922 187.144 41.6674 187.294C41.8339 187.455 41.9741 187.635 42.0836 187.825C42.3027 188.2 42.4078 188.594 42.4428 188.925C42.5086 189.601 42.3114 189.981 42.2851 189.966C42.2326 189.951 42.3465 189.562 42.2326 188.964C42.1756 188.667 42.0617 188.321 41.8558 188C41.7506 187.839 41.628 187.684 41.479 187.547C41.3345 187.416 41.1461 187.275 41.0059 187.26C40.9402 187.255 40.9051 187.275 40.8745 187.328C40.8438 187.387 40.835 187.465 40.8569 187.543C40.892 187.703 41.0278 187.893 41.1198 188.073C41.2994 188.399 41.4747 188.715 41.6455 189.032C41.939 189.577 42.1011 189.927 42.0661 189.956Z" fill="#263238"/>
<path d="M42.3114 190.18C42.2807 190.175 42.307 189.776 42.6794 189.319C43.043 188.886 43.8359 188.423 44.7121 188.91C44.7735 188.968 44.826 189.08 44.8173 189.182C44.8129 189.29 44.7735 189.367 44.734 189.426C44.6508 189.543 44.5632 189.601 44.4887 189.664C44.331 189.786 44.1645 189.888 44.0024 189.971C43.6782 190.136 43.3628 190.219 43.0999 190.248C42.5655 190.311 42.2457 190.195 42.25 190.161C42.2544 190.107 42.5742 190.131 43.0649 190.015C43.3058 189.956 43.5906 189.854 43.8798 189.689C44.0243 189.606 44.1689 189.509 44.3135 189.392C44.3836 189.333 44.458 189.275 44.4931 189.221C44.5281 189.153 44.5194 189.173 44.5062 189.153C44.4843 189.124 44.3923 189.095 44.3091 189.071C44.2258 189.046 44.1382 189.032 44.055 189.027C43.8841 189.012 43.722 189.027 43.5687 189.066C43.262 189.139 43.0123 189.304 42.8283 189.484C42.4603 189.849 42.3552 190.204 42.3114 190.18Z" fill="#263238"/>
<path opacity="0.6" d="M35.6129 190.034C35.6129 190.535 35.2493 190.939 34.7981 190.939C34.3468 190.939 33.9832 190.535 33.9832 190.034C33.9832 189.533 34.3468 189.129 34.7981 189.129C35.2493 189.134 35.6129 189.538 35.6129 190.034Z" fill="white"/>
<path opacity="0.3" d="M44.55 187.002L43.2358 188.608L37.6938 182.511L38.4649 181.397L44.55 187.002Z" fill="black"/>
<path d="M61.6096 60.0876C57.9778 58.6764 53.9736 58.4769 50.241 59.5134C48.5718 59.9757 46.8764 60.7494 45.8031 62.2433C44.537 64.0146 44.3792 66.4282 44.1821 68.6813C43.7878 73.2603 43.0255 77.8005 41.9128 82.2336C40.984 85.9222 39.8099 89.5523 39.3061 93.3431C38.8067 97.1338 39.0345 101.187 40.7737 104.496C43.4549 109.596 49.1545 111.849 54.4686 111.951C57.2681 112.005 60.1288 111.547 62.6085 110.112C65.0881 108.672 67.1515 106.156 67.7561 103.119" fill="#CA0F2E"/>
<g opacity="0.5">
<path d="M61.6096 60.0876C57.9778 58.6764 53.9736 58.4769 50.241 59.5134C48.5718 59.9757 46.8764 60.7494 45.8031 62.2433C44.537 64.0146 44.3792 66.4282 44.1821 68.6813C43.7878 73.2603 43.0255 77.8005 41.9128 82.2336C40.984 85.9222 39.8099 89.5523 39.3061 93.3431C38.8067 97.1338 39.0345 101.187 40.7737 104.496C43.4549 109.596 49.1545 111.849 54.4686 111.951C57.2681 112.005 60.1288 111.547 62.6085 110.112C65.0881 108.672 67.1515 106.156 67.7561 103.119" fill="black"/>
</g>
<path d="M54.3065 64.7591C54.3415 64.8029 53.5705 65.3382 52.7863 66.6521C52.3876 67.3041 51.9977 68.1314 51.599 69.0803C51.196 70.0243 50.7798 71.09 50.184 72.1265C49.5882 73.1582 48.8346 74.0341 47.9891 74.5693C47.148 75.1192 46.2192 75.2506 45.5007 75.1095C44.7735 74.9781 44.239 74.6229 43.9455 74.3163C43.7921 74.1655 43.6958 74.0243 43.6388 73.927C43.5819 73.8297 43.5556 73.7713 43.5599 73.7664C43.5819 73.747 43.7089 73.9513 44.0156 74.2238C44.3179 74.4915 44.8348 74.7981 45.527 74.8905C46.2148 74.9927 47.0647 74.8516 47.8577 74.3212C48.6506 73.8054 49.3691 72.9635 49.9474 71.9611C50.5257 70.9538 50.9463 69.8978 51.3625 68.9586C51.7743 68.0146 52.1905 67.1776 52.6198 66.5304C53.0447 65.8783 53.4653 65.4209 53.7807 65.1387C54.0962 64.8565 54.2977 64.7445 54.3065 64.7591Z" fill="#9BC1F9"/>
<path d="M46.6048 110.341C46.596 110.341 46.5917 110.209 46.5917 109.961C46.596 109.679 46.6004 109.319 46.6092 108.871C46.6267 107.922 46.6749 106.555 46.7406 104.861C46.872 101.479 47.113 96.8078 47.4766 91.6545C47.8402 86.5012 48.2608 81.8443 48.6069 78.4818C48.7778 76.7981 48.9267 75.4404 49.0406 74.5012C49.0976 74.0584 49.1414 73.7032 49.1764 73.4209C49.2115 73.1728 49.2334 73.0462 49.2421 73.0462C49.2509 73.0462 49.2465 73.1776 49.2334 73.4258C49.2115 73.708 49.1852 74.0681 49.1502 74.511C49.0669 75.4939 48.9486 76.8467 48.8041 78.5012C48.5105 81.8686 48.1206 86.5256 47.757 91.674C47.3934 96.8224 47.1218 101.489 46.9378 104.866C46.8458 106.526 46.7713 107.883 46.7187 108.866C46.688 109.314 46.6661 109.674 46.6486 109.956C46.6311 110.209 46.6179 110.341 46.6048 110.341Z" fill="#9BC1F9"/>
<path d="M47.7001 89.6496C47.6957 89.7324 46.0178 89.7129 43.9719 89.4258C41.9216 89.1436 40.2919 88.7105 40.305 88.6326C40.3225 88.545 41.9654 88.837 44.0069 89.1144C46.0441 89.4015 47.7044 89.562 47.7001 89.6496Z" fill="#9BC1F9"/>
<path d="M46.3419 89.6058C46.377 89.5961 46.4865 89.9319 46.5697 90.4915C46.6135 90.7737 46.6486 91.1095 46.6617 91.4891C46.6661 91.6788 46.6617 91.9027 46.5697 92.1265C46.4777 92.3552 46.2631 92.545 46.0002 92.5499C45.8688 92.5547 45.7242 92.4818 45.641 92.365C45.5533 92.2482 45.5227 92.1119 45.5139 91.9951C45.4964 91.7518 45.5533 91.5523 45.5928 91.3723C45.676 91.0024 45.7855 90.6813 45.8907 90.4234C46.1054 89.9027 46.3069 89.6253 46.3375 89.6448C46.3726 89.6691 46.2368 89.9805 46.0791 90.5061C46.0002 90.7689 45.9126 91.0852 45.8469 91.4404C45.8162 91.6204 45.7768 91.8054 45.7899 91.9708C45.8031 92.1363 45.8819 92.2384 46.0002 92.2384C46.2981 92.2287 46.4164 91.8443 46.4033 91.4939C46.4033 91.129 46.3901 90.7981 46.377 90.5207C46.3419 89.9611 46.3025 89.6156 46.3419 89.6058Z" fill="#9BC1F9"/>
<path d="M65.2239 61.8589L47.6256 59.5767C45.3212 59.2798 43.6696 56.9586 43.9368 54.399L44.318 50.7737C44.5852 48.2141 46.6749 46.3796 48.9793 46.6764L66.5777 48.9586C68.8821 49.2555 70.5337 51.5767 70.2664 54.1363L69.8853 57.7616C69.6181 60.3212 67.5283 62.1557 65.2239 61.8589Z" fill="#455A64"/>
<path d="M49.2728 46.983C49.2684 46.9732 49.3254 46.944 49.4393 46.9002C49.5532 46.8613 49.7284 46.8224 49.9562 46.8127C50.4075 46.7981 51.0996 46.9538 51.7568 47.5085C52.3964 48.0438 53.1412 48.8078 53.5705 49.927C54.0174 51.0268 54.1619 52.3747 54.0699 53.7372C53.9998 55.1192 53.5486 56.4039 52.8871 57.3577C52.2256 58.3163 51.3625 58.9197 50.5871 59.1971C49.8116 59.4842 49.1326 59.4939 48.6857 59.4307C48.4623 59.4015 48.2871 59.3528 48.1775 59.3187C48.0636 59.2798 48.0067 59.2555 48.0067 59.2457C48.0111 59.2166 48.252 59.2847 48.6945 59.3139C49.1326 59.3431 49.781 59.2944 50.517 58.9927C51.253 58.7007 52.0591 58.1119 52.6768 57.1874C53.2989 56.2725 53.7151 55.0511 53.7852 53.7226C53.8772 52.3893 53.7414 51.1046 53.3296 50.0487C52.9397 48.983 52.2431 48.2336 51.6341 47.6934C51.0208 47.1436 50.3812 46.9684 49.9518 46.944C49.5181 46.9149 49.2816 47.0122 49.2728 46.983Z" fill="#263238"/>
<path d="M59.3316 47.9708L56.6198 47.674C57.3426 47.8978 57.9516 48.4672 58.359 49.163C58.7665 49.8589 58.9899 50.6715 59.1038 51.4939C59.5901 54.9587 57.9297 58.691 55.2617 60.5645L57.4434 60.8857C57.4478 60.8905 63.7126 54.6715 59.3316 47.9708Z" fill="#263238"/>
<path d="M62.4113 54.3504C61.0181 54.7786 59.4497 54.4331 58.3107 53.4453C57.1716 52.4574 56.4838 50.8565 56.5188 49.2506C56.5495 47.7518 57.1585 46.2239 56.7423 44.8029C56.4531 43.8248 55.7171 43.0608 55.4674 42.073C55.0994 40.5937 55.9055 39.0949 56.6722 37.82C57.1672 37.0024 57.671 36.1703 58.3589 35.5475C59.0467 34.9246 59.9579 34.5304 60.8253 34.7397" fill="#263238"/>
<path d="M74.8489 34.8613C74.7744 35.9903 75.4447 37.0024 76.1238 37.8492C76.8028 38.6959 77.5563 39.5815 77.7009 40.7056C77.9594 42.6959 76.207 44.5402 76.5706 46.511C76.7634 47.5669 77.5432 48.4136 77.679 49.4793C77.8148 50.511 77.3154 51.5183 76.6977 52.3066C76.0799 53.09 75.3308 53.747 74.7832 54.5937C74.2093 55.4891 73.8938 56.545 73.482 57.5426C73.0702 58.5402 72.5138 59.528 71.6464 60.0535C70.3409 60.8419 68.5096 60.472 67.5108 61.6886C66.5426 62.8662 65.3553 63.0511 64.1637 63.9416" fill="#263238"/>
<path d="M59.2001 36.5937C59.1738 35.5669 60.0281 34.7737 60.8867 34.399C61.7454 34.0243 62.7005 33.8832 63.4671 33.309C64.1462 32.8029 64.6018 32.0097 65.1757 31.3625C66.5864 29.7762 68.7856 29.1192 70.722 29.7032C72.6584 30.292 74.2531 32.0973 74.7394 34.2579C75.0679 35.7178 74.8445 37.4453 73.8062 38.4185C72.6015 39.5475 70.8184 39.2944 69.2763 38.944C67.7342 38.5937 65.9906 38.2482 64.7026 39.2555C63.9271 39.8638 63.4803 40.8467 63.0071 41.7616C62.534 42.6764 61.9382 43.6059 61.0401 43.9513C60.142 44.2968 58.9241 43.7032 58.889 42.6472" fill="#263238"/>
<path d="M62.8406 36.8029C62.0433 36.9002 61.4431 37.6545 61.4606 38.545L62.3806 61.7275C62.4201 64.4672 66.0212 66.0049 68.6629 65.9368C71.3266 65.8686 71.4142 64.4185 71.4493 61.8102C71.5062 57.4599 71.5018 55.8248 71.5018 55.8492C71.5018 55.8492 74.8664 55.2214 75.5542 50.3358C75.8959 47.9076 75.7776 43.927 75.5893 40.6764C75.4184 37.747 73.6616 34.1606 71.0374 34.4769L62.8406 36.8029Z" fill="#FFBE9D"/>
<path d="M74.7569 43.4696C74.7701 43.8005 74.5248 44.0827 74.2137 44.1022C73.9027 44.1217 73.6442 43.8686 73.631 43.5377C73.6179 43.2068 73.8632 42.9246 74.1743 42.9051C74.4853 42.8857 74.7438 43.1387 74.7569 43.4696Z" fill="#263238"/>
<path d="M74.8139 42.7543C74.7438 42.837 74.3144 42.4866 73.7099 42.4915C73.1053 42.4866 72.6584 42.8321 72.5927 42.7494C72.562 42.7153 72.6321 42.5645 72.8249 42.4088C73.0133 42.253 73.3419 42.0973 73.7186 42.1022C74.0954 42.1022 74.4152 42.2579 74.5992 42.4136C74.7876 42.5693 74.8489 42.7153 74.8139 42.7543Z" fill="#263238"/>
<path d="M68.7198 43.6448C68.733 43.9757 68.4876 44.2579 68.1766 44.2774C67.8655 44.2969 67.6071 44.0438 67.5939 43.7129C67.5808 43.382 67.8261 43.0998 68.1372 43.0803C68.4482 43.0608 68.7067 43.3139 68.7198 43.6448Z" fill="#263238"/>
<path d="M68.8557 42.8954C68.7856 42.9781 68.3563 42.6278 67.7517 42.6326C67.1471 42.6278 66.7003 42.9732 66.6345 42.8905C66.6039 42.8565 66.674 42.7056 66.8667 42.5499C67.0551 42.3942 67.3837 42.2385 67.7605 42.2433C68.1372 42.2433 68.457 42.399 68.641 42.5548C68.825 42.7105 68.8907 42.8565 68.8557 42.8954Z" fill="#263238"/>
<path d="M71.0681 47.8832C71.0637 47.8443 71.4405 47.7713 72.0538 47.6837C72.2072 47.6642 72.3561 47.6302 72.3824 47.5134C72.4174 47.3869 72.3517 47.202 72.2772 47.0024C72.1327 46.5888 71.9793 46.1509 71.8172 45.6934C71.1776 43.8297 70.7132 42.2968 70.7833 42.2725C70.849 42.2433 71.423 43.7324 72.0626 45.5961C72.2159 46.0535 72.3649 46.4915 72.5051 46.9149C72.562 47.1095 72.6672 47.3333 72.5883 47.5913C72.5489 47.7178 72.435 47.8151 72.3342 47.8443C72.2334 47.8784 72.1458 47.8784 72.0713 47.8832C71.4492 47.9173 71.0681 47.9222 71.0681 47.8832Z" fill="#263238"/>
<path d="M71.5018 55.854C71.5018 55.854 68.5447 56.073 65.6138 54.1265C65.6138 54.1265 67.0464 57.4745 71.4449 57.0073L71.5018 55.854Z" fill="#EB996E"/>
<path d="M70.8141 49.5085C70.595 49.1874 70.2139 49.0122 69.8327 49.0608C69.5699 49.0949 69.3026 49.236 69.1449 49.4745C68.9872 49.7129 68.9522 50.0487 69.0967 50.2774C69.2588 50.5304 69.6049 50.5888 69.8941 50.4964C70.1832 50.4039 70.4329 50.1898 70.6695 49.9805C70.7352 49.9221 70.8009 49.8589 70.8404 49.781C70.8798 49.7032 70.8885 49.5961 70.8404 49.528" fill="#EB996E"/>
<path d="M69.2807 48.3552C69.3814 48.3504 69.3815 49.0803 69.9466 49.5961C70.5117 50.1168 71.2127 50.0292 71.2171 50.1314C71.2258 50.1752 71.0594 50.2725 70.7658 50.2823C70.4767 50.292 70.0517 50.1898 69.7056 49.8735C69.3595 49.5572 69.2106 49.1338 69.1887 48.8321C69.1624 48.5304 69.2369 48.3504 69.2807 48.3552Z" fill="#263238"/>
<path d="M69.1273 41.7129C69.0659 41.8978 68.4614 41.8102 67.7517 41.9075C67.0376 41.9903 66.4637 42.219 66.3717 42.0584C66.3279 41.9805 66.4286 41.8054 66.6608 41.6302C66.8886 41.455 67.2566 41.2847 67.686 41.2312C68.1109 41.1776 68.5052 41.2506 68.7637 41.3674C69.0178 41.4842 69.1492 41.6253 69.1273 41.7129Z" fill="#263238"/>
<path d="M74.5904 40.8029C74.4852 40.9538 74.0647 40.7981 73.5652 40.7932C73.0614 40.7689 72.6365 40.9002 72.5401 40.7397C72.4963 40.6618 72.562 40.511 72.7504 40.365C72.9344 40.219 73.241 40.1022 73.5828 40.1119C73.9289 40.1217 74.2268 40.2628 74.402 40.4185C74.5772 40.5742 74.6342 40.7299 74.5904 40.8029Z" fill="#263238"/>
<path d="M59.774 52.8613C60.9831 53.1338 62.2974 52.7202 63.1999 51.7859C64.1023 50.8516 64.5711 49.4258 64.4134 48.0681C64.2776 46.871 63.6949 45.6496 64.0673 44.5158C64.5624 43.017 66.4549 42.5547 66.9587 41.056C67.2523 40.1849 66.9894 39.1679 67.318 38.3163C67.629 37.5134 68.3869 37.0511 69.1273 36.7543C69.8677 36.4574 70.6607 36.253 71.2784 35.7178C71.9005 35.1825 72.286 34.1703 71.8873 33.4209C68.6104 33.8589 65.3772 34.7299 62.2842 36.0097C61.5658 36.3066 60.8122 36.6667 60.3917 37.3723C59.9448 38.1217 59.9667 39.09 60.0018 39.9903C60.1858 44.3747 60.3698 48.7543 60.5538 53.1387" fill="#263238"/>
<path d="M57.4038 56.9148C57.4389 56.9197 57.3468 56.4428 57.6316 55.6983C57.7718 55.3285 58.0215 54.9148 58.3807 54.5109C58.74 54.1022 59.2263 53.7324 59.8002 53.3917C60.3741 53.0462 61.0312 52.7299 61.7103 52.3017C62.3806 51.8735 63.0728 51.2847 63.5284 50.4234C63.7562 49.9951 63.8964 49.4842 63.8964 48.9586C63.9008 48.4331 63.7913 47.9221 63.6993 47.4112C63.6073 46.9051 63.5153 46.3796 63.6073 45.8783C63.6861 45.3723 64.0015 44.9538 64.4177 44.691C64.8339 44.4185 65.3071 44.2482 65.7539 44.0146C66.1964 43.7859 66.6476 43.455 66.8886 42.9586C67.1339 42.472 67.1996 41.9221 67.2172 41.4161C67.2347 40.9051 67.204 40.4088 67.2084 39.9367C67.2128 39.4647 67.2478 39.0024 67.3836 38.5888C67.5151 38.1801 67.7473 37.8297 68.0496 37.5864C68.6541 37.09 69.3682 36.9197 69.9991 36.7397C70.6343 36.5645 71.217 36.3552 71.6551 36.0097C72.102 35.6691 72.3429 35.1971 72.4437 34.7981C72.5488 34.3942 72.4962 34.0535 72.4305 33.854C72.356 33.6496 72.2772 33.5718 72.2772 33.5718C72.264 33.5815 72.3254 33.674 72.3867 33.8735C72.4393 34.073 72.4699 34.3942 72.3604 34.7737C72.2509 35.1484 72.01 35.5864 71.585 35.8929C71.16 36.2092 70.5949 36.4039 69.9597 36.5645C69.3288 36.7348 68.5928 36.8954 67.9356 37.4161C67.6071 37.674 67.3398 38.0584 67.1953 38.5061C67.0463 38.9538 67.0069 39.4404 66.9981 39.927C66.9894 40.4136 67.0156 40.9051 66.9981 41.4015C66.9806 41.8929 66.9105 42.399 66.6914 42.8273C66.4768 43.2652 66.0825 43.5572 65.6532 43.781C65.2194 44.0097 64.7463 44.1752 64.2951 44.4672C64.0716 44.6131 63.8613 44.7981 63.6993 45.0316C63.5328 45.2603 63.432 45.5426 63.3794 45.82C63.2787 46.3893 63.3838 46.9392 63.4758 47.4501C63.5722 47.9659 63.6773 48.4623 63.673 48.9489C63.673 49.4307 63.5503 49.8978 63.34 50.3017C62.9194 51.1144 62.2579 51.6886 61.6095 52.1168C60.9524 52.545 60.2952 52.871 59.717 53.2311C59.1387 53.5815 58.6436 53.9757 58.2844 54.4088C57.9207 54.837 57.6754 55.2749 57.544 55.6594C57.4082 56.0438 57.3731 56.3698 57.3731 56.5839C57.3688 56.691 57.3819 56.7737 57.3863 56.8272C57.395 56.8905 57.3994 56.9148 57.4038 56.9148Z" fill="#263238"/>
<path d="M70.2094 60.2628C70.2094 60.2725 70.2795 60.2969 70.4241 60.3358C70.4942 60.3601 70.5862 60.3747 70.6957 60.3893C70.8052 60.4088 70.9279 60.4185 71.0681 60.4185C71.6289 60.4331 72.4788 60.2677 73.3287 59.6302C73.7449 59.309 74.1654 58.8759 74.4677 58.292C74.7832 57.7129 74.9365 57.0073 75.0548 56.2871C75.1774 55.5669 75.2782 54.7981 75.6243 54.1314C75.966 53.4599 76.6057 53.0073 77.1752 52.4331C77.771 51.8686 78.1521 51.0511 78.2529 50.2336C78.358 49.4161 78.1959 48.5888 77.8455 47.9416C77.5081 47.2944 77.1095 46.7591 76.9255 46.1509C76.7371 45.5523 76.702 44.9441 76.7371 44.4039C76.8247 43.3139 77.1095 42.4623 77.2935 41.8784C77.4818 41.2944 77.5957 40.9733 77.5782 40.9684C77.5695 40.9635 77.5344 41.0414 77.4687 41.1874C77.4074 41.3333 77.3154 41.5523 77.2102 41.8443C77.0043 42.4185 76.6889 43.2652 76.575 44.3893C76.5268 44.9489 76.5487 45.5864 76.7415 46.2239C76.9298 46.8711 77.3373 47.4355 77.6571 48.0584C77.9813 48.6764 78.1258 49.4355 78.0251 50.1995C77.9243 50.9635 77.5826 51.708 77.0175 52.2482C76.4698 52.8029 75.8039 53.2701 75.4272 54.0097C75.0548 54.7397 74.9628 55.5329 74.8445 56.2482C74.735 56.9684 74.5948 57.6399 74.3012 58.1898C74.0209 58.7445 73.6266 59.1679 73.2323 59.4891C72.4306 60.1217 71.6113 60.3115 71.0637 60.326C70.5161 60.3358 70.2138 60.2336 70.2094 60.2628Z" fill="#263238"/>
<path d="M57.4521 37.0024C57.4521 37.0024 57.3995 37.0608 57.3776 37.202C57.3513 37.3431 57.3864 37.5766 57.5485 37.7908C57.7018 38 57.9734 38.2093 58.3326 38.2336C58.6919 38.2433 59.0687 38.0681 59.4454 37.8638C59.8222 37.6545 60.2384 37.4647 60.729 37.4453C61.2109 37.4112 61.7323 37.4939 62.2799 37.601C62.8275 37.708 63.4102 37.8443 64.0323 37.854C64.65 37.8638 65.3466 37.6594 65.8329 37.1241C66.3279 36.6034 66.6083 35.9465 66.8668 35.3382C67.1252 34.7299 67.3706 34.1411 67.7035 33.6642C68.3519 32.6813 69.4603 32.4088 70.2401 32.6375C71.0418 32.8613 71.5281 33.4696 71.7691 33.893C72.0144 34.3309 72.067 34.6229 72.0933 34.618C72.102 34.618 72.0933 34.545 72.0582 34.4088C72.0232 34.2725 71.9618 34.0779 71.8479 33.8443C71.6201 33.3917 71.1382 32.7299 70.2839 32.4623C69.8634 32.3358 69.3639 32.326 68.8733 32.4915C68.3782 32.6472 67.8963 33.0122 67.5414 33.5183C67.1822 34.0195 66.9281 34.6229 66.6652 35.2311C66.4024 35.8346 66.1264 36.4672 65.6752 36.9392C65.2327 37.4209 64.615 37.6058 64.0323 37.6058C63.4409 37.6058 62.867 37.4745 62.3149 37.3723C61.7629 37.2701 61.2241 37.1922 60.7159 37.236C60.2033 37.2652 59.7433 37.4842 59.3753 37.7032C59.0029 37.9173 58.6525 38.0876 58.337 38.0925C58.0216 38.0876 57.7631 37.9075 57.6142 37.7275C57.4608 37.5426 57.4126 37.3431 57.4214 37.2117C57.4302 37.0754 57.4652 37.0073 57.4521 37.0024Z" fill="#455A64"/>
<path d="M59.9098 35.601C61.3424 35.2312 62.4464 33.6545 62.4069 32.0195C62.3719 30.3844 61.2022 28.8711 59.7521 28.5791C59.0511 28.438 58.245 28.6131 57.8244 29.2506C57.4214 29.8589 57.4477 30.7689 56.9351 31.2652C56.3875 31.7956 55.542 31.5669 54.8322 31.7372C53.7282 32 52.9922 33.3431 53.1193 34.5888C53.2463 35.8346 54.105 36.8954 55.1477 37.3723C56.1903 37.8492 57.382 37.7956 58.4684 37.4453C59.5505 37.0949 60.545 36.4672 61.5001 35.8102" fill="#263238"/>
<path d="M54.6307 32.073C54.6088 32.0827 54.6789 32.4477 54.9549 32.9684C55.2222 33.4891 55.7216 34.1363 56.4269 34.6277C57.1323 35.1144 57.877 35.3285 58.4159 35.3674C58.9548 35.4112 59.2833 35.3187 59.2833 35.2944C59.2789 35.2506 58.9504 35.2749 58.4378 35.1874C57.9252 35.1046 57.2243 34.8759 56.5496 34.4136C55.8793 33.9465 55.3843 33.3479 55.0907 32.8711C54.7928 32.3942 54.6658 32.0535 54.6307 32.073Z" fill="#455A64"/>
<path d="M56.957 37.4696C57.0139 37.5231 57.6842 36.2774 59.038 35.4307C60.3785 34.5596 61.6841 34.545 61.6709 34.4623C61.6709 34.4331 61.3511 34.3942 60.8342 34.472C60.3216 34.5499 59.6163 34.7689 58.9241 35.2117C58.2319 35.6545 57.7061 36.219 57.3863 36.6715C57.0665 37.1241 56.9351 37.455 56.957 37.4696Z" fill="#CA0F2E"/>
<path d="M88.8768 90.4672L95.9608 88.9343L94.6816 90.9538L97.7264 92.6423L100.267 91.3236C100.267 91.3236 100.083 91.9416 99.5269 92.9732C98.9706 94.0049 98.2302 94.8273 97.7483 94.8711C97.0254 94.9343 96.8984 94.944 97.7483 94.8711C97.7483 94.8711 97.5949 95.8297 96.8064 96.7591C96.3376 97.3139 95.1065 98.1898 93.6039 97.7421L88.833 95.8297L88.8768 90.4672Z" fill="#FFBE9D"/>
<path d="M96.0397 94.4185C95.9959 94.4623 96.3902 94.8711 97.0167 94.9489C97.6475 95.0316 98.1119 94.7348 98.0769 94.6813C98.055 94.6131 97.5994 94.7786 97.043 94.7007C96.4866 94.6326 96.0792 94.3601 96.0397 94.4185Z" fill="#EB996E"/>
<path d="M95.1153 96.1022C95.0715 96.146 95.3738 96.5304 95.9039 96.6813C96.4296 96.837 96.8633 96.6667 96.8458 96.6034C96.8327 96.5304 96.4296 96.5742 95.9608 96.4331C95.4921 96.3017 95.1591 96.0438 95.1153 96.1022Z" fill="#EB996E"/>
<path d="M93.3191 90.1411C93.3059 90.1801 93.56 90.292 93.9368 90.5402C94.3179 90.7835 94.8042 91.1825 95.3694 91.6059C95.9301 92.0341 96.4996 92.3504 96.9377 92.4769C97.3802 92.6083 97.665 92.5791 97.665 92.5499C97.6694 92.511 97.3934 92.4769 96.9859 92.3066C96.5785 92.1411 96.0484 91.8151 95.492 91.3966C94.9356 90.9733 94.4187 90.5888 94.0069 90.3796C93.6038 90.1655 93.3278 90.1119 93.3191 90.1411Z" fill="#EB996E"/>
<path d="M50.2454 103.557C50.2454 103.557 50 103.728 49.3998 104.92C47.5467 108.594 46.7976 117.397 53.7896 125.255C62.8275 135.411 73.4032 152.019 73.4032 152.019L81.7095 191.027L94.2566 188.01L87.7903 147.465L70.0605 110.934L50.2454 103.557Z" fill="#263238"/>
<path d="M36.4016 179.056L55.7304 146.2L61.5965 117.835L76.5225 125.985L69.0354 154.774L45.1504 187.825L36.4016 179.056Z" fill="#263238"/>
<path d="M81.7051 191.027C81.7095 191.027 81.7007 190.959 81.6744 190.832C81.6481 190.696 81.6131 190.511 81.5649 190.273C81.4641 189.766 81.3152 189.051 81.1312 188.127C80.7413 186.253 80.1805 183.567 79.4927 180.253C78.082 173.596 76.1413 164.423 73.999 154.292C73.8325 153.504 73.6616 152.72 73.5083 151.985L73.5039 151.956L73.4908 151.937C68.0102 144.156 63.0246 137.27 59.349 132.38C57.509 129.937 56.0107 127.985 54.9418 126.667C54.416 126 53.9911 125.504 53.7063 125.158C53.5705 124.998 53.461 124.871 53.3778 124.774C53.3033 124.686 53.2638 124.647 53.2595 124.647C53.2551 124.652 53.2901 124.696 53.3602 124.788C53.4391 124.886 53.5398 125.022 53.6713 125.187C53.9429 125.543 54.3591 126.049 54.876 126.725C55.9187 128.063 57.4039 130.029 59.2263 132.487C62.8669 137.406 67.8306 144.307 73.3068 152.092L73.2849 152.044C73.4426 152.774 73.6091 153.557 73.7755 154.35C75.9441 164.477 77.9112 173.64 79.335 180.292C80.0535 183.601 80.6405 186.282 81.0436 188.151C81.2495 189.066 81.4072 189.781 81.5211 190.282C81.5737 190.516 81.6175 190.701 81.6525 190.837C81.6876 190.964 81.7051 191.027 81.7051 191.027Z" fill="#455A64"/>
<path d="M59.0379 113.932C59.0336 113.946 59.1387 114.019 59.3402 114.117C59.5418 114.219 59.8484 114.336 60.2383 114.438C61.0138 114.642 62.1528 114.72 63.3401 114.341C64.5229 113.956 65.4517 113.212 66.0037 112.574C66.2841 112.258 66.4812 111.971 66.6039 111.766C66.7266 111.562 66.7835 111.436 66.7704 111.431C66.7397 111.406 66.4637 111.859 65.8898 112.448C65.3203 113.037 64.4134 113.732 63.2743 114.097C62.1353 114.467 61.0313 114.419 60.269 114.263C59.5067 114.107 59.0555 113.888 59.0379 113.932Z" fill="#455A64"/>
<path d="M48.3834 105.217C55.9406 109.64 68.2161 112.282 72.137 110.487L72.2728 94.3115C72.2728 94.3115 77.6483 84.4623 77.6702 80.7397C77.7008 75.3723 71.6858 63.1387 71.6858 63.1387L62.6566 60.4818C60.5318 60.472 58.8145 61.0122 57.4301 61.8297C53.9516 63.8832 52.059 68.1947 52.4489 72.545L54.7227 88.6375L48.3834 105.217Z" fill="#CA0F2E"/>
<g opacity="0.3">
<path d="M58.0698 61.8102C57.544 61.7226 57.3513 62.6764 57.728 63.09C58.1048 63.5037 58.6919 63.528 59.2132 63.6205C61.5658 64.0292 63.3795 66.2677 64.2382 68.7299C65.0968 71.1971 65.1757 73.893 65.3159 76.5353C65.4561 79.1728 65.6883 81.8881 66.8054 84.2239C68.882 80.1314 69.2062 74.9976 67.6641 70.6229C66.122 66.2482 62.7399 62.7299 58.7138 61.2944" fill="black"/>
</g>
<path d="M57.4345 61.8248C57.4345 61.8248 58.7312 59.4453 63.0903 60.4769C66.0036 61.1679 72.3648 67.9513 70.5905 78.8613C68.8162 89.7713 64.0585 93.6302 64.0585 93.6302C64.0585 93.6302 68.4351 76.9343 66.0036 69.6497C63.5722 62.365 57.4345 61.8248 57.4345 61.8248Z" fill="#263238"/>
<g opacity="0.3">
<path d="M72.1107 97.7713C70.3101 98.4136 68.584 99.2166 66.709 99.4939C64.8339 99.7713 62.8756 99.6643 61.1364 98.8419C58.7312 97.7032 56.9438 95.2701 56.0238 92.5499C55.1038 89.8297 54.9768 86.8516 55.2221 83.9562C56.8693 86.2141 56.6678 89.5572 58.0653 92.0098C58.9415 93.5475 60.3653 94.5888 61.8286 95.4063C65.0092 97.1825 68.5446 97.8589 72.1107 97.7713Z" fill="black"/>
</g>
<path d="M66.6959 81.2409C66.6959 81.2409 67.283 93.5231 53.794 91.0803L52.4359 94.6326C52.4359 94.6326 66.6171 97.9611 68.6279 84.9149L66.6959 81.2409Z" fill="#263238"/>
<path d="M54.4029 65.9712C53.2244 67.8398 52.9177 70.2194 53.404 72.4335L56.7642 89.1391C58.2055 93.8398 62.3193 96.6914 64.8778 97.0758L88.8373 99.8787V89.9614L66.5951 86.2923L65.5524 72.7644C65.4604 70.9444 64.6543 67.6743 63.6117 66.268C62.4463 64.6914 60.6545 62.5503 57.728 63.0953C55.9318 63.4262 55.1739 64.7498 54.4029 65.9712Z" fill="#CA0F2E"/>
<path d="M53.7063 73.0803C53.6975 73.0803 53.7063 73.2117 53.7325 73.455C53.7544 73.7032 53.7982 74.0633 53.8508 74.5304C53.9647 75.4599 54.1444 76.8078 54.4072 78.4623C54.6701 80.1168 55.0205 82.0828 55.4674 84.2482C55.6952 85.3334 55.9318 86.4672 56.2253 87.6351C56.5188 88.803 56.8737 90.0049 57.3994 91.163C57.9207 92.3212 58.6042 93.3626 59.4234 94.1849C60.2383 95.0122 61.1451 95.6448 62.0608 96.1168C63.892 97.0706 65.7057 97.421 67.2084 97.601C68.7198 97.7713 69.9465 97.7811 70.792 97.7908C71.1995 97.7908 71.5237 97.7859 71.7646 97.7859C71.988 97.7811 72.1063 97.7762 72.1063 97.7665C72.1063 97.7567 71.988 97.747 71.769 97.7373C71.5236 97.7275 71.1995 97.7129 70.7964 97.6935C69.9509 97.6545 68.7286 97.6156 67.2303 97.421C65.7408 97.2214 63.949 96.8516 62.1528 95.9027C61.259 95.4356 60.3697 94.8078 59.5767 94C58.7794 93.1971 58.1135 92.1849 57.6053 91.0511C57.0927 89.9173 56.7379 88.73 56.4444 87.5718C56.1508 86.4137 55.9099 85.2798 55.6777 84.1995C55.2177 82.039 54.8541 80.0828 54.5737 78.4331C54.2889 76.7835 54.0874 75.4453 53.9472 74.5159C53.8815 74.073 53.8245 73.7178 53.7851 73.4502C53.7369 73.2068 53.715 73.0803 53.7063 73.0803Z" fill="#263238"/>
<path d="M65.9467 89.1387C66.008 89.1582 66.249 88.511 66.4855 87.6935C66.7221 86.8759 66.8667 86.1898 66.8097 86.1703C66.7484 86.1509 66.5075 86.7981 66.2709 87.6156C66.0343 88.4331 65.8897 89.1144 65.9467 89.1387Z" fill="#263238"/>
<path d="M64.5842 88.7591C64.6193 88.8127 65.2151 88.399 65.8065 87.7032C66.4023 87.0122 66.744 86.3261 66.6915 86.292C66.6389 86.2531 66.2183 86.8516 65.64 87.528C65.0661 88.2044 64.5448 88.7007 64.5842 88.7591Z" fill="#263238"/>
<path d="M86.752 89.6156C86.752 89.6107 86.7169 89.601 86.6512 89.5864C86.5723 89.5718 86.476 89.5523 86.3533 89.5231C86.0729 89.4696 85.6918 89.4015 85.2055 89.309C84.1847 89.1339 82.739 88.8808 80.9428 88.5694C77.311 87.9611 72.2772 87.1144 66.6126 86.1606L66.709 86.2725C66.6302 85.348 66.5469 84.3747 66.4593 83.3869C66.1702 79.8735 65.8679 76.5353 65.7189 73.4842C65.6094 71.9514 65.3465 70.511 64.9742 69.2117C64.6018 67.9124 64.1111 66.73 63.4058 65.8443C61.9863 64.1265 60.396 63.2166 59.2263 63.0511C58.6437 62.9538 58.1837 63.0219 57.8814 63.0754C57.7324 63.1144 57.6185 63.1484 57.544 63.1728C57.4695 63.1971 57.4301 63.2117 57.4301 63.2166C57.4301 63.2652 58.061 62.9489 59.2132 63.1484C60.3522 63.3382 61.9031 64.2579 63.2875 65.9611C63.9578 66.8224 64.4353 67.9903 64.7945 69.275C65.1538 70.5645 65.4079 71.9903 65.5086 73.5037C65.6444 76.5548 65.9424 79.9027 66.2315 83.4161C66.3191 84.4039 66.4024 85.382 66.4812 86.3017L66.49 86.3991L66.5776 86.4137C72.2509 87.3334 77.2847 88.1509 80.9209 88.7397C82.7171 89.0219 84.1716 89.2458 85.1923 89.4064C85.683 89.4793 86.0685 89.5329 86.3489 89.5767C86.4716 89.5913 86.5679 89.6059 86.6512 89.6156C86.7125 89.6205 86.7476 89.6205 86.752 89.6156Z" fill="#263238"/>
<path d="M73.0351 97.7129C73.0964 97.7178 73.3505 95.4696 73.6002 92.6861C73.8499 89.9027 74.0033 87.6399 73.9419 87.635C73.8806 87.6302 73.6265 89.8784 73.3768 92.6618C73.1271 95.4453 72.9737 97.7032 73.0351 97.7129Z" fill="#FAFAFA"/>
<path d="M55.4981 82.6278C55.4981 82.6618 56.0808 82.6716 57.0227 82.6521C57.9646 82.6375 59.2613 82.5937 60.6983 82.5353C62.1352 82.4769 63.432 82.4088 64.3695 82.3455C65.3071 82.2823 65.8897 82.2287 65.8854 82.1947C65.8854 82.1606 65.3027 82.1509 64.3608 82.1703C63.4189 82.1849 62.1221 82.2287 60.6895 82.2871C59.257 82.3455 57.9602 82.4136 57.0183 82.4769C56.0764 82.5353 55.4981 82.5937 55.4981 82.6278Z" fill="#FAFAFA"/>
<path d="M70.7045 79.4647C70.7045 79.4988 71.0813 79.5621 71.699 79.6107C72.3167 79.6594 73.1666 79.6934 74.1129 79.674C75.0548 79.6545 75.9091 79.5815 76.5224 79.5037C77.1358 79.4258 77.5125 79.3479 77.5081 79.3139C77.5038 79.2798 77.1226 79.2944 76.5093 79.3236C75.8959 79.3528 75.046 79.3966 74.1085 79.4161C73.171 79.4355 72.3211 79.4307 71.7077 79.4258C71.09 79.4258 70.7089 79.4307 70.7045 79.4647Z" fill="#FAFAFA"/>
<path d="M68.7286 67.9076C68.7637 67.9708 69.6837 67.4355 70.8753 66.9343C72.0669 66.4282 73.0789 66.1509 73.0614 66.0779C73.0527 66.0146 72.0056 66.1849 70.7921 66.6959C69.5786 67.2117 68.6936 67.854 68.7286 67.9076Z" fill="#FAFAFA"/>
<path d="M51.3274 98.2725C51.323 98.2822 51.3931 98.3163 51.5245 98.3796C51.6822 98.4526 51.8706 98.5402 52.1028 98.6423C52.6066 98.8711 53.3426 99.1728 54.2582 99.528C56.0895 100.238 58.6567 101.114 61.5438 101.849C64.4309 102.584 67.0857 103.037 69.0134 103.28C69.9772 103.401 70.757 103.484 71.3002 103.523C71.5499 103.538 71.7558 103.552 71.9223 103.562C72.0669 103.567 72.1414 103.567 72.1414 103.557C72.1414 103.547 72.0669 103.533 71.9267 103.509C71.7602 103.484 71.5543 103.455 71.309 103.421C70.7701 103.353 69.9947 103.246 69.0353 103.1C67.1164 102.813 64.4747 102.331 61.5964 101.601C58.7181 100.866 56.1508 100.024 54.3108 99.3577C53.3908 99.0268 52.646 98.7445 52.1378 98.5499C51.9013 98.4623 51.7041 98.3893 51.5464 98.3309C51.4019 98.2823 51.3274 98.2628 51.3274 98.2725Z" fill="#FAFAFA"/>
<path d="M52.7557 69.1679C52.7557 69.236 55.3404 69.202 58.5254 69.09C61.7104 68.9781 64.2864 68.8273 64.2864 68.7543C64.2864 68.6861 61.7016 68.7202 58.5166 68.8321C55.3317 68.9489 52.7513 69.0998 52.7557 69.1679Z" fill="#FAFAFA"/>
<path d="M83.6239 99.1582C83.6853 99.163 83.8123 96.9879 83.9043 94.3017C83.9963 91.6156 84.0226 89.4404 83.9569 89.4355C83.8956 89.4307 83.7685 91.6059 83.6765 94.292C83.5845 96.9733 83.5626 99.1533 83.6239 99.1582Z" fill="#FAFAFA"/>
<path d="M132.634 49.3917C128.761 48.5791 124.682 49.0511 121.042 50.7348C119.412 51.489 117.804 52.5547 116.924 54.2482C115.885 56.253 116.056 58.7299 116.166 61.0414C116.394 65.747 116.245 70.472 115.723 75.1484C115.29 79.0413 114.597 82.9148 114.606 86.837C114.619 90.7591 115.408 94.8272 117.62 97.8832C121.033 102.594 127.114 103.912 132.507 103.114C135.346 102.696 138.18 101.747 140.498 99.8735C142.811 98 144.554 95.0997 144.752 91.927" fill="#455A64"/>
<path d="M125.883 55.3577C125.922 55.3966 125.221 56.0681 124.604 57.5328C124.293 58.2579 124.008 59.163 123.736 60.1946C123.456 61.2165 123.184 62.3698 122.724 63.5182C122.264 64.6667 121.62 65.6788 120.836 66.3601C120.06 67.0559 119.14 67.3479 118.391 67.3285C117.638 67.3187 117.046 67.0511 116.709 66.7883C116.534 66.6618 116.416 66.5353 116.345 66.4477C116.271 66.3552 116.236 66.3066 116.245 66.2968C116.262 66.2725 116.42 66.4623 116.77 66.6812C117.112 66.9051 117.677 67.1241 118.391 67.1046C119.101 67.0949 119.947 66.8029 120.669 66.1314C121.401 65.4744 122.014 64.5012 122.461 63.3868C122.908 62.2676 123.189 61.1338 123.482 60.107C123.767 59.0803 124.078 58.1606 124.42 57.4355C124.757 56.7056 125.121 56.1654 125.405 55.8345C125.681 55.489 125.87 55.3431 125.883 55.3577Z" fill="#263238"/>
<path d="M124.336 102.808C124.327 102.808 124.306 102.676 124.271 102.423C124.235 102.136 124.192 101.771 124.139 101.319C124.03 100.355 123.885 98.9635 123.723 97.2409C123.394 93.7907 122.996 89.0219 122.658 83.747C122.321 78.4671 122.106 73.6837 121.997 70.219C121.94 68.4866 121.905 67.0851 121.892 66.1168C121.887 65.6594 121.883 65.2895 121.883 65.0024C121.883 64.7494 121.887 64.6131 121.9 64.6131C121.909 64.6131 121.927 64.7445 121.944 65.0024C121.962 65.2895 121.984 65.6594 122.01 66.1168C122.058 67.1241 122.124 68.5158 122.207 70.2141C122.374 73.674 122.619 78.4525 122.952 83.7324C123.289 89.0073 123.653 93.7761 123.933 97.2263C124.069 98.9197 124.179 100.307 124.257 101.314C124.288 101.771 124.314 102.136 124.336 102.428C124.341 102.672 124.345 102.808 124.336 102.808Z" fill="#263238"/>
<path d="M122.606 81.674C122.615 81.7567 120.915 82.0195 118.799 82.0779C116.683 82.1411 114.974 81.9805 114.979 81.8929C114.983 81.8005 116.691 81.8199 118.794 81.7567C120.893 81.6983 122.597 81.5815 122.606 81.674Z" fill="#263238"/>
<path d="M121.226 81.8589C121.261 81.8443 121.414 82.1606 121.581 82.7153C121.664 82.9927 121.743 83.3285 121.808 83.708C121.839 83.9027 121.865 84.1265 121.8 84.3698C121.738 84.618 121.546 84.8418 121.283 84.8954C121.151 84.9197 120.994 84.8759 120.893 84.7688C120.788 84.6667 120.739 84.5304 120.713 84.4136C120.665 84.1703 120.691 83.9611 120.704 83.7713C120.739 83.382 120.805 83.0414 120.88 82.7591C121.024 82.1946 121.191 81.8783 121.226 81.8929C121.265 81.9124 121.173 82.253 121.081 82.8078C121.037 83.0851 120.994 83.4209 120.976 83.7907C120.967 83.9805 120.954 84.1703 120.994 84.3358C121.029 84.5012 121.121 84.5937 121.243 84.5742C121.541 84.5158 121.607 84.107 121.55 83.7518C121.502 83.382 121.44 83.0511 121.388 82.7737C121.274 82.219 121.186 81.8735 121.226 81.8589Z" fill="#263238"/>
<path d="M136.638 50.5645L118.308 51.236C115.986 51.3187 114.045 49.2993 113.971 46.7251L113.853 42.7688C113.778 40.1898 115.596 38.0341 117.914 37.9513L136.244 37.2798C138.566 37.1971 140.506 39.2165 140.581 41.7907L140.699 45.747C140.774 48.326 138.956 50.4817 136.638 50.5645Z" fill="#263238"/>
<path d="M118.348 38.2092C118.343 38.1995 118.396 38.1606 118.505 38.0973C118.615 38.0389 118.786 37.9708 119.018 37.9221C119.473 37.8297 120.196 37.8735 120.937 38.3212C121.66 38.7543 122.518 39.4015 123.105 40.4623C123.71 41.4988 124.043 42.8418 124.135 44.2384C124.253 45.6496 123.973 47.0268 123.434 48.1022C122.895 49.1873 122.102 49.9416 121.357 50.3552C120.608 50.7786 119.929 50.9051 119.465 50.91C119.233 50.9197 119.053 50.9002 118.935 50.8808C118.816 50.8613 118.751 50.8418 118.755 50.8321C118.759 50.8029 119.009 50.8321 119.46 50.7834C119.907 50.7397 120.56 50.5791 121.265 50.1508C121.971 49.7275 122.707 48.9976 123.202 47.9611C123.705 46.9294 123.964 45.6204 123.85 44.2628C123.762 42.9002 123.447 41.6156 122.886 40.618C122.347 39.6058 121.537 38.9635 120.849 38.5158C120.153 38.0633 119.482 37.9903 119.04 38.0438C118.589 38.0973 118.361 38.2384 118.348 38.2092Z" fill="#455A64"/>
<path d="M128.669 37.5036L125.883 37.6593C126.645 37.7615 127.342 38.2384 127.85 38.871C128.358 39.5085 128.695 40.292 128.928 41.1046C129.896 44.5304 128.726 48.5888 126.281 50.9392L128.538 50.8954C128.529 50.9051 134.018 43.5523 128.669 37.5036Z" fill="#455A64"/>
<path d="M142.285 31.674C143.424 28.618 143.481 23.2993 141.742 20.5012C140.003 17.7032 136.743 15.8589 133.751 15.1436C133.252 15.0219 132.713 14.944 132.24 15.163C131.766 15.382 131.416 16.0097 131.617 16.5304C131.017 16.1119 130.4 15.6886 129.712 15.5134C129.02 15.3382 128.227 15.4501 127.723 16C127.215 16.5499 127.136 17.5864 127.675 18.0973C126.838 17.7567 125.835 18.0243 125.226 18.7397C124.612 19.455 124.433 20.5839 124.783 21.4939C125.116 22.365 125.826 23.3333 126.457 23.9708C127.083 24.6083 127.188 25.2701 127.083 26.2092" fill="#263238"/>
<path d="M141.567 26.0681L142.36 44.7932C142.495 47.9757 140.204 50.6375 137.335 50.6326C134.658 50.6278 132.454 48.2822 132.332 45.309C132.275 43.8978 132.222 42.7251 132.209 42.5791C132.209 42.5791 127.898 42.3552 127.39 37.6545C127.145 35.382 126.978 30.6569 126.877 26.3796C126.768 21.7859 129.852 17.8686 133.966 17.3771L134.373 17.3285C138.807 17.0852 141.47 21.1338 141.567 26.0681Z" fill="#FFBE9D"/>
<path d="M132.191 42.5061C132.191 42.5061 134.894 42.4282 137.549 40.1022C137.549 40.1022 136.704 43.0462 132.432 43.129L132.191 42.5061Z" fill="#EB996E"/>
<path d="M128.415 29.382C128.437 29.7372 128.73 30.0097 129.063 29.9903C129.396 29.9708 129.65 29.6642 129.629 29.309C129.607 28.9538 129.313 28.6813 128.98 28.7007C128.643 28.7202 128.389 29.0268 128.415 29.382Z" fill="#263238"/>
<path d="M128.008 28.5791C128.091 28.6569 128.511 28.2238 129.164 28.1509C129.813 28.0633 130.33 28.3796 130.391 28.2822C130.422 28.2384 130.33 28.0876 130.106 27.9465C129.887 27.8054 129.519 27.6837 129.116 27.7324C128.709 27.781 128.384 27.9903 128.205 28.1849C128.021 28.3747 127.968 28.5402 128.008 28.5791Z" fill="#263238"/>
<path d="M134.824 28.8613C134.846 29.2166 135.14 29.4891 135.473 29.4696C135.806 29.4501 136.06 29.1436 136.038 28.7883C136.016 28.4331 135.722 28.1606 135.389 28.1801C135.057 28.1995 134.802 28.5061 134.824 28.8613Z" fill="#263238"/>
<path d="M134.421 27.9465C134.505 28.0243 134.93 27.5913 135.578 27.5183C136.226 27.4307 136.743 27.747 136.805 27.6496C136.835 27.6059 136.743 27.455 136.52 27.3139C136.301 27.1728 135.933 27.0511 135.53 27.0998C135.122 27.1533 134.798 27.3577 134.618 27.5523C134.434 27.7421 134.382 27.9124 134.421 27.9465Z" fill="#263238"/>
<path d="M132.581 33.5912C132.581 33.5474 132.169 33.5183 131.504 33.5037C131.337 33.5037 131.175 33.4891 131.136 33.3625C131.083 33.236 131.136 33.0268 131.193 32.8029C131.306 32.3358 131.425 31.8492 131.547 31.3382C132.038 29.2555 132.371 27.5475 132.297 27.528C132.222 27.5085 131.762 29.1776 131.276 31.2652C131.157 31.781 131.048 32.2676 130.943 32.7348C130.899 32.9538 130.816 33.202 130.925 33.4696C130.982 33.601 131.114 33.6886 131.223 33.708C131.333 33.7324 131.429 33.7226 131.508 33.7178C132.174 33.6788 132.581 33.635 132.581 33.5912Z" fill="#263238"/>
<path d="M134.544 33.8638C134.439 33.8686 134.513 34.6569 133.961 35.2847C133.414 35.9173 132.651 35.9173 132.656 36.0292C132.651 36.0779 132.84 36.1606 133.16 36.1314C133.471 36.1071 133.917 35.9416 134.255 35.5572C134.592 35.1728 134.706 34.6959 134.697 34.3698C134.693 34.0389 134.592 33.854 134.544 33.8638Z" fill="#263238"/>
<path d="M133.979 25.129C134.062 25.3187 134.702 25.1484 135.477 25.1582C136.253 25.1533 136.892 25.3285 136.975 25.1387C137.011 25.0511 136.888 24.8759 136.621 24.7153C136.353 24.5548 135.942 24.4234 135.482 24.4185C135.017 24.4185 134.605 24.5499 134.338 24.7105C134.071 24.8711 133.944 25.0414 133.979 25.129Z" fill="#263238"/>
<path d="M128.043 26.4526C128.174 26.6034 128.603 26.3796 129.142 26.3066C129.677 26.2141 130.15 26.2968 130.238 26.1119C130.277 26.0243 130.189 25.8686 129.975 25.7372C129.764 25.6058 129.423 25.5183 129.05 25.5766C128.682 25.635 128.376 25.82 128.205 26.0146C128.034 26.2044 127.986 26.3796 128.043 26.4526Z" fill="#263238"/>
<path d="M141.558 29.5961C141.628 29.5523 144.375 28.292 144.598 31.5183C144.817 34.7494 141.856 34.326 141.843 34.2336C141.83 34.1411 141.558 29.5961 141.558 29.5961Z" fill="#FFBE9D"/>
<path d="M142.649 32.9343C142.662 32.9246 142.701 32.9684 142.789 33.0073C142.877 33.0414 143.021 33.0608 143.17 32.983C143.468 32.8321 143.691 32.2676 143.665 31.6837C143.652 31.3869 143.578 31.1144 143.468 30.8905C143.363 30.6618 143.214 30.5061 143.056 30.4915C142.899 30.4672 142.798 30.5791 142.767 30.6715C142.736 30.764 142.758 30.8273 142.741 30.837C142.732 30.8467 142.675 30.7883 142.688 30.6521C142.697 30.5888 142.723 30.5061 142.789 30.438C142.855 30.3698 142.955 30.326 143.065 30.3309C143.288 30.3309 143.507 30.5401 143.63 30.7883C143.762 31.0365 143.854 31.3431 143.867 31.674C143.893 32.326 143.635 32.9586 143.223 33.129C143.021 33.2068 142.846 33.1533 142.754 33.0803C142.658 33.0122 142.64 32.944 142.649 32.9343Z" fill="#EB996E"/>
<path d="M124.599 20.438C124.547 24.6521 129.309 26.0049 131.188 23.4939C132.056 22.3309 132.783 20.91 134.036 20.3114C134.877 19.9075 135.863 20.0049 136.708 20.3942C136.717 20.399 136.726 20.4039 136.734 20.4039C137.979 20.9927 138.794 22.472 139.083 23.9416C139.486 25.9903 139.311 27.8394 139.924 29.6983C140.011 29.9659 140.117 30.253 140.331 30.399C140.704 30.6521 141.194 30.3601 141.457 29.9757C141.882 29.3625 141.992 28.5547 142.04 27.781C142.149 26.0243 142.018 24.2336 141.505 22.5645C140.993 20.8954 140.09 19.3577 138.833 18.2822C137.26 16.9392 135.188 16.3942 133.221 16.6667C131.254 16.9343 129.401 17.9903 127.955 19.4988C127.285 20.1995 126.685 21.017 126.395 21.9903" fill="#263238"/>
<path d="M127.517 17.8735C127.517 17.8637 127.368 17.8491 127.118 17.927C126.869 18.0049 126.514 18.2092 126.198 18.6034C125.887 18.9927 125.616 19.5864 125.589 20.292C125.563 20.9976 125.826 21.7615 126.29 22.3747C126.759 22.9878 127.368 23.3966 127.959 23.6058C128.551 23.8199 129.112 23.8686 129.572 23.8637C130.036 23.854 130.404 23.7907 130.658 23.7324C130.912 23.674 131.048 23.6253 131.044 23.6107C131.039 23.5669 130.478 23.7032 129.572 23.6886C129.12 23.674 128.581 23.6058 128.025 23.3917C127.469 23.1825 126.904 22.7932 126.461 22.219C126.027 21.6496 125.778 20.9489 125.795 20.3066C125.808 19.6642 126.045 19.1046 126.321 18.7251C126.601 18.3455 126.917 18.1265 127.149 18.0292C127.381 17.9173 127.521 17.8978 127.517 17.8735Z" fill="#455A64"/>
<path d="M129.361 16.2287C129.361 16.2141 129.252 16.1995 129.09 16.3066C128.932 16.4088 128.735 16.6569 128.682 17.0365C128.63 17.4161 128.765 17.854 128.989 18.253C129.212 18.6521 129.506 19.0608 129.869 19.4209C130.597 20.1509 131.433 20.5499 132.051 20.7056C132.673 20.8759 133.072 20.8321 133.068 20.8078C133.072 20.764 132.682 20.7397 132.091 20.5353C131.504 20.3406 130.715 19.9319 130.018 19.2311C129.668 18.8856 129.388 18.4964 129.16 18.1265C128.936 17.7567 128.809 17.3723 128.836 17.0511C128.862 16.7299 129.011 16.4964 129.133 16.3844C129.269 16.2725 129.366 16.253 129.361 16.2287Z" fill="#455A64"/>
<path d="M141.685 62.2092L140.318 51.1436L159.901 55.5085L177.718 48.6472L182.529 54.1411L163.568 64.9878C161.877 65.8832 159.971 66.1557 158.131 65.7567L141.685 62.2092Z" fill="#FFBE9D"/>
<path d="M177.718 48.6521C177.718 48.6521 184.531 45.0316 184.969 44.91C185.306 44.8175 190.449 44.5109 192.793 44.3796C193.722 44.326 193.862 45.8589 192.938 46C192.907 46.0049 192.881 46.0097 192.85 46.0097C191.54 46.1314 188.662 46.8564 188.662 46.8564L189.972 50.2579C190.108 50.6083 190.007 51.0122 189.731 51.236L185.766 54.4915C184.71 55.0219 183.475 54.8905 182.533 54.1411L180.785 54.5401L177.718 48.6521Z" fill="#FFBE9D"/>
<path d="M189.989 50.4575C189.862 51.095 188.499 52.3943 187.461 52.3943C187.233 52.3943 187.001 52.3213 186.835 52.1461C186.672 51.9709 186.594 51.6838 186.69 51.4551C186.751 51.3042 186.874 51.1972 186.992 51.095C187.768 50.4283 188.539 49.7617 189.314 49.095" fill="#FFBE9D"/>
<path d="M189.31 49.0949C189.293 49.0657 188.92 49.3431 188.342 49.8151C188.031 50.073 187.694 50.3504 187.33 50.6521C187.137 50.8175 186.945 50.9586 186.734 51.1727C186.629 51.2798 186.537 51.4598 186.537 51.6448C186.533 51.8248 186.59 52.0049 186.691 52.146C186.901 52.4331 187.225 52.5207 187.501 52.5109C187.781 52.5012 188.036 52.4185 188.263 52.3114C188.715 52.0973 189.074 51.8053 189.345 51.5328C189.617 51.2603 189.801 50.9976 189.902 50.7932C190.003 50.5888 190.007 50.4526 189.994 50.4526C189.976 50.4477 189.941 50.5645 189.827 50.7397C189.713 50.9148 189.516 51.1484 189.24 51.3966C188.969 51.6448 188.609 51.9027 188.184 52.0925C187.974 52.1849 187.738 52.2579 187.497 52.2628C187.264 52.2725 187.01 52.1898 186.87 51.9903C186.73 51.7859 186.726 51.5134 186.892 51.3479C187.059 51.1727 187.282 50.9976 187.457 50.837C187.812 50.5207 188.141 50.2238 188.439 49.9562C188.995 49.4501 189.328 49.1241 189.31 49.0949Z" fill="#EB996E"/>
<path d="M184.483 52.4234C184.504 52.4428 184.636 52.3358 184.78 52.0925C184.925 51.854 185.061 51.4647 185.078 51.017C185.096 50.5693 184.991 50.1703 184.868 49.9173C184.745 49.6594 184.623 49.5426 184.601 49.5572C184.544 49.5961 184.894 50.1849 184.851 51.0024C184.824 51.8297 184.43 52.3796 184.483 52.4234Z" fill="#EB996E"/>
<path d="M187.207 50.6767C187.001 51.0319 186.571 51.2119 186.203 51.0903C185.835 50.9735 185.564 50.5647 185.559 50.1414C185.559 49.5866 185.958 49.1438 186.33 48.774C186.9 48.2047 187.469 47.6353 188.035 47.066" fill="#FFBE9D"/>
<path d="M188.04 47.0657C188.018 47.0414 187.746 47.2701 187.326 47.6594C187.094 47.8784 186.848 48.1119 186.594 48.3601C186.327 48.6326 186.003 48.9003 185.735 49.2944C185.604 49.4939 185.499 49.7226 185.468 49.9659C185.433 50.2093 185.481 50.4574 185.582 50.6521C185.779 51.0511 186.16 51.2457 186.458 51.2166C186.761 51.1971 186.971 51.0414 187.08 50.91C187.194 50.7786 187.221 50.6813 187.207 50.6715C187.19 50.6618 187.142 50.7397 187.023 50.8321C186.905 50.9246 186.708 51.0365 186.454 51.0316C186.204 51.0316 185.915 50.8613 185.762 50.5353C185.6 50.2141 185.67 49.7859 185.915 49.4355C186.152 49.0852 186.471 48.8029 186.73 48.5256C186.975 48.2676 187.207 48.0195 187.431 47.7859C187.825 47.3674 188.062 47.09 188.04 47.0657Z" fill="#EB996E"/>
<path d="M184.29 46.7785C185.661 47.1386 186.98 47.7518 188.176 48.5839C188.246 48.6326 188.325 48.691 188.347 48.7834C188.377 48.9099 188.29 49.0316 188.198 49.1143C187.847 49.4258 187.361 49.4793 186.914 49.4404C186.467 49.3966 186.02 49.2749 185.574 49.2895C184.794 49.309 184.075 49.7226 183.322 49.9513C182.573 50.18 181.657 50.1751 181.14 49.5279" fill="#FFBE9D"/>
<path d="M181.14 49.5231C181.136 49.528 181.157 49.5669 181.21 49.6399C181.267 49.708 181.355 49.8054 181.495 49.8929C181.766 50.0827 182.235 50.2141 182.8 50.1509C183.374 50.1022 183.992 49.8005 184.68 49.5766C185.026 49.4647 185.389 49.3869 185.775 49.4112C186.161 49.4307 186.559 49.5377 186.993 49.5718C187.422 49.601 187.887 49.5377 188.241 49.2409C188.329 49.1679 188.421 49.0754 188.461 48.9148C188.478 48.837 188.465 48.7397 188.425 48.6667C188.386 48.5985 188.338 48.5547 188.29 48.5207C188.119 48.399 187.961 48.2968 187.799 48.1947C187.159 47.7908 186.546 47.4988 186.029 47.2847C185.508 47.0706 185.074 46.9392 184.772 46.8613C184.469 46.7835 184.299 46.7591 184.294 46.7737C184.285 46.8175 184.951 46.9878 185.968 47.4501C186.476 47.6837 187.067 47.9903 187.694 48.3942C187.847 48.4964 188.014 48.6034 188.163 48.7153C188.233 48.7737 188.255 48.8078 188.241 48.8565C188.228 48.91 188.176 48.983 188.106 49.0365C187.817 49.2798 187.409 49.3431 187.006 49.3139C186.599 49.2847 186.196 49.1825 185.784 49.1582C185.368 49.1338 184.973 49.2263 184.618 49.3479C183.913 49.5961 183.317 49.9027 182.778 49.9708C182.244 50.0535 181.801 49.9562 181.534 49.8054C181.263 49.6594 181.153 49.5037 181.14 49.5231Z" fill="#EB996E"/>
<path d="M159.594 59.3382C159.651 59.3528 159.883 58.4915 159.91 57.3917C159.94 56.2871 159.752 55.4112 159.695 55.4258C159.629 55.4355 159.713 56.3114 159.682 57.3869C159.66 58.4574 159.529 59.3236 159.594 59.3382Z" fill="#EB996E"/>
<path d="M142.46 46.0097L148.015 52.9635C148.015 52.9635 150.981 76.983 151.196 78.8662C151.406 80.7494 151.971 86.7835 151.971 88.4331C151.971 90.0827 153.202 101.873 153.202 101.873C153.202 101.873 129.624 107.309 125.681 101.873L126.908 91.7762L125.839 66.7251C125.839 66.7251 124.069 49.3382 132.327 45.3041C132.331 45.3041 137.549 48.7981 142.46 46.0097Z" fill="#CA0F2E"/>
<path d="M128.546 47.7713C128.546 47.7713 130.172 45.9854 135.363 47.4793C140.835 49.056 143.722 54.7445 142.364 70.8516C141.242 84.1314 136.515 86.0438 136.515 86.0438C136.515 86.0438 139.104 66.0097 138.662 57.6302C138.101 47.0462 128.546 49.6788 128.546 49.6788C127.184 49.1873 128.546 47.7713 128.546 47.7713Z" fill="#263238"/>
<path d="M142.46 46.0097L147.266 47.4793L158.07 54.8273L154.994 65.6788L148.651 64.9051L142.46 46.0097Z" fill="#CA0F2E"/>
<path d="M148.712 53.5426C148.651 53.5474 148.922 57.4307 149.321 62.2044C149.72 66.983 150.096 70.8516 150.158 70.8467C150.219 70.8418 149.947 66.9635 149.549 62.18C149.15 57.4063 148.773 53.5377 148.712 53.5426Z" fill="#263238"/>
<path d="M126.719 87.2701C126.719 87.2701 128.253 92.7445 133.676 83.7032C139.096 74.6618 138.333 78.7056 138.333 78.7056L139.446 80.1752C139.446 80.1752 133.484 95.0949 126.794 92.7543L126.719 87.2701Z" fill="#263238"/>
<path opacity="0.3" d="M148.931 56.1557L153.207 65.4599L149.676 65.0316L148.931 56.1557Z" fill="black"/>
<g opacity="0.3">
<path d="M150.894 80.8662C147.761 84.6618 144.029 87.8443 139.919 90.2239C138.193 91.2263 136.292 92.1071 134.364 91.8297C132.244 91.528 130.43 89.82 129.427 87.7275C128.424 85.6302 128.568 84.618 128.332 82.2628C128.069 79.6642 128.069 76.1947 127.946 73.8297C127.924 73.4112 127.915 72.9246 127.915 72.4623C127.915 71.4355 127.311 70.5256 126.422 70.2287C126.422 70.2287 127.714 69.5523 128.581 69.6886C129.449 69.8248 130.102 70.6277 130.557 71.4599C132.962 75.8638 131.915 82.3163 136.502 85.0608C138 85.9562 139.744 86.1655 141.422 85.8638C145.177 85.1825 148.05 82.4428 150.819 79.7713" fill="black"/>
</g>
<path d="M145.707 71.7518C144.557 71.7518 143.626 68.6407 143.626 64.8029C143.626 60.9651 144.557 57.854 145.707 57.854C146.856 57.854 147.788 60.9651 147.788 64.8029C147.788 68.6407 146.856 71.7518 145.707 71.7518Z" fill="#FAFAFA"/>
<path d="M144.593 185.664L144.116 197.105C144.116 197.105 154.424 201.484 154.521 203.611L134.517 203.382L134.6 185.523L144.593 185.664Z" fill="#CA0F2E"/>
<g opacity="0.6">
<path d="M137.939 196.068C137.549 196.18 137.278 196.662 137.365 197.095C137.453 197.533 137.887 197.844 138.277 197.737C138.666 197.63 139.008 197.066 138.881 196.642C138.754 196.219 138.22 195.888 137.865 196.092" fill="white"/>
</g>
<path opacity="0.6" d="M134.518 203.377L134.526 201.596L153.741 202.472C153.741 202.472 154.626 202.915 154.521 203.606L134.518 203.377Z" fill="white"/>
<path d="M144.44 196.993C144.436 197.1 143.945 197.144 143.463 197.489C142.973 197.82 142.719 198.287 142.631 198.243C142.539 198.219 142.692 197.577 143.284 197.168C143.875 196.759 144.462 196.895 144.44 196.993Z" fill="#263238"/>
<path d="M146.53 197.981C146.552 198.088 146.127 198.268 145.79 198.72C145.444 199.163 145.352 199.659 145.255 199.654C145.163 199.669 145.102 199.036 145.531 198.477C145.952 197.917 146.53 197.878 146.53 197.981Z" fill="#263238"/>
<path d="M147.696 200.783C147.608 200.808 147.477 200.263 147.731 199.669C147.985 199.075 148.445 198.847 148.489 198.939C148.541 199.027 148.243 199.343 148.042 199.835C147.827 200.316 147.792 200.774 147.696 200.783Z" fill="#263238"/>
<path d="M144.287 194.375C144.243 194.472 143.796 194.316 143.244 194.355C142.692 194.38 142.259 194.579 142.211 194.487C142.154 194.409 142.579 194.01 143.231 193.981C143.884 193.937 144.34 194.287 144.287 194.375Z" fill="#263238"/>
<path opacity="0.3" d="M144.497 187.927L144.414 189.966L134.583 189.757L134.588 187.917L144.497 187.927Z" fill="black"/>
<path d="M144.349 192.063C144.349 192.107 143.963 192.17 143.345 192.044C143.039 191.981 142.679 191.864 142.303 191.674C142.114 191.577 141.921 191.465 141.729 191.328C141.637 191.26 141.527 191.192 141.431 191.066C141.326 190.949 141.264 190.662 141.391 190.487C141.496 190.316 141.676 190.243 141.821 190.243C141.97 190.238 142.088 190.272 142.197 190.307C142.421 190.37 142.627 190.453 142.82 190.55C143.201 190.749 143.507 190.998 143.735 191.236C144.195 191.718 144.349 192.127 144.318 192.146C144.274 192.18 144.051 191.839 143.582 191.44C143.35 191.241 143.047 191.036 142.693 190.871C142.513 190.788 142.32 190.72 142.119 190.667C141.908 190.603 141.729 190.599 141.672 190.701C141.65 190.74 141.65 190.754 141.694 190.827C141.737 190.891 141.825 190.954 141.913 191.022C142.088 191.153 142.268 191.265 142.438 191.363C142.785 191.557 143.117 191.693 143.402 191.786C143.972 191.971 144.349 192.005 144.349 192.063Z" fill="#263238"/>
<path d="M144.217 192.219C144.182 192.234 143.994 191.844 143.963 191.144C143.95 190.793 143.985 190.375 144.112 189.927C144.178 189.703 144.261 189.479 144.375 189.255C144.493 189.036 144.638 188.745 145.019 188.701C145.216 188.696 145.378 188.866 145.435 189.017C145.501 189.168 145.509 189.299 145.536 189.426C145.571 189.684 145.562 189.942 145.531 190.175C145.466 190.647 145.286 191.036 145.093 191.319C144.699 191.888 144.287 192.015 144.278 191.981C144.248 191.927 144.589 191.718 144.892 191.168C145.041 190.895 145.177 190.54 145.22 190.127C145.242 189.922 145.242 189.703 145.207 189.484C145.177 189.246 145.102 189.056 145.019 189.08C144.918 189.075 144.747 189.255 144.664 189.44C144.559 189.64 144.476 189.839 144.41 190.039C144.283 190.438 144.221 190.822 144.204 191.148C144.173 191.796 144.27 192.2 144.217 192.219Z" fill="#263238"/>
<path d="M125.212 178.715L117.125 185.82C117.125 185.82 120.91 197.338 119.53 198.813L106.567 181.888L118.759 170.248L125.212 178.715Z" fill="#CA0F2E"/>
<g opacity="0.6">
<path d="M113.774 179.961C113.441 179.708 112.937 179.796 112.696 180.156C112.455 180.511 112.53 181.085 112.858 181.343C113.187 181.601 113.796 181.518 113.997 181.134C114.199 180.749 114.076 180.083 113.704 179.922" fill="white"/>
</g>
<path opacity="0.6" d="M106.563 181.883L107.781 180.72L119.789 197.406C119.789 197.406 120.069 198.438 119.526 198.803L106.563 181.883Z" fill="white"/>
<path d="M117.41 186.019C117.335 186.088 116.985 185.708 116.433 185.523C115.885 185.328 115.403 185.421 115.373 185.319C115.329 185.231 115.868 184.929 116.529 185.163C117.2 185.392 117.493 185.976 117.41 186.019Z" fill="#263238"/>
<path d="M118.107 188.418C118.05 188.506 117.646 188.268 117.116 188.282C116.586 188.282 116.192 188.53 116.131 188.448C116.061 188.38 116.45 187.912 117.112 187.908C117.774 187.893 118.177 188.35 118.107 188.418Z" fill="#263238"/>
<path d="M116.967 191.236C116.893 191.178 117.178 190.71 117.747 190.535C118.317 190.36 118.777 190.594 118.742 190.691C118.715 190.793 118.304 190.749 117.839 190.9C117.371 191.036 117.038 191.309 116.967 191.236Z" fill="#263238"/>
<path d="M119.092 184.175C118.996 184.204 118.812 183.727 118.422 183.29C118.045 182.842 117.625 182.608 117.655 182.506C117.673 182.409 118.22 182.501 118.667 183.027C119.123 183.547 119.18 184.161 119.092 184.175Z" fill="#263238"/>
<path opacity="0.3" d="M123.609 180.122L122.168 181.387L115.863 173.007L117.116 171.805L123.609 180.122Z" fill="black"/>
<path d="M120.7 182.706C120.669 182.735 120.376 182.453 120.056 181.854C119.898 181.557 119.741 181.178 119.622 180.735C119.565 180.516 119.517 180.277 119.482 180.029C119.469 179.908 119.443 179.771 119.465 179.606C119.473 179.44 119.631 179.202 119.833 179.192C120.017 179.168 120.183 179.275 120.279 179.392C120.38 179.513 120.433 179.635 120.485 179.747C120.591 179.976 120.669 180.204 120.726 180.428C120.84 180.876 120.875 181.299 120.862 181.645C120.836 182.345 120.661 182.745 120.626 182.73C120.573 182.715 120.661 182.307 120.621 181.65C120.604 181.324 120.547 180.939 120.424 180.53C120.363 180.326 120.284 180.122 120.187 179.917C120.091 179.698 119.977 179.543 119.868 179.567C119.828 179.577 119.815 179.586 119.798 179.664C119.784 179.742 119.798 179.859 119.811 179.976C119.837 180.209 119.876 180.433 119.925 180.642C120.017 181.061 120.144 181.431 120.271 181.727C120.516 182.331 120.739 182.672 120.7 182.706Z" fill="#263238"/>
<path d="M120.512 182.701C120.477 182.681 120.617 182.268 121.077 181.781C121.305 181.543 121.616 181.294 122.001 181.109C122.194 181.017 122.404 180.939 122.628 180.886C122.855 180.842 123.149 180.774 123.425 181.061C123.561 181.221 123.548 181.474 123.482 181.616C123.421 181.771 123.342 181.864 123.267 181.966C123.114 182.165 122.934 182.326 122.755 182.453C122.391 182.706 122.006 182.813 121.69 182.837C121.042 182.881 120.687 182.618 120.709 182.589C120.726 182.526 121.09 182.676 121.664 182.574C121.944 182.521 122.277 182.399 122.588 182.165C122.742 182.049 122.89 181.903 123.018 181.732C123.158 181.552 123.237 181.363 123.171 181.309C123.11 181.221 122.877 181.197 122.693 181.251C122.492 181.294 122.299 181.358 122.119 181.431C121.765 181.586 121.462 181.786 121.23 181.985C120.766 182.384 120.555 182.735 120.512 182.701Z" fill="#263238"/>
<path d="M147.639 137.26C147.639 137.26 147.104 109.937 147.639 109.937C148.173 109.937 151.967 107.533 151.967 107.533L156.707 148.141C156.707 148.141 157.132 152.701 152.055 155.912C146.977 159.124 124.266 181.552 124.266 181.552L116.582 171.158C116.582 171.158 131.526 153.859 137.628 148.141C142.403 143.669 147.639 137.26 147.639 137.26Z" fill="#263238"/>
<path d="M133.716 130.895L133.199 126.569C133.199 126.569 129.458 117.825 128.919 114.078C128.384 110.331 128.739 102.277 128.739 102.277H152.375C152.375 102.277 152.274 131.917 149.422 140.229C149.422 140.229 147.972 156.141 147.761 157.474C147.31 160.307 145.733 189.28 145.733 189.28L133.817 188.798C133.817 188.798 132.783 162.161 133.611 154.599C134.018 150.856 134.215 146.866 134.303 143.562C134.413 139.328 134.22 135.095 133.716 130.895Z" fill="#263238"/>
<path d="M151.726 110.92C151.722 110.92 151.717 110.964 151.713 111.051C151.709 111.153 151.7 111.28 151.691 111.436C151.678 111.791 151.656 112.287 151.63 112.91C151.586 114.19 151.498 116.044 151.38 118.331C151.143 122.905 150.701 129.217 150.053 136.17C149.404 143.124 148.703 149.411 148.199 153.956C147.95 156.214 147.748 158.054 147.608 159.343C147.542 159.966 147.494 160.453 147.455 160.808C147.442 160.963 147.428 161.09 147.42 161.192C147.415 161.28 147.411 161.324 147.415 161.324C147.42 161.324 147.428 161.28 147.442 161.197C147.455 161.095 147.477 160.973 147.498 160.818C147.547 160.462 147.612 159.976 147.691 159.358C147.849 158.068 148.077 156.238 148.357 153.981C148.905 149.436 149.628 143.153 150.276 136.195C150.929 129.236 151.345 122.92 151.538 118.341C151.634 116.049 151.695 114.195 151.713 112.915C151.722 112.287 151.726 111.796 151.735 111.44C151.735 111.285 151.735 111.158 151.735 111.056C151.735 110.964 151.73 110.92 151.726 110.92Z" fill="#455A64"/>
<path d="M134.325 146C134.316 146 134.294 146.146 134.255 146.428C134.215 146.735 134.167 147.144 134.101 147.664C133.983 148.74 133.834 150.302 133.698 152.238C133.418 156.107 133.203 161.465 133.125 167.382C133.063 173.304 133.146 178.667 133.335 182.54C133.422 184.477 133.536 186.044 133.628 187.124C133.681 187.645 133.725 188.058 133.755 188.365C133.786 188.647 133.808 188.798 133.812 188.798C133.821 188.798 133.817 188.647 133.799 188.36C133.777 188.054 133.751 187.64 133.716 187.114C133.65 186.034 133.563 184.467 133.493 182.53C133.344 178.657 133.287 173.299 133.348 167.382C133.427 161.47 133.615 156.117 133.852 152.248C133.966 150.316 134.088 148.749 134.18 147.674C134.229 147.153 134.264 146.74 134.29 146.433C134.325 146.151 134.329 146 134.325 146Z" fill="#455A64"/>
<path d="M129.677 47.1582C129.677 47.1582 125.808 48.3066 124.985 54.7056C124.161 61.1095 125.686 62.9392 125.686 62.9392C125.686 62.9392 125.059 51.017 129.865 49.3917L129.677 47.3917" fill="#263238"/>
<path d="M156.028 68.073L176.001 67.6448L175.769 68.7202L156.129 69.0414L156.028 68.073Z" fill="#263238"/>
<path d="M131.819 49.1679C132.564 48.9489 133.352 49.056 134.058 49.3869C135.679 50.146 138.636 52.3212 138.846 58.4574C139.188 68.3698 139.188 68.3698 139.188 68.3698L126.417 70.2239C126.417 70.2287 125.335 51.0852 131.819 49.1679Z" fill="#CA0F2E"/>
<path d="M155.318 70.1752L139.126 75.5815L138.885 68.3406L129.19 69.9075L129.729 81.6837C129.843 85.1387 132.02 88.0827 135.052 88.871C136.748 89.3139 138.531 89.0268 140.042 88.073L157.25 77.2068L155.318 70.1752Z" fill="#FFBE9D"/>
<path d="M126.417 70.2287C126.422 70.2238 126.422 70.1703 126.43 70.0584C126.435 69.9367 126.439 69.781 126.448 69.5815C126.461 69.1484 126.483 68.5401 126.505 67.7664C126.549 66.1849 126.614 63.927 126.693 61.1387C126.728 59.7421 126.768 58.219 126.812 56.5839C126.82 56.1752 126.833 55.7567 126.842 55.3333C126.86 55.1241 126.882 54.9148 126.899 54.7056C126.939 54.4964 126.969 54.2871 127.017 54.0779C127.21 53.2409 127.569 52.4331 128.073 51.7129C129.081 50.2968 130.702 49.2165 132.494 49.1825C133.383 49.1582 134.277 49.4599 135.057 49.9951C135.841 50.5255 136.507 51.2944 137.037 52.1655C137.812 53.4209 138.246 54.8662 138.496 56.3017C138.75 57.7421 138.829 59.1776 138.89 60.5742C138.96 63.3674 139.03 65.9951 139.091 68.3844L139.175 68.2774C135.354 68.8564 132.178 69.3382 129.944 69.6788C128.836 69.8491 127.964 69.9903 127.35 70.0827C127.061 70.1314 126.829 70.1654 126.663 70.1946C126.505 70.2092 126.422 70.2238 126.417 70.2287C126.413 70.2336 126.492 70.2238 126.641 70.2092C126.807 70.1898 127.031 70.1606 127.311 70.1217C127.92 70.0389 128.787 69.9221 129.891 69.7762C132.148 69.4647 135.35 69.017 139.201 68.4818L139.289 68.472V68.3747C139.236 65.9854 139.197 63.3577 139.113 60.5596C139.052 59.163 138.973 57.7129 138.719 56.253C138.465 54.7981 138.022 53.3139 137.225 52.0243C136.678 51.129 135.994 50.3358 135.175 49.781C134.364 49.2214 133.422 48.9051 132.489 48.9343C130.619 48.9781 128.949 50.1022 127.907 51.5718C127.39 52.3163 127.017 53.1582 126.82 54.0243C126.772 54.2384 126.741 54.4623 126.702 54.6764C126.685 54.8954 126.663 55.1144 126.645 55.3285C126.636 55.7567 126.628 56.1752 126.619 56.5937C126.588 58.2482 126.562 59.7908 126.536 61.1971C126.492 63.9854 126.457 66.253 126.43 67.8345C126.422 68.5985 126.413 69.1971 126.409 69.6253C126.409 69.8151 126.409 69.9708 126.404 70.0876C126.413 70.18 126.417 70.2336 126.417 70.2287Z" fill="#263238"/>
<path d="M154.994 70.3844L158.885 67.1873C159.594 66.6034 160.698 66.7251 161.579 66.6375C163.323 66.4623 166.197 67.635 166.306 67.8345L165.132 68.8759L172.693 68.618C172.693 68.618 172.045 70.3698 169.929 70.5499C169.929 70.5499 169.684 72.4477 167.489 72.8078C167.489 72.8078 166.919 74.3406 165.701 74.7932C165.701 74.7932 165.456 76.5109 163.507 76.4185L156.887 77.2506L154.994 70.3844Z" fill="#FFBE9D"/>
<path d="M165.193 70.8662C165.198 70.9343 166.271 70.9246 167.585 70.837C168.904 70.7494 169.968 70.6229 169.964 70.5547C169.96 70.4866 168.891 70.4964 167.568 70.5839C166.253 70.6715 165.189 70.7981 165.193 70.8662Z" fill="#EB996E"/>
<path d="M163.283 72.8856C163.283 72.9538 164.221 73.0122 165.377 73.0122C166.534 73.0122 167.471 72.9538 167.471 72.8856C167.471 72.8175 166.534 72.7591 165.377 72.7591C164.221 72.7591 163.283 72.8175 163.283 72.8856Z" fill="#EB996E"/>
<path d="M161.224 74.798C161.224 74.8662 162.162 74.9246 163.318 74.9246C164.475 74.9246 165.412 74.8662 165.412 74.798C165.412 74.7299 164.475 74.6715 163.318 74.6715C162.162 74.6715 161.224 74.7251 161.224 74.798Z" fill="#EB996E"/>
<path d="M138.058 79.2555C138.115 79.2798 138.461 78.5012 138.776 77.4891C139.091 76.4769 139.254 75.6253 139.197 75.6107C139.135 75.5912 138.877 76.4039 138.561 77.4063C138.25 78.4088 138.001 79.2263 138.058 79.2555Z" fill="#EB996E"/>
<path d="M136.888 78.5596C136.94 78.6034 137.462 77.8978 138.11 77.0365C138.754 76.1752 139.284 75.4744 139.236 75.4258C139.192 75.3771 138.583 76.0049 137.935 76.8759C137.282 77.7421 136.835 78.5158 136.888 78.5596Z" fill="#EB996E"/>
</g>
<defs>
<clipPath id="clip0_5_1731">
<rect width="200" height="204" fill="white" transform="matrix(-1 0 0 1 200 0)"/>
</clipPath>
</defs>
</svg>
