<svg width="315" height="208" viewBox="0 0 315 208" fill="none" xmlns="http://www.w3.org/2000/svg">
<g clip-path="url(#clip0_4_85)">
<path d="M27.0571 207.426C27.0571 207.426 -10.4473 169.134 13.4363 124.106C37.32 79.077 69.3702 101.738 67.837 49.3174C66.3037 -3.10152 141.583 -7.57879 165.539 7.62779C189.495 22.8356 189.345 41.1413 238.813 35.101C288.281 29.0607 297.713 79.5543 284.836 105.281C266.564 141.783 335.501 135.786 292.04 207.517L27.0571 207.426Z" fill="white"/>
<path d="M259.344 80.5751C259.344 84.3008 259.007 87.952 258.359 91.4953C256.804 99.9995 253.468 107.884 248.747 114.756C237.779 130.724 219.339 141.203 198.44 141.203C173.58 141.203 152.199 126.378 142.735 105.121C141.486 102.32 140.445 99.4071 139.633 96.401C138.263 91.357 137.534 86.0487 137.534 80.5751C137.534 76.148 138.011 71.8286 138.916 67.6732C138.925 67.6243 138.937 67.579 138.947 67.5313C141.477 56.0394 147.283 45.7715 155.34 37.7386C157.625 35.4584 160.091 33.3593 162.72 31.4633C163.972 30.5588 165.263 29.6996 166.584 28.893C175.85 23.2162 186.76 19.9446 198.442 19.9446C199.991 19.9446 201.525 20.0021 203.044 20.1172C205.189 20.2751 207.3 20.5431 209.375 20.9189C218.112 22.4941 226.196 25.9273 233.208 30.7902H233.212C237.58 33.817 241.529 37.3984 244.96 41.4362C246.761 43.5562 248.42 45.7997 249.918 48.1558C250.85 49.6221 251.723 51.1289 252.531 52.6772C254.473 56.3968 256.034 60.3441 257.174 64.4664C258.587 69.5936 259.344 74.9975 259.344 80.5751Z" fill="#DCE8FF"/>
<path opacity="0.7" d="M177.747 53.4348C175.317 57.267 178.762 63.9205 171.471 62.1054C164.179 60.2903 159.722 59.4837 159.318 63.5142C158.911 67.5484 164.787 67.5484 164.787 71.7821C164.787 76.0158 162.153 77.416 158.103 75.405C154.051 73.3941 152.887 70.4688 148.178 72.2839C143.469 74.0991 140.735 72.8886 139.671 69.2595C139.483 68.6218 139.221 68.1041 138.915 67.672C138.924 67.6231 138.936 67.5778 138.946 67.53C141.476 56.0382 147.282 45.7703 155.339 37.7374C157.624 35.4572 160.09 33.358 162.719 31.4621C163.97 30.5576 165.261 29.6984 166.583 28.8918C168.482 28.9616 170.751 29.6776 172.687 32.0619C176.94 37.3066 179.775 34.6836 178.763 40.7325C177.749 46.7813 179.37 47.5891 182.813 47.386C186.256 47.1828 190.308 47.1828 190.711 49.8057C191.115 52.4275 180.178 49.6026 177.747 53.4348Z" fill="#9FBDFF"/>
<path opacity="0.7" d="M202.964 89.7255C202.964 89.7255 197.597 91.439 196.179 87.7096C194.762 83.9802 196.382 83.1736 191.623 82.0647C186.863 80.9557 186.459 77.7294 183.42 78.1333C180.382 78.536 181.902 79.7465 178.357 82.367C174.812 84.9875 171.573 83.7782 171.673 88.6166C171.774 93.4549 177.04 94.2113 178.104 97.3875C179.167 100.562 177.344 101.924 179.622 104.343C181.901 106.763 186.154 105.704 184.179 109.031C182.204 112.358 179.166 114.928 180.685 120.07C182.203 125.211 181.141 125.514 183.723 129.143C186.305 132.772 191.318 133.982 192.078 131.563C192.837 129.143 188.583 125.968 189.95 123.549C191.318 121.129 193.596 122.792 194.507 119.163C195.418 115.534 199.115 115.534 199.419 113.014C199.723 110.494 194.963 106.663 196.785 105.05C198.609 103.436 202.254 107.974 205.09 103.941C207.925 99.9077 206.001 96.6825 208.938 92.8515C211.875 89.0205 204.99 87.5077 202.964 89.7255Z" fill="#9FBDFF"/>
<path opacity="0.7" d="M259.344 80.5751C259.344 84.3009 259.007 87.952 258.359 91.4953C256.804 99.9995 253.468 107.884 248.747 114.756C247.136 115.282 245.493 115.27 243.876 114.626C236.282 111.601 241.902 103.436 244.94 99.3532C247.978 95.2701 240.231 97.0852 234.611 93.3044C228.991 89.5235 235.218 79.3927 229.445 81.0561C223.673 82.7195 216.685 84.8369 213.343 79.241C210.002 73.6462 216.382 72.7392 213.496 68.0514C210.61 63.3636 215.167 60.6415 220.94 60.1887C226.712 59.7346 225.952 55.6526 233.092 55.0468C240.232 54.4421 240.08 63.5142 247.978 62.9096C255.877 62.3049 255.521 64.1188 255.521 64.1188C256.089 64.1041 256.643 64.2216 257.171 64.464C258.587 69.5936 259.344 74.9975 259.344 80.5751Z" fill="#9FBDFF"/>
<path opacity="0.7" d="M252.529 52.6759C245.961 55.857 243.323 47.2048 237.709 49.8057C232.05 52.4275 233.039 47.3859 228.586 44.1596C224.129 40.9356 215.219 46.7813 215.623 41.7398C216.028 36.7007 222.711 38.1107 224.129 34.079C225.548 30.0472 232.027 31.0545 232.027 31.0545C232.395 30.915 232.79 30.8244 233.207 30.7889C233.207 30.7889 233.207 30.7865 233.21 30.7889C237.579 33.8158 241.528 37.3971 244.958 41.435C246.76 43.5549 248.418 45.7985 249.917 48.1546C250.849 49.6209 251.721 51.1276 252.529 52.6759Z" fill="#9FBDFF"/>
<path opacity="0.7" d="M197.192 35.2882C197.192 35.2882 200.635 30.3434 195.167 28.8844C189.698 27.4255 189.8 29.3349 185.546 28.8844C181.293 28.434 179.622 31.7094 182.812 35.2882C186.001 38.8671 188.584 45.7348 191.47 42.0739C194.356 38.413 193.799 35.6407 197.192 35.2882Z" fill="#9FBDFF"/>
<path d="M299.089 178.941C301.511 171.254 289.089 166.239 289.089 166.239C289.089 166.239 274.188 172.911 271.819 171.789C269.45 170.667 283.439 163.609 283.439 163.609C279.451 160.497 265.289 158.795 265.289 158.795C265.289 158.795 257.39 172.61 255.371 170.942C253.353 169.274 262.992 159.064 262.992 159.064C258.09 157.678 251.184 160.014 251.184 160.014C241.39 164.744 245.156 181.746 238.86 185.239C238.86 185.239 237.579 185.809 235.846 187.06L236.968 187.774C237.252 187.533 237.538 187.308 237.828 187.101C237.83 187.098 237.831 187.097 237.833 187.097C237.838 187.095 237.842 187.091 237.846 187.088C238.034 186.965 238.301 186.79 238.63 186.578C238.63 186.578 238.631 186.578 238.631 186.577C238.631 186.576 238.633 186.577 238.633 186.576C239.403 186.125 239.952 185.78 240.327 185.517C240.328 185.516 240.329 185.516 240.331 185.514C242.702 184.071 247.319 182.103 247.288 182.335C246.58 187.652 255.743 194.437 261.792 196.746C267.841 199.054 266.473 196.07 265.157 191.802C263.842 187.534 257.395 184.339 256.225 182.25C255.055 180.161 258.274 180.862 261.664 183.402C265.055 185.942 264.56 190.625 269.97 194.834C275.38 199.042 286.688 191.048 286.688 191.048C281.922 189.748 276.192 183.03 276.795 181.49C277.396 179.95 287.868 186.801 289.777 187.439C291.684 188.073 296.666 186.627 299.089 178.941Z" fill="#7FC392"/>
<path d="M15.6827 152.013C16.8384 141.743 34.0273 142.261 34.0273 142.261C34.0273 142.261 48.0452 157.772 51.4092 157.677C54.7744 157.581 42.0254 142.086 42.0254 142.086C48.3255 140.488 65.8328 145.793 65.8328 145.793C65.8328 145.793 67.9169 166.079 71.1542 165.161C74.3916 164.244 68.3878 147.292 68.3878 147.292C74.8637 148.192 81.7528 154.493 81.7528 154.493C90.7862 165.093 77.522 183.106 83.0942 190.451C83.0942 190.451 84.3004 191.78 85.6836 194.141L83.9967 194.399C83.7889 193.97 83.5701 193.558 83.3364 193.166C83.3364 193.162 83.334 193.161 83.3315 193.158C83.3278 193.152 83.3242 193.147 83.3217 193.141C83.1655 192.899 82.943 192.555 82.6664 192.137L82.6651 192.136C82.6651 192.135 82.6639 192.135 82.6639 192.134C81.9926 191.208 81.5303 190.519 81.2266 190.017C81.2253 190.016 81.2241 190.014 81.2241 190.013C79.1917 187.096 74.7974 182.407 74.7125 182.694C72.7785 189.299 58.495 192.541 50.1944 192.132C41.8938 191.724 45.0513 188.927 48.8161 184.595C52.5809 180.264 61.8086 179.838 64.2676 177.99C66.7267 176.14 62.5844 175.304 57.2839 176.538C51.9834 177.772 50.128 183.523 41.5902 185.674C33.0523 187.824 23.939 172.613 23.939 172.613C30.2084 173.543 40.4282 168.611 40.5229 166.494C40.6176 164.377 24.7628 167.019 22.1918 166.783C19.6221 166.548 14.5269 162.282 15.6827 152.013Z" fill="#7FC392"/>
<path opacity="0.5" d="M252.793 159.252C252.793 159.252 257.245 143.442 267.042 135.114C268.344 134.007 270.326 135.148 270.027 136.826C270.022 136.854 270.018 136.883 270.011 136.911C269.454 139.767 258.273 150.45 252.793 159.252Z" fill="#7FC392"/>
<path opacity="0.5" d="M251.063 163.707C251.063 163.707 262.477 144.853 277.984 138.136C278.929 137.726 280.064 138.104 280.51 139.029C280.801 139.632 280.836 140.509 280.207 141.771C278.528 145.139 260.923 154.62 251.063 163.707Z" fill="#7FC392"/>
<path opacity="0.5" d="M63.6947 141.942C63.6947 141.942 59.2425 126.132 49.4456 117.805C48.1436 116.698 46.1616 117.839 46.4603 119.517C46.4652 119.545 46.4702 119.573 46.4763 119.601C47.0333 122.458 58.2147 133.14 63.6947 141.942Z" fill="#BFE2C3"/>
<path opacity="0.5" d="M65.4234 146.398C65.4234 146.398 54.0097 127.544 38.5028 120.827C37.5573 120.416 36.4224 120.795 35.9761 121.72C35.6859 122.322 35.6503 123.2 36.2798 124.462C37.9581 127.83 55.565 137.31 65.4234 146.398Z" fill="#C0E2C9"/>
<path d="M196.976 59.9169L196.928 198.213C196.927 202.757 193.226 206.438 188.663 206.437L116.041 206.413C111.477 206.411 107.778 202.727 107.78 198.184L107.828 59.8876C107.829 55.3454 111.53 51.6637 116.094 51.6662L188.716 51.6907C193.279 51.6919 196.977 55.376 196.976 59.9169Z" fill="#C2CFFF"/>
<path d="M188.662 207.47L116.04 207.446C110.911 207.444 106.741 203.289 106.742 198.184L106.79 59.8876C106.791 54.7824 110.965 50.6307 116.094 50.6319L188.716 50.6564C193.844 50.6576 198.015 54.813 198.012 59.9182L197.964 198.214C197.963 203.32 193.79 207.471 188.662 207.47ZM116.094 52.6967C112.109 52.6955 108.866 55.9207 108.865 59.8876L108.817 198.184C108.816 202.151 112.056 205.378 116.041 205.38L188.663 205.404C192.648 205.405 195.89 202.18 195.892 198.213L195.939 59.9169C195.941 55.9501 192.701 52.7224 188.716 52.7212L116.094 52.6967Z" fill="#163560"/>
<path d="M121.378 64.803L120.157 65.6745L118.93 64.8116C119.202 64.4309 119.652 64.1788 120.157 64.1788C120.66 64.18 121.106 64.4248 121.378 64.803Z" fill="white"/>
<path d="M120.159 62.054C118.931 62.054 117.846 62.6611 117.188 63.5901L117.963 64.1323C118.449 63.4456 119.254 62.9989 120.159 62.9989C121.057 62.9989 121.854 63.4407 122.341 64.1176L123.113 63.5668C122.452 62.6501 121.373 62.054 120.159 62.054Z" fill="white"/>
<path d="M120.16 58.0137C117.563 58.0124 115.266 59.2964 113.873 61.2609L114.648 61.8031C115.869 60.0846 117.885 58.9574 120.159 58.9586C122.413 58.9598 124.415 60.0687 125.64 61.7664L126.408 61.2156C125.015 59.278 122.734 58.0149 120.16 58.0137Z" fill="white"/>
<path d="M120.159 60.2242C118.312 60.2242 116.673 61.1336 115.676 62.5277L116.45 63.0699C117.276 61.9206 118.63 61.1691 120.159 61.1691C121.673 61.1691 123.017 61.9096 123.846 63.0442L124.614 62.4971C123.616 61.1201 121.991 60.2254 120.159 60.2242Z" fill="white"/>
<path d="M136.462 37.2784C136.462 37.2784 131.167 34.746 124.324 36.1365C124.324 36.1365 132.15 35.604 136.792 40.5489C136.792 40.5489 140.036 35.5942 145.402 34.4584C145.401 34.4596 141.404 33.9847 136.462 37.2784Z" fill="#CA0F2E"/>
<path d="M121.538 34.8917C121.538 34.8917 117.454 32.9089 112.155 33.9541C112.155 33.9541 118.211 33.5784 121.778 37.4228C121.778 37.4228 124.311 33.6065 128.464 32.751C128.464 32.7522 125.374 32.3666 121.538 34.8917Z" fill="#CA0F2E"/>
<path d="M108.364 33.0839C108.364 33.0839 104.572 31.4376 99.7938 32.5906C99.7938 32.5906 105.287 32.0166 108.68 35.3764C108.68 35.3764 110.835 31.8073 114.581 30.8709C114.58 30.8722 111.755 30.6408 108.364 33.0839Z" fill="#CA0F2E"/>
<path d="M100.978 29.2908C100.978 29.2908 98.3171 28.4181 95.167 29.4964C95.167 29.4964 98.8347 28.7645 101.336 30.8171C101.336 30.8171 102.563 28.2749 105.029 27.4083C105.03 27.4096 103.11 27.4304 100.978 29.2908Z" fill="#CA0F2E"/>
<path d="M127.416 19.9642C127.416 19.9642 124.805 18.9544 121.603 19.8675C121.603 19.8675 125.304 19.3265 127.694 21.5064C127.694 21.5064 129.053 19.0315 131.562 18.2934C131.562 18.2959 129.644 18.2176 127.416 19.9642Z" fill="#CA0F2E"/>
<path d="M140.291 28.9481C140.291 28.9481 136.647 27.1183 131.875 27.9946C131.875 27.9946 137.318 27.729 140.475 31.2247C140.475 31.2247 142.795 27.8257 146.537 27.1085C146.538 27.1085 143.767 26.7266 140.291 28.9481Z" fill="#CA0F2E"/>
<path d="M135.21 23.2713C135.21 23.2713 131.779 21.7071 127.402 22.6826C127.402 22.6826 132.422 22.2481 135.461 25.368C135.461 25.368 137.486 22.1477 140.918 21.3546C140.917 21.3546 138.343 21.0976 135.21 23.2713Z" fill="#CA0F2E"/>
<path d="M230.606 75.1272C230.606 81.1907 240.864 90.8846 240.864 90.8846C240.864 90.8846 251.122 81.192 251.122 75.1272C251.122 69.0637 246.53 64.1458 240.864 64.1458C235.198 64.1458 230.606 69.0624 230.606 75.1272ZM234.82 74.4834C234.82 71.1689 237.535 68.4664 240.864 68.4664C244.21 68.4664 246.909 71.1689 246.909 74.4834C246.909 77.8138 244.21 80.5004 240.864 80.5004C237.533 80.5004 234.82 77.8138 234.82 74.4834Z" fill="#CA0F2E"/>
<path d="M195.578 36.5294C195.578 42.3542 205.431 51.665 205.431 51.665C205.431 51.665 215.285 42.3542 215.285 36.5294C215.285 30.7045 210.873 25.9812 205.431 25.9812C199.99 25.9824 195.578 30.7045 195.578 36.5294ZM199.626 35.9113C199.626 32.7265 202.233 30.1317 205.431 30.1317C208.645 30.1317 211.237 32.7265 211.237 35.9113C211.237 39.1107 208.645 41.6908 205.431 41.6908C202.232 41.6908 199.626 39.1107 199.626 35.9113Z" fill="#CA0F2E"/>
<path d="M256.943 203.474H232.637C230.307 203.474 228.418 201.593 228.418 199.273V198.724H260.845V199.589C260.844 201.735 259.098 203.474 256.943 203.474Z" fill="#163560"/>
<path d="M261.957 158.848V197.372C261.957 197.836 261.905 198.289 261.806 198.725H257.266C256.562 198.725 255.904 198.929 255.35 199.282C255.007 199.498 254.706 199.772 254.458 200.091C253.984 200.693 253.704 201.451 253.704 202.273V203.474H235.921V202.273C235.921 201.034 235.286 199.944 234.319 199.309C234.046 199.129 233.746 198.985 233.427 198.886C233.09 198.781 232.731 198.725 232.359 198.725H227.454C227.355 198.289 227.302 197.836 227.302 197.372V158.848C227.302 155.477 230.044 152.746 233.427 152.746H255.83C259.216 152.745 261.957 155.477 261.957 158.848Z" fill="#F2BE8F"/>
<path d="M251.155 152.724C243.13 149.575 237.532 152.674 237.477 152.706L237.188 152.204C237.248 152.17 238.678 151.362 241.151 150.953C243.422 150.578 247.038 150.486 251.369 152.186L251.155 152.724Z" fill="#163560"/>
<path d="M232.955 201.69H230.607V204.873H232.955V201.69Z" fill="#163560"/>
<path d="M230.111 205.355C230.111 204.436 230.858 203.692 231.78 203.692C232.702 203.692 233.45 204.437 233.45 205.355C233.45 206.273 232.702 207.018 231.78 207.018C230.858 207.018 230.111 206.274 230.111 205.355Z" fill="#1F4777"/>
<path d="M230.767 205.355C230.767 204.797 231.221 204.345 231.78 204.345C232.34 204.345 232.793 204.797 232.793 205.355C232.793 205.913 232.34 206.365 231.78 206.365C231.221 206.365 230.767 205.913 230.767 205.355Z" fill="#163560"/>
<path d="M257.094 201.69H254.747V204.873H257.094V201.69Z" fill="#163560"/>
<path d="M254.25 205.355C254.25 204.436 254.998 203.692 255.92 203.692C256.842 203.692 257.589 204.437 257.589 205.355C257.589 206.273 256.842 207.018 255.92 207.018C254.998 207.018 254.25 206.274 254.25 205.355Z" fill="#1F4777"/>
<path d="M254.907 205.355C254.907 204.797 255.36 204.345 255.92 204.345C256.479 204.345 256.934 204.797 256.934 205.355C256.934 205.913 256.48 206.365 255.92 206.365C255.36 206.365 254.907 205.913 254.907 205.355Z" fill="#163560"/>
<path d="M234.322 152.745V199.309C234.049 199.129 233.749 198.985 233.429 198.886V152.745H234.322Z" fill="white"/>
<path d="M241.468 152.745H240.575V203.474H241.468V152.745Z" fill="white"/>
<path d="M248.137 152.745H247.244V203.474H248.137V152.745Z" fill="white"/>
<path d="M255.352 152.745V199.282C255.009 199.498 254.707 199.772 254.459 200.091V152.746H255.352V152.745Z" fill="white"/>
<path d="M207.95 132.799C207.95 132.733 208.927 130.721 208.616 130.567C208.305 130.413 207.748 130.436 207.684 130.788C207.618 131.141 207.95 132.799 207.95 132.799Z" fill="#FFB27D"/>
<path d="M208.318 134C208.32 133.803 208.09 130.791 207.579 130.191C207.069 129.591 206.028 128.739 205.699 128.765C205.371 128.791 204.09 130.486 204.475 131.786C204.86 133.085 206.486 134.843 206.486 134.843L208.318 134Z" fill="#FFB27D"/>
<path d="M210.264 130.351L207.293 131.238C207.195 131.267 207.09 131.212 207.061 131.113L205.363 125.474C205.333 125.376 205.388 125.272 205.488 125.243L208.459 124.356C208.557 124.327 208.661 124.382 208.691 124.481L210.389 130.12C210.417 130.218 210.362 130.322 210.264 130.351Z" fill="#F1A34F"/>
<path d="M209.491 130.582L206.796 131.386C206.622 131.438 206.437 131.339 206.384 131.165L204.769 125.801C204.716 125.627 204.815 125.443 204.99 125.391L207.685 124.587C207.86 124.534 208.044 124.633 208.097 124.807L209.713 130.172C209.766 130.347 209.666 130.529 209.491 130.582Z" fill="#CA0F2E"/>
<path d="M205.392 128.984C205.392 128.984 206.629 127.09 206.931 127.195C207.363 127.345 205.81 129.749 205.81 129.749C205.81 129.749 206.961 127.952 207.141 128.087C207.55 128.396 206.898 129.524 206.252 130.389C206.252 130.389 207.409 129.334 207.447 129.524C207.578 130.19 206.177 131.802 206.177 131.802L205.392 130.02V128.984Z" fill="#FFB27D"/>
<path d="M204.463 130.744C204.524 130.513 204.825 125.988 204.954 126.416C205.083 126.846 205.39 129.218 205.39 129.218L204.463 130.744Z" fill="#FFB27D"/>
<path d="M224.208 129.498C224.208 129.498 224.079 134.419 222.652 138.389C221.526 141.525 219.592 144.068 216.273 143.13C215.934 143.033 215.606 142.93 215.287 142.819C215.285 142.818 215.284 142.818 215.284 142.818C208.542 140.48 206.361 135.129 206.361 135.129C206.863 134.305 208.317 134.001 208.317 134.001C209.675 134.074 215.64 136.596 216.021 136.673C217.401 136.95 218.516 129.4 219.412 126.786C220.309 124.17 223.979 123 223.979 123L224.208 129.498Z" fill="#CA0F2E"/>
<path d="M222.783 134.843L222.654 138.388C221.527 141.524 219.593 144.067 216.275 143.128C215.935 143.032 215.607 142.929 215.289 142.818C215.394 142.831 217.426 143.104 218.275 142.258C219.148 141.388 219.057 138.503 220.667 136.58C222.276 134.659 222.783 134.843 222.783 134.843Z" fill="#CA0F2E"/>
<path d="M222.968 199.677C222.968 199.677 224.627 201.184 224.304 202.255C223.98 203.326 222.483 204.039 222.28 205.349C222.077 206.657 221.268 207.372 220.54 207.372C219.812 207.372 217.068 207.372 217.068 207.372C217.068 207.372 216.532 206.45 217.826 206.174C219.121 205.896 219.609 204.357 219.528 202.93C219.447 201.502 219.65 199.599 219.65 199.599L222.401 198.965L222.968 199.677Z" fill="#133054"/>
<path d="M204.689 207.098H214.914C215.314 207.098 215.644 206.782 215.655 206.383C215.671 205.787 215.622 204.919 215.29 204.187C214.744 202.983 214.4 202.771 216.704 199.267C216.01 199.977 214.141 199.653 212.564 199.441C212.371 199.753 209.445 204.252 208.799 204.714C208.087 205.224 204.908 205.043 204.689 207.098Z" fill="#163560"/>
<path d="M220.62 150.653C220.62 150.653 213.206 164.578 211.192 172.247C209.628 178.199 219.171 201.227 219.171 201.227C219.171 201.227 219.951 201.175 221.224 200.677C222.473 200.189 222.949 198.877 222.949 198.877C222.949 198.877 222.383 182.41 220.451 174.445C220.017 172.657 222.551 166.889 226.829 163.73C231.107 160.571 232.887 150.407 230.341 149.721C227.795 149.034 220.62 150.653 220.62 150.653Z" fill="#163560"/>
<path d="M226.967 146.7C226.967 146.7 219.174 175.14 216.81 181.527C214.445 187.913 210.696 201.468 210.696 201.468C210.696 201.468 213.067 202.575 216.103 202.052C216.103 202.052 227.498 185.432 227.995 178.086C228.225 174.691 239.686 161.231 238.409 152.455L226.967 146.7Z" fill="#1C468A"/>
<path d="M238.39 155.574C238.39 155.574 236.732 156.406 233.8 156.651H233.798C230.441 156.931 225.414 156.439 219.291 153.045C219.291 153.045 217.583 151.644 219.682 145.687C221.27 141.176 222.044 131.666 223.983 122.999C223.983 122.999 230.272 121.035 235.316 122.732C239.171 124.03 238.787 129.919 239.499 136.053C239.566 136.625 239.642 137.2 239.732 137.772C240.782 144.486 238.39 155.574 238.39 155.574Z" fill="#CA0F2E"/>
<path d="M221.763 110.168C221.763 110.168 226.056 103.212 229.379 106.792C229.379 106.792 231.552 107.344 232.797 110.713C234.067 114.149 232.089 117.184 230.768 116.693C229.921 116.379 229.525 117.833 229.525 117.833L221.763 110.168Z" fill="#233862"/>
<path d="M228.721 106.244C228.721 106.244 229.016 103.364 233.243 103.644C233.243 103.644 231.244 103.68 230.815 104.51C230.815 104.51 232.268 103.577 233.328 104.031C234.388 104.485 234.838 106.46 234.78 107.089C234.723 107.718 233.909 109.681 233.197 109.784C232.485 109.887 231.55 109.385 231.55 109.385L228.721 106.244Z" fill="#233862"/>
<path d="M230.851 122.556C230.454 121.502 229.862 120.397 229.388 117.033L229.134 117.122L224.868 118.617C224.868 118.617 225.167 119.978 225.357 121.274C225.436 121.804 225.491 122.749 225.527 123.576C225.564 124.42 226.399 124.5 227.246 124.46C229.502 124.358 230.745 123.519 230.851 122.556Z" fill="#FFB27D"/>
<path d="M224.867 118.618C224.867 118.618 225.165 119.98 225.356 121.276C227.804 120.855 228.78 118.436 229.133 117.123L224.867 118.618Z" fill="#E8945B"/>
<path d="M229.518 116.581C229.518 116.581 230.513 114.37 230.57 112.593C230.612 111.325 229.315 106.832 224.783 108.156C224.783 108.156 223.458 108.48 222.318 109.511C221.41 110.331 220.172 111.997 222.373 115.764L222.99 117.055L229.518 116.581Z" fill="#233862"/>
<path d="M224.224 119.964C224.224 119.964 230.052 119.224 229.534 115.619C229.016 112.013 229.42 109.488 225.676 109.807C221.932 110.127 221.408 111.605 221.288 112.851C221.167 114.097 222.694 120.063 224.224 119.964Z" fill="#FFB27D"/>
<path d="M223.015 110.098C223.015 110.098 225.22 114.101 227.754 114.375C230.288 114.65 231.253 113.846 231.253 113.846C231.253 113.846 229.164 112.633 228.4 110.102C228.4 110.102 223.925 107.912 223.015 110.098Z" fill="#233862"/>
<path d="M223.46 110.385C223.46 110.385 222.408 111.5 222.251 112.459C222.095 113.419 222.238 115.328 221.675 115.343C221.675 115.343 220.059 112.639 221.172 110.819C222.35 108.89 223.46 110.385 223.46 110.385Z" fill="#233862"/>
<path d="M223.26 110.56C223.26 110.56 225.035 114.827 228.324 115.803C228.324 115.803 224.847 113.524 224.162 110.637C223.476 107.751 223.26 110.56 223.26 110.56Z" fill="#233862"/>
<path d="M238.39 155.574C238.39 155.574 236.732 156.406 233.8 156.651H233.798C233.798 156.651 231.389 153.645 234.077 150.275C236.765 146.906 233.867 140.689 235.937 137.308C237.378 134.956 238.78 135.503 239.499 136.053C239.566 136.625 239.642 137.2 239.732 137.772C240.782 144.486 238.39 155.574 238.39 155.574Z" fill="#CA0F2E"/>
<path d="M248.964 150.576C248.964 150.576 249.322 151.405 249.821 151.46C250.636 151.551 252.188 152.23 252.432 152.374C253.092 152.765 253.048 154.511 252.387 154.675C251.727 154.839 251.396 153.374 249.333 152.981C248.634 152.848 247.613 153.33 247.2 151.661L248.964 150.576Z" fill="#FFB27D"/>
<path d="M235.314 122.732C241.315 124.929 241.538 135.514 244.213 140.175C246.972 144.982 249.66 151.309 249.66 151.309C249.66 151.309 249.612 151.499 248.583 151.793C247.859 152 247.102 151.912 247.102 151.912C247.102 151.912 241.431 146.805 239.89 144.791C238.35 142.776 234.718 133.431 234.718 133.431C234.718 133.431 232.932 121.86 235.314 122.732Z" fill="#CA0F2E"/>
<path d="M247.347 152.074C247.347 152.074 247.494 152.786 248.378 153.361C249.262 153.936 249.972 154.511 250.059 154.155C250.145 153.799 249.567 153.416 249.429 152.757C249.29 152.1 247.347 152.074 247.347 152.074Z" fill="#FFB27D"/>
<path d="M195.914 116.828H108.816V179.593H195.914V116.828Z" fill="#CA0F2E"/>
<path d="M173.985 196.627V205.094C173.985 205.198 173.983 205.302 173.979 205.405H130.425C130.42 205.302 130.419 205.198 130.419 205.094V196.627C130.419 192.764 132.924 189.604 135.984 189.604H168.42C171.48 189.605 173.985 192.765 173.985 196.627Z" fill="#94B0ED"/>
<path d="M152.158 200.378L149.355 197.88L150.143 197.004L151.953 198.618L154.459 195.049L155.428 195.722L152.158 200.378Z" fill="#FFE3CA"/>
<path d="M152.391 203.055C149.431 203.055 147.025 200.659 147.025 197.714C147.025 194.769 149.432 192.372 152.391 192.372C155.349 192.372 157.756 194.769 157.756 197.714C157.758 200.659 155.35 203.055 152.391 203.055ZM152.391 192.647C149.584 192.647 147.3 194.919 147.3 197.714C147.3 200.508 149.584 202.781 152.391 202.781C155.198 202.781 157.481 200.508 157.481 197.714C157.481 194.919 155.198 192.647 152.391 192.647Z" fill="#FFE3CA"/>
<path d="M116.616 75.9938C116.616 75.9938 118.633 71.5238 123.456 72.0195C123.456 72.0195 130.457 64.568 137.924 71.0257C137.924 71.0257 145.861 69.4259 151.738 72.4112C155.656 74.4014 156.951 76.4895 156.951 76.4895L116.616 75.9938Z" fill="#EBF3FA"/>
<path d="M145.022 65.426C145.047 65.4248 145.073 65.4248 145.097 65.4236C145.403 65.4187 145.697 65.3085 145.922 65.1041C146.936 64.1812 150.026 61.8851 153.353 64.5227C153.614 64.7296 153.95 64.8153 154.279 64.7663C155.564 64.579 158.922 64.2767 161.551 65.6782C161.622 65.7161 161.692 65.754 161.761 65.7932C162.855 66.404 162.395 68.0698 161.141 68.0539L145.058 67.8458C143.482 67.8262 143.446 65.4848 145.022 65.426Z" fill="#EBF3FA"/>
<path d="M185.198 170.384H167.91C164.927 170.384 162.501 167.969 162.501 165V128.654C162.501 125.684 164.927 123.27 167.91 123.27H185.198C188.181 123.27 190.607 125.684 190.607 128.654V165C190.607 167.969 188.181 170.384 185.198 170.384ZM167.91 123.818C165.232 123.818 163.053 125.987 163.053 128.653V164.998C163.053 167.664 165.232 169.833 167.91 169.833H185.198C187.876 169.833 190.055 167.664 190.055 164.998V128.653C190.055 125.987 187.876 123.818 185.198 123.818H167.91Z" fill="white"/>
<path d="M154.66 146.961H129.682C127.484 146.961 125.702 145.187 125.702 142.999V127.504C125.702 125.316 127.484 123.542 129.682 123.542H154.66C156.859 123.542 158.64 125.316 158.64 127.504V142.999C158.64 145.187 156.859 146.961 154.66 146.961Z" fill="white"/>
<path d="M155.029 170.384H129.315C127.172 170.384 125.427 168.648 125.427 166.514V154.418C125.427 152.285 127.171 150.548 129.315 150.548H155.029C157.172 150.548 158.917 152.284 158.917 154.418V166.514C158.916 168.648 157.172 170.384 155.029 170.384ZM129.315 151.098C127.475 151.098 125.979 152.587 125.979 154.418V166.514C125.979 168.345 127.475 169.834 129.315 169.834H155.029C156.869 169.834 158.365 168.345 158.365 166.514V154.418C158.365 152.587 156.869 151.098 155.029 151.098H129.315Z" fill="white"/>
<path d="M169.367 136.577C169.367 140.825 176.555 147.617 176.555 147.617C176.555 147.617 183.743 140.825 183.743 136.577C183.743 132.328 180.525 128.883 176.555 128.883C172.585 128.883 169.367 132.328 169.367 136.577ZM172.319 136.125C172.319 133.802 174.221 131.908 176.553 131.908C178.898 131.908 180.788 133.802 180.788 136.125C180.788 138.458 178.897 140.34 176.553 140.34C174.221 140.341 172.319 138.459 172.319 136.125Z" fill="white"/>
<path d="M155.285 139.048L154.944 139.051C154.932 139.051 154.921 139.053 154.91 139.056L152.301 139.766C152.269 139.775 152.235 139.772 152.205 139.758L148.539 138.353C148.445 138.307 149.012 138.032 149.097 137.971C150.014 137.306 152.922 135.688 154.015 134.968C154.19 134.853 154.142 134.586 153.937 134.539C153.839 134.515 153.736 134.521 153.641 134.556L148.3 136.486L147.582 136.033C147.477 135.967 147.339 135.999 147.272 136.103L146.921 136.657C146.855 136.759 146.885 136.895 146.984 136.962L146.296 137.211C146.263 137.223 146.227 137.222 146.195 137.208L142.909 135.813C142.617 135.689 142.293 135.67 141.989 135.758C141.866 135.793 141.733 135.832 141.61 135.868C141.356 135.943 141.215 136.214 141.302 136.464L141.345 136.59C141.486 137 141.803 137.326 142.21 137.479L144.876 138.477C144.929 138.497 144.964 138.547 144.966 138.603L144.989 139.75L144.836 139.654C144.732 139.587 144.593 139.619 144.527 139.723L144.175 140.278C144.109 140.382 144.141 140.52 144.245 140.586L145.016 141.073L145.053 142.863C145.055 143.007 145.102 143.148 145.184 143.267C145.29 143.417 145.402 143.585 145.44 143.568C145.567 143.512 146.774 140.756 147.185 139.672C147.208 139.611 147.732 139.804 147.793 139.827L151.427 140.934C151.473 140.951 151.507 140.993 151.514 141.042L151.675 142.097C151.694 142.215 151.751 142.323 151.84 142.404L151.844 142.408C151.906 142.465 152.006 142.453 152.051 142.382L152.896 141.093C152.921 141.055 152.962 141.033 153.007 141.031L153.396 141.018C153.518 141.015 153.575 140.867 153.487 140.782L153.393 140.692L155.365 139.299C155.477 139.218 155.42 139.045 155.285 139.048Z" fill="#CA0F2E"/>
<path d="M150.048 165.817C147.084 165.817 144.673 163.417 144.673 160.466C144.673 157.515 147.084 155.115 150.048 155.115C153.013 155.115 155.424 157.515 155.424 160.466C155.424 163.417 153.013 165.817 150.048 165.817ZM150.048 155.701C147.409 155.701 145.262 157.838 145.262 160.466C145.262 163.094 147.41 165.231 150.048 165.231C152.688 165.231 154.835 163.093 154.835 160.466C154.836 157.838 152.688 155.701 150.048 155.701Z" fill="white"/>
<path d="M150.05 161.184H149.977C149.875 161.184 149.79 161.101 149.79 160.998V158.017C149.79 157.914 149.873 157.831 149.977 157.831H150.05C150.154 157.831 150.237 157.914 150.237 158.017V160.998C150.237 161.1 150.152 161.184 150.05 161.184Z" fill="white"/>
<path d="M149.95 161.087L149.944 161.08C149.902 161.039 149.902 160.97 149.944 160.929L152.933 157.953C152.975 157.912 153.044 157.912 153.085 157.953L153.092 157.959C153.133 158.001 153.133 158.069 153.092 158.111L150.103 161.087C150.06 161.128 149.992 161.128 149.95 161.087Z" fill="white"/>
<path d="M149.72 160.98C149.72 160.818 149.852 160.687 150.014 160.687C150.176 160.687 150.308 160.818 150.308 160.98C150.308 161.142 150.176 161.273 150.014 161.273C149.852 161.273 149.72 161.142 149.72 160.98Z" fill="white"/>
<path d="M141.068 154.056H129.248V155.276H141.068V154.056Z" fill="white"/>
<path d="M141.068 156.842H129.248V158.071H141.068V156.842Z" fill="white"/>
<path d="M136.335 159.636H129.248V160.865H136.335V159.636Z" fill="white"/>
<path d="M182.464 154.109H170.644V155.329H182.464V154.109Z" fill="white"/>
<path d="M182.464 156.893H170.644V158.122H182.464V156.893Z" fill="white"/>
<path d="M177.731 159.688H170.644V160.916H177.731V159.688Z" fill="white"/>
<path d="M141.801 128.929H129.981V130.149H141.801V128.929Z" fill="#CA0F2E"/>
<path d="M141.801 131.715H129.981V132.944H141.801V131.715Z" fill="#CA0F2E"/>
<path d="M137.068 134.509H129.981V135.738H137.068V134.509Z" fill="#CA0F2E"/>
<path d="M240.863 61.6844C240.722 61.6844 240.602 61.5767 240.589 61.4347C240.589 61.4298 240.544 60.95 240.454 60.1005C240.438 59.95 240.547 59.8141 240.698 59.7982C240.849 59.7811 240.986 59.8912 241.002 60.0418C241.093 60.8949 241.138 61.3784 241.138 61.3833C241.152 61.5338 241.04 61.6685 240.889 61.6819C240.88 61.6844 240.872 61.6844 240.863 61.6844ZM240.58 59.0198C240.441 59.0198 240.322 58.9157 240.306 58.7762C240.26 58.3748 240.209 57.9329 240.15 57.4543C240.131 57.3038 240.24 57.1667 240.391 57.1483C240.541 57.1312 240.68 57.2377 240.698 57.3882C240.756 57.868 240.808 58.3111 240.854 58.7138C240.872 58.8643 240.763 59.0002 240.611 59.0173C240.601 59.0186 240.59 59.0198 240.58 59.0198ZM240.26 56.3748C240.124 56.3748 240.005 56.2732 239.988 56.1349C239.935 55.7151 239.877 55.2757 239.817 54.8167C239.797 54.6661 239.903 54.5278 240.054 54.5082C240.205 54.4887 240.344 54.5939 240.364 54.7445C240.425 55.2034 240.482 55.6453 240.535 56.0651C240.554 56.2157 240.446 56.3528 240.295 56.3723C240.284 56.3736 240.272 56.3748 240.26 56.3748ZM239.911 53.7371C239.776 53.7371 239.657 53.638 239.638 53.4997C239.579 53.0737 239.518 52.6343 239.453 52.1839C239.431 52.0334 239.536 51.8951 239.686 51.873C239.838 51.851 239.976 51.9563 239.999 52.1056C240.064 52.5572 240.125 52.9966 240.184 53.4238C240.205 53.5743 240.099 53.7127 239.948 53.7335C239.936 53.7359 239.924 53.7371 239.911 53.7371ZM239.533 51.1044C239.399 51.1044 239.281 51.0065 239.26 50.8706C239.196 50.441 239.129 50.004 239.059 49.5573C239.036 49.4067 239.139 49.2672 239.29 49.2439C239.439 49.2219 239.582 49.3235 239.605 49.474C239.674 49.9208 239.742 50.3602 239.806 50.7898C239.828 50.9404 239.724 51.0799 239.573 51.1019C239.56 51.1032 239.546 51.1044 239.533 51.1044ZM239.124 48.4765C238.992 48.4765 238.874 48.3798 238.853 48.2452C238.784 47.8144 238.711 47.3774 238.637 46.9355C238.613 46.7862 238.714 46.6442 238.865 46.6198C239.014 46.5953 239.158 46.6956 239.182 46.8462C239.256 47.2893 239.328 47.7274 239.397 48.1595C239.422 48.3088 239.319 48.4508 239.169 48.4741C239.154 48.4765 239.139 48.4765 239.124 48.4765ZM238.687 45.856C238.555 45.856 238.438 45.7618 238.415 45.6283C238.34 45.1975 238.264 44.7605 238.184 44.3211C238.157 44.1718 238.256 44.0286 238.406 44.0029C238.556 43.9772 238.7 44.0751 238.726 44.2244C238.805 44.6651 238.882 45.102 238.957 45.5353C238.983 45.6846 238.882 45.8266 238.732 45.8523C238.717 45.8535 238.703 45.856 238.687 45.856ZM238.216 43.2392C238.085 43.2392 237.97 43.1474 237.945 43.0139C237.865 42.5819 237.782 42.1474 237.698 41.7104C237.67 41.5611 237.767 41.4179 237.917 41.3885C238.067 41.3591 238.211 41.4571 238.24 41.6064C238.325 42.0446 238.408 42.4803 238.489 42.9136C238.517 43.0629 238.417 43.2061 238.267 43.2343C238.25 43.2379 238.233 43.2392 238.216 43.2392ZM237.712 40.6309C237.583 40.6309 237.467 40.5403 237.441 40.4106C237.355 39.9785 237.267 39.5452 237.176 39.1107C237.145 38.9626 237.241 38.817 237.39 38.7864C237.54 38.7545 237.685 38.8512 237.715 38.9993C237.806 39.4351 237.895 39.8696 237.982 40.3029C238.012 40.4522 237.915 40.5966 237.766 40.626C237.747 40.6284 237.729 40.6309 237.712 40.6309ZM237.169 38.0287C237.042 38.0287 236.928 37.9406 236.9 37.8121C236.807 37.3825 236.712 36.9516 236.615 36.5208C236.582 36.3727 236.675 36.2258 236.824 36.1928C236.973 36.1597 237.12 36.2527 237.153 36.4008C237.251 36.8329 237.346 37.2662 237.44 37.697C237.472 37.8451 237.377 37.992 237.228 38.0238C237.208 38.0275 237.188 38.0287 237.169 38.0287ZM236.585 35.44C236.46 35.44 236.347 35.3543 236.317 35.2283C236.217 34.7974 236.113 34.3654 236.009 33.9345C235.973 33.7877 236.064 33.6383 236.212 33.6028C236.36 33.5661 236.509 33.6579 236.545 33.8048C236.651 34.2369 236.754 34.6701 236.855 35.1034C236.889 35.2515 236.797 35.3984 236.648 35.4339C236.627 35.4376 236.606 35.44 236.585 35.44ZM235.955 32.855C235.832 32.855 235.719 32.7718 235.688 32.6482C235.578 32.2198 235.468 31.7914 235.353 31.3654C235.314 31.2186 235.403 31.068 235.55 31.0301C235.698 30.9909 235.849 31.079 235.887 31.2259C236.001 31.6543 236.112 32.0839 236.223 32.5147C236.26 32.6616 236.171 32.8109 236.023 32.8489C236 32.8526 235.977 32.855 235.955 32.855ZM235.271 30.2871C235.151 30.2871 235.039 30.2076 235.005 30.0852C234.886 29.658 234.766 29.2333 234.643 28.811C234.6 28.6654 234.685 28.5124 234.831 28.4707C234.977 28.4279 235.131 28.5124 235.173 28.658C235.297 29.0827 235.419 29.5099 235.538 29.9395C235.578 30.0852 235.492 30.2369 235.346 30.2773C235.32 30.2847 235.296 30.2871 235.271 30.2871ZM234.527 27.7364C234.409 27.7364 234.3 27.6605 234.263 27.5418C234.132 27.1183 234 26.6923 233.866 26.2774C233.819 26.133 233.899 25.9787 234.044 25.9322C234.189 25.8857 234.344 25.9653 234.391 26.1097C234.525 26.5271 234.659 26.9555 234.79 27.3814C234.835 27.5271 234.752 27.6801 234.607 27.7241C234.581 27.7327 234.554 27.7364 234.527 27.7364ZM233.712 25.2064C233.596 25.2064 233.489 25.1342 233.45 25.0192C233.307 24.5981 233.16 24.1783 233.014 23.7695C232.962 23.6263 233.037 23.4696 233.181 23.4182C233.325 23.3668 233.482 23.4415 233.534 23.5847C233.681 23.9959 233.83 24.4194 233.974 24.8441C234.023 24.9873 233.946 25.144 233.801 25.193C233.771 25.2028 233.741 25.2064 233.712 25.2064ZM206.628 24.3227C206.595 24.3227 206.56 24.3166 206.527 24.3031C206.386 24.2481 206.316 24.0889 206.371 23.947C206.466 23.7046 206.561 23.4659 206.657 23.2309C206.714 23.0902 206.875 23.0229 207.016 23.0792C207.158 23.1367 207.225 23.2958 207.169 23.4366C207.074 23.6691 206.979 23.9066 206.885 24.1465C206.842 24.2566 206.739 24.3227 206.628 24.3227ZM232.812 22.7071C232.701 22.7071 232.596 22.6398 232.554 22.5296C232.394 22.111 232.23 21.6973 232.068 21.2995C232.01 21.1588 232.079 20.9984 232.219 20.9421C232.361 20.8846 232.522 20.9531 232.578 21.0927C232.742 21.4941 232.908 21.9127 233.069 22.335C233.123 22.477 233.052 22.6361 232.909 22.6899C232.877 22.701 232.844 22.7071 232.812 22.7071ZM207.426 22.3864C207.389 22.3864 207.352 22.3791 207.318 22.3644C207.177 22.3044 207.112 22.1428 207.173 22.0033C207.352 21.5884 207.534 21.1783 207.715 20.7854C207.779 20.6471 207.942 20.5872 208.08 20.6496C208.219 20.7132 208.279 20.876 208.216 21.0143C208.037 21.4036 207.856 21.8099 207.679 22.2199C207.634 22.324 207.533 22.3864 207.426 22.3864ZM231.806 20.2469C231.699 20.2469 231.598 20.1857 231.553 20.0817C231.372 19.6692 231.188 19.2641 231.006 18.8797C230.941 18.7426 231 18.5786 231.137 18.5138C231.275 18.4489 231.44 18.5076 231.505 18.6447C231.689 19.0339 231.875 19.444 232.058 19.8614C232.12 20.0009 232.056 20.1624 231.916 20.2224C231.88 20.2396 231.843 20.2469 231.806 20.2469ZM208.536 19.9764C208.496 19.9764 208.454 19.9678 208.414 19.9483C208.278 19.8809 208.221 19.7169 208.288 19.5811C208.488 19.1747 208.693 18.7745 208.896 18.3926C208.968 18.2592 209.135 18.2078 209.269 18.2788C209.403 18.3498 209.455 18.5162 209.383 18.6496C209.183 19.0266 208.98 19.4207 208.782 19.8222C208.735 19.9201 208.638 19.9764 208.536 19.9764ZM230.668 17.8443C230.567 17.8443 230.471 17.7892 230.422 17.6949C230.216 17.2959 230.006 16.9055 229.796 16.5346C229.721 16.4024 229.769 16.2347 229.902 16.1601C230.034 16.0854 230.203 16.1319 230.278 16.2641C230.492 16.6411 230.705 17.0377 230.914 17.4428C230.984 17.5774 230.93 17.7439 230.794 17.8124C230.754 17.8345 230.711 17.8443 230.668 17.8443ZM209.785 17.6362C209.739 17.6362 209.691 17.6239 209.648 17.5995C209.516 17.5236 209.471 17.3559 209.547 17.2237C209.775 16.8296 210.009 16.444 210.241 16.0793C210.323 15.9508 210.493 15.9128 210.623 15.9936C210.752 16.0744 210.79 16.2445 210.707 16.373C210.48 16.7317 210.25 17.1099 210.025 17.4979C209.973 17.586 209.88 17.6362 209.785 17.6362ZM229.357 15.5334C229.265 15.5334 229.175 15.4881 229.123 15.4049C228.884 15.0242 228.638 14.657 228.393 14.3143C228.305 14.1907 228.334 14.0193 228.458 13.9312C228.582 13.8431 228.754 13.8725 228.843 13.9961C229.094 14.3474 229.345 14.7231 229.591 15.1136C229.672 15.2421 229.632 15.4122 229.503 15.4918C229.458 15.5199 229.407 15.5334 229.357 15.5334ZM211.213 15.3988C211.157 15.3988 211.102 15.3829 211.054 15.3486C210.93 15.2617 210.899 15.0903 210.988 14.9655C211.253 14.5897 211.525 14.2286 211.794 13.8908C211.889 13.7721 212.062 13.7525 212.182 13.8468C212.301 13.941 212.321 14.1136 212.226 14.2323C211.963 14.5616 211.698 14.9141 211.439 15.2813C211.384 15.3584 211.299 15.3988 211.213 15.3988ZM227.811 13.3755C227.732 13.3755 227.653 13.3413 227.599 13.2752C227.312 12.9276 227.018 12.6032 226.727 12.3082C226.62 12.2005 226.621 12.0267 226.729 11.9202C226.838 11.8138 227.013 11.815 227.119 11.9227C227.422 12.2287 227.727 12.5665 228.023 12.9263C228.12 13.0438 228.103 13.2164 227.985 13.3131C227.934 13.3547 227.873 13.3755 227.811 13.3755ZM212.873 13.3278C212.806 13.3278 212.74 13.3046 212.687 13.2556C212.575 13.1528 212.566 12.979 212.67 12.8676C212.983 12.5273 213.304 12.2054 213.625 11.9117C213.737 11.8089 213.912 11.8162 214.015 11.9276C214.118 12.039 214.111 12.2128 213.999 12.3156C213.69 12.5995 213.379 12.9092 213.077 13.2385C213.021 13.2984 212.946 13.3278 212.873 13.3278ZM214.834 11.5408C214.75 11.5408 214.667 11.5029 214.612 11.4307C214.521 11.3095 214.546 11.1369 214.668 11.0463C215.04 10.7685 215.424 10.5176 215.806 10.2997C215.939 10.2238 216.108 10.2703 216.183 10.4013C216.259 10.5335 216.212 10.7012 216.08 10.7758C215.717 10.9827 215.353 11.2214 214.997 11.4857C214.948 11.5225 214.89 11.5408 214.834 11.5408ZM225.943 11.5016C225.881 11.5016 225.821 11.4821 225.769 11.4404C225.424 11.1626 225.07 10.9178 224.718 10.711C224.586 10.6339 224.543 10.4662 224.621 10.3352C224.698 10.2042 224.867 10.1614 224.998 10.2385C225.373 10.4588 225.75 10.7195 226.116 11.0133C226.234 11.1088 226.254 11.2813 226.158 11.4001C226.102 11.4662 226.022 11.5016 225.943 11.5016ZM217.142 10.2373C217.032 10.2373 216.928 10.1712 216.885 10.0635C216.828 9.92273 216.898 9.76239 217.04 9.70731C217.467 9.5384 217.909 9.40254 218.35 9.3034C218.498 9.26913 218.647 9.36215 218.68 9.51025C218.713 9.65835 218.619 9.80522 218.471 9.83827C218.056 9.93129 217.643 10.0586 217.241 10.2177C217.209 10.2312 217.175 10.2373 217.142 10.2373ZM223.664 10.1847C223.632 10.1847 223.602 10.1798 223.57 10.1675C223.364 10.0929 223.156 10.0304 222.949 9.97903C222.737 9.9264 222.527 9.87989 222.324 9.84072C222.174 9.81134 222.077 9.66692 222.106 9.51759C222.136 9.36827 222.281 9.27157 222.431 9.30095C222.642 9.34256 222.861 9.39152 223.081 9.44538C223.308 9.50046 223.535 9.57022 223.758 9.651C223.9 9.70241 223.975 9.8603 223.922 10.0035C223.883 10.1149 223.776 10.1847 223.664 10.1847ZM221.059 9.66447C221.051 9.66447 221.044 9.66447 221.038 9.66324C220.599 9.6302 220.166 9.62775 219.746 9.65468C219.593 9.66447 219.462 9.55064 219.452 9.39887C219.442 9.24709 219.556 9.11613 219.709 9.10634C220.155 9.07696 220.614 9.07941 221.079 9.11491C221.231 9.12592 221.344 9.25811 221.333 9.40988C221.323 9.55431 221.201 9.66447 221.059 9.66447Z" fill="#CA0F2E"/>
<path d="M314.616 207.935L0.382385 207.834C0.172134 207.834 0 207.673 0 207.475V207.293C0 207.096 0.172134 206.934 0.383614 206.935L314.618 207.036C314.828 207.036 315 207.197 315 207.395V207.579C315 207.774 314.828 207.935 314.616 207.935Z" fill="#2E3552"/>
<path d="M108.853 91.9739C108.853 91.9739 112.613 91.7144 113.433 94.652C113.433 94.652 116.329 88.7794 122.444 89.2628C128.56 89.7463 129.69 93.3276 129.69 93.3276C129.69 93.3276 133.194 92.1294 136.104 93.7266C139.015 95.3239 138.828 98.2529 138.828 98.2529C138.828 98.2529 141.496 94.5247 146.859 95.8563C146.859 95.8563 145.789 90.466 152.238 89.2334C158.687 88.0009 161.427 90.1306 161.427 90.1306C161.427 90.1306 168.73 85.4477 175.196 91.3179C175.196 91.3179 179.933 90.4023 182.25 93.3068C182.25 93.3068 186.996 87.597 195.925 88.6007V116.828H108.816L108.853 91.9739Z" fill="#D7E2FF"/>
<path d="M108.852 106.059C108.852 106.059 115.175 104.467 120.82 108.176C120.82 108.176 122.196 106.544 125.779 106.948C129.362 107.352 130.349 110.647 130.349 110.647C130.349 110.647 142.886 106.526 149.093 116.828H108.816L108.852 106.059Z" fill="#EBF3FA"/>
<path d="M156.811 116.828C156.811 116.828 157.131 110.511 163.756 109.001C163.756 109.001 160.325 107.49 162.055 103.735C163.785 99.9811 167.986 99.7057 167.986 99.7057C167.986 99.7057 168.425 92.9139 180.338 94.0865C183.682 94.4157 187.223 96.4096 187.777 99.8893C187.777 99.8893 189.069 97.7743 191.744 97.9163C191.744 97.9163 192.075 94.0546 195.924 94.0877V116.828H156.811Z" fill="#EBF3FA"/>
<path d="M190.332 62.5081L185.331 79.7526L185.174 79.733L168.091 77.6669C168.091 77.6669 176.003 76.0293 176.825 75.0831C177.6 74.1921 185.816 63.6256 188.219 62.4959C188.367 62.4261 188.492 62.393 188.593 62.3992C190.332 62.5081 190.332 62.5081 190.332 62.5081Z" fill="#CA0F2E"/>
<path d="M185.174 79.733L168.091 77.6669C168.091 77.6669 176.003 76.0293 176.825 75.0831C177.6 74.1921 185.816 63.6256 188.219 62.4958C186.092 65.5717 181.161 72.9632 181.37 75.1125C181.567 77.1602 183.974 78.957 185.174 79.733Z" fill="#CA0F2E"/>
<path d="M187.019 84.9263C186.436 85.1246 184.693 85.6717 182.301 86.3645C175.426 88.3546 163.197 91.5504 157.801 91.1563C152.96 90.8026 127.357 88.8565 109.647 87.3106C113.932 79.8187 119.276 75.6804 124.166 73.4112C144.798 75.0942 171.782 77.3683 175.216 78.028C180.863 79.1149 188.356 79.9986 188.356 79.9986C188.356 79.9986 188.406 80.2263 188.455 80.5886C188.614 81.7636 188.748 84.3339 187.019 84.9263Z" fill="#E58638"/>
<path d="M188.543 81.8358C188.541 81.8774 188.541 81.9227 188.54 81.9655C188.525 82.9006 188.334 83.9434 187.67 84.5444C187.648 84.5652 187.624 84.5848 187.6 84.6044C187.553 84.6423 187.502 84.6803 187.452 84.7133C187.452 84.7133 187.452 84.7133 187.451 84.7133V84.7146C187.426 84.7305 187.399 84.7464 187.371 84.7635C187.345 84.7782 187.318 84.7941 187.288 84.8088C187.288 84.8088 187.288 84.8088 187.287 84.8088C187.26 84.8235 187.232 84.8369 187.201 84.8504C187.172 84.8639 187.142 84.8773 187.11 84.8896C187.081 84.9018 187.049 84.9128 187.017 84.9239C187.007 84.9275 186.998 84.93 186.989 84.9324V84.9336C186.979 84.9361 186.969 84.9398 186.959 84.9434C186.949 84.9471 186.938 84.9496 186.928 84.9532V84.9545C186.917 84.9569 186.906 84.9606 186.895 84.9642V84.9655C186.884 84.9679 186.872 84.9716 186.861 84.9765C186.848 84.9802 186.836 84.9838 186.825 84.9875C186.825 84.9875 186.825 84.9875 186.824 84.9875V84.9887C186.811 84.9924 186.799 84.9961 186.787 85.001C186.773 85.0046 186.761 85.0095 186.748 85.0132H186.746C186.733 85.0181 186.72 85.0218 186.706 85.0267C186.692 85.0316 186.677 85.0352 186.664 85.0401C186.634 85.0499 186.604 85.0597 186.573 85.0695H186.572C186.557 85.0744 186.541 85.0793 186.526 85.0842H186.525V85.0854C186.509 85.0903 186.493 85.0952 186.477 85.1001C186.465 85.1038 186.454 85.1074 186.441 85.1111C186.312 85.1527 186.168 85.1992 186.011 85.2482C185.982 85.2568 185.953 85.2653 185.921 85.2751C185.508 85.4049 185.006 85.5591 184.43 85.7317C184.371 85.7488 184.311 85.7672 184.249 85.7855C184.148 85.8161 184.045 85.8467 183.94 85.8785C183.918 85.8847 183.896 85.892 183.872 85.8981C183.841 85.9079 183.806 85.9177 183.775 85.9275C183.743 85.9373 183.711 85.9459 183.676 85.9557C183.643 85.9654 183.61 85.9752 183.577 85.985C183.545 85.9948 183.51 86.0046 183.476 86.0144C183.443 86.0242 183.408 86.034 183.375 86.0438C183.34 86.0536 183.306 86.0646 183.272 86.0744C183.237 86.0842 183.202 86.094 183.168 86.1038C183.167 86.1038 183.167 86.105 183.167 86.105C183.133 86.1148 183.097 86.1246 183.063 86.1344C183.038 86.1417 183.013 86.149 182.986 86.1576C182.977 86.1588 182.967 86.1625 182.957 86.1662C182.921 86.176 182.886 86.1858 182.85 86.1956C182.672 86.2482 182.488 86.302 182.302 86.3547C182.195 86.3865 182.085 86.4171 181.974 86.4501C181.88 86.4771 181.785 86.504 181.689 86.5321C181.618 86.5529 181.545 86.5738 181.472 86.5946C181.188 86.6753 180.896 86.7574 180.597 86.8418C180.536 86.8589 180.477 86.8749 180.418 86.892C180.313 86.9214 180.209 86.9495 180.104 86.9801C180.01 87.007 179.915 87.0327 179.818 87.0609C179.711 87.0903 179.604 87.1197 179.497 87.1503C175.924 88.138 171.592 89.2445 167.575 90.0486C167.435 90.0768 167.294 90.1037 167.154 90.1331C167.084 90.1465 167.015 90.16 166.945 90.1734C166.804 90.2004 166.666 90.2261 166.527 90.253C166.111 90.3326 165.699 90.4072 165.293 90.4782C165.158 90.5015 165.024 90.5247 164.89 90.548C164.822 90.559 164.756 90.57 164.69 90.581C164.557 90.6031 164.424 90.6239 164.293 90.6471C164.161 90.6679 164.029 90.6875 163.899 90.7071C163.77 90.7267 163.641 90.7463 163.512 90.7646C163.384 90.7842 163.255 90.8026 163.129 90.8197C163.002 90.8368 162.876 90.854 162.752 90.8711C162.627 90.887 162.502 90.9029 162.379 90.9188C162.319 90.9262 162.256 90.9335 162.196 90.9409C161.953 90.9703 161.712 90.9972 161.478 91.0229C161.419 91.029 161.36 91.0351 161.302 91.04C161.186 91.051 161.071 91.0621 160.956 91.0731C160.727 91.0927 160.504 91.111 160.286 91.1245C160.122 91.1367 159.961 91.1453 159.802 91.1526C159.697 91.1587 159.592 91.1624 159.49 91.1661C159.336 91.1722 159.185 91.1759 159.039 91.1771C158.842 91.1808 158.65 91.1796 158.467 91.1759C158.374 91.1747 158.284 91.171 158.194 91.1673C158.15 91.1661 158.106 91.1649 158.061 91.1612C157.973 91.1575 157.888 91.1526 157.803 91.1465C157.774 91.1441 157.742 91.1416 157.708 91.1392C157.701 91.1392 157.694 91.1379 157.686 91.1379C157.667 91.1355 157.646 91.1343 157.625 91.133C157.545 91.1269 157.463 91.122 157.373 91.1147C157.349 91.1135 157.326 91.111 157.3 91.1098C157.271 91.1073 157.241 91.1049 157.209 91.1024C157.164 91.1 157.115 91.0963 157.067 91.0926C157.041 91.0902 157.015 91.089 156.988 91.0865C156.962 91.0853 156.935 91.0829 156.908 91.0804C156.854 91.0767 156.799 91.0731 156.743 91.0682C156.688 91.0645 156.63 91.0596 156.572 91.0559C156.543 91.0535 156.513 91.0523 156.483 91.0498C156.409 91.0437 156.335 91.0388 156.258 91.0327C156.222 91.0302 156.185 91.0278 156.149 91.0241C156.073 91.0192 155.996 91.0131 155.916 91.007C155.883 91.0045 155.849 91.0033 155.814 90.9996C155.715 90.9923 155.617 90.9849 155.514 90.9776C155.23 90.9568 154.927 90.9335 154.606 90.9091C154.568 90.9054 154.528 90.9029 154.487 90.8993C154.407 90.8944 154.327 90.8883 154.244 90.8821C154.122 90.8723 153.996 90.8638 153.869 90.854C153.817 90.8491 153.764 90.8454 153.714 90.8417C153.593 90.8332 153.47 90.8234 153.347 90.8148C153.303 90.8111 153.256 90.8075 153.212 90.805C153.127 90.7977 153.042 90.7916 152.955 90.7854L152.672 90.7634C152.622 90.7597 152.571 90.7561 152.521 90.7524C152.474 90.7487 152.426 90.745 152.38 90.7414C152.303 90.7365 152.228 90.7304 152.151 90.7242C151.711 90.6912 151.252 90.6557 150.775 90.6202C150.705 90.6141 150.637 90.6092 150.566 90.6043C150.46 90.5957 150.353 90.5872 150.246 90.5798C149.998 90.5602 149.744 90.5419 149.487 90.5223C149.467 90.5198 149.447 90.5186 149.428 90.5174C149.204 90.5002 148.979 90.4831 148.75 90.466C148.739 90.4648 148.728 90.4635 148.718 90.4635C147.355 90.3583 145.884 90.2444 144.332 90.1245C144.254 90.1184 144.176 90.1123 144.096 90.1061C143.783 90.0829 143.464 90.0584 143.145 90.0327C142.943 90.0168 142.741 90.0009 142.538 89.985C142.527 89.985 142.516 89.9837 142.505 89.9825C142.274 89.9654 142.04 89.947 141.807 89.9287C141.779 89.9274 141.75 89.9238 141.72 89.9225C141.309 89.8907 140.892 89.8577 140.47 89.8246C140.362 89.8161 140.254 89.8075 140.147 89.7989C140.114 89.7965 140.082 89.794 140.047 89.7916C139.68 89.7634 139.307 89.734 138.933 89.7034C138.77 89.6912 138.608 89.679 138.443 89.6655C138.333 89.6569 138.225 89.6484 138.117 89.641C137.896 89.6227 137.676 89.6055 137.453 89.5884C137.12 89.5627 136.787 89.537 136.451 89.5088C136.422 89.5076 136.392 89.5039 136.361 89.5027C136.222 89.4905 136.085 89.4807 135.947 89.4697C135.937 89.4684 135.927 89.4684 135.917 89.4672C135.506 89.4354 135.092 89.4011 134.676 89.3693C134.665 89.3681 134.653 89.3669 134.641 89.3656C134.598 89.362 134.555 89.3595 134.512 89.3558C134.267 89.3375 134.021 89.3179 133.776 89.2983C133.591 89.2836 133.404 89.2702 133.219 89.2542C133.103 89.2457 132.987 89.2371 132.872 89.2273C132.389 89.1906 131.905 89.1502 131.419 89.1123L131.406 89.111C130.601 89.045 129.791 88.9813 128.975 88.9152C128.864 88.9066 128.753 88.8981 128.641 88.8883L128.618 88.8871C128.26 88.8589 127.905 88.8295 127.546 88.8002C127.435 88.7916 127.325 88.783 127.215 88.7732C126.907 88.7487 126.599 88.7243 126.291 88.6986C125.666 88.6472 125.039 88.5958 124.414 88.5456C124.018 88.5137 123.622 88.4819 123.227 88.4489C122.979 88.4281 122.731 88.4073 122.484 88.3877C121.891 88.3399 121.302 88.291 120.713 88.2433C120.685 88.2408 120.658 88.2384 120.628 88.2359C120.259 88.2053 119.889 88.1759 119.523 88.1441C118.999 88.1013 118.475 88.056 117.955 88.0131C117.746 87.996 117.538 87.9789 117.331 87.9617C117.267 87.9568 117.204 87.9507 117.141 87.9458C116.721 87.9116 116.304 87.8748 115.887 87.8406C115.826 87.8357 115.764 87.8308 115.704 87.8259C115.419 87.8014 115.135 87.7781 114.852 87.7524C113.652 87.6509 112.473 87.5505 111.321 87.4513C111.182 87.4403 111.044 87.4281 110.905 87.4159C110.82 87.4085 110.737 87.4012 110.653 87.395C110.54 87.384 110.428 87.3755 110.315 87.3657C110.091 87.3461 109.869 87.3277 109.647 87.3081C105.354 86.9336 101.524 86.5811 98.5667 86.2825C98.2655 86.2531 97.9716 86.2237 97.69 86.1931C96.988 86.1197 96.3449 86.0511 95.7658 85.9838C94.1281 85.8002 93.0117 85.6448 92.569 85.5346C90.1776 84.9336 86.1878 83.3547 83.7422 81.7146C82.268 80.7244 81.3557 79.7134 81.6938 78.8787C82.1242 77.8175 83.0598 77.1761 84.0213 76.7049C84.8537 76.2949 85.7058 76.0134 86.2628 75.6915C86.2947 75.6731 86.3255 75.6547 86.3574 75.6364C86.4607 75.5727 86.5505 75.5054 86.6279 75.4356C86.6402 75.4234 86.6525 75.4136 86.6673 75.3989C86.8849 75.2031 87.2415 74.8738 87.7579 74.4883C88.1021 74.2313 88.5153 73.9498 89.0059 73.6633C89.0095 73.6609 89.0108 73.6609 89.0132 73.6584C91.1526 72.4112 94.7318 71.0918 100.182 71.4835C100.182 71.4835 110.851 72.3219 124.162 73.4088C124.163 73.4088 124.163 73.4088 124.163 73.4088C125.49 73.5165 126.842 73.6278 128.213 73.7404C128.214 73.7404 128.214 73.7404 128.214 73.7404C128.671 73.7772 129.13 73.8151 129.591 73.8531C130.282 73.9094 130.978 73.9681 131.676 74.0244C131.676 74.0244 131.676 74.0244 131.677 74.0244C132.84 74.1211 134.01 74.2166 135.186 74.3145C135.421 74.3341 135.657 74.3537 135.892 74.372C136.363 74.4112 136.832 74.4516 137.303 74.4895C138.246 74.5691 139.188 74.6474 140.131 74.727C140.601 74.7661 141.069 74.8065 141.539 74.8445C143.215 74.9852 144.881 75.126 146.523 75.2667H146.531C151.276 75.6719 155.827 76.0672 159.864 76.432C159.865 76.432 159.865 76.432 159.865 76.432C160.079 76.4503 160.29 76.4699 160.501 76.4883C162.87 76.7037 165.051 76.9056 166.973 77.0917C167.893 77.1822 168.755 77.2667 169.549 77.3475C172.426 77.6388 174.433 77.8738 175.216 78.0243C177.251 78.416 179.524 78.782 181.599 79.088C181.77 79.1137 181.941 79.1382 182.108 79.1626C182.117 79.1651 182.126 79.1651 182.134 79.1663C182.391 79.2042 182.645 79.241 182.894 79.2765C182.902 79.2777 182.909 79.2789 182.916 79.2801C183.204 79.3205 183.486 79.3609 183.76 79.3989C184.161 79.4539 184.545 79.5066 184.909 79.5555C185.067 79.5763 185.219 79.5971 185.369 79.6167C187.162 79.8542 188.355 79.9949 188.355 79.9949C188.355 79.9949 188.362 80.0268 188.373 80.0867C188.374 80.0916 188.375 80.0965 188.377 80.1014C188.379 80.1173 188.383 80.1345 188.386 80.154C188.393 80.192 188.401 80.2373 188.409 80.2875C188.42 80.3536 188.432 80.4307 188.443 80.5176C188.443 80.5176 188.443 80.5188 188.444 80.5188C188.447 80.5396 188.45 80.5616 188.453 80.5849C188.463 80.6571 188.473 80.733 188.481 80.8162C188.487 80.8725 188.493 80.9337 188.5 80.9937C188.502 81.0267 188.506 81.0622 188.508 81.0965C188.512 81.1344 188.514 81.1736 188.517 81.2116C188.52 81.2666 188.524 81.3242 188.528 81.3817C188.529 81.4049 188.53 81.4282 188.53 81.4527C188.533 81.4931 188.534 81.5359 188.535 81.5763C188.536 81.5983 188.536 81.6191 188.536 81.6399C188.538 81.6816 188.539 81.7256 188.539 81.7672C188.541 81.7905 188.541 81.8137 188.543 81.8358Z" fill="#D7E2FF"/>
<path d="M188.543 81.8358C188.541 81.8774 188.541 81.9227 188.54 81.9655C188.525 82.9006 188.334 83.9434 187.67 84.5444C187.648 84.5652 187.624 84.5848 187.6 84.6044C187.553 84.6423 187.502 84.6803 187.452 84.7133C187.452 84.7133 187.452 84.7133 187.451 84.7133V84.7145C187.426 84.7305 187.399 84.7464 187.371 84.7635C187.345 84.7782 187.318 84.7941 187.288 84.8088C187.288 84.8088 187.288 84.8088 187.287 84.8088C187.26 84.8235 187.232 84.8369 187.201 84.8504C187.172 84.8639 187.142 84.8773 187.11 84.8896C187.081 84.9018 187.049 84.9128 187.017 84.9238C187.007 84.9275 186.998 84.93 186.988 84.9324V84.9336C186.979 84.9361 186.969 84.9398 186.959 84.9434C186.949 84.9471 186.938 84.9495 186.928 84.9532V84.9544C186.917 84.9569 186.906 84.9606 186.895 84.9642V84.9655C186.884 84.9679 186.872 84.9716 186.861 84.9765C186.848 84.9801 186.836 84.9838 186.825 84.9875C186.825 84.9875 186.825 84.9875 186.824 84.9875V84.9887C186.811 84.9924 186.799 84.9961 186.787 85.0009C186.773 85.0046 186.761 85.0095 186.747 85.0132H186.746C186.733 85.0181 186.72 85.0218 186.706 85.0267C186.692 85.0315 186.677 85.0352 186.664 85.0401C186.634 85.0499 186.604 85.0597 186.573 85.0695H186.572C186.557 85.0744 186.541 85.0793 186.526 85.0842H186.525V85.0854C186.509 85.0903 186.493 85.0952 186.477 85.1001C186.465 85.1038 186.454 85.1074 186.441 85.1111C186.312 85.1527 186.168 85.1992 186.011 85.2482C185.981 85.2568 185.953 85.2653 185.921 85.2751C185.508 85.4049 185.006 85.5591 184.43 85.7317C184.371 85.7488 184.311 85.7672 184.249 85.7855C184.148 85.8161 184.045 85.8467 183.94 85.8785C183.918 85.8847 183.896 85.892 183.872 85.8981C183.841 85.9079 183.806 85.9177 183.774 85.9275C183.743 85.9373 183.711 85.9459 183.676 85.9556C183.643 85.9654 183.61 85.9752 183.577 85.985C183.545 85.9948 183.51 86.0046 183.476 86.0144C183.443 86.0242 183.408 86.034 183.375 86.0438C183.34 86.0536 183.306 86.0646 183.272 86.0744C183.237 86.0842 183.202 86.094 183.168 86.1037C183.167 86.1037 183.167 86.105 183.167 86.105C183.133 86.1148 183.097 86.1246 183.063 86.1343C183.038 86.1417 183.013 86.149 182.986 86.1576C182.977 86.1588 182.967 86.1625 182.957 86.1662C182.921 86.176 182.886 86.1858 182.85 86.1955C182.672 86.2482 182.488 86.302 182.302 86.3547C182.195 86.3865 182.085 86.4171 181.974 86.4501C181.88 86.4771 181.785 86.504 181.689 86.5321C181.618 86.5529 181.545 86.5737 181.472 86.5946C181.188 86.6753 180.896 86.7573 180.597 86.8418C180.536 86.8589 180.477 86.8748 180.418 86.892C180.313 86.9214 180.209 86.9495 180.104 86.9801C180.01 87.007 179.915 87.0327 179.818 87.0609C179.711 87.0903 179.604 87.1196 179.497 87.1502C175.924 88.138 171.592 89.2445 167.575 90.0486C167.435 90.0768 167.294 90.1037 167.154 90.1331C167.084 90.1465 167.015 90.16 166.945 90.1734C166.804 90.2004 166.666 90.2261 166.527 90.253C166.111 90.3326 165.699 90.4072 165.293 90.4782C165.158 90.5015 165.024 90.5247 164.89 90.548C164.822 90.559 164.756 90.57 164.69 90.581C164.557 90.6031 164.424 90.6239 164.293 90.6471C164.161 90.6679 164.029 90.6875 163.899 90.7071C163.77 90.7267 163.641 90.7463 163.512 90.7646C163.384 90.7842 163.255 90.8026 163.129 90.8197C163.002 90.8368 162.876 90.854 162.752 90.8711C162.627 90.887 162.502 90.9029 162.379 90.9188C162.319 90.9262 162.256 90.9335 162.196 90.9409C161.953 90.9702 161.712 90.9972 161.478 91.0229C161.419 91.029 161.36 91.0351 161.302 91.04C161.186 91.051 161.071 91.062 160.956 91.0731C160.727 91.0926 160.504 91.111 160.286 91.1245C160.122 91.1367 159.961 91.1453 159.802 91.1526C159.697 91.1587 159.592 91.1624 159.49 91.1661C159.336 91.1722 159.185 91.1759 159.039 91.1771C158.842 91.1808 158.65 91.1795 158.467 91.1759C158.374 91.1746 158.284 91.171 158.194 91.1673C158.15 91.1661 158.106 91.1649 158.061 91.1612C157.973 91.1575 157.888 91.1526 157.803 91.1465C157.774 91.144 157.742 91.1416 157.708 91.1392C157.701 91.1392 157.694 91.1379 157.686 91.1379C157.667 91.1355 157.646 91.1343 157.625 91.133C157.545 91.1269 157.462 91.122 157.373 91.1147C157.349 91.1134 157.326 91.111 157.3 91.1098C157.271 91.1073 157.241 91.1049 157.209 91.1024C157.164 91.1 157.115 91.0963 157.067 91.0926C157.041 91.0902 157.015 91.089 156.988 91.0865C156.962 91.0853 156.935 91.0829 156.908 91.0804C156.854 91.0767 156.799 91.0731 156.743 91.0682C156.688 91.0645 156.63 91.0596 156.572 91.0559C156.543 91.0535 156.513 91.0523 156.483 91.0498C156.409 91.0437 156.335 91.0388 156.258 91.0327C156.222 91.0302 156.185 91.0278 156.149 91.0241C156.073 91.0192 155.996 91.0131 155.916 91.007C155.883 91.0045 155.849 91.0033 155.814 90.9996C155.715 90.9923 155.617 90.9849 155.514 90.9776C155.23 90.9568 154.927 90.9335 154.606 90.909C154.568 90.9054 154.528 90.9029 154.487 90.8993C154.407 90.8944 154.327 90.8882 154.244 90.8821C154.122 90.8723 153.996 90.8638 153.869 90.854C153.817 90.8491 153.764 90.8454 153.714 90.8417C153.593 90.8332 153.47 90.8234 153.347 90.8148C153.303 90.8111 153.256 90.8075 153.212 90.805C153.127 90.7977 153.042 90.7915 152.955 90.7854L152.672 90.7634C152.622 90.7597 152.571 90.7561 152.521 90.7524C152.474 90.7487 152.426 90.745 152.38 90.7414C152.303 90.7365 152.228 90.7303 152.151 90.7242C151.711 90.6912 151.252 90.6557 150.775 90.6202C150.705 90.6141 150.637 90.6092 150.566 90.6043C150.46 90.5957 150.353 90.5871 150.246 90.5798C149.998 90.5602 149.744 90.5419 149.487 90.5223C149.467 90.5198 149.447 90.5186 149.428 90.5174C149.204 90.5002 148.979 90.4831 148.75 90.466C148.739 90.4647 148.728 90.4635 148.718 90.4635C147.355 90.3583 145.884 90.2444 144.332 90.1245C144.254 90.1184 144.176 90.1122 144.096 90.1061C143.783 90.0829 143.464 90.0584 143.145 90.0327C142.943 90.0168 142.741 90.0009 142.538 89.985C142.527 89.985 142.516 89.9837 142.505 89.9825C142.274 89.9654 142.04 89.947 141.807 89.9286C141.779 89.9274 141.75 89.9238 141.72 89.9225C141.309 89.8907 140.892 89.8577 140.47 89.8246C140.362 89.816 140.254 89.8075 140.147 89.7989C140.114 89.7965 140.082 89.794 140.047 89.7916C139.68 89.7634 139.307 89.734 138.933 89.7034C138.77 89.6912 138.608 89.679 138.443 89.6655C138.333 89.6569 138.225 89.6484 138.117 89.641C137.896 89.6227 137.676 89.6055 137.453 89.5884C137.12 89.5627 136.787 89.537 136.451 89.5088C136.422 89.5076 136.392 89.5039 136.361 89.5027C136.222 89.4905 136.085 89.4807 135.947 89.4697C135.937 89.4684 135.927 89.4684 135.917 89.4672C135.506 89.4354 135.092 89.4011 134.676 89.3693C134.665 89.3681 134.653 89.3668 134.641 89.3656C134.598 89.362 134.555 89.3595 134.512 89.3558C143.855 84.1699 146.525 75.2655 146.525 75.2655H146.532C151.277 75.6706 155.828 76.066 159.865 76.4307C159.866 76.4307 159.866 76.4307 159.866 76.4307C160.08 76.4491 160.292 76.4687 160.502 76.487C162.871 76.7024 165.052 76.9044 166.974 77.0904C167.894 77.181 168.756 77.2655 169.55 77.3462C172.427 77.6376 174.434 77.8726 175.217 78.0231C177.252 78.4148 179.525 78.7807 181.601 79.0867C181.772 79.1124 181.942 79.1369 182.11 79.1614C182.118 79.1638 182.127 79.1638 182.136 79.1651C182.392 79.203 182.646 79.2397 182.895 79.2752C182.903 79.2764 182.91 79.2777 182.917 79.2789C183.205 79.3193 183.487 79.3597 183.761 79.3976C184.162 79.4527 184.547 79.5053 184.911 79.5543C185.068 79.5751 185.22 79.5959 185.37 79.6155C187.163 79.8529 188.356 79.9937 188.356 79.9937C188.356 79.9937 188.363 80.0255 188.374 80.0855C188.375 80.0904 188.377 80.0953 188.378 80.1002C188.38 80.1161 188.384 80.1332 188.388 80.1528C188.394 80.1908 188.402 80.236 188.41 80.2862C188.421 80.3523 188.433 80.4294 188.444 80.5163C188.444 80.5163 188.444 80.5176 188.445 80.5176C188.448 80.5384 188.452 80.5604 188.454 80.5836C188.464 80.6559 188.474 80.7318 188.482 80.815C188.489 80.8713 188.495 80.9325 188.501 80.9924C188.503 81.0255 188.507 81.061 188.509 81.0953C188.513 81.1332 188.516 81.1724 188.518 81.2103C188.522 81.2654 188.525 81.3229 188.529 81.3805C188.53 81.4037 188.532 81.427 188.532 81.4514C188.534 81.4918 188.535 81.5347 188.536 81.5751C188.538 81.5971 188.538 81.6179 188.538 81.6387C188.539 81.6803 188.54 81.7244 188.54 81.766C188.541 81.7905 188.541 81.8137 188.543 81.8358Z" fill="#CA0F2E"/>
<path opacity="0.5" d="M187.019 84.9251C186.436 85.1246 184.693 85.6705 182.303 86.3632C181.504 83.0365 178.931 81.6473 178.931 81.6473L188.455 80.5885C188.614 81.7623 188.748 84.3339 187.019 84.9251Z" fill="#CA0F2E"/>
<path d="M136.097 80.5347C135.786 80.5078 135.557 80.2018 135.589 79.8554L135.649 79.1871C135.681 78.8395 135.962 78.5776 136.273 78.6045C136.584 78.6314 136.812 78.9374 136.781 79.2838L136.72 79.9521C136.688 80.2997 136.408 80.5616 136.097 80.5347Z" fill="#CA0F2E"/>
<path d="M133.179 80.2838C132.868 80.2568 132.639 79.9509 132.671 79.6045L132.732 78.9362C132.764 78.5886 133.044 78.3266 133.355 78.3536C133.666 78.3805 133.895 78.6865 133.863 79.0329L133.803 79.7012C133.771 80.0488 133.49 80.3107 133.179 80.2838Z" fill="#CA0F2E"/>
<path d="M130.263 80.0341C129.952 80.0072 129.723 79.7012 129.755 79.3548L129.815 78.6865C129.847 78.3389 130.128 78.077 130.439 78.1039C130.75 78.1308 130.978 78.4368 130.946 78.7832L130.886 79.4515C130.854 79.7979 130.574 80.0598 130.263 80.0341Z" fill="#CA0F2E"/>
<path d="M127.345 79.7832C127.034 79.7562 126.805 79.4502 126.837 79.1039L126.898 78.4356C126.93 78.0892 127.21 77.826 127.521 77.853C127.832 77.8799 128.061 78.1859 128.029 78.5323L127.968 79.2006C127.937 79.5469 127.656 79.8089 127.345 79.7832Z" fill="#CA0F2E"/>
<path d="M124.429 79.5322C124.118 79.5053 123.889 79.1993 123.921 78.8529L123.981 78.1847C124.013 77.8383 124.293 77.5751 124.604 77.6021C124.916 77.629 125.144 77.935 125.112 78.2814L125.052 78.9496C125.02 79.2973 124.74 79.5592 124.429 79.5322Z" fill="#CA0F2E"/>
<path d="M121.511 79.2813C121.2 79.2544 120.971 78.9484 121.003 78.602L121.063 77.9337C121.095 77.5874 121.376 77.3242 121.687 77.3511C121.998 77.3781 122.227 77.6841 122.195 78.0304L122.134 78.6987C122.102 79.0463 121.822 79.3083 121.511 79.2813Z" fill="#CA0F2E"/>
<path d="M118.595 79.0304C118.283 79.0035 118.055 78.6975 118.087 78.3511L118.147 77.6828C118.179 77.3365 118.459 77.0733 118.77 77.1002C119.081 77.1272 119.31 77.4331 119.278 77.7795L119.218 78.4478C119.186 78.7954 118.906 79.0574 118.595 79.0304Z" fill="#CA0F2E"/>
<path d="M115.677 78.7795C115.366 78.7526 115.137 78.4466 115.169 78.1002L115.229 77.4319C115.261 77.0843 115.542 76.8224 115.853 76.8493C116.164 76.8762 116.392 77.1822 116.36 77.5286L116.3 78.1969C116.268 78.5445 115.988 78.8064 115.677 78.7795Z" fill="#CA0F2E"/>
<path d="M112.76 78.5286C112.449 78.5017 112.221 78.1957 112.253 77.8493L112.313 77.181C112.345 76.8346 112.625 76.5715 112.936 76.5984C113.247 76.6253 113.476 76.9313 113.444 77.2777L113.384 77.946C113.352 78.2936 113.071 78.5555 112.76 78.5286Z" fill="#CA0F2E"/>
<path d="M109.901 78.2826C109.589 78.2557 109.361 77.9497 109.393 77.6033L109.453 76.935C109.485 76.5886 109.765 76.3255 110.076 76.3524C110.387 76.3793 110.616 76.6853 110.584 77.0317L110.524 77.7C110.492 78.0476 110.212 78.3095 109.901 78.2826Z" fill="#CA0F2E"/>
<path d="M106.984 78.0329C106.673 78.006 106.444 77.7 106.476 77.3536L106.537 76.6853C106.568 76.3389 106.849 76.0758 107.16 76.1027C107.471 76.1296 107.7 76.4356 107.668 76.782L107.607 77.4503C107.575 77.7967 107.295 78.0586 106.984 78.0329Z" fill="#CA0F2E"/>
<path d="M104.066 77.782C103.755 77.7551 103.527 77.4491 103.559 77.1027L103.619 76.4344C103.651 76.0868 103.931 75.8249 104.242 75.8518C104.553 75.8787 104.782 76.1847 104.75 76.5311L104.69 77.1994C104.658 77.5458 104.377 77.8089 104.066 77.782Z" fill="#CA0F2E"/>
<path d="M100.453 77.4368C100.142 77.4099 99.913 77.1039 99.945 76.7575L100.005 76.0892C100.037 75.7428 100.318 75.4797 100.629 75.5066C100.94 75.5336 101.168 75.8395 101.136 76.1859L101.076 76.8542C101.044 77.2018 100.764 77.4637 100.453 77.4368Z" fill="#CA0F2E"/>
<path d="M167.925 83.6093C167.614 83.5824 167.385 83.2764 167.417 82.93L167.478 82.2617C167.51 81.9153 167.791 81.6522 168.102 81.6791C168.413 81.706 168.641 82.012 168.609 82.3584L168.549 83.0267C168.516 83.3743 168.236 83.6362 167.925 83.6093Z" fill="white"/>
<path d="M165.008 83.3584C164.697 83.3315 164.468 83.0255 164.5 82.6791L164.561 82.0108C164.593 81.6644 164.873 81.4013 165.184 81.4282C165.495 81.4551 165.724 81.7611 165.692 82.1075L165.632 82.7758C165.6 83.1234 165.319 83.3853 165.008 83.3584Z" fill="white"/>
<path d="M162.09 83.1087C161.779 83.0818 161.551 82.7758 161.583 82.4294L161.643 81.7611C161.675 81.4147 161.955 81.1516 162.266 81.1785C162.577 81.2054 162.806 81.5114 162.774 81.8578L162.714 82.5261C162.682 82.8725 162.402 83.1344 162.09 83.1087Z" fill="white"/>
<path d="M89.5345 73.6939L87.5464 75.5617L86.3599 75.6388C86.4632 75.574 86.5541 75.5079 86.6304 75.4381C86.6439 75.4259 86.6562 75.4148 86.6709 75.4014C86.8886 75.2043 87.2464 74.8763 87.7615 74.4907C88.1058 74.2337 88.5189 73.9522 89.0095 73.6646C89.012 73.6633 89.0144 73.6621 89.0169 73.6597L89.5345 73.6939Z" fill="#CA0F2E"/>
<path d="M89.9673 73.7625L88.0259 75.6486L90.2304 76.1137L90.9264 73.962L89.9673 73.7625Z" fill="#CA0F2E"/>
<path d="M91.1342 74.0281L90.6214 76.0501L92.2555 75.5874L92.36 74.1786L91.1342 74.0281Z" fill="#CA0F2E"/>
<path d="M130.917 89.5247C131.774 89.1906 131.999 87.7072 131.289 87.0695C130.581 86.433 129.611 85.7929 128.519 85.7145C126.277 85.553 127.186 90.0988 127.93 90.193C128.369 90.2493 129.776 89.969 130.917 89.5247Z" fill="#CA0F2E"/>
<path d="M178.74 80.7452C178.829 80.624 187.178 77.8848 192.634 79.0757L187.379 82.3694L178.931 81.6461C178.931 81.6473 178.29 81.3499 178.74 80.7452Z" fill="white"/>
<path d="M174.708 61.5656C174.708 61.5656 169.12 73.8604 168.056 75.7257C166.993 77.5923 164.666 78.7832 164.666 78.7832L164.653 78.7881L149.846 84.777C149.846 84.777 131.377 83.3266 127.357 82.8847C127.357 82.8847 127.357 82.8847 127.356 82.8847C126.992 82.8443 126.746 82.8113 126.644 82.7905C125.423 82.531 124.852 81.968 125.086 81.5237C125.321 81.0806 153.716 77.6902 156.86 77.3414C156.89 77.3377 156.92 77.334 156.95 77.3316C160.01 76.9729 160.294 75.9362 160.294 75.9362L172.009 62.5693C172.159 62.322 172.405 62.136 172.688 61.9965C173.532 61.5803 174.708 61.5656 174.708 61.5656Z" fill="#D7E2FF"/>
<path d="M172.69 61.9977C169.538 65.8067 160.818 76.312 159.989 77.0268C159.099 77.7967 133.618 81.8737 127.359 82.8859C127.359 82.8859 127.359 82.8859 127.357 82.8859C126.993 82.8456 126.748 82.8125 126.646 82.7917C125.425 82.5322 124.853 81.9692 125.088 81.5249C125.323 81.0818 153.717 77.6914 156.861 77.3426C160.005 76.9938 160.295 75.9375 160.295 75.9375L172.01 62.5705C172.16 62.3245 172.406 62.1385 172.69 61.9977Z" fill="#CA0F2E"/>
<path d="M174.708 61.5656C174.708 61.5656 169.12 73.8604 168.056 75.7257C166.993 77.5923 164.666 78.7832 164.666 78.7832L164.653 78.7881C161.436 78.711 158.725 77.9729 156.95 77.3328C160.01 76.9742 160.294 75.9375 160.294 75.9375L172.009 62.5705C172.159 62.3233 172.405 62.1372 172.688 61.9977C173.532 61.5803 174.708 61.5656 174.708 61.5656Z" fill="#D7E2FF"/>
<path d="M129.027 84.6423L128.465 90.8442C128.465 90.8442 126.085 91.6973 122.362 91.499C120.083 91.3778 118.565 90.8809 117.73 90.5137C117.201 90.2812 116.947 90.1 116.947 90.1L117.536 83.5995C117.746 83.422 118.038 83.2923 118.393 83.203C121.335 82.4514 128.57 84.3939 128.57 84.3939L129.027 84.6423Z" fill="#E9F0FF"/>
<path d="M118.394 83.2005L117.731 90.5125C117.203 90.2799 116.948 90.0988 116.948 90.0988L117.537 83.5983C117.746 83.4208 118.039 83.2911 118.394 83.2005Z" fill="#CA0F2E"/>
<path d="M81.8291 196.225L125.578 184.6C126.504 184.354 127.12 183.619 126.946 182.965L102.416 91.1637C102.242 90.5101 101.341 90.1771 100.415 90.4232L56.6655 102.048C55.7396 102.294 55.1236 103.03 55.2982 103.684L79.8274 195.485C80.002 196.139 80.9032 196.471 81.8291 196.225Z" fill="#FFE3CA"/>
<path d="M81.8291 196.225L85.4254 195.27L60.2618 101.092L56.6655 102.048C55.7396 102.294 55.1236 103.03 55.2982 103.684L79.8274 195.485C80.002 196.139 80.9032 196.471 81.8291 196.225Z" fill="#F2BE8F"/>
<path opacity="0.5" d="M94.6399 131.95L87.2751 104.392L81.6596 105.879L89.0244 133.437L94.6399 131.95Z" fill="#EABC92"/>
<path opacity="0.5" d="M110.212 140.309L99.7287 101.083L94.1131 102.57L104.596 141.796L110.212 140.309Z" fill="#EABC92"/>
<path d="M97.9272 122.565L92.6858 102.952L91.4346 103.284L96.676 122.896L97.9272 122.565Z" fill="#F2BE8F"/>
<path d="M85.557 125.852L80.3155 106.239L79.0643 106.571L84.3058 126.183L85.557 125.852Z" fill="#F2BE8F"/>
<path d="M70.3858 108.374L70.5038 108.696C70.5075 108.707 70.5137 108.718 70.5198 108.728L72.074 110.965C72.0924 110.992 72.101 111.026 72.0973 111.059L71.983 115.009C71.9719 115.113 71.517 114.668 71.4309 114.608C70.4879 113.961 67.9624 111.746 66.9075 110.95C66.739 110.823 66.4993 110.959 66.5226 111.168C66.5337 111.27 66.5743 111.365 66.6394 111.444L70.2801 115.862L70.087 116.696C70.0588 116.817 70.1362 116.938 70.2567 116.966L70.9047 117.114C71.0239 117.141 71.1444 117.068 71.1752 116.951L71.6436 117.521C71.6657 117.548 71.6768 117.582 71.6744 117.617L71.442 121.204C71.4211 121.521 71.5121 121.836 71.6977 122.095C71.7727 122.2 71.8551 122.312 71.9301 122.416C72.0875 122.633 72.3936 122.675 72.6051 122.509L72.7109 122.426C73.0563 122.155 73.2617 121.745 73.2715 121.306L73.333 118.443C73.3342 118.387 73.3699 118.337 73.4227 118.316L74.5121 117.909L74.4715 118.085C74.4433 118.206 74.5207 118.327 74.6412 118.355L75.2904 118.503C75.4121 118.532 75.5339 118.454 75.5621 118.333L75.7687 117.439L77.4691 116.803C77.6068 116.752 77.7249 116.661 77.8109 116.543C77.9204 116.392 78.0433 116.231 78.0126 116.199C77.9155 116.097 74.8736 115.877 73.6982 115.851C73.6318 115.85 73.6416 115.288 73.6428 115.222L73.4818 111.404C73.483 111.354 73.5113 111.309 73.5555 111.284L74.5121 110.778C74.6191 110.721 74.7039 110.63 74.7519 110.518L74.7543 110.513C74.7888 110.435 74.7433 110.344 74.6597 110.325L73.1424 109.956C73.0982 109.945 73.0625 109.915 73.0465 109.872L72.9039 109.506C72.8596 109.392 72.6986 109.387 72.6481 109.499L72.5928 109.62L70.5985 108.217C70.4866 108.135 70.3403 108.247 70.3858 108.374Z" fill="#F2BE8F"/>
<path d="M113.273 206.989H55.7482V127.746H113.378C115.556 127.746 117.322 129.503 117.322 131.672V202.958C117.321 205.185 115.508 206.989 113.273 206.989Z" fill="#C2CFFF"/>
<path d="M64.7693 137.771V140.253H63.6037V133.573H66.171C66.5607 133.573 66.9075 133.626 67.2099 133.731C67.5124 133.836 67.7681 133.984 67.9772 134.174C68.1862 134.364 68.3448 134.589 68.4542 134.848C68.5636 135.108 68.6178 135.392 68.6178 135.698C68.6178 136.022 68.5636 136.312 68.4542 136.569C68.3448 136.826 68.1862 137.043 67.9772 137.22C67.7681 137.398 67.5124 137.534 67.2099 137.629C66.9075 137.725 66.5607 137.771 66.171 137.771H64.7693ZM64.7693 136.84H66.171C66.3948 136.84 66.5878 136.813 66.7501 136.758C66.9112 136.703 67.0439 136.624 67.1485 136.524C67.253 136.422 67.3292 136.302 67.3771 136.164C67.4251 136.026 67.4485 135.873 67.4485 135.708C67.4485 135.552 67.4251 135.402 67.3771 135.258C67.3292 135.115 67.253 134.987 67.1485 134.875C67.0439 134.764 66.9112 134.674 66.7501 134.61C66.589 134.544 66.396 134.51 66.171 134.51H64.7693V136.84Z" fill="white"/>
<path d="M72.5719 138.698H69.9727L69.4292 140.253H68.2169L70.7522 133.573H71.7985L74.3375 140.253H73.1203L72.5719 138.698ZM70.2997 137.761H72.2449L71.2723 134.99L70.2997 137.761Z" fill="white"/>
<path d="M78.6052 138.532C78.6052 138.398 78.5856 138.278 78.545 138.173C78.5044 138.067 78.4319 137.969 78.3261 137.881C78.2204 137.793 78.0741 137.707 77.8884 137.627C77.7028 137.546 77.463 137.46 77.1716 137.372C76.8519 137.278 76.5568 137.169 76.2863 137.047C76.0158 136.924 75.7835 136.782 75.588 136.619C75.3925 136.458 75.24 136.271 75.1293 136.06C75.0187 135.85 74.9634 135.607 74.9634 135.335C74.9634 135.066 75.0212 134.819 75.1367 134.592C75.2523 134.366 75.4134 134.17 75.6224 134.005C75.8314 133.84 76.0822 133.711 76.3736 133.619C76.665 133.528 76.9884 133.482 77.3413 133.482C77.7188 133.482 78.0581 133.536 78.3593 133.645C78.6606 133.754 78.9151 133.901 79.1216 134.088C79.3294 134.274 79.488 134.491 79.5987 134.737C79.7094 134.983 79.7647 135.246 79.7647 135.524H78.6028C78.6028 135.361 78.577 135.213 78.5265 135.076C78.4761 134.94 78.3987 134.823 78.2942 134.722C78.1897 134.623 78.0581 134.546 77.8983 134.491C77.7384 134.436 77.5491 134.409 77.3314 134.409C77.1261 134.409 76.9478 134.432 76.7966 134.477C76.6466 134.523 76.5212 134.588 76.4204 134.67C76.3208 134.752 76.247 134.85 76.199 134.963C76.1511 135.076 76.1277 135.198 76.1277 135.331C76.1277 135.578 76.2458 135.785 76.4806 135.95C76.7155 136.115 77.0745 136.268 77.5565 136.409C77.9339 136.519 78.2622 136.641 78.5376 136.776C78.8143 136.911 79.0442 137.062 79.2262 137.233C79.4094 137.403 79.5446 137.594 79.6344 137.807C79.7229 138.02 79.7684 138.258 79.7684 138.525C79.7684 138.807 79.7118 139.06 79.5999 139.284C79.488 139.509 79.3282 139.7 79.1204 139.858C78.9126 140.016 78.6618 140.136 78.3667 140.22C78.0716 140.305 77.7433 140.346 77.3806 140.346C77.0585 140.346 76.74 140.302 76.4265 140.215C76.113 140.128 75.8314 139.996 75.583 139.821C75.3347 139.646 75.1343 139.426 74.9818 139.163C74.8293 138.9 74.7531 138.591 74.7531 138.236H75.9187C75.9187 138.447 75.9568 138.629 76.0318 138.78C76.1068 138.931 76.2101 139.055 76.3404 139.152C76.4708 139.248 76.6257 139.318 76.804 139.362C76.9823 139.406 77.1741 139.428 77.3806 139.428C77.7864 139.428 78.0913 139.346 78.2954 139.182C78.5032 139.018 78.6052 138.802 78.6052 138.532Z" fill="white"/>
<path d="M84.3029 138.532C84.3029 138.398 84.2832 138.278 84.2426 138.173C84.2033 138.067 84.1295 137.969 84.0238 137.881C83.918 137.793 83.7717 137.707 83.5861 137.627C83.4004 137.546 83.1607 137.46 82.8693 137.372C82.5496 137.278 82.2545 137.169 81.984 137.047C81.7135 136.924 81.4811 136.782 81.2856 136.619C81.0901 136.458 80.9377 136.271 80.827 136.06C80.7163 135.85 80.661 135.607 80.661 135.335C80.661 135.066 80.7188 134.819 80.8344 134.592C80.95 134.366 81.111 134.17 81.3213 134.005C81.5303 133.84 81.7811 133.711 82.0725 133.619C82.3639 133.528 82.6873 133.482 83.0402 133.482C83.4176 133.482 83.757 133.536 84.0582 133.645C84.3594 133.754 84.614 133.901 84.8205 134.088C85.0283 134.274 85.1869 134.491 85.2976 134.737C85.4082 134.983 85.4636 135.246 85.4636 135.524H84.3017C84.3017 135.361 84.2758 135.213 84.2254 135.076C84.175 134.94 84.0976 134.823 83.993 134.722C83.8885 134.623 83.757 134.546 83.5971 134.491C83.4373 134.436 83.2479 134.409 83.0303 134.409C82.825 134.409 82.6467 134.432 82.4955 134.477C82.3442 134.523 82.2201 134.588 82.1192 134.67C82.0196 134.752 81.9459 134.85 81.8979 134.963C81.85 135.076 81.8266 135.198 81.8266 135.331C81.8266 135.578 81.9446 135.785 82.1795 135.95C82.4143 136.115 82.7734 136.268 83.2553 136.409C83.6328 136.519 83.9611 136.641 84.2365 136.776C84.5131 136.911 84.7431 137.062 84.925 137.233C85.1082 137.403 85.2435 137.594 85.3332 137.807C85.4218 138.02 85.4673 138.258 85.4673 138.525C85.4673 138.807 85.4107 139.06 85.2988 139.284C85.1869 139.509 85.0271 139.7 84.8193 139.858C84.6115 140.016 84.3607 140.136 84.0656 140.22C83.7705 140.305 83.4422 140.346 83.0795 140.346C82.7574 140.346 82.4389 140.302 82.1254 140.215C81.8119 140.128 81.5303 139.996 81.2819 139.821C81.0336 139.645 80.8331 139.426 80.6807 139.163C80.5282 138.9 80.452 138.591 80.452 138.236H81.6176C81.6176 138.447 81.6557 138.629 81.7307 138.78C81.8057 138.931 81.909 139.055 82.0393 139.152C82.1696 139.248 82.3246 139.318 82.5029 139.362C82.6811 139.406 82.8729 139.428 83.0795 139.428C83.4853 139.428 83.7902 139.346 83.9943 139.182C84.2008 139.018 84.3029 138.802 84.3029 138.532Z" fill="white"/>
<path d="M87.6583 137.771V140.253H86.4927V133.573H89.06C89.4497 133.573 89.7964 133.626 90.0989 133.731C90.4014 133.836 90.6571 133.984 90.8661 134.174C91.0752 134.364 91.2338 134.589 91.3432 134.848C91.4526 135.108 91.5067 135.392 91.5067 135.698C91.5067 136.022 91.4526 136.312 91.3432 136.569C91.2338 136.826 91.0752 137.043 90.8661 137.22C90.6571 137.398 90.4014 137.534 90.0989 137.629C89.7964 137.725 89.4497 137.771 89.06 137.771H87.6583ZM87.6583 136.84H89.06C89.2837 136.84 89.4768 136.813 89.6378 136.758C89.7989 136.703 89.9317 136.624 90.0362 136.524C90.1407 136.422 90.2169 136.302 90.2649 136.164C90.3128 136.025 90.3362 135.873 90.3362 135.708C90.3362 135.552 90.3128 135.402 90.2649 135.258C90.2169 135.115 90.1407 134.987 90.0362 134.875C89.9317 134.764 89.7989 134.674 89.6378 134.61C89.4768 134.544 89.2837 134.51 89.06 134.51H87.6583V136.84Z" fill="white"/>
<path d="M97.8806 137.087C97.8806 137.595 97.8142 138.05 97.6802 138.452C97.5462 138.854 97.3581 139.195 97.1158 139.475C96.8736 139.755 96.581 139.969 96.2404 140.12C95.8998 140.269 95.5211 140.345 95.1068 140.345C94.6949 140.345 94.3187 140.27 93.9781 140.12C93.6375 139.971 93.3424 139.755 93.0953 139.475C92.8481 139.195 92.6563 138.854 92.5186 138.452C92.3821 138.049 92.3133 137.595 92.3133 137.087V136.748C92.3133 136.24 92.3821 135.785 92.5186 135.381C92.6551 134.977 92.8457 134.634 93.0904 134.353C93.335 134.071 93.6277 133.856 93.9682 133.705C94.3088 133.556 94.6863 133.48 95.097 133.48C95.5113 133.48 95.89 133.555 96.233 133.705C96.5761 133.854 96.8687 134.071 97.1134 134.353C97.3581 134.634 97.5462 134.977 97.6802 135.381C97.8142 135.785 97.8806 136.24 97.8806 136.748V137.087ZM96.715 136.738C96.715 136.365 96.6794 136.036 96.6068 135.749C96.5343 135.463 96.4298 135.224 96.2908 135.031C96.1531 134.837 95.9822 134.692 95.7818 134.592C95.5802 134.493 95.3527 134.443 95.097 134.443C94.8486 134.443 94.6236 134.493 94.4244 134.592C94.2252 134.692 94.0543 134.838 93.9154 135.031C93.7752 135.223 93.6682 135.463 93.5932 135.749C93.5182 136.036 93.4801 136.365 93.4801 136.738V137.087C93.4801 137.46 93.5182 137.791 93.5932 138.078C93.6682 138.366 93.7764 138.607 93.9178 138.8C94.0592 138.995 94.2301 139.142 94.4318 139.241C94.6334 139.34 94.8584 139.39 95.1068 139.39C95.6232 139.39 96.0203 139.195 96.2982 138.803C96.5761 138.411 96.715 137.84 96.715 137.087V136.738Z" fill="white"/>
<path d="M101.509 137.679H100.209V140.253H99.0437V133.573H101.403C101.787 133.573 102.13 133.617 102.431 133.704C102.732 133.791 102.987 133.919 103.193 134.089C103.401 134.26 103.559 134.47 103.666 134.721C103.773 134.972 103.827 135.262 103.827 135.592C103.827 136.039 103.718 136.414 103.502 136.715C103.286 137.016 102.983 137.247 102.596 137.41L104.103 140.195V140.255H102.854L101.509 137.679ZM100.208 136.748H101.407C101.616 136.748 101.799 136.721 101.955 136.666C102.111 136.611 102.243 136.535 102.347 136.437C102.452 136.339 102.531 136.223 102.582 136.088C102.634 135.954 102.661 135.805 102.661 135.643C102.661 135.471 102.636 135.316 102.587 135.178C102.538 135.038 102.463 134.919 102.361 134.82C102.259 134.721 102.13 134.644 101.971 134.59C101.813 134.536 101.623 134.509 101.402 134.509H100.208V136.748Z" fill="white"/>
<path d="M109.551 134.508H107.459V140.252H106.302V134.508H104.227V133.572H109.551V134.508Z" fill="white"/>
<path d="M91.2043 198.485H81.9508C81.6532 198.485 81.411 198.244 81.411 197.948C81.411 197.651 81.652 197.41 81.9508 197.41H91.2043C91.5018 197.41 91.744 197.65 91.744 197.948C91.744 198.245 91.5018 198.485 91.2043 198.485Z" fill="white"/>
<path d="M97.797 201.047H75.3568C75.0593 201.047 74.817 200.807 74.817 200.509C74.817 200.213 75.058 199.972 75.3568 199.972H97.797C98.0946 199.972 98.3368 200.212 98.3368 200.509C98.3368 200.806 98.0958 201.047 97.797 201.047Z" fill="white"/>
<path d="M86.5775 190.658C80.7151 190.658 75.2031 188.385 71.0571 184.257C66.9111 180.131 64.6291 174.644 64.6291 168.807C64.6291 162.971 66.9124 157.484 71.0571 153.357C75.2031 149.23 80.7139 146.958 86.5775 146.958C92.4399 146.958 97.9519 149.231 102.098 153.357C106.244 157.484 108.526 162.97 108.526 168.807C108.526 174.643 106.243 180.13 102.098 184.257C97.9519 188.385 92.4399 190.658 86.5775 190.658ZM86.5775 147.199C80.779 147.199 75.3285 149.447 71.228 153.529C67.1275 157.61 64.8701 163.036 64.8701 168.809C64.8701 174.581 67.1275 180.007 71.228 184.089C75.3285 188.17 80.779 190.418 86.5775 190.418C92.376 190.418 97.8265 188.17 101.927 184.089C106.026 180.007 108.285 174.581 108.285 168.809C108.285 163.036 106.027 157.61 101.927 153.529C97.8265 149.447 92.376 147.199 86.5775 147.199Z" fill="white"/>
<path d="M104.176 168.809C104.176 169.886 104.079 170.939 103.892 171.964C103.442 174.422 102.478 176.699 101.114 178.685C97.9458 183.299 92.617 186.327 86.5775 186.327C79.3946 186.327 73.2162 182.043 70.4817 175.9C70.1215 175.091 69.8202 174.249 69.5854 173.381C69.1895 171.924 68.9792 170.39 68.9792 168.809C68.9792 167.529 69.1169 166.281 69.3788 165.08C69.3813 165.067 69.385 165.053 69.3874 165.039C70.119 161.718 71.7961 158.751 74.1248 156.431C74.7851 155.772 75.4982 155.165 76.2568 154.618C76.6183 154.357 76.9921 154.109 77.3732 153.875C80.0512 152.235 83.2037 151.289 86.5788 151.289C87.0263 151.289 87.4702 151.305 87.9091 151.339C88.5288 151.384 89.1386 151.462 89.7387 151.57C92.2629 152.025 94.599 153.017 96.6253 154.422H96.6265C97.8892 155.297 99.0302 156.331 100.021 157.498C100.541 158.111 101.021 158.759 101.454 159.44C101.723 159.864 101.975 160.299 102.209 160.746C102.769 161.821 103.22 162.962 103.55 164.153C103.957 165.636 104.176 167.198 104.176 168.809Z" fill="white"/>
<path d="M80.5983 160.967C79.8962 162.074 80.8909 163.996 78.7847 163.472C76.6773 162.948 75.39 162.714 75.2732 163.88C75.1552 165.045 76.8531 165.045 76.8531 166.269C76.8531 167.493 76.0921 167.897 74.9215 167.315C73.751 166.734 73.4141 165.889 72.0531 166.413C70.692 166.937 69.9026 166.588 69.5952 165.539C69.5411 165.355 69.4649 165.205 69.3764 165.08C69.3788 165.067 69.3825 165.053 69.385 165.039C70.1165 161.718 71.7936 158.751 74.1223 156.431C74.7826 155.772 75.4957 155.165 76.2544 154.618C76.6158 154.357 76.9896 154.109 77.3708 153.875C77.9191 153.894 78.5757 154.103 79.1339 154.79C80.3635 156.306 81.1823 155.548 80.8897 157.296C80.5971 159.044 81.0655 159.277 82.0602 159.219C83.0549 159.16 84.2254 159.16 84.3422 159.918C84.4603 160.675 81.3004 159.859 80.5983 160.967Z" fill="#94B0ED"/>
<path d="M87.8845 171.454C87.8845 171.454 86.3341 171.949 85.9234 170.871C85.514 169.793 85.9824 169.56 84.6066 169.239C83.2307 168.919 83.1139 167.987 82.236 168.104C81.3582 168.22 81.7971 168.57 80.7729 169.328C79.7487 170.085 78.8118 169.735 78.8413 171.133C78.8708 172.531 80.3917 172.75 80.6991 173.668C81.0065 174.586 80.479 174.979 81.1381 175.677C81.7971 176.376 83.0254 176.07 82.4549 177.032C81.8844 177.993 81.0065 178.736 81.4454 180.222C81.8844 181.708 81.577 181.795 82.3233 182.844C83.0697 183.893 84.5181 184.242 84.7369 183.543C84.9558 182.844 83.7275 181.926 84.1221 181.227C84.5168 180.528 85.1759 181.008 85.439 179.96C85.7021 178.911 86.7706 178.911 86.8579 178.183C86.9451 177.455 85.5705 176.348 86.0968 175.882C86.623 175.416 87.6767 176.726 88.4968 175.561C89.3157 174.396 88.7599 173.465 89.6083 172.357C90.4592 171.249 88.4698 170.812 87.8845 171.454Z" fill="#94B0ED"/>
<path d="M104.176 168.809C104.176 169.886 104.079 170.939 103.892 171.964C103.442 174.422 102.478 176.699 101.114 178.685C100.65 178.837 100.174 178.833 99.7077 178.647C97.513 177.773 99.1372 175.413 100.015 174.233C100.893 173.053 98.654 173.578 97.031 172.485C95.4068 171.394 97.2068 168.466 95.5383 168.946C93.8699 169.427 91.851 170.037 90.8858 168.422C89.9206 166.805 91.7637 166.543 90.9301 165.188C90.0964 163.833 91.4133 163.047 93.0805 162.916C94.749 162.785 94.5289 161.605 96.592 161.43C98.6552 161.255 98.6109 163.877 100.893 163.702C103.175 163.527 103.073 164.052 103.073 164.052C103.238 164.047 103.396 164.082 103.55 164.151C103.957 165.636 104.176 167.198 104.176 168.809Z" fill="#94B0ED"/>
<path d="M102.207 160.747C100.309 161.667 99.5479 159.166 97.9249 159.918C96.2896 160.675 96.5761 159.219 95.2888 158.286C94.0014 157.355 91.4256 159.044 91.5424 157.587C91.6592 156.132 93.5908 156.538 94.0002 155.374C94.4096 154.209 96.2822 154.5 96.2822 154.5C96.388 154.46 96.5023 154.434 96.6228 154.423C96.6228 154.423 96.6228 154.422 96.624 154.423C97.8868 155.298 99.0278 156.333 100.019 157.499C100.539 158.112 101.018 158.76 101.451 159.442C101.722 159.865 101.974 160.3 102.207 160.747Z" fill="#94B0ED"/>
<path d="M86.2172 155.723C86.2172 155.723 87.2119 154.295 85.632 153.872C84.052 153.451 84.0816 154.002 82.852 153.872C81.6225 153.743 81.1405 154.689 82.0614 155.723C82.9836 156.757 83.7299 158.741 84.5635 157.684C85.3972 156.626 85.2361 155.825 86.2172 155.723Z" fill="#94B0ED"/>
</g>
<defs>
<clipPath id="clip0_4_85">
<rect width="315" height="208" fill="white"/>
</clipPath>
</defs>
</svg>
